<svg width="64" height="64" viewBox="0 0 64 64" fill="none" xmlns="http://www.w3.org/2000/svg">
<g filter="url(#filter0_d_275_26735)">
<path d="M4 8C4 3.58172 7.58172 0 12 0H52C56.4183 0 60 3.58172 60 8V48C60 52.4183 56.4183 56 52 56H12C7.58172 56 4 52.4183 4 48V8Z" fill="#F06A22" shape-rendering="crispEdges"/>
<path d="M30.8691 16.6553C31.561 16.1877 32.4408 16.1933 33.127 16.6699H33.126L41.7656 22.6729C42.0645 22.8805 42.309 23.1658 42.4775 23.501C42.6461 23.8361 42.7344 24.2113 42.7344 24.5918V37.4111C42.7343 38.6547 41.8054 39.6912 40.626 39.6914H23.376C22.1964 39.6914 21.2676 38.6548 21.2676 37.4111V24.4111C21.2676 24.0258 21.3576 23.6458 21.5303 23.3076C21.7029 22.9695 21.9528 22.6827 22.2578 22.4766L30.8691 16.6553ZM31.9756 18.5352L31.9736 18.5361L23.3623 24.3574L23.3633 24.3584C23.3586 24.3616 23.3523 24.3672 23.3477 24.376C23.3429 24.3848 23.3402 24.3961 23.3398 24.4082V37.4111C23.3399 37.4314 23.3472 37.4467 23.3555 37.4561C23.3636 37.4652 23.3708 37.4676 23.375 37.4678H40.626C40.6299 37.4677 40.6366 37.4654 40.6445 37.457C40.6522 37.4489 40.6594 37.4358 40.6611 37.4189V24.5918C40.6611 24.5799 40.6587 24.5687 40.6543 24.5596C40.6499 24.5504 40.6445 24.5437 40.6396 24.54L40.6357 24.5381V24.5371L32 18.5371C31.9948 18.5336 31.9904 18.5323 31.9873 18.5322C31.9844 18.5322 31.9802 18.5325 31.9756 18.5352ZM36.5596 31.8789C37.1465 31.8789 37.5947 32.3933 37.5947 32.9912C37.5947 33.5891 37.1465 34.1025 36.5596 34.1025H27.3887C26.8018 34.1025 26.3536 33.5891 26.3535 32.9912C26.3535 32.3933 26.8017 31.8789 27.3887 31.8789H36.5596ZM36.5771 28.1396C37.164 28.1396 37.6121 28.6532 37.6123 29.251C37.6123 29.8489 37.1641 30.3633 36.5771 30.3633H27.4062C26.8193 30.3633 26.3711 29.8489 26.3711 29.251C26.3713 28.6532 26.8194 28.1396 27.4062 28.1396H36.5771Z" fill="white" stroke="white" stroke-width="0.383333"/>
</g>
<defs>
<filter id="filter0_d_275_26735" x="0" y="0" width="64" height="64" filterUnits="userSpaceOnUse" color-interpolation-filters="sRGB">
<feFlood flood-opacity="0" result="BackgroundImageFix"/>
<feColorMatrix in="SourceAlpha" type="matrix" values="0 0 0 0 0 0 0 0 0 0 0 0 0 0 0 0 0 0 127 0" result="hardAlpha"/>
<feOffset dy="4"/>
<feGaussianBlur stdDeviation="2"/>
<feComposite in2="hardAlpha" operator="out"/>
<feColorMatrix type="matrix" values="0 0 0 0 0 0 0 0 0 0 0 0 0 0 0 0 0 0 0.16 0"/>
<feBlend mode="normal" in2="BackgroundImageFix" result="effect1_dropShadow_275_26735"/>
<feBlend mode="normal" in="SourceGraphic" in2="effect1_dropShadow_275_26735" result="shape"/>
</filter>
</defs>
</svg>
