<svg width="64" height="64" viewBox="0 0 64 64" fill="none" xmlns="http://www.w3.org/2000/svg">
<g filter="url(#filter0_d_275_26827)">
<path d="M4 8C4 3.58172 7.58172 0 12 0H52C56.4183 0 60 3.58172 60 8V48C60 52.4183 56.4183 56 52 56H12C7.58172 56 4 52.4183 4 48V8Z" fill="#F06A22" shape-rendering="crispEdges"/>
<path d="M41.2383 16.8115C42.3154 16.8118 43.1885 17.6867 43.1885 18.7646V37.2354C43.1885 38.3133 42.3154 39.1882 41.2383 39.1885H22.7617C21.6846 39.1882 20.8115 38.3133 20.8115 37.2354V18.7646C20.8115 17.6867 21.6846 16.8118 22.7617 16.8115H41.2383ZM22.9502 37.0479H41.0498V18.9521H22.9502V37.0479ZM25.9502 32.0195C26.3209 32.0196 26.6763 32.1667 26.9385 32.4287C27.2007 32.6909 27.3486 33.0472 27.3486 33.418C27.3484 34.1898 26.7221 34.8153 25.9502 34.8154C25.1782 34.8154 24.552 34.1899 24.5518 33.418C24.5518 32.6457 25.178 32.0195 25.9502 32.0195ZM38.3799 32.3496C38.9698 32.3496 39.4482 32.828 39.4482 33.418C39.448 34.0077 38.9697 34.4854 38.3799 34.4854H29.6904C29.1006 34.4854 28.6223 34.0077 28.6221 33.418C28.6221 32.828 29.1005 32.3496 29.6904 32.3496H38.3799ZM25.9502 26.5742C26.3208 26.5743 26.6763 26.7214 26.9385 26.9834C27.2007 27.2456 27.3486 27.6018 27.3486 27.9727C27.3485 28.7447 26.7222 29.371 25.9502 29.3711C25.1781 29.3711 24.5518 28.7448 24.5518 27.9727C24.5518 27.2005 25.178 26.5742 25.9502 26.5742ZM38.3799 26.9043C38.9698 26.9043 39.4482 27.3827 39.4482 27.9727C39.4482 28.5625 38.9698 29.041 38.3799 29.041H29.6904C29.1005 29.041 28.6222 28.5625 28.6221 27.9727C28.6221 27.3827 29.1005 26.9043 29.6904 26.9043H38.3799ZM25.9502 21.1289C26.3209 21.129 26.6763 21.2769 26.9385 21.5391C27.2006 21.8012 27.3486 22.1566 27.3486 22.5273C27.3486 23.2994 26.7223 23.9257 25.9502 23.9258C25.178 23.9258 24.5518 23.2994 24.5518 22.5273C24.5519 21.7553 25.1781 21.1289 25.9502 21.1289ZM38.3799 21.459C38.9698 21.459 39.4482 21.9375 39.4482 22.5273C39.4482 23.1173 38.9698 23.5957 38.3799 23.5957H29.6904C29.1005 23.5957 28.6221 23.1173 28.6221 22.5273C28.6222 21.9375 29.1005 21.459 29.6904 21.459H38.3799Z" fill="white" stroke="white" stroke-width="0.376364"/>
</g>
<defs>
<filter id="filter0_d_275_26827" x="0" y="0" width="64" height="64" filterUnits="userSpaceOnUse" color-interpolation-filters="sRGB">
<feFlood flood-opacity="0" result="BackgroundImageFix"/>
<feColorMatrix in="SourceAlpha" type="matrix" values="0 0 0 0 0 0 0 0 0 0 0 0 0 0 0 0 0 0 127 0" result="hardAlpha"/>
<feOffset dy="4"/>
<feGaussianBlur stdDeviation="2"/>
<feComposite in2="hardAlpha" operator="out"/>
<feColorMatrix type="matrix" values="0 0 0 0 0 0 0 0 0 0 0 0 0 0 0 0 0 0 0.16 0"/>
<feBlend mode="normal" in2="BackgroundImageFix" result="effect1_dropShadow_275_26827"/>
<feBlend mode="normal" in="SourceGraphic" in2="effect1_dropShadow_275_26827" result="shape"/>
</filter>
</defs>
</svg>
