<svg width="56" height="56" viewBox="0 0 56 56" fill="none" xmlns="http://www.w3.org/2000/svg">
<rect width="56" height="56" rx="12" fill="white"/>
<path d="M38.5801 36.084C39.1968 36.084 39.6963 36.5844 39.6963 37.2012C39.6961 37.8178 39.1967 38.3173 38.5801 38.3174H17.4199C16.8033 38.3173 16.3039 37.8178 16.3037 37.2012C16.3037 36.5844 16.8032 36.084 17.4199 36.084H38.5801ZM29.8398 29.96C30.4566 29.96 30.957 30.4604 30.957 31.0771C30.957 31.6939 30.4566 32.1934 29.8398 32.1934H17.4199C16.8032 32.1933 16.3037 31.6939 16.3037 31.0771C16.3037 30.4604 16.8032 29.96 17.4199 29.96H29.8398ZM38.9375 24.1064C39.2332 23.8758 39.6699 24.0796 39.6699 24.46V31.5371C39.6699 31.9168 39.2311 32.1224 38.9375 31.8906L34.4453 28.3525L34.3691 28.2773C34.2183 28.0882 34.2432 27.8024 34.4443 27.6455L38.9375 24.1074V24.1064ZM29.8398 23.8076C30.4566 23.8076 30.957 24.3081 30.957 24.9248C30.9569 25.5415 30.4565 26.041 29.8398 26.041H17.4199C16.8033 26.041 16.3038 25.5414 16.3037 24.9248C16.3037 24.3081 16.8032 23.8077 17.4199 23.8076H29.8398ZM38.5801 17.6846C39.1968 17.6846 39.6962 18.1841 39.6963 18.8008C39.6963 19.4175 39.1968 19.9179 38.5801 19.918H17.4199C16.8032 19.9179 16.3037 19.4175 16.3037 18.8008C16.3038 18.1841 16.8032 17.6846 17.4199 17.6846H38.5801Z" fill="#333333" stroke="#333333" stroke-width="0.393471"/>
</svg>
