<svg width="56" height="60" viewBox="0 0 56 60" fill="none" xmlns="http://www.w3.org/2000/svg">
<g filter="url(#filter0_d_275_26741)">
<path d="M26.8691 16.6553C27.561 16.1877 28.4408 16.1933 29.127 16.6699H29.126L37.7656 22.6729C38.0645 22.8805 38.309 23.1658 38.4775 23.501C38.6461 23.8361 38.7344 24.2113 38.7344 24.5918V37.4111C38.7343 38.6547 37.8054 39.6912 36.626 39.6914H19.376C18.1964 39.6914 17.2676 38.6548 17.2676 37.4111V24.4111C17.2676 24.0258 17.3576 23.6458 17.5303 23.3076C17.7029 22.9695 17.9528 22.6827 18.2578 22.4766L26.8691 16.6553ZM27.9756 18.5352L27.9736 18.5361L19.3623 24.3574L19.3633 24.3584C19.3586 24.3616 19.3523 24.3672 19.3477 24.376C19.3429 24.3848 19.3402 24.3961 19.3398 24.4082V37.4111C19.3399 37.4314 19.3472 37.4467 19.3555 37.4561C19.3636 37.4652 19.3708 37.4676 19.375 37.4678H36.626C36.6299 37.4677 36.6366 37.4654 36.6445 37.457C36.6522 37.4489 36.6594 37.4358 36.6611 37.4189V24.5918C36.6611 24.5799 36.6587 24.5687 36.6543 24.5596C36.6499 24.5504 36.6445 24.5437 36.6396 24.54L36.6357 24.5381V24.5371L28 18.5371C27.9948 18.5336 27.9904 18.5323 27.9873 18.5322C27.9844 18.5322 27.9802 18.5325 27.9756 18.5352ZM32.5596 31.8789C33.1465 31.8789 33.5947 32.3933 33.5947 32.9912C33.5947 33.5891 33.1465 34.1025 32.5596 34.1025H23.3887C22.8018 34.1025 22.3536 33.5891 22.3535 32.9912C22.3535 32.3933 22.8017 31.8789 23.3887 31.8789H32.5596ZM32.5771 28.1396C33.164 28.1396 33.6121 28.6532 33.6123 29.251C33.6123 29.8489 33.1641 30.3633 32.5771 30.3633H23.4062C22.8193 30.3633 22.3711 29.8489 22.3711 29.251C22.3713 28.6532 22.8194 28.1396 23.4062 28.1396H32.5771Z" fill="#333333" stroke="#333333" stroke-width="0.383333"/>
</g>
<defs>
<filter id="filter0_d_275_26741" x="-4" y="0" width="64" height="64" filterUnits="userSpaceOnUse" color-interpolation-filters="sRGB">
<feFlood flood-opacity="0" result="BackgroundImageFix"/>
<feColorMatrix in="SourceAlpha" type="matrix" values="0 0 0 0 0 0 0 0 0 0 0 0 0 0 0 0 0 0 127 0" result="hardAlpha"/>
<feOffset dy="4"/>
<feGaussianBlur stdDeviation="2"/>
<feComposite in2="hardAlpha" operator="out"/>
<feColorMatrix type="matrix" values="0 0 0 0 0 0 0 0 0 0 0 0 0 0 0 0 0 0 0.16 0"/>
<feBlend mode="normal" in2="BackgroundImageFix" result="effect1_dropShadow_275_26741"/>
<feBlend mode="normal" in="SourceGraphic" in2="effect1_dropShadow_275_26741" result="shape"/>
</filter>
</defs>
</svg>
