<svg width="56" height="60" viewBox="0 0 56 60" fill="none" xmlns="http://www.w3.org/2000/svg">
<g filter="url(#filter0_d_275_26769)">
<path d="M24.3096 27.3867C26.0086 27.3867 27.3867 26.0086 27.3867 24.3096V18.8799C27.3867 17.1809 26.0086 15.8037 24.3096 15.8037H18.8799C17.1809 15.8038 15.8038 17.1809 15.8037 18.8799V24.3096C15.8037 26.0086 17.1809 27.3867 18.8799 27.3867H24.3096ZM37.1201 27.3867C38.8191 27.3867 40.1963 26.0086 40.1963 24.3096V18.8799C40.1962 17.1809 38.8191 15.8038 37.1201 15.8037H31.6904C29.9914 15.8037 28.6133 17.1809 28.6133 18.8799V24.3096C28.6133 26.0086 29.9914 27.3867 31.6904 27.3867H37.1201ZM30.9268 18.1162H37.8838V25.0732H30.9268V18.1162ZM18.1162 18.1162H25.0732V25.0732H18.1162V18.1162ZM24.3096 40.1963C26.0086 40.1963 27.3867 38.8191 27.3867 37.1201V31.6904C27.3867 29.9914 26.0086 28.6133 24.3096 28.6133H18.8799C17.1809 28.6133 15.8037 29.9914 15.8037 31.6904V37.1201C15.8038 38.8191 17.1809 40.1962 18.8799 40.1963H24.3096ZM37.1201 40.1963C38.8191 40.1962 40.1962 38.8191 40.1963 37.1201V31.6904C40.1963 29.9914 38.8191 28.6133 37.1201 28.6133H31.6904C29.9914 28.6133 28.6133 29.9914 28.6133 31.6904V37.1201C28.6133 38.8191 29.9914 40.1963 31.6904 40.1963H37.1201ZM30.9268 30.9268H37.8838V37.8838H30.9268V30.9268ZM18.1162 30.9268H25.0732V37.8838H18.1162V30.9268Z" fill="#333333" stroke="#333333" stroke-width="0.392727"/>
</g>
<defs>
<filter id="filter0_d_275_26769" x="-4" y="0" width="64" height="64" filterUnits="userSpaceOnUse" color-interpolation-filters="sRGB">
<feFlood flood-opacity="0" result="BackgroundImageFix"/>
<feColorMatrix in="SourceAlpha" type="matrix" values="0 0 0 0 0 0 0 0 0 0 0 0 0 0 0 0 0 0 127 0" result="hardAlpha"/>
<feOffset dy="4"/>
<feGaussianBlur stdDeviation="2"/>
<feComposite in2="hardAlpha" operator="out"/>
<feColorMatrix type="matrix" values="0 0 0 0 0 0 0 0 0 0 0 0 0 0 0 0 0 0 0.16 0"/>
<feBlend mode="normal" in2="BackgroundImageFix" result="effect1_dropShadow_275_26769"/>
<feBlend mode="normal" in="SourceGraphic" in2="effect1_dropShadow_275_26769" result="shape"/>
</filter>
</defs>
</svg>
