<svg width="64" height="64" viewBox="0 0 64 64" fill="none" xmlns="http://www.w3.org/2000/svg">
<g filter="url(#filter0_d_275_26775)">
<path d="M4 8C4 3.58172 7.58172 0 12 0H52C56.4183 0 60 3.58172 60 8V48C60 52.4183 56.4183 56 52 56H12C7.58172 56 4 52.4183 4 48V8Z" fill="#F06A22" shape-rendering="crispEdges"/>
<path d="M43.4141 31.6758L43.417 31.6816C43.6291 32.1959 43.6366 32.7721 43.4385 33.292C43.2403 33.8119 42.8513 34.2369 42.3506 34.4795L32.9512 39.0312C32.6544 39.175 32.3287 39.249 31.999 39.249C31.6696 39.249 31.3444 39.1748 31.0479 39.0312L21.6494 34.4795L21.6475 34.4785L21.6191 34.4648L21.6182 34.4639C20.6399 33.9703 20.1834 32.8308 20.5371 31.8047V31.8037L20.5391 31.7998L20.6113 31.5928L20.8086 31.6865L31.1055 36.543L31.1074 36.5439L31.999 36.9756L41.209 32.5156L41.2041 32.5137L41.5752 32.334L43.1475 31.5752L43.334 31.4854L43.4141 31.6758ZM43.415 27.1982L43.416 27.2021L43.417 27.2041C43.6293 27.7184 43.6375 28.2945 43.4395 28.8145C43.2413 29.3345 42.8515 29.7593 42.3506 30.002L32.9512 34.5537C32.6546 34.6973 32.3295 34.7724 32 34.7725C31.6703 34.7725 31.3446 34.6974 31.0479 34.5537L21.6494 30.002L21.6484 30.001L21.6201 29.9873L21.6191 29.9863C20.6407 29.4928 20.1844 28.3533 20.5381 27.3271L20.5391 27.3223L20.6113 27.1162L20.8096 27.209L31.1064 32.0664L31.1084 32.0674L32 32.498L41.21 28.0381L41.2051 28.0361L41.5762 27.8574L43.1475 27.0977L43.334 27.0078L43.415 27.1982ZM32 16.749C32.2454 16.749 32.4879 16.7907 32.7197 16.8672V16.8408L33.002 16.9775L42.4004 21.5293C42.7888 21.7175 43.1165 22.0112 43.3457 22.377C43.575 22.7427 43.6963 23.166 43.6963 23.5977C43.6962 24.4785 43.1932 25.282 42.4004 25.666L33.002 30.2178C32.6897 30.369 32.347 30.4473 32 30.4473C31.653 30.4472 31.3103 30.3691 30.998 30.2178L21.5996 25.666C20.8068 25.282 20.3038 24.4786 20.3037 23.5977C20.3037 22.7168 20.8069 21.9134 21.5996 21.5293L30.998 16.9785C31.3103 16.8273 31.653 16.7491 32 16.749ZM22.8105 23.5859L32 28.168L41.1895 23.5859L32 19.0049L22.8105 23.5859Z" fill="white" stroke="white" stroke-width="0.393471"/>
</g>
<defs>
<filter id="filter0_d_275_26775" x="0" y="0" width="64" height="64" filterUnits="userSpaceOnUse" color-interpolation-filters="sRGB">
<feFlood flood-opacity="0" result="BackgroundImageFix"/>
<feColorMatrix in="SourceAlpha" type="matrix" values="0 0 0 0 0 0 0 0 0 0 0 0 0 0 0 0 0 0 127 0" result="hardAlpha"/>
<feOffset dy="4"/>
<feGaussianBlur stdDeviation="2"/>
<feComposite in2="hardAlpha" operator="out"/>
<feColorMatrix type="matrix" values="0 0 0 0 0 0 0 0 0 0 0 0 0 0 0 0 0 0 0.16 0"/>
<feBlend mode="normal" in2="BackgroundImageFix" result="effect1_dropShadow_275_26775"/>
<feBlend mode="normal" in="SourceGraphic" in2="effect1_dropShadow_275_26775" result="shape"/>
</filter>
</defs>
</svg>
