<svg width="56" height="60" viewBox="0 0 56 60" fill="none" xmlns="http://www.w3.org/2000/svg">
<g filter="url(#filter0_d_275_26781)">
<path d="M39.4141 31.6758L39.417 31.6816C39.6291 32.1959 39.6366 32.7721 39.4385 33.292C39.2403 33.8119 38.8513 34.2369 38.3506 34.4795L28.9512 39.0312C28.6544 39.175 28.3287 39.249 27.999 39.249C27.6696 39.249 27.3444 39.1748 27.0479 39.0312L17.6494 34.4795L17.6475 34.4785L17.6191 34.4648L17.6182 34.4639C16.6399 33.9703 16.1834 32.8308 16.5371 31.8047V31.8037L16.5391 31.7998L16.6113 31.5928L16.8086 31.6865L27.1055 36.543L27.1074 36.5439L27.999 36.9756L37.209 32.5156L37.2041 32.5137L37.5752 32.334L39.1475 31.5752L39.334 31.4854L39.4141 31.6758ZM39.415 27.1982L39.416 27.2021L39.417 27.2041C39.6293 27.7184 39.6375 28.2945 39.4395 28.8145C39.2413 29.3345 38.8515 29.7593 38.3506 30.002L28.9512 34.5537C28.6546 34.6973 28.3295 34.7724 28 34.7725C27.6703 34.7725 27.3446 34.6974 27.0479 34.5537L17.6494 30.002L17.6484 30.001L17.6201 29.9873L17.6191 29.9863C16.6407 29.4928 16.1844 28.3533 16.5381 27.3271L16.5391 27.3223L16.6113 27.1162L16.8096 27.209L27.1064 32.0664L27.1084 32.0674L28 32.498L37.21 28.0381L37.2051 28.0361L37.5762 27.8574L39.1475 27.0977L39.334 27.0078L39.415 27.1982ZM28 16.749C28.2454 16.749 28.4879 16.7907 28.7197 16.8672V16.8408L29.002 16.9775L38.4004 21.5293C38.7888 21.7175 39.1165 22.0112 39.3457 22.377C39.575 22.7427 39.6963 23.166 39.6963 23.5977C39.6962 24.4785 39.1932 25.282 38.4004 25.666L29.002 30.2178C28.6897 30.369 28.347 30.4473 28 30.4473C27.653 30.4472 27.3103 30.3691 26.998 30.2178L17.5996 25.666C16.8068 25.282 16.3038 24.4786 16.3037 23.5977C16.3037 22.7168 16.8069 21.9134 17.5996 21.5293L26.998 16.9785C27.3103 16.8273 27.653 16.7491 28 16.749ZM18.8105 23.5859L28 28.168L37.1895 23.5859L28 19.0049L18.8105 23.5859Z" fill="#333333" stroke="#333333" stroke-width="0.393471"/>
</g>
<defs>
<filter id="filter0_d_275_26781" x="-4" y="0" width="64" height="64" filterUnits="userSpaceOnUse" color-interpolation-filters="sRGB">
<feFlood flood-opacity="0" result="BackgroundImageFix"/>
<feColorMatrix in="SourceAlpha" type="matrix" values="0 0 0 0 0 0 0 0 0 0 0 0 0 0 0 0 0 0 127 0" result="hardAlpha"/>
<feOffset dy="4"/>
<feGaussianBlur stdDeviation="2"/>
<feComposite in2="hardAlpha" operator="out"/>
<feColorMatrix type="matrix" values="0 0 0 0 0 0 0 0 0 0 0 0 0 0 0 0 0 0 0.16 0"/>
<feBlend mode="normal" in2="BackgroundImageFix" result="effect1_dropShadow_275_26781"/>
<feBlend mode="normal" in="SourceGraphic" in2="effect1_dropShadow_275_26781" result="shape"/>
</filter>
</defs>
</svg>
