<svg width="56" height="61" viewBox="0 0 56 61" fill="none" xmlns="http://www.w3.org/2000/svg">
<g filter="url(#filter0_d_275_26857)">
<path d="M28 14.8174C28.366 14.8174 28.726 14.9137 29.043 15.0967L38.6543 20.6455C38.9712 20.8285 39.234 21.0922 39.417 21.4092C39.5999 21.7261 39.6962 22.0853 39.6963 22.4512V33.5498C39.6963 33.9158 39.6 34.2758 39.417 34.5928C39.234 34.9095 38.971 35.1725 38.6543 35.3555L29.043 40.9053C28.726 41.0883 28.366 41.1846 28 41.1846C27.634 41.1846 27.274 41.0883 26.957 40.9053L17.3457 35.3555C17.029 35.1725 16.766 34.9095 16.583 34.5928C16.4 34.2758 16.3037 33.9158 16.3037 33.5498V22.4512C16.3038 22.0853 16.4001 21.7261 16.583 21.4092C16.766 21.0922 17.0288 20.8285 17.3457 20.6455L26.957 15.0967C27.274 14.9137 27.634 14.8174 28 14.8174ZM18.7031 22.6328V33.3682L27.999 38.7344L37.2969 33.3672V22.6338L27.999 17.2656L18.7031 22.6328ZM28 23.082C30.7162 23.082 32.918 25.2848 32.918 28.001C32.9177 30.717 30.7161 32.9189 28 32.9189C25.2839 32.9189 23.0823 30.717 23.082 28.001C23.082 25.2848 25.2838 23.082 28 23.082ZM28 25.3643C26.5441 25.3643 25.3643 26.5451 25.3643 28.001C25.3645 29.4567 26.5443 30.6367 28 30.6367C29.4558 30.6367 30.6355 29.4567 30.6357 28.001C30.6357 26.5451 29.4559 25.3643 28 25.3643Z" fill="#333333" stroke="#333333" stroke-width="0.393471"/>
</g>
<defs>
<filter id="filter0_d_275_26857" x="-4" y="0" width="64" height="64" filterUnits="userSpaceOnUse" color-interpolation-filters="sRGB">
<feFlood flood-opacity="0" result="BackgroundImageFix"/>
<feColorMatrix in="SourceAlpha" type="matrix" values="0 0 0 0 0 0 0 0 0 0 0 0 0 0 0 0 0 0 127 0" result="hardAlpha"/>
<feOffset dy="4"/>
<feGaussianBlur stdDeviation="2"/>
<feComposite in2="hardAlpha" operator="out"/>
<feColorMatrix type="matrix" values="0 0 0 0 0 0 0 0 0 0 0 0 0 0 0 0 0 0 0.16 0"/>
<feBlend mode="normal" in2="BackgroundImageFix" result="effect1_dropShadow_275_26857"/>
<feBlend mode="normal" in="SourceGraphic" in2="effect1_dropShadow_275_26857" result="shape"/>
</filter>
</defs>
</svg>
