<svg width="64" height="64" viewBox="0 0 64 64" fill="none" xmlns="http://www.w3.org/2000/svg">
<g filter="url(#filter0_d_275_26803)">
<path d="M4 8C4 3.58172 7.58172 0 12 0H52C56.4183 0 60 3.58172 60 8V48C60 52.4183 56.4183 56 52 56H12C7.58172 56 4 52.4183 4 48V8Z" fill="#F06A22" shape-rendering="crispEdges"/>
<path d="M34.7119 27.3467C32.8719 27.3467 31.374 28.8446 31.374 30.6846C31.374 32.5245 32.8719 34.0225 34.7119 34.0225C36.5519 34.0225 38.0498 32.5245 38.0498 30.6846C38.0498 28.8446 36.5519 27.3467 34.7119 27.3467ZM27.8857 25.2061C28.4741 25.2063 28.9509 25.6831 28.9512 26.2715C28.9512 26.8601 28.4743 27.3376 27.8857 27.3379H25.8008C25.2121 27.3379 24.7344 26.8602 24.7344 26.2715C24.7346 25.683 25.2122 25.2061 25.8008 25.2061H27.8857ZM38.1992 20.7344C38.7879 20.7344 39.2656 21.2121 39.2656 21.8008C39.2655 22.3894 38.7879 22.8662 38.1992 22.8662H25.8008C25.2121 22.8662 24.7345 22.3894 24.7344 21.8008C24.7344 21.2121 25.2121 20.7344 25.8008 20.7344H38.1992ZM42.1445 36.9531C42.1445 37.2616 42.0216 37.5578 41.8037 37.7754L41.8027 37.7744C41.6949 37.8828 41.567 37.9696 41.4258 38.0283C41.2846 38.087 41.1333 38.1172 40.9805 38.1172C40.8275 38.1172 40.6755 38.087 40.5342 38.0283C40.4283 37.9843 40.3294 37.9252 40.2412 37.8525L40.1572 37.7754L37.6641 35.2822C36.8042 35.8384 35.8059 36.144 34.7803 36.1572H34.7119C31.6938 36.1572 29.2393 33.7027 29.2393 30.6846C29.2393 27.6664 31.6938 25.2109 34.7119 25.2109C37.7301 25.211 40.1846 27.6664 40.1846 30.6846C40.1842 31.7336 39.8794 32.7584 39.3105 33.6377L41.8027 36.1299L41.877 36.2119C42.0177 36.3822 42.1071 36.5887 42.1348 36.8086L42.1436 36.9189V36.9346L42.1445 36.9395V36.9531ZM43.1885 27.3604C43.1882 27.9489 42.7106 28.4258 42.1221 28.4258C41.5394 28.4257 41.0663 27.9583 41.0566 27.3779V18.916H22.9434V37.084H29.1494C29.738 37.084 30.2157 37.5608 30.2158 38.1494C30.2158 38.7323 29.7476 39.2063 29.167 39.2158H23.6338C22.091 39.2158 20.8374 37.9773 20.8125 36.4404V36.4395L20.8115 36.3955V19.6064C20.8115 18.0637 22.05 16.8101 23.5869 16.7852H23.5879L23.6318 16.7842H40.3662C41.8127 16.7842 43.0052 17.8729 43.1689 19.2754L43.1875 19.5596V19.5605L43.1885 19.6045V27.3604Z" fill="white" stroke="white" stroke-width="0.376364"/>
</g>
<defs>
<filter id="filter0_d_275_26803" x="0" y="0" width="64" height="64" filterUnits="userSpaceOnUse" color-interpolation-filters="sRGB">
<feFlood flood-opacity="0" result="BackgroundImageFix"/>
<feColorMatrix in="SourceAlpha" type="matrix" values="0 0 0 0 0 0 0 0 0 0 0 0 0 0 0 0 0 0 127 0" result="hardAlpha"/>
<feOffset dy="4"/>
<feGaussianBlur stdDeviation="2"/>
<feComposite in2="hardAlpha" operator="out"/>
<feColorMatrix type="matrix" values="0 0 0 0 0 0 0 0 0 0 0 0 0 0 0 0 0 0 0.16 0"/>
<feBlend mode="normal" in2="BackgroundImageFix" result="effect1_dropShadow_275_26803"/>
<feBlend mode="normal" in="SourceGraphic" in2="effect1_dropShadow_275_26803" result="shape"/>
</filter>
</defs>
</svg>
