<svg width="64" height="64" viewBox="0 0 64 64" fill="none" xmlns="http://www.w3.org/2000/svg">
<g filter="url(#filter0_d_275_26747)">
<path d="M4 8C4 3.58172 7.58172 0 12 0H52C56.4183 0 60 3.58172 60 8V48C60 52.4183 56.4183 56 52 56H12C7.58172 56 4 52.4183 4 48V8Z" fill="#F06A22" shape-rendering="crispEdges"/>
<mask id="path-3-outside-1_275_26747" maskUnits="userSpaceOnUse" x="17.6602" y="14.5" width="29" height="27" fill="black">
<rect fill="white" x="17.6602" y="14.5" width="29" height="27"/>
<path fill-rule="evenodd" clip-rule="evenodd" d="M39.6474 15.5C40.0068 15.5003 40.3609 15.5891 40.6777 15.7588C40.9946 15.9286 41.2645 16.1744 41.4638 16.4736L44.7705 21.4336C45.2689 22.1812 45.4515 23.096 45.2773 23.9775C45.103 24.859 44.5861 25.6359 43.8408 26.1377C43.7251 26.2157 43.6076 26.2911 43.4882 26.3633V35.8887C43.488 38.4236 41.5267 40.5 39.0791 40.5H25.3242C22.8767 40.4998 20.9162 38.4235 20.916 35.8887V26.5889C20.6562 26.4528 20.4039 26.3022 20.1611 26.1377C19.4157 25.6359 18.8988 24.859 18.7246 23.9775C18.5504 23.096 18.7329 22.1812 19.2314 21.4336L22.538 16.4736C22.7375 16.1743 23.008 15.9286 23.3251 15.7588C23.6423 15.589 23.9967 15.5 24.3564 15.5H39.6474ZM36.6582 25.4062C35.4943 26.5324 33.9368 27.1709 32.165 27.1709C30.2356 27.1708 28.5146 26.5548 27.3291 25.4238C26.3242 26.5814 24.8616 27.1709 23.0693 27.1709C22.999 27.1709 22.9276 27.1699 22.8574 27.165V35.8887C22.8576 37.375 23.9738 38.5584 25.3242 38.5586H39.0791C40.4284 38.5586 41.5456 37.3751 41.5459 35.8887V27.1211C41.3397 27.155 41.1361 27.1709 40.9335 27.1709C39.1314 27.1709 37.663 26.5749 36.6582 25.4062ZM35.8427 33.0967C36.1002 33.0967 36.3472 33.1989 36.5293 33.3809C36.7113 33.5629 36.8134 33.81 36.8134 34.0674C36.8134 34.3248 36.7112 34.5718 36.5293 34.7539C36.3472 34.936 36.1002 35.0381 35.8427 35.0381H28.5615C28.304 35.0381 28.057 34.936 27.875 34.7539C27.6929 34.5718 27.5908 34.3248 27.5908 34.0674C27.5908 33.81 27.6929 33.5629 27.875 33.3809C28.057 33.1989 28.3041 33.0967 28.5615 33.0967H35.8427ZM24.3564 17.4424C24.3165 17.4426 24.2772 17.4527 24.2421 17.4717C24.207 17.4907 24.1762 17.5175 24.1543 17.5508L20.8476 22.5098C20.6344 22.83 20.5562 23.2222 20.6308 23.5996C20.7054 23.977 20.9271 24.3094 21.246 24.5244C21.9581 25.0047 22.5682 25.2284 23.0693 25.2285C24.6991 25.2285 25.7781 24.6153 26.3691 23.3594C26.4437 23.2004 26.5604 23.0649 26.706 22.9668C26.8518 22.8687 27.0218 22.812 27.1972 22.8027H27.2119V22.8037C27.3872 22.7973 27.561 22.8383 27.7148 22.9229C27.8687 23.0075 27.9973 23.1325 28.0859 23.2842C28.797 24.5012 30.2988 25.2294 32.165 25.2295C33.7827 25.2295 35.102 24.5061 35.9345 23.2549C36.0282 23.1063 36.1606 22.9856 36.3173 22.9062C36.4741 22.8269 36.6499 22.7922 36.8251 22.8047C37.0003 22.8172 37.1686 22.8769 37.3125 22.9775C37.4563 23.0782 37.5708 23.2157 37.6425 23.376C38.2335 24.6211 39.311 25.2295 40.9335 25.2295C41.4359 25.2295 42.0454 25.0059 42.7578 24.5254C43.0766 24.3103 43.2974 23.9779 43.372 23.6006C43.4466 23.2231 43.3685 22.831 43.1552 22.5107L39.8486 17.5498C39.8265 17.5168 39.7967 17.4895 39.7617 17.4707C39.7266 17.4519 39.6872 17.4425 39.6474 17.4424H24.3564Z"/>
</mask>
<path fill-rule="evenodd" clip-rule="evenodd" d="M39.6474 15.5C40.0068 15.5003 40.3609 15.5891 40.6777 15.7588C40.9946 15.9286 41.2645 16.1744 41.4638 16.4736L44.7705 21.4336C45.2689 22.1812 45.4515 23.096 45.2773 23.9775C45.103 24.859 44.5861 25.6359 43.8408 26.1377C43.7251 26.2157 43.6076 26.2911 43.4882 26.3633V35.8887C43.488 38.4236 41.5267 40.5 39.0791 40.5H25.3242C22.8767 40.4998 20.9162 38.4235 20.916 35.8887V26.5889C20.6562 26.4528 20.4039 26.3022 20.1611 26.1377C19.4157 25.6359 18.8988 24.859 18.7246 23.9775C18.5504 23.096 18.7329 22.1812 19.2314 21.4336L22.538 16.4736C22.7375 16.1743 23.008 15.9286 23.3251 15.7588C23.6423 15.589 23.9967 15.5 24.3564 15.5H39.6474ZM36.6582 25.4062C35.4943 26.5324 33.9368 27.1709 32.165 27.1709C30.2356 27.1708 28.5146 26.5548 27.3291 25.4238C26.3242 26.5814 24.8616 27.1709 23.0693 27.1709C22.999 27.1709 22.9276 27.1699 22.8574 27.165V35.8887C22.8576 37.375 23.9738 38.5584 25.3242 38.5586H39.0791C40.4284 38.5586 41.5456 37.3751 41.5459 35.8887V27.1211C41.3397 27.155 41.1361 27.1709 40.9335 27.1709C39.1314 27.1709 37.663 26.5749 36.6582 25.4062ZM35.8427 33.0967C36.1002 33.0967 36.3472 33.1989 36.5293 33.3809C36.7113 33.5629 36.8134 33.81 36.8134 34.0674C36.8134 34.3248 36.7112 34.5718 36.5293 34.7539C36.3472 34.936 36.1002 35.0381 35.8427 35.0381H28.5615C28.304 35.0381 28.057 34.936 27.875 34.7539C27.6929 34.5718 27.5908 34.3248 27.5908 34.0674C27.5908 33.81 27.6929 33.5629 27.875 33.3809C28.057 33.1989 28.3041 33.0967 28.5615 33.0967H35.8427ZM24.3564 17.4424C24.3165 17.4426 24.2772 17.4527 24.2421 17.4717C24.207 17.4907 24.1762 17.5175 24.1543 17.5508L20.8476 22.5098C20.6344 22.83 20.5562 23.2222 20.6308 23.5996C20.7054 23.977 20.9271 24.3094 21.246 24.5244C21.9581 25.0047 22.5682 25.2284 23.0693 25.2285C24.6991 25.2285 25.7781 24.6153 26.3691 23.3594C26.4437 23.2004 26.5604 23.0649 26.706 22.9668C26.8518 22.8687 27.0218 22.812 27.1972 22.8027H27.2119V22.8037C27.3872 22.7973 27.561 22.8383 27.7148 22.9229C27.8687 23.0075 27.9973 23.1325 28.0859 23.2842C28.797 24.5012 30.2988 25.2294 32.165 25.2295C33.7827 25.2295 35.102 24.5061 35.9345 23.2549C36.0282 23.1063 36.1606 22.9856 36.3173 22.9062C36.4741 22.8269 36.6499 22.7922 36.8251 22.8047C37.0003 22.8172 37.1686 22.8769 37.3125 22.9775C37.4563 23.0782 37.5708 23.2157 37.6425 23.376C38.2335 24.6211 39.311 25.2295 40.9335 25.2295C41.4359 25.2295 42.0454 25.0059 42.7578 24.5254C43.0766 24.3103 43.2974 23.9779 43.372 23.6006C43.4466 23.2231 43.3685 22.831 43.1552 22.5107L39.8486 17.5498C39.8265 17.5168 39.7967 17.4895 39.7617 17.4707C39.7266 17.4519 39.6872 17.4425 39.6474 17.4424H24.3564Z" fill="white"/>
<path d="M39.6474 15.5L39.6477 15.1031H39.6474V15.5ZM40.6777 15.7588L40.8651 15.4089L40.8651 15.4089L40.6777 15.7588ZM41.4638 16.4736L41.1335 16.6937L41.1336 16.6938L41.4638 16.4736ZM44.7705 21.4336L44.4402 21.6538L44.4402 21.6538L44.7705 21.4336ZM45.2773 23.9775L45.6667 24.0545L45.6667 24.0545L45.2773 23.9775ZM43.8408 26.1377L43.6191 25.8084L43.6188 25.8087L43.8408 26.1377ZM43.4882 26.3633L43.2829 26.0236L43.0913 26.1395V26.3633H43.4882ZM43.4882 35.8887L43.8851 35.8887V35.8887H43.4882ZM39.0791 40.5V40.1031V40.5ZM25.3242 40.5L25.3241 40.8969H25.3242V40.5ZM20.916 35.8887H20.5191V35.8887L20.916 35.8887ZM20.916 26.5889H21.3129V26.3487L21.1001 26.2373L20.916 26.5889ZM20.1611 26.1377L20.3837 25.8091L20.3827 25.8084L20.1611 26.1377ZM18.7246 23.9775L18.3352 24.0545L18.3352 24.0545L18.7246 23.9775ZM19.2314 21.4336L19.5616 21.6538L19.5616 21.6538L19.2314 21.4336ZM22.538 16.4736L22.8683 16.6938L22.8684 16.6937L22.538 16.4736ZM23.3251 15.7588L23.1378 15.4089L23.1378 15.4089L23.3251 15.7588ZM24.3564 15.5L24.3564 15.8969H24.3564V15.5ZM36.6582 25.4062L36.9591 25.1475L36.6847 24.8283L36.3821 25.121L36.6582 25.4062ZM32.165 27.1709L32.165 27.5678H32.165V27.1709ZM27.3291 25.4238L27.603 25.1366L27.302 24.8495L27.0293 25.1636L27.3291 25.4238ZM23.0693 27.1709L23.0693 27.5678H23.0693V27.1709ZM22.8574 27.165L22.8847 26.7691L22.4605 26.7398V27.165H22.8574ZM22.8574 35.8887H22.4605V35.8887L22.8574 35.8887ZM25.3242 38.5586L25.3241 38.9555H25.3242V38.5586ZM41.5459 35.8887L41.9428 35.8887V35.8887H41.5459ZM41.5459 27.1211H41.9428V26.6535L41.4814 26.7295L41.5459 27.1211ZM40.9335 27.1709V27.5678H40.9336L40.9335 27.1709ZM35.8427 33.0967V32.6998V33.0967ZM36.5293 33.3809L36.8099 33.1002L36.8099 33.1001L36.5293 33.3809ZM36.8134 34.0674H37.2103V34.0673L36.8134 34.0674ZM36.5293 34.7539L36.8099 35.0346L36.81 35.0345L36.5293 34.7539ZM28.5615 35.0381V35.435V35.0381ZM27.875 34.7539L27.5943 35.0345L27.5943 35.0346L27.875 34.7539ZM27.5908 34.0674L27.1939 34.0673V34.0674H27.5908ZM27.875 33.3809L27.5944 33.1001L27.5943 33.1002L27.875 33.3809ZM28.5615 33.0967V32.6998V33.0967ZM24.3564 17.4424V17.0455L24.3543 17.0455L24.3564 17.4424ZM24.2421 17.4717L24.0533 17.1226L24.053 17.1228L24.2421 17.4717ZM24.1543 17.5508L24.4845 17.771L24.4856 17.7693L24.1543 17.5508ZM20.8476 22.5098L20.5174 22.2896L20.5172 22.2898L20.8476 22.5098ZM20.6308 23.5996L20.2414 23.6765L20.2414 23.6766L20.6308 23.5996ZM21.246 24.5244L21.468 24.1954L21.4679 24.1953L21.246 24.5244ZM23.0693 25.2285L23.0692 25.6254H23.0693V25.2285ZM26.3691 23.3594L26.7282 23.5284L26.7284 23.528L26.3691 23.3594ZM26.706 22.9668L26.4844 22.6375L26.4843 22.6376L26.706 22.9668ZM27.1972 22.8027V22.4058H27.1867L27.1763 22.4064L27.1972 22.8027ZM27.2119 22.8027H27.6088V22.4058H27.2119V22.8027ZM27.2119 22.8037H26.815V23.2153L27.2263 23.2004L27.2119 22.8037ZM27.7148 22.9229L27.9061 22.5751L27.906 22.575L27.7148 22.9229ZM28.0859 23.2842L27.7432 23.4844L27.7432 23.4844L28.0859 23.2842ZM32.165 25.2295L32.165 25.6264H32.165V25.2295ZM35.9345 23.2549L36.2651 23.4748L36.2703 23.4666L35.9345 23.2549ZM36.3173 22.9062L36.1381 22.5521L36.1381 22.5521L36.3173 22.9062ZM36.8251 22.8047L36.8534 22.4088L36.8533 22.4088L36.8251 22.8047ZM37.3125 22.9775L37.54 22.6523L37.54 22.6523L37.3125 22.9775ZM37.6425 23.376L37.2802 23.5382L37.284 23.5462L37.6425 23.376ZM40.9335 25.2295V25.6264H40.9336L40.9335 25.2295ZM42.7578 24.5254L42.9797 24.8544L42.9797 24.8544L42.7578 24.5254ZM43.372 23.6006L43.7614 23.6776L43.7614 23.6775L43.372 23.6006ZM43.1552 22.5107L43.4856 22.2908L43.4855 22.2906L43.1552 22.5107ZM39.8486 17.5498L40.1789 17.3297L40.1786 17.3293L39.8486 17.5498ZM39.7617 17.4707L39.9496 17.1211L39.9492 17.1209L39.7617 17.4707ZM39.6474 17.4424L39.6487 17.0455H39.6474V17.4424ZM39.6474 15.5L39.6471 15.8969C39.9414 15.8971 40.2311 15.9698 40.4903 16.1087L40.6777 15.7588L40.8651 15.4089C40.4906 15.2083 40.0723 15.1034 39.6477 15.1031L39.6474 15.5ZM40.6777 15.7588L40.4902 16.1087C40.7492 16.2474 40.9702 16.4485 41.1335 16.6937L41.4638 16.4736L41.7941 16.2536C41.5588 15.9003 41.24 15.6097 40.8651 15.4089L40.6777 15.7588ZM41.4638 16.4736L41.1336 16.6938L44.4402 21.6538L44.7705 21.4336L45.1007 21.2134L41.7941 16.2535L41.4638 16.4736ZM44.7705 21.4336L44.4402 21.6538C44.8806 22.3142 45.0418 23.1222 44.8879 23.9006L45.2773 23.9775L45.6667 24.0545C45.8613 23.0698 45.6573 22.0482 45.1007 21.2134L44.7705 21.4336ZM45.2773 23.9775L44.8879 23.9006C44.734 24.6789 44.2775 25.3652 43.6191 25.8084L43.8408 26.1377L44.0624 26.4669C44.8947 25.9066 45.472 25.039 45.6667 24.0545L45.2773 23.9775ZM43.8408 26.1377L43.6188 25.8087C43.5082 25.8833 43.3963 25.9551 43.2829 26.0236L43.4882 26.3633L43.6936 26.7029C43.819 26.6271 43.942 26.5482 44.0628 26.4667L43.8408 26.1377ZM43.4882 26.3633H43.0913V35.8887H43.4882H43.8851V26.3633H43.4882ZM43.4882 35.8887L43.0913 35.8886C43.0911 38.2228 41.2895 40.1031 39.0791 40.1031V40.5V40.8969C41.7639 40.8969 43.8849 38.6244 43.8851 35.8887L43.4882 35.8887ZM39.0791 40.5V40.1031H25.3242V40.5V40.8969H39.0791V40.5ZM25.3242 40.5L25.3242 40.1031C23.114 40.1029 21.3131 38.2228 21.3129 35.8886L20.916 35.8887L20.5191 35.8887C20.5193 38.6242 22.6394 40.8967 25.3241 40.8969L25.3242 40.5ZM20.916 35.8887H21.3129V26.5889H20.916H20.5191V35.8887H20.916ZM20.916 26.5889L21.1001 26.2373C20.8534 26.108 20.6139 25.9651 20.3837 25.8091L20.1611 26.1377L19.9385 26.4663C20.1938 26.6393 20.459 26.7976 20.7318 26.9405L20.916 26.5889ZM20.1611 26.1377L20.3827 25.8084C19.7244 25.3652 19.2678 24.6789 19.1139 23.9006L18.7246 23.9775L18.3352 24.0545C18.5298 25.039 19.1071 25.9066 19.9394 26.4669L20.1611 26.1377ZM18.7246 23.9775L19.1139 23.9006C18.9601 23.1222 19.1213 22.3142 19.5616 21.6538L19.2314 21.4336L18.9012 21.2134C18.3445 22.0482 18.1406 23.0698 18.3352 24.0545L18.7246 23.9775ZM19.2314 21.4336L19.5616 21.6538L22.8683 16.6938L22.538 16.4736L22.2078 16.2535L18.9012 21.2134L19.2314 21.4336ZM22.538 16.4736L22.8684 16.6937C23.0316 16.4487 23.253 16.2476 23.5125 16.1087L23.3251 15.7588L23.1378 15.4089C22.763 15.6095 22.4434 15.8998 22.2077 16.2536L22.538 16.4736ZM23.3251 15.7588L23.5125 16.1087C23.772 15.9698 24.0622 15.8969 24.3564 15.8969L24.3564 15.5L24.3564 15.1031C23.9313 15.1031 23.5125 15.2083 23.1378 15.4089L23.3251 15.7588ZM24.3564 15.5V15.8969H39.6474V15.5V15.1031H24.3564V15.5ZM36.6582 25.4062L36.3821 25.121C35.295 26.173 33.8375 26.774 32.165 26.774V27.1709V27.5678C34.0361 27.5678 35.6937 26.8918 36.9342 25.6915L36.6582 25.4062ZM32.165 27.1709L32.165 26.774C30.3168 26.7739 28.701 26.184 27.603 25.1366L27.3291 25.4238L27.0551 25.711C28.3283 26.9256 30.1544 27.5677 32.165 27.5678L32.165 27.1709ZM27.3291 25.4238L27.0293 25.1636C26.1146 26.2175 24.7711 26.774 23.0693 26.774V27.1709V27.5678C24.9521 27.5678 26.5339 26.9454 27.6288 25.684L27.3291 25.4238ZM23.0693 27.1709L23.0693 26.774C23.002 26.774 22.9412 26.773 22.8847 26.7691L22.8574 27.165L22.8301 27.561C22.914 27.5668 22.9961 27.5678 23.0693 27.5678L23.0693 27.1709ZM22.8574 27.165H22.4605V35.8887H22.8574H23.2543V27.165H22.8574ZM22.8574 35.8887L22.4605 35.8887C22.4607 37.5665 23.7278 38.9552 25.3241 38.9555L25.3242 38.5586L25.3242 38.1617C24.2197 38.1615 23.2545 37.1834 23.2543 35.8886L22.8574 35.8887ZM25.3242 38.5586V38.9555H39.0791V38.5586V38.1617H25.3242V38.5586ZM39.0791 38.5586V38.9555C40.6743 38.9555 41.9425 37.5667 41.9428 35.8887L41.5459 35.8887L41.1489 35.8886C41.1488 37.1835 40.1826 38.1617 39.0791 38.1617V38.5586ZM41.5459 35.8887H41.9428V27.1211H41.5459H41.1489V35.8887H41.5459ZM41.5459 27.1211L41.4814 26.7295C41.2972 26.7598 41.1151 26.774 40.9335 26.774L40.9335 27.1709L40.9336 27.5678C41.157 27.5678 41.3822 27.5503 41.6103 27.5127L41.5459 27.1211ZM40.9335 27.1709V26.774C39.2225 26.774 37.8739 26.2114 36.9591 25.1475L36.6582 25.4062L36.3572 25.665C37.4521 26.9384 39.0403 27.5678 40.9335 27.5678V27.1709ZM35.8427 33.0967V33.4936C35.995 33.4936 36.1411 33.5541 36.2486 33.6616L36.5293 33.3809L36.8099 33.1001C36.5533 32.8437 36.2053 32.6998 35.8427 32.6998V33.0967ZM36.5293 33.3809L36.2486 33.6615C36.356 33.7689 36.4165 33.915 36.4165 34.0675L36.8134 34.0674L37.2103 34.0673C37.2102 33.705 37.0665 33.3568 36.8099 33.1002L36.5293 33.3809ZM36.8134 34.0674H36.4165C36.4165 34.2197 36.356 34.3658 36.2485 34.4733L36.5293 34.7539L36.81 35.0345C37.0664 34.7779 37.2103 34.4299 37.2103 34.0674H36.8134ZM36.5293 34.7539L36.2486 34.4732C36.1411 34.5807 35.9951 34.6412 35.8427 34.6412V35.0381V35.435C36.2053 35.435 36.5533 35.2912 36.8099 35.0346L36.5293 34.7539ZM35.8427 35.0381V34.6412H28.5615V35.0381V35.435H35.8427V35.0381ZM28.5615 35.0381V34.6412C28.4091 34.6412 28.2631 34.5807 28.1556 34.4732L27.875 34.7539L27.5943 35.0346C27.8509 35.2912 28.1989 35.435 28.5615 35.435V35.0381ZM27.875 34.7539L28.1556 34.4733C28.0481 34.3658 27.9877 34.2198 27.9877 34.0674H27.5908H27.1939C27.1939 34.4299 27.3377 34.7779 27.5943 35.0345L27.875 34.7539ZM27.5908 34.0674L27.9877 34.0675C27.9877 33.915 28.0482 33.7689 28.1556 33.6615L27.875 33.3809L27.5943 33.1002C27.3377 33.3568 27.194 33.705 27.1939 34.0673L27.5908 34.0674ZM27.875 33.3809L28.1555 33.6616C28.2631 33.5541 28.4092 33.4936 28.5615 33.4936V33.0967V32.6998C28.1989 32.6998 27.8509 32.8437 27.5944 33.1001L27.875 33.3809ZM28.5615 33.0967V33.4936H35.8427V33.0967V32.6998H28.5615V33.0967ZM24.3564 17.4424L24.3543 17.0455C24.2488 17.046 24.1454 17.0728 24.0533 17.1226L24.2421 17.4717L24.431 17.8208C24.409 17.8327 24.3842 17.8392 24.3585 17.8393L24.3564 17.4424ZM24.2421 17.4717L24.053 17.1228C23.9674 17.1691 23.8849 17.2382 23.8229 17.3323L24.1543 17.5508L24.4856 17.7693C24.4675 17.7967 24.4467 17.8123 24.4313 17.8206L24.2421 17.4717ZM24.1543 17.5508L23.824 17.3306L20.5174 22.2896L20.8476 22.5098L21.1778 22.73L24.4845 17.771L24.1543 17.5508ZM20.8476 22.5098L20.5172 22.2898C20.246 22.6972 20.1465 23.196 20.2414 23.6765L20.6308 23.5996L21.0202 23.5227C20.966 23.2483 21.0228 22.9629 21.178 22.7297L20.8476 22.5098ZM20.6308 23.5996L20.2414 23.6766C20.3365 24.1573 20.6187 24.5801 21.0242 24.8535L21.246 24.5244L21.4679 24.1953C21.2355 24.0386 21.0744 23.7966 21.0202 23.5226L20.6308 23.5996ZM21.246 24.5244L21.0241 24.8535C21.7674 25.3549 22.4559 25.6253 23.0692 25.6254L23.0693 25.2285L23.0694 24.8316C22.6805 24.8315 22.1488 24.6546 21.468 24.1954L21.246 24.5244ZM23.0693 25.2285V25.6254C23.9326 25.6254 24.682 25.4631 25.3045 25.1102C25.9311 24.755 26.4019 24.2219 26.7282 23.5284L26.3691 23.3594L26.01 23.1904C25.7453 23.7528 25.381 24.1543 24.913 24.4196C24.4407 24.6874 23.8357 24.8316 23.0693 24.8316V25.2285ZM26.3691 23.3594L26.7284 23.528C26.7722 23.4347 26.8411 23.3544 26.9278 23.296L26.706 22.9668L26.4843 22.6376C26.2797 22.7754 26.1152 22.9662 26.0098 23.1907L26.3691 23.3594ZM26.706 22.9668L26.9276 23.2961C27.0136 23.2382 27.1142 23.2046 27.2182 23.1991L27.1972 22.8027L27.1763 22.4064C26.9293 22.4194 26.6899 22.4992 26.4844 22.6375L26.706 22.9668ZM27.1972 22.8027V23.1996H27.2119V22.8027V22.4058H27.1972V22.8027ZM27.2119 22.8027H26.815V22.8037H27.2119H27.6088V22.8027H27.2119ZM27.2119 22.8037L27.2263 23.2004C27.3304 23.1966 27.4331 23.2209 27.5236 23.2707L27.7148 22.9229L27.906 22.575C27.689 22.4557 27.444 22.3981 27.1975 22.4071L27.2119 22.8037ZM27.7148 22.9229L27.5235 23.2706C27.6148 23.3208 27.691 23.395 27.7432 23.4844L28.0859 23.2842L28.4286 23.084C28.3037 22.8701 28.1225 22.6941 27.9061 22.5751L27.7148 22.9229ZM28.0859 23.2842L27.7432 23.4844C28.5469 24.8597 30.206 25.6263 32.165 25.6264L32.165 25.2295L32.165 24.8326C30.3917 24.8325 29.0472 24.1426 28.4286 23.0839L28.0859 23.2842ZM32.165 25.2295V25.6264C33.9129 25.6264 35.3574 24.8387 36.265 23.4748L35.9345 23.2549L35.6041 23.035C34.8466 24.1734 33.6525 24.8326 32.165 24.8326V25.2295ZM35.9345 23.2549L36.2703 23.4666C36.3258 23.3785 36.4041 23.3072 36.4966 23.2604L36.3173 22.9062L36.1381 22.5521C35.917 22.664 35.7307 22.834 35.5988 23.0432L35.9345 23.2549ZM36.3173 22.9062L36.4966 23.2604C36.5882 23.214 36.6922 23.1932 36.797 23.2006L36.8251 22.8047L36.8533 22.4088C36.6076 22.3913 36.3599 22.4398 36.1381 22.5521L36.3173 22.9062ZM36.8251 22.8047L36.7969 23.2006C36.9004 23.208 36.9999 23.2433 37.0849 23.3027L37.3125 22.9775L37.54 22.6523C37.3373 22.5105 37.1001 22.4264 36.8534 22.4088L36.8251 22.8047ZM37.3125 22.9775L37.0849 23.3027C37.1708 23.3629 37.2383 23.4443 37.2803 23.5381L37.6425 23.376L38.0048 23.2138C37.9033 22.9871 37.7419 22.7936 37.54 22.6523L37.3125 22.9775ZM37.6425 23.376L37.284 23.5462C37.6106 24.2344 38.0812 24.7632 38.7063 25.1154C39.3272 25.4653 40.074 25.6264 40.9335 25.6264V25.2295V24.8326C40.1706 24.8326 39.5674 24.6895 39.0961 24.4239C38.6291 24.1607 38.2654 23.7627 38.0011 23.2058L37.6425 23.376ZM40.9335 25.2295L40.9336 25.6264C41.5482 25.6264 42.2361 25.3561 42.9797 24.8544L42.7578 24.5254L42.5358 24.1964C41.8547 24.6558 41.3237 24.8326 40.9335 24.8326L40.9335 25.2295ZM42.7578 24.5254L42.9797 24.8544C43.3854 24.5808 43.6665 24.1577 43.7614 23.6776L43.372 23.6006L42.9826 23.5236C42.9284 23.798 42.7678 24.0399 42.5358 24.1964L42.7578 24.5254ZM43.372 23.6006L43.7614 23.6775C43.8563 23.197 43.7569 22.6982 43.4856 22.2908L43.1552 22.5107L42.8248 22.7307C42.9801 22.9638 43.0369 23.2492 42.9826 23.5236L43.372 23.6006ZM43.1552 22.5107L43.4855 22.2906L40.1789 17.3297L39.8486 17.5498L39.5183 17.7699L42.825 22.7309L43.1552 22.5107ZM39.8486 17.5498L40.1786 17.3293C40.1209 17.2429 40.0424 17.171 39.9496 17.1211L39.7617 17.4707L39.5738 17.8203C39.5509 17.808 39.5322 17.7907 39.5186 17.7703L39.8486 17.5498ZM39.7617 17.4707L39.9492 17.1209C39.8536 17.0696 39.7496 17.0458 39.6487 17.0455L39.6474 17.4424L39.6461 17.8393C39.6248 17.8392 39.5997 17.8342 39.5741 17.8205L39.7617 17.4707ZM39.6474 17.4424V17.0455H24.3564V17.4424V17.8393H39.6474V17.4424Z" fill="white" mask="url(#path-3-outside-1_275_26747)"/>
</g>
<defs>
<filter id="filter0_d_275_26747" x="0" y="0" width="64" height="64" filterUnits="userSpaceOnUse" color-interpolation-filters="sRGB">
<feFlood flood-opacity="0" result="BackgroundImageFix"/>
<feColorMatrix in="SourceAlpha" type="matrix" values="0 0 0 0 0 0 0 0 0 0 0 0 0 0 0 0 0 0 127 0" result="hardAlpha"/>
<feOffset dy="4"/>
<feGaussianBlur stdDeviation="2"/>
<feComposite in2="hardAlpha" operator="out"/>
<feColorMatrix type="matrix" values="0 0 0 0 0 0 0 0 0 0 0 0 0 0 0 0 0 0 0.16 0"/>
<feBlend mode="normal" in2="BackgroundImageFix" result="effect1_dropShadow_275_26747"/>
<feBlend mode="normal" in="SourceGraphic" in2="effect1_dropShadow_275_26747" result="shape"/>
</filter>
</defs>
</svg>
