<svg width="56" height="60" viewBox="0 0 56 60" fill="none" xmlns="http://www.w3.org/2000/svg">
<g filter="url(#filter0_d_275_26809)">
<path d="M30.7119 27.3467C28.8719 27.3467 27.374 28.8446 27.374 30.6846C27.374 32.5245 28.8719 34.0225 30.7119 34.0225C32.5519 34.0225 34.0498 32.5245 34.0498 30.6846C34.0498 28.8446 32.5519 27.3467 30.7119 27.3467ZM23.8857 25.2061C24.4741 25.2063 24.9509 25.6831 24.9512 26.2715C24.9512 26.8601 24.4743 27.3376 23.8857 27.3379H21.8008C21.2121 27.3379 20.7344 26.8602 20.7344 26.2715C20.7346 25.683 21.2122 25.2061 21.8008 25.2061H23.8857ZM34.1992 20.7344C34.7879 20.7344 35.2656 21.2121 35.2656 21.8008C35.2655 22.3894 34.7879 22.8662 34.1992 22.8662H21.8008C21.2121 22.8662 20.7345 22.3894 20.7344 21.8008C20.7344 21.2121 21.2121 20.7344 21.8008 20.7344H34.1992ZM38.1445 36.9531C38.1445 37.2616 38.0216 37.5578 37.8037 37.7754L37.8027 37.7744C37.6949 37.8828 37.567 37.9696 37.4258 38.0283C37.2846 38.087 37.1333 38.1172 36.9805 38.1172C36.8275 38.1172 36.6755 38.087 36.5342 38.0283C36.4283 37.9843 36.3294 37.9252 36.2412 37.8525L36.1572 37.7754L33.6641 35.2822C32.8042 35.8384 31.8059 36.144 30.7803 36.1572H30.7119C27.6938 36.1572 25.2393 33.7027 25.2393 30.6846C25.2393 27.6664 27.6938 25.2109 30.7119 25.2109C33.7301 25.211 36.1846 27.6664 36.1846 30.6846C36.1842 31.7336 35.8794 32.7584 35.3105 33.6377L37.8027 36.1299L37.877 36.2119C38.0177 36.3822 38.1071 36.5887 38.1348 36.8086L38.1436 36.9189V36.9346L38.1445 36.9395V36.9531ZM39.1885 27.3604C39.1882 27.9489 38.7106 28.4258 38.1221 28.4258C37.5394 28.4257 37.0663 27.9583 37.0566 27.3779V18.916H18.9434V37.084H25.1494C25.738 37.084 26.2157 37.5608 26.2158 38.1494C26.2158 38.7323 25.7476 39.2063 25.167 39.2158H19.6338C18.091 39.2158 16.8374 37.9773 16.8125 36.4404V36.4395L16.8115 36.3955V19.6064C16.8115 18.0637 18.05 16.8101 19.5869 16.7852H19.5879L19.6318 16.7842H36.3662C37.8127 16.7842 39.0052 17.8729 39.1689 19.2754L39.1875 19.5596V19.5605L39.1885 19.6045V27.3604Z" fill="#333333" stroke="#333333" stroke-width="0.376364"/>
</g>
<defs>
<filter id="filter0_d_275_26809" x="-4" y="0" width="64" height="64" filterUnits="userSpaceOnUse" color-interpolation-filters="sRGB">
<feFlood flood-opacity="0" result="BackgroundImageFix"/>
<feColorMatrix in="SourceAlpha" type="matrix" values="0 0 0 0 0 0 0 0 0 0 0 0 0 0 0 0 0 0 127 0" result="hardAlpha"/>
<feOffset dy="4"/>
<feGaussianBlur stdDeviation="2"/>
<feComposite in2="hardAlpha" operator="out"/>
<feColorMatrix type="matrix" values="0 0 0 0 0 0 0 0 0 0 0 0 0 0 0 0 0 0 0.16 0"/>
<feBlend mode="normal" in2="BackgroundImageFix" result="effect1_dropShadow_275_26809"/>
<feBlend mode="normal" in="SourceGraphic" in2="effect1_dropShadow_275_26809" result="shape"/>
</filter>
</defs>
</svg>
