<svg width="56" height="59" viewBox="0 0 56 59" fill="none" xmlns="http://www.w3.org/2000/svg">
<g filter="url(#filter0_d_275_26833)">
<path d="M37.2383 16.8115C38.3154 16.8118 39.1885 17.6867 39.1885 18.7646V37.2354C39.1885 38.3133 38.3154 39.1882 37.2383 39.1885H18.7617C17.6846 39.1882 16.8115 38.3133 16.8115 37.2354V18.7646C16.8115 17.6867 17.6846 16.8118 18.7617 16.8115H37.2383ZM18.9502 37.0479H37.0498V18.9521H18.9502V37.0479ZM21.9502 32.0195C22.3209 32.0196 22.6763 32.1667 22.9385 32.4287C23.2007 32.6909 23.3486 33.0472 23.3486 33.418C23.3484 34.1898 22.7221 34.8153 21.9502 34.8154C21.1782 34.8154 20.552 34.1899 20.5518 33.418C20.5518 32.6457 21.178 32.0195 21.9502 32.0195ZM34.3799 32.3496C34.9698 32.3496 35.4482 32.828 35.4482 33.418C35.448 34.0077 34.9697 34.4854 34.3799 34.4854H25.6904C25.1006 34.4854 24.6223 34.0077 24.6221 33.418C24.6221 32.828 25.1005 32.3496 25.6904 32.3496H34.3799ZM21.9502 26.5742C22.3208 26.5743 22.6763 26.7214 22.9385 26.9834C23.2007 27.2456 23.3486 27.6018 23.3486 27.9727C23.3485 28.7447 22.7222 29.371 21.9502 29.3711C21.1781 29.3711 20.5518 28.7448 20.5518 27.9727C20.5518 27.2005 21.178 26.5742 21.9502 26.5742ZM34.3799 26.9043C34.9698 26.9043 35.4482 27.3827 35.4482 27.9727C35.4482 28.5625 34.9698 29.041 34.3799 29.041H25.6904C25.1005 29.041 24.6222 28.5625 24.6221 27.9727C24.6221 27.3827 25.1005 26.9043 25.6904 26.9043H34.3799ZM21.9502 21.1289C22.3209 21.129 22.6763 21.2769 22.9385 21.5391C23.2006 21.8012 23.3486 22.1566 23.3486 22.5273C23.3486 23.2994 22.7223 23.9257 21.9502 23.9258C21.178 23.9258 20.5518 23.2994 20.5518 22.5273C20.5519 21.7553 21.1781 21.1289 21.9502 21.1289ZM34.3799 21.459C34.9698 21.459 35.4482 21.9375 35.4482 22.5273C35.4482 23.1173 34.9698 23.5957 34.3799 23.5957H25.6904C25.1005 23.5957 24.6221 23.1173 24.6221 22.5273C24.6222 21.9375 25.1005 21.459 25.6904 21.459H34.3799Z" fill="#333333" stroke="#333333" stroke-width="0.376364"/>
</g>
<defs>
<filter id="filter0_d_275_26833" x="-4" y="0" width="64" height="64" filterUnits="userSpaceOnUse" color-interpolation-filters="sRGB">
<feFlood flood-opacity="0" result="BackgroundImageFix"/>
<feColorMatrix in="SourceAlpha" type="matrix" values="0 0 0 0 0 0 0 0 0 0 0 0 0 0 0 0 0 0 127 0" result="hardAlpha"/>
<feOffset dy="4"/>
<feGaussianBlur stdDeviation="2"/>
<feComposite in2="hardAlpha" operator="out"/>
<feColorMatrix type="matrix" values="0 0 0 0 0 0 0 0 0 0 0 0 0 0 0 0 0 0 0.16 0"/>
<feBlend mode="normal" in2="BackgroundImageFix" result="effect1_dropShadow_275_26833"/>
<feBlend mode="normal" in="SourceGraphic" in2="effect1_dropShadow_275_26833" result="shape"/>
</filter>
</defs>
</svg>
