<svg width="64" height="64" viewBox="0 0 64 64" fill="none" xmlns="http://www.w3.org/2000/svg">
<g filter="url(#filter0_d_275_26815)">
<path d="M4 8C4 3.58172 7.58172 0 12 0H52C56.4183 0 60 3.58172 60 8V48C60 52.4183 56.4183 56 52 56H12C7.58172 56 4 52.4183 4 48V8Z" fill="#F06A22" shape-rendering="crispEdges"/>
<path d="M32.3496 16.832C36.0501 16.8322 39.0498 19.8327 39.0498 23.5332C39.0497 25.8408 37.8814 27.8732 36.1064 29.0781C39.5627 30.6447 41.9677 34.1278 41.9678 38.1738C41.9678 38.7228 41.5226 39.168 40.9736 39.168C40.4302 39.1679 39.9883 38.7318 39.9795 38.1904V38.1738C39.9794 34.0211 36.8176 30.6084 32.7744 30.2188C32.3837 30.2434 31.9917 30.2345 31.6025 30.1914C27.4248 30.3969 24.0908 33.8218 24.0225 38.042L24.0215 38.1758C24.0205 38.7239 23.5757 39.168 23.0273 39.168C22.4785 39.1679 22.0332 38.7227 22.0332 38.1738C22.0333 33.9597 24.6425 30.3559 28.3311 28.8926C26.7035 27.6704 25.6485 25.7258 25.6484 23.5332C25.6484 19.8326 28.649 16.832 32.3496 16.832ZM32.3496 18.8203C29.7468 18.8203 27.6367 20.9304 27.6367 23.5332C27.6368 25.9101 29.3967 27.8754 31.6846 28.1982C31.7896 28.1948 31.8953 28.1943 32.001 28.1943C32.2655 28.1943 32.5277 28.2043 32.7871 28.2246C35.1844 28.004 37.0614 25.9882 37.0615 23.5332C37.0615 20.9306 34.9522 18.8205 32.3496 18.8203Z" fill="white" stroke="white" stroke-width="0.335287"/>
</g>
<defs>
<filter id="filter0_d_275_26815" x="0" y="0" width="64" height="64" filterUnits="userSpaceOnUse" color-interpolation-filters="sRGB">
<feFlood flood-opacity="0" result="BackgroundImageFix"/>
<feColorMatrix in="SourceAlpha" type="matrix" values="0 0 0 0 0 0 0 0 0 0 0 0 0 0 0 0 0 0 127 0" result="hardAlpha"/>
<feOffset dy="4"/>
<feGaussianBlur stdDeviation="2"/>
<feComposite in2="hardAlpha" operator="out"/>
<feColorMatrix type="matrix" values="0 0 0 0 0 0 0 0 0 0 0 0 0 0 0 0 0 0 0.16 0"/>
<feBlend mode="normal" in2="BackgroundImageFix" result="effect1_dropShadow_275_26815"/>
<feBlend mode="normal" in="SourceGraphic" in2="effect1_dropShadow_275_26815" result="shape"/>
</filter>
</defs>
</svg>
