<svg width="64" height="64" viewBox="0 0 64 64" fill="none" xmlns="http://www.w3.org/2000/svg">
<g filter="url(#filter0_d_275_26787)">
<path d="M4 8C4 3.58172 7.58172 0 12 0H52C56.4183 0 60 3.58172 60 8V48C60 52.4183 56.4183 56 52 56H12C7.58172 56 4 52.4183 4 48V8Z" fill="#F06A22" shape-rendering="crispEdges"/>
<mask id="path-3-outside-1_275_26787" maskUnits="userSpaceOnUse" x="20" y="14.4297" width="25" height="27" fill="black">
<rect fill="white" x="20" y="14.4297" width="25" height="27"/>
<path fill-rule="evenodd" clip-rule="evenodd" d="M31.9912 15.4297C32.1353 15.4285 32.2774 15.4651 32.4033 15.5352L32.415 15.542L42.583 21.4082H42.582C42.7069 21.4805 42.8106 21.5846 42.8838 21.709C42.9569 21.8334 42.9965 21.9749 42.999 22.1192V33.8672C42.9988 34.0116 42.9618 34.1538 42.8906 34.2793C42.8194 34.4048 42.7165 34.5098 42.5928 34.584L42.582 34.5908L32.417 40.461C32.2918 40.5313 32.1504 40.5682 32.0068 40.5694C31.8632 40.5705 31.7211 40.5351 31.5947 40.4668L31.583 40.461L21.416 34.5908C21.2913 34.5185 21.1872 34.4145 21.1143 34.2901C21.0415 34.1658 21.0023 34.0248 21 33.8809V22.1319C21 21.9877 21.0375 21.8462 21.1084 21.7207C21.1793 21.5952 21.2817 21.4895 21.4053 21.4151L21.416 21.4082L31.5811 15.542C31.7057 15.4699 31.8472 15.4309 31.9912 15.4297ZM22.7715 22.6719V33.3282L32 38.6563L41.2285 33.3272V22.6719L41.1895 22.6494L31.998 17.3457L22.7715 22.6719ZM25.0303 24.21C25.2875 23.8236 25.8031 23.6963 26.2129 23.9287L31.999 27.2705L37.7881 23.9268C38.2075 23.7055 38.7263 23.8513 38.9688 24.2569L38.9756 24.2696C39.2148 24.6845 39.0832 25.2141 38.6758 25.4698L32.8779 28.8194V35.4033C32.8783 35.6345 32.7887 35.8575 32.6279 36.0235L32.6182 36.0332C32.5356 36.1158 32.4371 36.181 32.3291 36.2256C32.2211 36.2702 32.1051 36.2932 31.9883 36.293C31.496 36.2928 31.0998 35.8966 31.0996 35.4043V28.8086L25.3232 25.4746C25.1227 25.3591 24.9747 25.1698 24.9111 24.9473L24.9082 24.9336C24.8778 24.8207 24.8696 24.7029 24.8848 24.5869C24.8999 24.471 24.9377 24.3592 24.9961 24.2578L25.0225 24.2129L25.0264 24.2149L25.0303 24.21Z"/>
</mask>
<path fill-rule="evenodd" clip-rule="evenodd" d="M31.9912 15.4297C32.1353 15.4285 32.2774 15.4651 32.4033 15.5352L32.415 15.542L42.583 21.4082H42.582C42.7069 21.4805 42.8106 21.5846 42.8838 21.709C42.9569 21.8334 42.9965 21.9749 42.999 22.1192V33.8672C42.9988 34.0116 42.9618 34.1538 42.8906 34.2793C42.8194 34.4048 42.7165 34.5098 42.5928 34.584L42.582 34.5908L32.417 40.461C32.2918 40.5313 32.1504 40.5682 32.0068 40.5694C31.8632 40.5705 31.7211 40.5351 31.5947 40.4668L31.583 40.461L21.416 34.5908C21.2913 34.5185 21.1872 34.4145 21.1143 34.2901C21.0415 34.1658 21.0023 34.0248 21 33.8809V22.1319C21 21.9877 21.0375 21.8462 21.1084 21.7207C21.1793 21.5952 21.2817 21.4895 21.4053 21.4151L21.416 21.4082L31.5811 15.542C31.7057 15.4699 31.8472 15.4309 31.9912 15.4297ZM22.7715 22.6719V33.3282L32 38.6563L41.2285 33.3272V22.6719L41.1895 22.6494L31.998 17.3457L22.7715 22.6719ZM25.0303 24.21C25.2875 23.8236 25.8031 23.6963 26.2129 23.9287L31.999 27.2705L37.7881 23.9268C38.2075 23.7055 38.7263 23.8513 38.9688 24.2569L38.9756 24.2696C39.2148 24.6845 39.0832 25.2141 38.6758 25.4698L32.8779 28.8194V35.4033C32.8783 35.6345 32.7887 35.8575 32.6279 36.0235L32.6182 36.0332C32.5356 36.1158 32.4371 36.181 32.3291 36.2256C32.2211 36.2702 32.1051 36.2932 31.9883 36.293C31.496 36.2928 31.0998 35.8966 31.0996 35.4043V28.8086L25.3232 25.4746C25.1227 25.3591 24.9747 25.1698 24.9111 24.9473L24.9082 24.9336C24.8778 24.8207 24.8696 24.7029 24.8848 24.5869C24.8999 24.471 24.9377 24.3592 24.9961 24.2578L25.0225 24.2129L25.0264 24.2149L25.0303 24.21Z" fill="white"/>
<path d="M31.9912 15.4297L31.9872 14.9449L31.9871 14.9449L31.9912 15.4297ZM32.4033 15.5352L32.6476 15.1163L32.6392 15.1116L32.4033 15.5352ZM32.415 15.542L32.1708 15.9608L32.1728 15.9619L32.415 15.542ZM42.583 21.4082V21.893H44.3935L42.8253 20.9883L42.583 21.4082ZM42.582 21.4082V20.9234H40.777L42.3391 21.8278L42.582 21.4082ZM42.8838 21.709L43.3017 21.4633L43.3017 21.4632L42.8838 21.709ZM42.999 22.1192H43.4839L43.4838 22.1108L42.999 22.1192ZM42.999 33.8672L43.4838 33.8679V33.8672H42.999ZM42.8906 34.2793L43.3123 34.5185L43.3123 34.5185L42.8906 34.2793ZM42.5928 34.584L42.3433 34.1681L42.3325 34.175L42.5928 34.584ZM42.582 34.5908L42.8245 35.0107L42.8335 35.0055L42.8423 34.9999L42.582 34.5908ZM32.417 40.461L32.6544 40.8837L32.6594 40.8808L32.417 40.461ZM32.0068 40.5694L32.0108 41.0542L32.0109 41.0541L32.0068 40.5694ZM31.5947 40.4668L31.8252 40.0403L31.8184 40.0366L31.8115 40.0332L31.5947 40.4668ZM31.583 40.461L31.3406 40.8808L31.3532 40.8881L31.3662 40.8946L31.583 40.461ZM21.416 34.5908L21.1727 35.0102L21.1736 35.0107L21.416 34.5908ZM21.1143 34.2901L20.6959 34.535L20.696 34.5352L21.1143 34.2901ZM21 33.8809H20.5151L20.5153 33.8885L21 33.8809ZM21 22.1319L20.5152 22.1317V22.1319H21ZM21.1084 21.7207L20.6863 21.4822L20.6863 21.4823L21.1084 21.7207ZM21.4053 21.4151L21.6555 21.8305L21.6656 21.8241L21.4053 21.4151ZM21.416 21.4082L21.1737 20.9883L21.1646 20.9936L21.1557 20.9992L21.416 21.4082ZM31.5811 15.542L31.8234 15.9619L31.8239 15.9616L31.5811 15.542ZM22.7715 22.6719L22.5291 22.252L22.2867 22.392V22.6719H22.7715ZM22.7715 33.3282H22.2867V33.6081L22.5291 33.748L22.7715 33.3282ZM32 38.6563L31.7576 39.0761L32 39.2161L32.2424 39.0761L32 38.6563ZM41.2285 33.3272L41.471 33.747L41.7133 33.6071V33.3272H41.2285ZM41.2285 22.6719H41.7133V22.3914L41.4702 22.2516L41.2285 22.6719ZM41.1895 22.6494L40.9472 23.0694L40.9478 23.0697L41.1895 22.6494ZM31.998 17.3457L32.2403 16.9258L31.998 16.786L31.7557 16.9259L31.998 17.3457ZM25.0303 24.21L25.4088 24.5128L25.4221 24.4963L25.4338 24.4787L25.0303 24.21ZM26.2129 23.9287L26.4554 23.5089L26.4521 23.5071L26.2129 23.9287ZM31.999 27.2705L31.7566 27.6904L31.999 27.8304L32.2415 27.6903L31.999 27.2705ZM37.7881 23.9268L37.5618 23.498L37.5536 23.5023L37.5456 23.507L37.7881 23.9268ZM38.9688 24.2569L39.3956 24.027L39.3905 24.0175L39.3849 24.0081L38.9688 24.2569ZM38.9756 24.2696L38.5486 24.4995L38.5556 24.5117L38.9756 24.2696ZM38.6758 25.4698L38.9183 25.8895L38.926 25.8851L38.9335 25.8804L38.6758 25.4698ZM32.8779 28.8194L32.6354 28.3996L32.3931 28.5396V28.8194H32.8779ZM32.8779 35.4033H32.3931L32.3931 35.4042L32.8779 35.4033ZM32.6279 36.0235L32.9708 36.3663L32.9762 36.3608L32.6279 36.0235ZM32.6182 36.0332L32.2754 35.6904L32.2753 35.6904L32.6182 36.0332ZM32.3291 36.2256L32.5143 36.6737L32.5143 36.6737L32.3291 36.2256ZM31.9883 36.293L31.9891 35.8082H31.9884L31.9883 36.293ZM31.0996 35.4043H30.6148V35.4046L31.0996 35.4043ZM31.0996 28.8086H31.5844V28.5287L31.342 28.3887L31.0996 28.8086ZM25.3232 25.4746L25.5656 25.0548L25.5652 25.0545L25.3232 25.4746ZM24.9111 24.9473L24.4371 25.0489L24.4405 25.0648L24.445 25.0805L24.9111 24.9473ZM24.9082 24.9336L25.3822 24.832L25.3796 24.8198L25.3764 24.8077L24.9082 24.9336ZM24.8848 24.5869L24.404 24.5241L24.404 24.5241L24.8848 24.5869ZM24.9961 24.2578L24.578 24.0124L24.576 24.0159L24.9961 24.2578ZM25.0225 24.2129L25.2393 23.7793L24.8338 23.5766L24.6044 23.9675L25.0225 24.2129ZM25.0264 24.2149L24.8096 24.6485L25.1601 24.8238L25.4049 24.5177L25.0264 24.2149ZM31.9912 15.4297L31.9952 15.9145C32.0548 15.914 32.1143 15.9292 32.1675 15.9587L32.4033 15.5352L32.6392 15.1116C32.4405 15.001 32.2158 14.943 31.9872 14.9449L31.9912 15.4297ZM32.4033 15.5352L32.159 15.9539L32.1708 15.9608L32.415 15.542L32.6593 15.1233L32.6476 15.1164L32.4033 15.5352ZM32.415 15.542L32.1728 15.9619L42.3407 21.8282L42.583 21.4082L42.8253 20.9883L32.6573 15.1221L32.415 15.542ZM42.583 21.4082V20.9234H42.582V21.4082V21.893H42.583V21.4082ZM42.582 21.4082L42.3391 21.8278C42.3901 21.8573 42.4342 21.9009 42.4659 21.9548L42.8838 21.709L43.3017 21.4632C43.187 21.2684 43.0237 21.1038 42.8249 20.9887L42.582 21.4082ZM42.8838 21.709L42.4659 21.9548C42.4964 22.0066 42.5132 22.0663 42.5143 22.1276L42.999 22.1192L43.4838 22.1108C43.4798 21.8835 43.4175 21.6602 43.3017 21.4633L42.8838 21.709ZM42.999 22.1192H42.5142V33.8672H42.999H43.4838V22.1192H42.999ZM42.999 33.8672L42.5142 33.8666C42.5141 33.9287 42.4982 33.9886 42.4689 34.0402L42.8906 34.2793L43.3123 34.5185C43.4255 34.319 43.4835 34.0944 43.4838 33.8679L42.999 33.8672ZM42.8906 34.2793L42.4689 34.0401C42.4394 34.0922 42.3961 34.1366 42.3434 34.1683L42.5928 34.584L42.8422 34.9998C43.0369 34.8829 43.1995 34.7175 43.3123 34.5185L42.8906 34.2793ZM42.5928 34.584L42.3325 34.175L42.3218 34.1818L42.582 34.5908L42.8423 34.9999L42.8531 34.993L42.5928 34.584ZM42.582 34.5908L42.3396 34.171L32.1745 40.0411L32.417 40.461L32.6594 40.8808L42.8245 35.0107L42.582 34.5908ZM32.417 40.461L32.1796 40.0382C32.1271 40.0677 32.0663 40.084 32.0028 40.0846L32.0068 40.5694L32.0109 41.0541C32.2346 41.0523 32.4564 40.9948 32.6543 40.8837L32.417 40.461ZM32.0068 40.5694L32.0029 40.0846C31.9413 40.0851 31.8799 40.0698 31.8252 40.0403L31.5947 40.4668L31.3643 40.8934C31.5624 41.0004 31.785 41.056 32.0108 41.0542L32.0068 40.5694ZM31.5947 40.4668L31.8115 40.0332L31.7998 40.0273L31.583 40.461L31.3662 40.8946L31.3779 40.9004L31.5947 40.4668ZM31.583 40.461L31.8254 40.0411L21.6584 34.171L21.416 34.5908L21.1736 35.0107L31.3406 40.8808L31.583 40.461ZM21.416 34.5908L21.6594 34.1715C21.6074 34.1414 21.5634 34.0976 21.5325 34.0449L21.1143 34.2901L20.696 34.5352C20.811 34.7314 20.9751 34.8955 21.1727 35.0102L21.416 34.5908ZM21.1143 34.2901L21.5326 34.0451C21.5023 33.9933 21.4857 33.9341 21.4847 33.8733L21 33.8809L20.5153 33.8885C20.5188 34.1156 20.5808 34.3384 20.6959 34.535L21.1143 34.2901ZM21 33.8809H21.4848V22.1319H21H20.5152V33.8809H21ZM21 22.1319L21.4848 22.132C21.4848 22.072 21.5004 22.0124 21.5305 21.9592L21.1084 21.7207L20.6863 21.4823C20.5746 21.68 20.5153 21.9035 20.5152 22.1317L21 22.1319ZM21.1084 21.7207L21.5305 21.9592C21.5606 21.9059 21.6041 21.8613 21.6554 21.8303L21.4053 21.4151L21.1551 20.9998C20.9594 21.1177 20.7981 21.2845 20.6863 21.4822L21.1084 21.7207ZM21.4053 21.4151L21.6656 21.8241L21.6763 21.8172L21.416 21.4082L21.1557 20.9992L21.145 21.0061L21.4053 21.4151ZM21.416 21.4082L21.6583 21.8281L31.8234 15.9619L31.5811 15.542L31.3387 15.1221L21.1737 20.9883L21.416 21.4082ZM31.5811 15.542L31.8239 15.9616C31.8766 15.9311 31.9359 15.915 31.9953 15.9145L31.9912 15.4297L31.9871 14.9449C31.7585 14.9469 31.5349 15.0086 31.3382 15.1224L31.5811 15.542ZM22.7715 22.6719H22.2867V33.3282H22.7715H23.2563V22.6719H22.7715ZM22.7715 33.3282L22.5291 33.748L31.7576 39.0761L32 38.6563L32.2424 38.2364L23.0139 32.9083L22.7715 33.3282ZM32 38.6563L32.2424 39.0761L41.471 33.747L41.2285 33.3272L40.9861 32.9073L31.7576 38.2364L32 38.6563ZM41.2285 33.3272H41.7133V22.6719H41.2285H40.7437V33.3272H41.2285ZM41.2285 22.6719L41.4702 22.2516L41.4311 22.2292L41.1895 22.6494L40.9478 23.0697L40.9869 23.0922L41.2285 22.6719ZM41.1895 22.6494L41.4318 22.2295L32.2403 16.9258L31.998 17.3457L31.7557 17.7656L40.9472 23.0694L41.1895 22.6494ZM31.998 17.3457L31.7557 16.9259L22.5291 22.252L22.7715 22.6719L23.0139 23.0918L32.2404 17.7656L31.998 17.3457ZM25.0303 24.21L25.4338 24.4787C25.5513 24.3022 25.787 24.2445 25.9737 24.3504L26.2129 23.9287L26.4521 23.5071C25.8192 23.148 25.0238 23.345 24.6267 23.9413L25.0303 24.21ZM26.2129 23.9287L25.9704 24.3486L31.7566 27.6904L31.999 27.2705L32.2415 26.8507L26.4554 23.5089L26.2129 23.9287ZM31.999 27.2705L32.2415 27.6903L38.0306 24.3466L37.7881 23.9268L37.5456 23.507L31.7565 26.8507L31.999 27.2705ZM37.7881 23.9268L38.0143 24.3556C38.206 24.2544 38.4425 24.3214 38.5526 24.5056L38.9688 24.2569L39.3849 24.0081C39.0101 23.3812 38.209 23.1566 37.5618 23.498L37.7881 23.9268ZM38.9688 24.2569L38.5419 24.4867L38.5487 24.4994L38.9756 24.2696L39.4024 24.0397L39.3956 24.027L38.9688 24.2569ZM38.9756 24.2696L38.5556 24.5117C38.6643 24.7003 38.6052 24.9417 38.4181 25.0591L38.6758 25.4698L38.9335 25.8804C39.5612 25.4865 39.7653 24.6687 39.3956 24.0274L38.9756 24.2696ZM38.6758 25.4698L38.4333 25.05L32.6354 28.3996L32.8779 28.8194L33.1205 29.2391L38.9183 25.8895L38.6758 25.4698ZM32.8779 28.8194H32.3931V35.4033H32.8779H33.3627V28.8194H32.8779ZM32.8779 35.4033L32.3931 35.4042C32.3933 35.5097 32.3523 35.6113 32.2797 35.6862L32.6279 36.0235L32.9762 36.3608C33.2252 36.1037 33.3634 35.7592 33.3627 35.4025L32.8779 35.4033ZM32.6279 36.0235L32.2851 35.6807L32.2754 35.6904L32.6182 36.0332L32.961 36.376L32.9707 36.3663L32.6279 36.0235ZM32.6182 36.0332L32.2753 35.6904C32.2389 35.7269 32.1942 35.7568 32.1439 35.7776L32.3291 36.2256L32.5143 36.6737C32.6799 36.6052 32.8323 36.5048 32.961 36.376L32.6182 36.0332ZM32.3291 36.2256L32.1439 35.7776C32.0949 35.7978 32.042 35.8083 31.9891 35.8082L31.9883 36.293L31.9875 36.7778C32.1682 36.7781 32.3474 36.7426 32.5143 36.6737L32.3291 36.2256ZM31.9883 36.293L31.9884 35.8082C31.7639 35.8081 31.5845 35.6288 31.5844 35.4041L31.0996 35.4043L30.6148 35.4046C30.6152 36.1643 31.2282 36.7776 31.9881 36.7778L31.9883 36.293ZM31.0996 35.4043H31.5844V28.8086H31.0996H30.6148V35.4043H31.0996ZM31.0996 28.8086L31.342 28.3887L25.5656 25.0548L25.3232 25.4746L25.0809 25.8945L30.8573 29.2285L31.0996 28.8086ZM25.3232 25.4746L25.5652 25.0545C25.4738 25.0019 25.4063 24.9155 25.3773 24.814L24.9111 24.9473L24.445 25.0805C24.5432 25.4242 24.7716 25.7164 25.0813 25.8947L25.3232 25.4746ZM24.9111 24.9473L25.3852 24.8457L25.3822 24.832L24.9082 24.9336L24.4342 25.0352L24.4371 25.0489L24.9111 24.9473ZM24.9082 24.9336L25.3764 24.8077C25.3622 24.7552 25.3587 24.7015 25.3655 24.6497L24.8848 24.5869L24.404 24.5241C24.3805 24.7043 24.3934 24.8862 24.44 25.0595L24.9082 24.9336ZM24.8848 24.5869L25.3655 24.6498C25.3724 24.5969 25.3896 24.5459 25.4162 24.4998L24.9961 24.2578L24.576 24.0159C24.4859 24.1724 24.4274 24.3451 24.404 24.5241L24.8848 24.5869ZM24.9961 24.2578L25.4142 24.5032L25.4406 24.4583L25.0225 24.2129L24.6044 23.9675L24.578 24.0124L24.9961 24.2578ZM25.0225 24.2129L24.8057 24.6465L24.8096 24.6485L25.0264 24.2149L25.2432 23.7813L25.2393 23.7793L25.0225 24.2129ZM25.0264 24.2149L25.4049 24.5177L25.4088 24.5128L25.0303 24.21L24.6517 23.9071L24.6478 23.912L25.0264 24.2149Z" fill="white" mask="url(#path-3-outside-1_275_26787)"/>
</g>
<defs>
<filter id="filter0_d_275_26787" x="0" y="0" width="64" height="64" filterUnits="userSpaceOnUse" color-interpolation-filters="sRGB">
<feFlood flood-opacity="0" result="BackgroundImageFix"/>
<feColorMatrix in="SourceAlpha" type="matrix" values="0 0 0 0 0 0 0 0 0 0 0 0 0 0 0 0 0 0 127 0" result="hardAlpha"/>
<feOffset dy="4"/>
<feGaussianBlur stdDeviation="2"/>
<feComposite in2="hardAlpha" operator="out"/>
<feColorMatrix type="matrix" values="0 0 0 0 0 0 0 0 0 0 0 0 0 0 0 0 0 0 0.16 0"/>
<feBlend mode="normal" in2="BackgroundImageFix" result="effect1_dropShadow_275_26787"/>
<feBlend mode="normal" in="SourceGraphic" in2="effect1_dropShadow_275_26787" result="shape"/>
</filter>
</defs>
</svg>
