<svg width="64" height="64" viewBox="0 0 64 64" fill="none" xmlns="http://www.w3.org/2000/svg">
<g filter="url(#filter0_d_275_26763)">
<path d="M4 8C4 3.58172 7.58172 0 12 0H52C56.4183 0 60 3.58172 60 8V48C60 52.4183 56.4183 56 52 56H12C7.58172 56 4 52.4183 4 48V8Z" fill="#F06A22" shape-rendering="crispEdges"/>
<path d="M28.3096 27.3867C30.0086 27.3867 31.3867 26.0086 31.3867 24.3096V18.8799C31.3867 17.1809 30.0086 15.8037 28.3096 15.8037H22.8799C21.1809 15.8038 19.8038 17.1809 19.8037 18.8799V24.3096C19.8037 26.0086 21.1809 27.3867 22.8799 27.3867H28.3096ZM41.1201 27.3867C42.8191 27.3867 44.1963 26.0086 44.1963 24.3096V18.8799C44.1962 17.1809 42.8191 15.8038 41.1201 15.8037H35.6904C33.9914 15.8037 32.6133 17.1809 32.6133 18.8799V24.3096C32.6133 26.0086 33.9914 27.3867 35.6904 27.3867H41.1201ZM34.9268 18.1162H41.8838V25.0732H34.9268V18.1162ZM22.1162 18.1162H29.0732V25.0732H22.1162V18.1162ZM28.3096 40.1963C30.0086 40.1963 31.3867 38.8191 31.3867 37.1201V31.6904C31.3867 29.9914 30.0086 28.6133 28.3096 28.6133H22.8799C21.1809 28.6133 19.8037 29.9914 19.8037 31.6904V37.1201C19.8038 38.8191 21.1809 40.1962 22.8799 40.1963H28.3096ZM41.1201 40.1963C42.8191 40.1962 44.1962 38.8191 44.1963 37.1201V31.6904C44.1963 29.9914 42.8191 28.6133 41.1201 28.6133H35.6904C33.9914 28.6133 32.6133 29.9914 32.6133 31.6904V37.1201C32.6133 38.8191 33.9914 40.1963 35.6904 40.1963H41.1201ZM34.9268 30.9268H41.8838V37.8838H34.9268V30.9268ZM22.1162 30.9268H29.0732V37.8838H22.1162V30.9268Z" fill="white" stroke="white" stroke-width="0.392727"/>
</g>
<defs>
<filter id="filter0_d_275_26763" x="0" y="0" width="64" height="64" filterUnits="userSpaceOnUse" color-interpolation-filters="sRGB">
<feFlood flood-opacity="0" result="BackgroundImageFix"/>
<feColorMatrix in="SourceAlpha" type="matrix" values="0 0 0 0 0 0 0 0 0 0 0 0 0 0 0 0 0 0 127 0" result="hardAlpha"/>
<feOffset dy="4"/>
<feGaussianBlur stdDeviation="2"/>
<feComposite in2="hardAlpha" operator="out"/>
<feColorMatrix type="matrix" values="0 0 0 0 0 0 0 0 0 0 0 0 0 0 0 0 0 0 0.16 0"/>
<feBlend mode="normal" in2="BackgroundImageFix" result="effect1_dropShadow_275_26763"/>
<feBlend mode="normal" in="SourceGraphic" in2="effect1_dropShadow_275_26763" result="shape"/>
</filter>
</defs>
</svg>
