<svg width="56" height="61" viewBox="0 0 56 61" fill="none" xmlns="http://www.w3.org/2000/svg">
<g filter="url(#filter0_d_275_26755)">
<mask id="path-3-outside-1_275_26755" maskUnits="userSpaceOnUse" x="13.6602" y="14.5" width="29" height="27" fill="black">
<rect fill="white" x="13.6602" y="14.5" width="29" height="27"/>
<path fill-rule="evenodd" clip-rule="evenodd" d="M35.6474 15.5C36.0068 15.5003 36.3609 15.5891 36.6777 15.7588C36.9946 15.9286 37.2645 16.1744 37.4638 16.4736L40.7705 21.4336C41.2689 22.1812 41.4515 23.096 41.2773 23.9775C41.103 24.859 40.5861 25.6359 39.8408 26.1377C39.7251 26.2157 39.6076 26.2911 39.4882 26.3633V35.8887C39.488 38.4236 37.5267 40.5 35.0791 40.5H21.3242C18.8767 40.4998 16.9162 38.4235 16.916 35.8887V26.5889C16.6562 26.4528 16.4039 26.3022 16.1611 26.1377C15.4157 25.6359 14.8988 24.859 14.7246 23.9775C14.5504 23.096 14.7329 22.1812 15.2314 21.4336L18.538 16.4736C18.7375 16.1743 19.008 15.9286 19.3251 15.7588C19.6423 15.589 19.9967 15.5 20.3564 15.5H35.6474ZM32.6582 25.4062C31.4943 26.5324 29.9368 27.1709 28.165 27.1709C26.2356 27.1708 24.5146 26.5548 23.3291 25.4238C22.3242 26.5814 20.8616 27.1709 19.0693 27.1709C18.999 27.1709 18.9276 27.1699 18.8574 27.165V35.8887C18.8576 37.375 19.9738 38.5584 21.3242 38.5586H35.0791C36.4284 38.5586 37.5456 37.3751 37.5459 35.8887V27.1211C37.3397 27.155 37.1361 27.1709 36.9335 27.1709C35.1314 27.1709 33.663 26.5749 32.6582 25.4062ZM31.8427 33.0967C32.1002 33.0967 32.3472 33.1989 32.5293 33.3809C32.7113 33.5629 32.8134 33.81 32.8134 34.0674C32.8134 34.3248 32.7112 34.5718 32.5293 34.7539C32.3472 34.936 32.1002 35.0381 31.8427 35.0381H24.5615C24.304 35.0381 24.057 34.936 23.875 34.7539C23.6929 34.5718 23.5908 34.3248 23.5908 34.0674C23.5908 33.81 23.6929 33.5629 23.875 33.3809C24.057 33.1989 24.3041 33.0967 24.5615 33.0967H31.8427ZM20.3564 17.4424C20.3165 17.4426 20.2772 17.4527 20.2421 17.4717C20.207 17.4907 20.1762 17.5175 20.1543 17.5508L16.8476 22.5098C16.6344 22.83 16.5562 23.2222 16.6308 23.5996C16.7054 23.977 16.9271 24.3094 17.246 24.5244C17.9581 25.0047 18.5682 25.2284 19.0693 25.2285C20.6991 25.2285 21.7781 24.6153 22.3691 23.3594C22.4437 23.2004 22.5604 23.0649 22.706 22.9668C22.8518 22.8687 23.0218 22.812 23.1972 22.8027H23.2119V22.8037C23.3872 22.7973 23.561 22.8383 23.7148 22.9229C23.8687 23.0075 23.9973 23.1325 24.0859 23.2842C24.797 24.5012 26.2988 25.2294 28.165 25.2295C29.7827 25.2295 31.102 24.5061 31.9345 23.2549C32.0282 23.1063 32.1606 22.9856 32.3173 22.9062C32.4741 22.8269 32.6499 22.7922 32.8251 22.8047C33.0003 22.8172 33.1686 22.8769 33.3125 22.9775C33.4563 23.0782 33.5708 23.2157 33.6425 23.376C34.2335 24.6211 35.311 25.2295 36.9335 25.2295C37.4359 25.2295 38.0454 25.0059 38.7578 24.5254C39.0766 24.3103 39.2974 23.9779 39.372 23.6006C39.4466 23.2231 39.3685 22.831 39.1552 22.5107L35.8486 17.5498C35.8265 17.5168 35.7967 17.4895 35.7617 17.4707C35.7266 17.4519 35.6872 17.4425 35.6474 17.4424H20.3564Z"/>
</mask>
<path fill-rule="evenodd" clip-rule="evenodd" d="M35.6474 15.5C36.0068 15.5003 36.3609 15.5891 36.6777 15.7588C36.9946 15.9286 37.2645 16.1744 37.4638 16.4736L40.7705 21.4336C41.2689 22.1812 41.4515 23.096 41.2773 23.9775C41.103 24.859 40.5861 25.6359 39.8408 26.1377C39.7251 26.2157 39.6076 26.2911 39.4882 26.3633V35.8887C39.488 38.4236 37.5267 40.5 35.0791 40.5H21.3242C18.8767 40.4998 16.9162 38.4235 16.916 35.8887V26.5889C16.6562 26.4528 16.4039 26.3022 16.1611 26.1377C15.4157 25.6359 14.8988 24.859 14.7246 23.9775C14.5504 23.096 14.7329 22.1812 15.2314 21.4336L18.538 16.4736C18.7375 16.1743 19.008 15.9286 19.3251 15.7588C19.6423 15.589 19.9967 15.5 20.3564 15.5H35.6474ZM32.6582 25.4062C31.4943 26.5324 29.9368 27.1709 28.165 27.1709C26.2356 27.1708 24.5146 26.5548 23.3291 25.4238C22.3242 26.5814 20.8616 27.1709 19.0693 27.1709C18.999 27.1709 18.9276 27.1699 18.8574 27.165V35.8887C18.8576 37.375 19.9738 38.5584 21.3242 38.5586H35.0791C36.4284 38.5586 37.5456 37.3751 37.5459 35.8887V27.1211C37.3397 27.155 37.1361 27.1709 36.9335 27.1709C35.1314 27.1709 33.663 26.5749 32.6582 25.4062ZM31.8427 33.0967C32.1002 33.0967 32.3472 33.1989 32.5293 33.3809C32.7113 33.5629 32.8134 33.81 32.8134 34.0674C32.8134 34.3248 32.7112 34.5718 32.5293 34.7539C32.3472 34.936 32.1002 35.0381 31.8427 35.0381H24.5615C24.304 35.0381 24.057 34.936 23.875 34.7539C23.6929 34.5718 23.5908 34.3248 23.5908 34.0674C23.5908 33.81 23.6929 33.5629 23.875 33.3809C24.057 33.1989 24.3041 33.0967 24.5615 33.0967H31.8427ZM20.3564 17.4424C20.3165 17.4426 20.2772 17.4527 20.2421 17.4717C20.207 17.4907 20.1762 17.5175 20.1543 17.5508L16.8476 22.5098C16.6344 22.83 16.5562 23.2222 16.6308 23.5996C16.7054 23.977 16.9271 24.3094 17.246 24.5244C17.9581 25.0047 18.5682 25.2284 19.0693 25.2285C20.6991 25.2285 21.7781 24.6153 22.3691 23.3594C22.4437 23.2004 22.5604 23.0649 22.706 22.9668C22.8518 22.8687 23.0218 22.812 23.1972 22.8027H23.2119V22.8037C23.3872 22.7973 23.561 22.8383 23.7148 22.9229C23.8687 23.0075 23.9973 23.1325 24.0859 23.2842C24.797 24.5012 26.2988 25.2294 28.165 25.2295C29.7827 25.2295 31.102 24.5061 31.9345 23.2549C32.0282 23.1063 32.1606 22.9856 32.3173 22.9062C32.4741 22.8269 32.6499 22.7922 32.8251 22.8047C33.0003 22.8172 33.1686 22.8769 33.3125 22.9775C33.4563 23.0782 33.5708 23.2157 33.6425 23.376C34.2335 24.6211 35.311 25.2295 36.9335 25.2295C37.4359 25.2295 38.0454 25.0059 38.7578 24.5254C39.0766 24.3103 39.2974 23.9779 39.372 23.6006C39.4466 23.2231 39.3685 22.831 39.1552 22.5107L35.8486 17.5498C35.8265 17.5168 35.7967 17.4895 35.7617 17.4707C35.7266 17.4519 35.6872 17.4425 35.6474 17.4424H20.3564Z" fill="#333333"/>
<path d="M35.6474 15.5L35.6477 15.1031H35.6474V15.5ZM36.6777 15.7588L36.8651 15.4089L36.8651 15.4089L36.6777 15.7588ZM37.4638 16.4736L37.1335 16.6937L37.1336 16.6938L37.4638 16.4736ZM40.7705 21.4336L40.4402 21.6538L40.4402 21.6538L40.7705 21.4336ZM41.2773 23.9775L41.6667 24.0545L41.6667 24.0545L41.2773 23.9775ZM39.8408 26.1377L39.6191 25.8084L39.6188 25.8087L39.8408 26.1377ZM39.4882 26.3633L39.2829 26.0236L39.0913 26.1395V26.3633H39.4882ZM39.4882 35.8887L39.8851 35.8887V35.8887H39.4882ZM35.0791 40.5V40.1031V40.5ZM21.3242 40.5L21.3241 40.8969H21.3242V40.5ZM16.916 35.8887H16.5191V35.8887L16.916 35.8887ZM16.916 26.5889H17.3129V26.3487L17.1001 26.2373L16.916 26.5889ZM16.1611 26.1377L16.3837 25.8091L16.3827 25.8084L16.1611 26.1377ZM14.7246 23.9775L14.3352 24.0545L14.3352 24.0545L14.7246 23.9775ZM15.2314 21.4336L15.5616 21.6538L15.5616 21.6538L15.2314 21.4336ZM18.538 16.4736L18.8683 16.6938L18.8684 16.6937L18.538 16.4736ZM19.3251 15.7588L19.1378 15.4089L19.1378 15.4089L19.3251 15.7588ZM20.3564 15.5L20.3564 15.8969H20.3564V15.5ZM32.6582 25.4062L32.9591 25.1475L32.6847 24.8283L32.3821 25.121L32.6582 25.4062ZM28.165 27.1709L28.165 27.5678H28.165V27.1709ZM23.3291 25.4238L23.603 25.1366L23.302 24.8495L23.0293 25.1636L23.3291 25.4238ZM19.0693 27.1709L19.0693 27.5678H19.0693V27.1709ZM18.8574 27.165L18.8847 26.7691L18.4605 26.7398V27.165H18.8574ZM18.8574 35.8887H18.4605V35.8887L18.8574 35.8887ZM21.3242 38.5586L21.3241 38.9555H21.3242V38.5586ZM37.5459 35.8887L37.9428 35.8887V35.8887H37.5459ZM37.5459 27.1211H37.9428V26.6535L37.4814 26.7295L37.5459 27.1211ZM36.9335 27.1709V27.5678H36.9336L36.9335 27.1709ZM31.8427 33.0967V32.6998V33.0967ZM32.5293 33.3809L32.8099 33.1002L32.8099 33.1001L32.5293 33.3809ZM32.8134 34.0674H33.2103V34.0673L32.8134 34.0674ZM32.5293 34.7539L32.8099 35.0346L32.81 35.0345L32.5293 34.7539ZM24.5615 35.0381V35.435V35.0381ZM23.875 34.7539L23.5943 35.0345L23.5943 35.0346L23.875 34.7539ZM23.5908 34.0674L23.1939 34.0673V34.0674H23.5908ZM23.875 33.3809L23.5944 33.1001L23.5943 33.1002L23.875 33.3809ZM24.5615 33.0967V32.6998V33.0967ZM20.3564 17.4424V17.0455L20.3543 17.0455L20.3564 17.4424ZM20.2421 17.4717L20.0533 17.1226L20.053 17.1228L20.2421 17.4717ZM20.1543 17.5508L20.4845 17.771L20.4856 17.7693L20.1543 17.5508ZM16.8476 22.5098L16.5174 22.2896L16.5172 22.2898L16.8476 22.5098ZM16.6308 23.5996L16.2414 23.6765L16.2414 23.6766L16.6308 23.5996ZM17.246 24.5244L17.468 24.1954L17.4679 24.1953L17.246 24.5244ZM19.0693 25.2285L19.0692 25.6254H19.0693V25.2285ZM22.3691 23.3594L22.7282 23.5284L22.7284 23.528L22.3691 23.3594ZM22.706 22.9668L22.4844 22.6375L22.4843 22.6376L22.706 22.9668ZM23.1972 22.8027V22.4058H23.1867L23.1763 22.4064L23.1972 22.8027ZM23.2119 22.8027H23.6088V22.4058H23.2119V22.8027ZM23.2119 22.8037H22.815V23.2153L23.2263 23.2004L23.2119 22.8037ZM23.7148 22.9229L23.9061 22.5751L23.906 22.575L23.7148 22.9229ZM24.0859 23.2842L23.7432 23.4844L23.7432 23.4844L24.0859 23.2842ZM28.165 25.2295L28.165 25.6264H28.165V25.2295ZM31.9345 23.2549L32.2651 23.4748L32.2703 23.4666L31.9345 23.2549ZM32.3173 22.9062L32.1381 22.5521L32.1381 22.5521L32.3173 22.9062ZM32.8251 22.8047L32.8534 22.4088L32.8533 22.4088L32.8251 22.8047ZM33.3125 22.9775L33.54 22.6523L33.54 22.6523L33.3125 22.9775ZM33.6425 23.376L33.2802 23.5382L33.284 23.5462L33.6425 23.376ZM36.9335 25.2295V25.6264H36.9336L36.9335 25.2295ZM38.7578 24.5254L38.9797 24.8544L38.9797 24.8544L38.7578 24.5254ZM39.372 23.6006L39.7614 23.6776L39.7614 23.6775L39.372 23.6006ZM39.1552 22.5107L39.4856 22.2908L39.4855 22.2906L39.1552 22.5107ZM35.8486 17.5498L36.1789 17.3297L36.1786 17.3293L35.8486 17.5498ZM35.7617 17.4707L35.9496 17.1211L35.9492 17.1209L35.7617 17.4707ZM35.6474 17.4424L35.6487 17.0455H35.6474V17.4424ZM35.6474 15.5L35.6471 15.8969C35.9414 15.8971 36.2311 15.9698 36.4903 16.1087L36.6777 15.7588L36.8651 15.4089C36.4906 15.2083 36.0723 15.1034 35.6477 15.1031L35.6474 15.5ZM36.6777 15.7588L36.4902 16.1087C36.7492 16.2474 36.9702 16.4485 37.1335 16.6937L37.4638 16.4736L37.7941 16.2536C37.5588 15.9003 37.24 15.6097 36.8651 15.4089L36.6777 15.7588ZM37.4638 16.4736L37.1336 16.6938L40.4402 21.6538L40.7705 21.4336L41.1007 21.2134L37.7941 16.2535L37.4638 16.4736ZM40.7705 21.4336L40.4402 21.6538C40.8806 22.3142 41.0418 23.1222 40.8879 23.9006L41.2773 23.9775L41.6667 24.0545C41.8613 23.0698 41.6573 22.0482 41.1007 21.2134L40.7705 21.4336ZM41.2773 23.9775L40.8879 23.9006C40.734 24.6789 40.2775 25.3652 39.6191 25.8084L39.8408 26.1377L40.0624 26.4669C40.8947 25.9066 41.472 25.039 41.6667 24.0545L41.2773 23.9775ZM39.8408 26.1377L39.6188 25.8087C39.5082 25.8833 39.3963 25.9551 39.2829 26.0236L39.4882 26.3633L39.6936 26.7029C39.819 26.6271 39.942 26.5482 40.0628 26.4667L39.8408 26.1377ZM39.4882 26.3633H39.0913V35.8887H39.4882H39.8851V26.3633H39.4882ZM39.4882 35.8887L39.0913 35.8886C39.0911 38.2228 37.2895 40.1031 35.0791 40.1031V40.5V40.8969C37.7639 40.8969 39.8849 38.6244 39.8851 35.8887L39.4882 35.8887ZM35.0791 40.5V40.1031H21.3242V40.5V40.8969H35.0791V40.5ZM21.3242 40.5L21.3242 40.1031C19.114 40.1029 17.3131 38.2228 17.3129 35.8886L16.916 35.8887L16.5191 35.8887C16.5193 38.6242 18.6394 40.8967 21.3241 40.8969L21.3242 40.5ZM16.916 35.8887H17.3129V26.5889H16.916H16.5191V35.8887H16.916ZM16.916 26.5889L17.1001 26.2373C16.8534 26.108 16.6139 25.9651 16.3837 25.8091L16.1611 26.1377L15.9385 26.4663C16.1938 26.6393 16.459 26.7976 16.7318 26.9405L16.916 26.5889ZM16.1611 26.1377L16.3827 25.8084C15.7244 25.3652 15.2678 24.6789 15.1139 23.9006L14.7246 23.9775L14.3352 24.0545C14.5298 25.039 15.1071 25.9066 15.9394 26.4669L16.1611 26.1377ZM14.7246 23.9775L15.1139 23.9006C14.9601 23.1222 15.1213 22.3142 15.5616 21.6538L15.2314 21.4336L14.9012 21.2134C14.3445 22.0482 14.1406 23.0698 14.3352 24.0545L14.7246 23.9775ZM15.2314 21.4336L15.5616 21.6538L18.8683 16.6938L18.538 16.4736L18.2078 16.2535L14.9012 21.2134L15.2314 21.4336ZM18.538 16.4736L18.8684 16.6937C19.0316 16.4487 19.253 16.2476 19.5125 16.1087L19.3251 15.7588L19.1378 15.4089C18.763 15.6095 18.4434 15.8998 18.2077 16.2536L18.538 16.4736ZM19.3251 15.7588L19.5125 16.1087C19.772 15.9698 20.0622 15.8969 20.3564 15.8969L20.3564 15.5L20.3564 15.1031C19.9313 15.1031 19.5125 15.2083 19.1378 15.4089L19.3251 15.7588ZM20.3564 15.5V15.8969H35.6474V15.5V15.1031H20.3564V15.5ZM32.6582 25.4062L32.3821 25.121C31.295 26.173 29.8375 26.774 28.165 26.774V27.1709V27.5678C30.0361 27.5678 31.6937 26.8918 32.9342 25.6915L32.6582 25.4062ZM28.165 27.1709L28.165 26.774C26.3168 26.7739 24.701 26.184 23.603 25.1366L23.3291 25.4238L23.0551 25.711C24.3283 26.9256 26.1544 27.5677 28.165 27.5678L28.165 27.1709ZM23.3291 25.4238L23.0293 25.1636C22.1146 26.2175 20.7711 26.774 19.0693 26.774V27.1709V27.5678C20.9521 27.5678 22.5339 26.9454 23.6288 25.684L23.3291 25.4238ZM19.0693 27.1709L19.0693 26.774C19.002 26.774 18.9412 26.773 18.8847 26.7691L18.8574 27.165L18.8301 27.561C18.914 27.5668 18.9961 27.5678 19.0693 27.5678L19.0693 27.1709ZM18.8574 27.165H18.4605V35.8887H18.8574H19.2543V27.165H18.8574ZM18.8574 35.8887L18.4605 35.8887C18.4607 37.5665 19.7278 38.9552 21.3241 38.9555L21.3242 38.5586L21.3242 38.1617C20.2197 38.1615 19.2545 37.1834 19.2543 35.8886L18.8574 35.8887ZM21.3242 38.5586V38.9555H35.0791V38.5586V38.1617H21.3242V38.5586ZM35.0791 38.5586V38.9555C36.6743 38.9555 37.9425 37.5667 37.9428 35.8887L37.5459 35.8887L37.1489 35.8886C37.1488 37.1835 36.1826 38.1617 35.0791 38.1617V38.5586ZM37.5459 35.8887H37.9428V27.1211H37.5459H37.1489V35.8887H37.5459ZM37.5459 27.1211L37.4814 26.7295C37.2972 26.7598 37.1151 26.774 36.9335 26.774L36.9335 27.1709L36.9336 27.5678C37.157 27.5678 37.3822 27.5503 37.6103 27.5127L37.5459 27.1211ZM36.9335 27.1709V26.774C35.2225 26.774 33.8739 26.2114 32.9591 25.1475L32.6582 25.4062L32.3572 25.665C33.4521 26.9384 35.0403 27.5678 36.9335 27.5678V27.1709ZM31.8427 33.0967V33.4936C31.995 33.4936 32.1411 33.5541 32.2486 33.6616L32.5293 33.3809L32.8099 33.1001C32.5533 32.8437 32.2053 32.6998 31.8427 32.6998V33.0967ZM32.5293 33.3809L32.2486 33.6615C32.356 33.7689 32.4165 33.915 32.4165 34.0675L32.8134 34.0674L33.2103 34.0673C33.2102 33.705 33.0665 33.3568 32.8099 33.1002L32.5293 33.3809ZM32.8134 34.0674H32.4165C32.4165 34.2197 32.356 34.3658 32.2485 34.4733L32.5293 34.7539L32.81 35.0345C33.0664 34.7779 33.2103 34.4299 33.2103 34.0674H32.8134ZM32.5293 34.7539L32.2486 34.4732C32.1411 34.5807 31.9951 34.6412 31.8427 34.6412V35.0381V35.435C32.2053 35.435 32.5533 35.2912 32.8099 35.0346L32.5293 34.7539ZM31.8427 35.0381V34.6412H24.5615V35.0381V35.435H31.8427V35.0381ZM24.5615 35.0381V34.6412C24.4091 34.6412 24.2631 34.5807 24.1556 34.4732L23.875 34.7539L23.5943 35.0346C23.8509 35.2912 24.1989 35.435 24.5615 35.435V35.0381ZM23.875 34.7539L24.1556 34.4733C24.0481 34.3658 23.9877 34.2198 23.9877 34.0674H23.5908H23.1939C23.1939 34.4299 23.3377 34.7779 23.5943 35.0345L23.875 34.7539ZM23.5908 34.0674L23.9877 34.0675C23.9877 33.915 24.0482 33.7689 24.1556 33.6615L23.875 33.3809L23.5943 33.1002C23.3377 33.3568 23.194 33.705 23.1939 34.0673L23.5908 34.0674ZM23.875 33.3809L24.1555 33.6616C24.2631 33.5541 24.4092 33.4936 24.5615 33.4936V33.0967V32.6998C24.1989 32.6998 23.8509 32.8437 23.5944 33.1001L23.875 33.3809ZM24.5615 33.0967V33.4936H31.8427V33.0967V32.6998H24.5615V33.0967ZM20.3564 17.4424L20.3543 17.0455C20.2488 17.046 20.1454 17.0728 20.0533 17.1226L20.2421 17.4717L20.431 17.8208C20.409 17.8327 20.3842 17.8392 20.3585 17.8393L20.3564 17.4424ZM20.2421 17.4717L20.053 17.1228C19.9674 17.1691 19.8849 17.2382 19.8229 17.3323L20.1543 17.5508L20.4856 17.7693C20.4675 17.7967 20.4467 17.8123 20.4313 17.8206L20.2421 17.4717ZM20.1543 17.5508L19.824 17.3306L16.5174 22.2896L16.8476 22.5098L17.1778 22.73L20.4845 17.771L20.1543 17.5508ZM16.8476 22.5098L16.5172 22.2898C16.246 22.6972 16.1465 23.196 16.2414 23.6765L16.6308 23.5996L17.0202 23.5227C16.966 23.2483 17.0228 22.9629 17.178 22.7297L16.8476 22.5098ZM16.6308 23.5996L16.2414 23.6766C16.3365 24.1573 16.6187 24.5801 17.0242 24.8535L17.246 24.5244L17.4679 24.1953C17.2355 24.0386 17.0744 23.7966 17.0202 23.5226L16.6308 23.5996ZM17.246 24.5244L17.0241 24.8535C17.7674 25.3549 18.4559 25.6253 19.0692 25.6254L19.0693 25.2285L19.0694 24.8316C18.6805 24.8315 18.1488 24.6546 17.468 24.1954L17.246 24.5244ZM19.0693 25.2285V25.6254C19.9326 25.6254 20.682 25.4631 21.3045 25.1102C21.9311 24.755 22.4019 24.2219 22.7282 23.5284L22.3691 23.3594L22.01 23.1904C21.7453 23.7528 21.381 24.1543 20.913 24.4196C20.4407 24.6874 19.8357 24.8316 19.0693 24.8316V25.2285ZM22.3691 23.3594L22.7284 23.528C22.7722 23.4347 22.8411 23.3544 22.9278 23.296L22.706 22.9668L22.4843 22.6376C22.2797 22.7754 22.1152 22.9662 22.0098 23.1907L22.3691 23.3594ZM22.706 22.9668L22.9276 23.2961C23.0136 23.2382 23.1142 23.2046 23.2182 23.1991L23.1972 22.8027L23.1763 22.4064C22.9293 22.4194 22.6899 22.4992 22.4844 22.6375L22.706 22.9668ZM23.1972 22.8027V23.1996H23.2119V22.8027V22.4058H23.1972V22.8027ZM23.2119 22.8027H22.815V22.8037H23.2119H23.6088V22.8027H23.2119ZM23.2119 22.8037L23.2263 23.2004C23.3304 23.1966 23.4331 23.2209 23.5236 23.2707L23.7148 22.9229L23.906 22.575C23.689 22.4557 23.444 22.3981 23.1975 22.4071L23.2119 22.8037ZM23.7148 22.9229L23.5235 23.2706C23.6148 23.3208 23.691 23.395 23.7432 23.4844L24.0859 23.2842L24.4286 23.084C24.3037 22.8701 24.1225 22.6941 23.9061 22.5751L23.7148 22.9229ZM24.0859 23.2842L23.7432 23.4844C24.5469 24.8597 26.206 25.6263 28.165 25.6264L28.165 25.2295L28.165 24.8326C26.3917 24.8325 25.0472 24.1426 24.4286 23.0839L24.0859 23.2842ZM28.165 25.2295V25.6264C29.9129 25.6264 31.3574 24.8387 32.265 23.4748L31.9345 23.2549L31.6041 23.035C30.8466 24.1734 29.6525 24.8326 28.165 24.8326V25.2295ZM31.9345 23.2549L32.2703 23.4666C32.3258 23.3785 32.4041 23.3072 32.4966 23.2604L32.3173 22.9062L32.1381 22.5521C31.917 22.664 31.7307 22.834 31.5988 23.0432L31.9345 23.2549ZM32.3173 22.9062L32.4966 23.2604C32.5882 23.214 32.6922 23.1932 32.797 23.2006L32.8251 22.8047L32.8533 22.4088C32.6076 22.3913 32.3599 22.4398 32.1381 22.5521L32.3173 22.9062ZM32.8251 22.8047L32.7969 23.2006C32.9004 23.208 32.9999 23.2433 33.0849 23.3027L33.3125 22.9775L33.54 22.6523C33.3373 22.5105 33.1001 22.4264 32.8534 22.4088L32.8251 22.8047ZM33.3125 22.9775L33.0849 23.3027C33.1708 23.3629 33.2383 23.4443 33.2803 23.5381L33.6425 23.376L34.0048 23.2138C33.9033 22.9871 33.7419 22.7936 33.54 22.6523L33.3125 22.9775ZM33.6425 23.376L33.284 23.5462C33.6106 24.2344 34.0812 24.7632 34.7063 25.1154C35.3272 25.4653 36.074 25.6264 36.9335 25.6264V25.2295V24.8326C36.1706 24.8326 35.5674 24.6895 35.0961 24.4239C34.6291 24.1607 34.2654 23.7627 34.0011 23.2058L33.6425 23.376ZM36.9335 25.2295L36.9336 25.6264C37.5482 25.6264 38.2361 25.3561 38.9797 24.8544L38.7578 24.5254L38.5358 24.1964C37.8547 24.6558 37.3237 24.8326 36.9335 24.8326L36.9335 25.2295ZM38.7578 24.5254L38.9797 24.8544C39.3854 24.5808 39.6665 24.1577 39.7614 23.6776L39.372 23.6006L38.9826 23.5236C38.9284 23.798 38.7678 24.0399 38.5358 24.1964L38.7578 24.5254ZM39.372 23.6006L39.7614 23.6775C39.8563 23.197 39.7569 22.6982 39.4856 22.2908L39.1552 22.5107L38.8248 22.7307C38.9801 22.9638 39.0369 23.2492 38.9826 23.5236L39.372 23.6006ZM39.1552 22.5107L39.4855 22.2906L36.1789 17.3297L35.8486 17.5498L35.5183 17.7699L38.825 22.7309L39.1552 22.5107ZM35.8486 17.5498L36.1786 17.3293C36.1209 17.2429 36.0424 17.171 35.9496 17.1211L35.7617 17.4707L35.5738 17.8203C35.5509 17.808 35.5322 17.7907 35.5186 17.7703L35.8486 17.5498ZM35.7617 17.4707L35.9492 17.1209C35.8536 17.0696 35.7496 17.0458 35.6487 17.0455L35.6474 17.4424L35.6461 17.8393C35.6248 17.8392 35.5997 17.8342 35.5741 17.8205L35.7617 17.4707ZM35.6474 17.4424V17.0455H20.3564V17.4424V17.8393H35.6474V17.4424Z" fill="#333333" mask="url(#path-3-outside-1_275_26755)"/>
</g>
<defs>
<filter id="filter0_d_275_26755" x="-4" y="0" width="64" height="64" filterUnits="userSpaceOnUse" color-interpolation-filters="sRGB">
<feFlood flood-opacity="0" result="BackgroundImageFix"/>
<feColorMatrix in="SourceAlpha" type="matrix" values="0 0 0 0 0 0 0 0 0 0 0 0 0 0 0 0 0 0 127 0" result="hardAlpha"/>
<feOffset dy="4"/>
<feGaussianBlur stdDeviation="2"/>
<feComposite in2="hardAlpha" operator="out"/>
<feColorMatrix type="matrix" values="0 0 0 0 0 0 0 0 0 0 0 0 0 0 0 0 0 0 0.16 0"/>
<feBlend mode="normal" in2="BackgroundImageFix" result="effect1_dropShadow_275_26755"/>
<feBlend mode="normal" in="SourceGraphic" in2="effect1_dropShadow_275_26755" result="shape"/>
</filter>
</defs>
</svg>
