<svg width="56" height="61" viewBox="0 0 56 61" fill="none" xmlns="http://www.w3.org/2000/svg">
<g filter="url(#filter0_d_275_26795)">
<mask id="path-3-outside-1_275_26795" maskUnits="userSpaceOnUse" x="16" y="14.4297" width="25" height="27" fill="black">
<rect fill="white" x="16" y="14.4297" width="25" height="27"/>
<path fill-rule="evenodd" clip-rule="evenodd" d="M27.9912 15.4297C28.1353 15.4285 28.2774 15.4651 28.4033 15.5352L28.415 15.542L38.583 21.4082H38.582C38.7069 21.4805 38.8106 21.5846 38.8838 21.709C38.9569 21.8334 38.9965 21.9749 38.999 22.1192V33.8672C38.9988 34.0116 38.9618 34.1538 38.8906 34.2793C38.8194 34.4048 38.7165 34.5098 38.5928 34.584L38.582 34.5908L28.417 40.461C28.2918 40.5313 28.1504 40.5682 28.0068 40.5694C27.8632 40.5705 27.7211 40.5351 27.5947 40.4668L27.583 40.461L17.416 34.5908C17.2913 34.5185 17.1872 34.4145 17.1143 34.2901C17.0415 34.1658 17.0023 34.0248 17 33.8809V22.1319C17 21.9877 17.0375 21.8462 17.1084 21.7207C17.1793 21.5952 17.2817 21.4895 17.4053 21.4151L17.416 21.4082L27.5811 15.542C27.7057 15.4699 27.8472 15.4309 27.9912 15.4297ZM18.7715 22.6719V33.3282L28 38.6563L37.2285 33.3272V22.6719L37.1895 22.6494L27.998 17.3457L18.7715 22.6719ZM21.0303 24.21C21.2875 23.8236 21.8031 23.6963 22.2129 23.9287L27.999 27.2705L33.7881 23.9268C34.2075 23.7055 34.7263 23.8513 34.9688 24.2569L34.9756 24.2696C35.2148 24.6845 35.0832 25.2141 34.6758 25.4698L28.8779 28.8194V35.4033C28.8783 35.6345 28.7887 35.8575 28.6279 36.0235L28.6182 36.0332C28.5356 36.1158 28.4371 36.181 28.3291 36.2256C28.2211 36.2702 28.1051 36.2932 27.9883 36.293C27.496 36.2928 27.0998 35.8966 27.0996 35.4043V28.8086L21.3232 25.4746C21.1227 25.3591 20.9747 25.1698 20.9111 24.9473L20.9082 24.9336C20.8778 24.8207 20.8696 24.7029 20.8848 24.5869C20.8999 24.471 20.9377 24.3592 20.9961 24.2578L21.0225 24.2129L21.0264 24.2149L21.0303 24.21Z"/>
</mask>
<path fill-rule="evenodd" clip-rule="evenodd" d="M27.9912 15.4297C28.1353 15.4285 28.2774 15.4651 28.4033 15.5352L28.415 15.542L38.583 21.4082H38.582C38.7069 21.4805 38.8106 21.5846 38.8838 21.709C38.9569 21.8334 38.9965 21.9749 38.999 22.1192V33.8672C38.9988 34.0116 38.9618 34.1538 38.8906 34.2793C38.8194 34.4048 38.7165 34.5098 38.5928 34.584L38.582 34.5908L28.417 40.461C28.2918 40.5313 28.1504 40.5682 28.0068 40.5694C27.8632 40.5705 27.7211 40.5351 27.5947 40.4668L27.583 40.461L17.416 34.5908C17.2913 34.5185 17.1872 34.4145 17.1143 34.2901C17.0415 34.1658 17.0023 34.0248 17 33.8809V22.1319C17 21.9877 17.0375 21.8462 17.1084 21.7207C17.1793 21.5952 17.2817 21.4895 17.4053 21.4151L17.416 21.4082L27.5811 15.542C27.7057 15.4699 27.8472 15.4309 27.9912 15.4297ZM18.7715 22.6719V33.3282L28 38.6563L37.2285 33.3272V22.6719L37.1895 22.6494L27.998 17.3457L18.7715 22.6719ZM21.0303 24.21C21.2875 23.8236 21.8031 23.6963 22.2129 23.9287L27.999 27.2705L33.7881 23.9268C34.2075 23.7055 34.7263 23.8513 34.9688 24.2569L34.9756 24.2696C35.2148 24.6845 35.0832 25.2141 34.6758 25.4698L28.8779 28.8194V35.4033C28.8783 35.6345 28.7887 35.8575 28.6279 36.0235L28.6182 36.0332C28.5356 36.1158 28.4371 36.181 28.3291 36.2256C28.2211 36.2702 28.1051 36.2932 27.9883 36.293C27.496 36.2928 27.0998 35.8966 27.0996 35.4043V28.8086L21.3232 25.4746C21.1227 25.3591 20.9747 25.1698 20.9111 24.9473L20.9082 24.9336C20.8778 24.8207 20.8696 24.7029 20.8848 24.5869C20.8999 24.471 20.9377 24.3592 20.9961 24.2578L21.0225 24.2129L21.0264 24.2149L21.0303 24.21Z" fill="#333333"/>
<path d="M27.9912 15.4297L27.9872 14.9449L27.9871 14.9449L27.9912 15.4297ZM28.4033 15.5352L28.6476 15.1163L28.6392 15.1116L28.4033 15.5352ZM28.415 15.542L28.1708 15.9608L28.1728 15.9619L28.415 15.542ZM38.583 21.4082V21.893H40.3935L38.8253 20.9883L38.583 21.4082ZM38.582 21.4082V20.9234H36.777L38.3391 21.8278L38.582 21.4082ZM38.8838 21.709L39.3017 21.4633L39.3017 21.4632L38.8838 21.709ZM38.999 22.1192H39.4839L39.4838 22.1108L38.999 22.1192ZM38.999 33.8672L39.4838 33.8679V33.8672H38.999ZM38.8906 34.2793L39.3123 34.5185L39.3123 34.5185L38.8906 34.2793ZM38.5928 34.584L38.3433 34.1681L38.3325 34.175L38.5928 34.584ZM38.582 34.5908L38.8245 35.0107L38.8335 35.0055L38.8423 34.9999L38.582 34.5908ZM28.417 40.461L28.6544 40.8837L28.6594 40.8808L28.417 40.461ZM28.0068 40.5694L28.0108 41.0542L28.0109 41.0541L28.0068 40.5694ZM27.5947 40.4668L27.8252 40.0403L27.8184 40.0366L27.8115 40.0332L27.5947 40.4668ZM27.583 40.461L27.3406 40.8808L27.3532 40.8881L27.3662 40.8946L27.583 40.461ZM17.416 34.5908L17.1727 35.0102L17.1736 35.0107L17.416 34.5908ZM17.1143 34.2901L16.6959 34.535L16.696 34.5352L17.1143 34.2901ZM17 33.8809H16.5151L16.5153 33.8885L17 33.8809ZM17 22.1319L16.5152 22.1317V22.1319H17ZM17.1084 21.7207L16.6863 21.4822L16.6863 21.4823L17.1084 21.7207ZM17.4053 21.4151L17.6555 21.8305L17.6656 21.8241L17.4053 21.4151ZM17.416 21.4082L17.1737 20.9883L17.1646 20.9936L17.1557 20.9992L17.416 21.4082ZM27.5811 15.542L27.8234 15.9619L27.8239 15.9616L27.5811 15.542ZM18.7715 22.6719L18.5291 22.252L18.2867 22.392V22.6719H18.7715ZM18.7715 33.3282H18.2867V33.6081L18.5291 33.748L18.7715 33.3282ZM28 38.6563L27.7576 39.0761L28 39.2161L28.2424 39.0761L28 38.6563ZM37.2285 33.3272L37.471 33.747L37.7133 33.6071V33.3272H37.2285ZM37.2285 22.6719H37.7133V22.3914L37.4702 22.2516L37.2285 22.6719ZM37.1895 22.6494L36.9472 23.0694L36.9478 23.0697L37.1895 22.6494ZM27.998 17.3457L28.2403 16.9258L27.998 16.786L27.7557 16.9259L27.998 17.3457ZM21.0303 24.21L21.4088 24.5128L21.4221 24.4963L21.4338 24.4787L21.0303 24.21ZM22.2129 23.9287L22.4554 23.5089L22.4521 23.5071L22.2129 23.9287ZM27.999 27.2705L27.7566 27.6904L27.999 27.8304L28.2415 27.6903L27.999 27.2705ZM33.7881 23.9268L33.5618 23.498L33.5536 23.5023L33.5456 23.507L33.7881 23.9268ZM34.9688 24.2569L35.3956 24.027L35.3905 24.0175L35.3849 24.0081L34.9688 24.2569ZM34.9756 24.2696L34.5486 24.4995L34.5556 24.5117L34.9756 24.2696ZM34.6758 25.4698L34.9183 25.8895L34.926 25.8851L34.9335 25.8804L34.6758 25.4698ZM28.8779 28.8194L28.6354 28.3996L28.3931 28.5396V28.8194H28.8779ZM28.8779 35.4033H28.3931L28.3931 35.4042L28.8779 35.4033ZM28.6279 36.0235L28.9708 36.3663L28.9762 36.3608L28.6279 36.0235ZM28.6182 36.0332L28.2754 35.6904L28.2753 35.6904L28.6182 36.0332ZM28.3291 36.2256L28.5143 36.6737L28.5143 36.6737L28.3291 36.2256ZM27.9883 36.293L27.9891 35.8082H27.9884L27.9883 36.293ZM27.0996 35.4043H26.6148V35.4046L27.0996 35.4043ZM27.0996 28.8086H27.5844V28.5287L27.342 28.3887L27.0996 28.8086ZM21.3232 25.4746L21.5656 25.0548L21.5652 25.0545L21.3232 25.4746ZM20.9111 24.9473L20.4371 25.0489L20.4405 25.0648L20.445 25.0805L20.9111 24.9473ZM20.9082 24.9336L21.3822 24.832L21.3796 24.8198L21.3764 24.8077L20.9082 24.9336ZM20.8848 24.5869L20.404 24.5241L20.404 24.5241L20.8848 24.5869ZM20.9961 24.2578L20.578 24.0124L20.576 24.0159L20.9961 24.2578ZM21.0225 24.2129L21.2393 23.7793L20.8338 23.5766L20.6044 23.9675L21.0225 24.2129ZM21.0264 24.2149L20.8096 24.6485L21.1601 24.8238L21.4049 24.5177L21.0264 24.2149ZM27.9912 15.4297L27.9952 15.9145C28.0548 15.914 28.1143 15.9292 28.1675 15.9587L28.4033 15.5352L28.6392 15.1116C28.4405 15.001 28.2158 14.943 27.9872 14.9449L27.9912 15.4297ZM28.4033 15.5352L28.159 15.9539L28.1708 15.9608L28.415 15.542L28.6593 15.1233L28.6476 15.1164L28.4033 15.5352ZM28.415 15.542L28.1728 15.9619L38.3407 21.8282L38.583 21.4082L38.8253 20.9883L28.6573 15.1221L28.415 15.542ZM38.583 21.4082V20.9234H38.582V21.4082V21.893H38.583V21.4082ZM38.582 21.4082L38.3391 21.8278C38.3901 21.8573 38.4342 21.9009 38.4659 21.9548L38.8838 21.709L39.3017 21.4632C39.187 21.2684 39.0237 21.1038 38.8249 20.9887L38.582 21.4082ZM38.8838 21.709L38.4659 21.9548C38.4964 22.0066 38.5132 22.0663 38.5143 22.1276L38.999 22.1192L39.4838 22.1108C39.4798 21.8835 39.4175 21.6602 39.3017 21.4633L38.8838 21.709ZM38.999 22.1192H38.5142V33.8672H38.999H39.4838V22.1192H38.999ZM38.999 33.8672L38.5142 33.8666C38.5141 33.9287 38.4982 33.9886 38.4689 34.0402L38.8906 34.2793L39.3123 34.5185C39.4255 34.319 39.4835 34.0944 39.4838 33.8679L38.999 33.8672ZM38.8906 34.2793L38.4689 34.0401C38.4394 34.0922 38.3961 34.1366 38.3434 34.1683L38.5928 34.584L38.8422 34.9998C39.0369 34.8829 39.1995 34.7175 39.3123 34.5185L38.8906 34.2793ZM38.5928 34.584L38.3325 34.175L38.3218 34.1818L38.582 34.5908L38.8423 34.9999L38.8531 34.993L38.5928 34.584ZM38.582 34.5908L38.3396 34.171L28.1745 40.0411L28.417 40.461L28.6594 40.8808L38.8245 35.0107L38.582 34.5908ZM28.417 40.461L28.1796 40.0382C28.1271 40.0677 28.0663 40.084 28.0028 40.0846L28.0068 40.5694L28.0109 41.0541C28.2346 41.0523 28.4564 40.9948 28.6543 40.8837L28.417 40.461ZM28.0068 40.5694L28.0029 40.0846C27.9413 40.0851 27.8799 40.0698 27.8252 40.0403L27.5947 40.4668L27.3643 40.8934C27.5624 41.0004 27.785 41.056 28.0108 41.0542L28.0068 40.5694ZM27.5947 40.4668L27.8115 40.0332L27.7998 40.0273L27.583 40.461L27.3662 40.8946L27.3779 40.9004L27.5947 40.4668ZM27.583 40.461L27.8254 40.0411L17.6584 34.171L17.416 34.5908L17.1736 35.0107L27.3406 40.8808L27.583 40.461ZM17.416 34.5908L17.6594 34.1715C17.6074 34.1414 17.5634 34.0976 17.5325 34.0449L17.1143 34.2901L16.696 34.5352C16.811 34.7314 16.9751 34.8955 17.1727 35.0102L17.416 34.5908ZM17.1143 34.2901L17.5326 34.0451C17.5023 33.9933 17.4857 33.9341 17.4847 33.8733L17 33.8809L16.5153 33.8885C16.5188 34.1156 16.5808 34.3384 16.6959 34.535L17.1143 34.2901ZM17 33.8809H17.4848V22.1319H17H16.5152V33.8809H17ZM17 22.1319L17.4848 22.132C17.4848 22.072 17.5004 22.0124 17.5305 21.9592L17.1084 21.7207L16.6863 21.4823C16.5746 21.68 16.5153 21.9035 16.5152 22.1317L17 22.1319ZM17.1084 21.7207L17.5305 21.9592C17.5606 21.9059 17.6041 21.8613 17.6554 21.8303L17.4053 21.4151L17.1551 20.9998C16.9594 21.1177 16.7981 21.2845 16.6863 21.4822L17.1084 21.7207ZM17.4053 21.4151L17.6656 21.8241L17.6763 21.8172L17.416 21.4082L17.1557 20.9992L17.145 21.0061L17.4053 21.4151ZM17.416 21.4082L17.6583 21.8281L27.8234 15.9619L27.5811 15.542L27.3387 15.1221L17.1737 20.9883L17.416 21.4082ZM27.5811 15.542L27.8239 15.9616C27.8766 15.9311 27.9359 15.915 27.9953 15.9145L27.9912 15.4297L27.9871 14.9449C27.7585 14.9469 27.5349 15.0086 27.3382 15.1224L27.5811 15.542ZM18.7715 22.6719H18.2867V33.3282H18.7715H19.2563V22.6719H18.7715ZM18.7715 33.3282L18.5291 33.748L27.7576 39.0761L28 38.6563L28.2424 38.2364L19.0139 32.9083L18.7715 33.3282ZM28 38.6563L28.2424 39.0761L37.471 33.747L37.2285 33.3272L36.9861 32.9073L27.7576 38.2364L28 38.6563ZM37.2285 33.3272H37.7133V22.6719H37.2285H36.7437V33.3272H37.2285ZM37.2285 22.6719L37.4702 22.2516L37.4311 22.2292L37.1895 22.6494L36.9478 23.0697L36.9869 23.0922L37.2285 22.6719ZM37.1895 22.6494L37.4318 22.2295L28.2403 16.9258L27.998 17.3457L27.7557 17.7656L36.9472 23.0694L37.1895 22.6494ZM27.998 17.3457L27.7557 16.9259L18.5291 22.252L18.7715 22.6719L19.0139 23.0918L28.2404 17.7656L27.998 17.3457ZM21.0303 24.21L21.4338 24.4787C21.5513 24.3022 21.787 24.2445 21.9737 24.3504L22.2129 23.9287L22.4521 23.5071C21.8192 23.148 21.0238 23.345 20.6267 23.9413L21.0303 24.21ZM22.2129 23.9287L21.9704 24.3486L27.7566 27.6904L27.999 27.2705L28.2415 26.8507L22.4554 23.5089L22.2129 23.9287ZM27.999 27.2705L28.2415 27.6903L34.0306 24.3466L33.7881 23.9268L33.5456 23.507L27.7565 26.8507L27.999 27.2705ZM33.7881 23.9268L34.0143 24.3556C34.206 24.2544 34.4425 24.3214 34.5526 24.5056L34.9688 24.2569L35.3849 24.0081C35.0101 23.3812 34.209 23.1566 33.5618 23.498L33.7881 23.9268ZM34.9688 24.2569L34.5419 24.4867L34.5487 24.4994L34.9756 24.2696L35.4024 24.0397L35.3956 24.027L34.9688 24.2569ZM34.9756 24.2696L34.5556 24.5117C34.6643 24.7003 34.6052 24.9417 34.4181 25.0591L34.6758 25.4698L34.9335 25.8804C35.5612 25.4865 35.7653 24.6687 35.3956 24.0274L34.9756 24.2696ZM34.6758 25.4698L34.4333 25.05L28.6354 28.3996L28.8779 28.8194L29.1205 29.2391L34.9183 25.8895L34.6758 25.4698ZM28.8779 28.8194H28.3931V35.4033H28.8779H29.3627V28.8194H28.8779ZM28.8779 35.4033L28.3931 35.4042C28.3933 35.5097 28.3523 35.6113 28.2797 35.6862L28.6279 36.0235L28.9762 36.3608C29.2252 36.1037 29.3634 35.7592 29.3627 35.4025L28.8779 35.4033ZM28.6279 36.0235L28.2851 35.6807L28.2754 35.6904L28.6182 36.0332L28.961 36.376L28.9707 36.3663L28.6279 36.0235ZM28.6182 36.0332L28.2753 35.6904C28.2389 35.7269 28.1942 35.7568 28.1439 35.7776L28.3291 36.2256L28.5143 36.6737C28.6799 36.6052 28.8323 36.5048 28.961 36.376L28.6182 36.0332ZM28.3291 36.2256L28.1439 35.7776C28.0949 35.7978 28.042 35.8083 27.9891 35.8082L27.9883 36.293L27.9875 36.7778C28.1682 36.7781 28.3474 36.7426 28.5143 36.6737L28.3291 36.2256ZM27.9883 36.293L27.9884 35.8082C27.7639 35.8081 27.5845 35.6288 27.5844 35.4041L27.0996 35.4043L26.6148 35.4046C26.6152 36.1643 27.2282 36.7776 27.9881 36.7778L27.9883 36.293ZM27.0996 35.4043H27.5844V28.8086H27.0996H26.6148V35.4043H27.0996ZM27.0996 28.8086L27.342 28.3887L21.5656 25.0548L21.3232 25.4746L21.0809 25.8945L26.8573 29.2285L27.0996 28.8086ZM21.3232 25.4746L21.5652 25.0545C21.4738 25.0019 21.4063 24.9155 21.3773 24.814L20.9111 24.9473L20.445 25.0805C20.5432 25.4242 20.7716 25.7164 21.0813 25.8947L21.3232 25.4746ZM20.9111 24.9473L21.3852 24.8457L21.3822 24.832L20.9082 24.9336L20.4342 25.0352L20.4371 25.0489L20.9111 24.9473ZM20.9082 24.9336L21.3764 24.8077C21.3622 24.7552 21.3587 24.7015 21.3655 24.6497L20.8848 24.5869L20.404 24.5241C20.3805 24.7043 20.3934 24.8862 20.44 25.0595L20.9082 24.9336ZM20.8848 24.5869L21.3655 24.6498C21.3724 24.5969 21.3896 24.5459 21.4162 24.4998L20.9961 24.2578L20.576 24.0159C20.4859 24.1724 20.4274 24.3451 20.404 24.5241L20.8848 24.5869ZM20.9961 24.2578L21.4142 24.5032L21.4406 24.4583L21.0225 24.2129L20.6044 23.9675L20.578 24.0124L20.9961 24.2578ZM21.0225 24.2129L20.8057 24.6465L20.8096 24.6485L21.0264 24.2149L21.2432 23.7813L21.2393 23.7793L21.0225 24.2129ZM21.0264 24.2149L21.4049 24.5177L21.4088 24.5128L21.0303 24.21L20.6517 23.9071L20.6478 23.912L21.0264 24.2149Z" fill="#333333" mask="url(#path-3-outside-1_275_26795)"/>
</g>
<defs>
<filter id="filter0_d_275_26795" x="-4" y="0" width="64" height="64" filterUnits="userSpaceOnUse" color-interpolation-filters="sRGB">
<feFlood flood-opacity="0" result="BackgroundImageFix"/>
<feColorMatrix in="SourceAlpha" type="matrix" values="0 0 0 0 0 0 0 0 0 0 0 0 0 0 0 0 0 0 127 0" result="hardAlpha"/>
<feOffset dy="4"/>
<feGaussianBlur stdDeviation="2"/>
<feComposite in2="hardAlpha" operator="out"/>
<feColorMatrix type="matrix" values="0 0 0 0 0 0 0 0 0 0 0 0 0 0 0 0 0 0 0.16 0"/>
<feBlend mode="normal" in2="BackgroundImageFix" result="effect1_dropShadow_275_26795"/>
<feBlend mode="normal" in="SourceGraphic" in2="effect1_dropShadow_275_26795" result="shape"/>
</filter>
</defs>
</svg>
