<svg width="64" height="64" viewBox="0 0 64 64" fill="none" xmlns="http://www.w3.org/2000/svg">
<g filter="url(#filter0_d_275_26851)">
<path d="M4 8C4 3.58172 7.58172 0 12 0H52C56.4183 0 60 3.58172 60 8V48C60 52.4183 56.4183 56 52 56H12C7.58172 56 4 52.4183 4 48V8Z" fill="#F06A22" shape-rendering="crispEdges"/>
<path d="M32 14.8174C32.366 14.8174 32.726 14.9137 33.043 15.0967L42.6543 20.6455C42.9712 20.8285 43.234 21.0922 43.417 21.4092C43.5999 21.7261 43.6962 22.0853 43.6963 22.4512V33.5498C43.6963 33.9158 43.6 34.2758 43.417 34.5928C43.234 34.9095 42.971 35.1725 42.6543 35.3555L33.043 40.9053C32.726 41.0883 32.366 41.1846 32 41.1846C31.634 41.1846 31.274 41.0883 30.957 40.9053L21.3457 35.3555C21.029 35.1725 20.766 34.9095 20.583 34.5928C20.4 34.2758 20.3037 33.9158 20.3037 33.5498V22.4512C20.3038 22.0853 20.4001 21.7261 20.583 21.4092C20.766 21.0922 21.0288 20.8285 21.3457 20.6455L30.957 15.0967C31.274 14.9137 31.634 14.8174 32 14.8174ZM22.7031 22.6328V33.3682L31.999 38.7344L41.2969 33.3672V22.6338L31.999 17.2656L22.7031 22.6328ZM32 23.082C34.7162 23.082 36.918 25.2848 36.918 28.001C36.9177 30.717 34.7161 32.9189 32 32.9189C29.2839 32.9189 27.0823 30.717 27.082 28.001C27.082 25.2848 29.2838 23.082 32 23.082ZM32 25.3643C30.5441 25.3643 29.3643 26.5451 29.3643 28.001C29.3645 29.4567 30.5443 30.6367 32 30.6367C33.4558 30.6367 34.6355 29.4567 34.6357 28.001C34.6357 26.5451 33.4559 25.3643 32 25.3643Z" fill="white" stroke="white" stroke-width="0.393471"/>
</g>
<defs>
<filter id="filter0_d_275_26851" x="0" y="0" width="64" height="64" filterUnits="userSpaceOnUse" color-interpolation-filters="sRGB">
<feFlood flood-opacity="0" result="BackgroundImageFix"/>
<feColorMatrix in="SourceAlpha" type="matrix" values="0 0 0 0 0 0 0 0 0 0 0 0 0 0 0 0 0 0 127 0" result="hardAlpha"/>
<feOffset dy="4"/>
<feGaussianBlur stdDeviation="2"/>
<feComposite in2="hardAlpha" operator="out"/>
<feColorMatrix type="matrix" values="0 0 0 0 0 0 0 0 0 0 0 0 0 0 0 0 0 0 0.16 0"/>
<feBlend mode="normal" in2="BackgroundImageFix" result="effect1_dropShadow_275_26851"/>
<feBlend mode="normal" in="SourceGraphic" in2="effect1_dropShadow_275_26851" result="shape"/>
</filter>
</defs>
</svg>
