<svg width="32" height="32" viewBox="0 0 32 32" fill="none" xmlns="http://www.w3.org/2000/svg">
<path d="M19.8708 25.7242L20.4908 9.30167L20.8025 9.61167L22.4033 9.73167C22.4465 9.7351 22.4873 9.75301 22.5191 9.7825C22.5508 9.81199 22.5717 9.85134 22.5783 9.89417C22.5917 9.995 24.75 24.6633 24.75 24.6633L19.8708 25.7242ZM19.0458 25.9033L18.6 26L7.25 23.8633C7.25 23.8633 8.70667 12.5417 8.76167 12.1433C8.835 11.6158 8.85167 11.5983 9.40917 11.4233C9.49917 11.3942 10.2075 11.1733 11.205 10.8633C11.59 9.225 12.8167 6 15.3833 6C15.7192 6 16.1067 6.18083 16.42 6.5975C16.4511 6.59546 16.4822 6.59435 16.5133 6.59417C17.615 6.59417 18.2417 7.5375 18.5967 8.56417L19.1908 8.37917C19.2792 8.35333 19.5075 8.3175 19.6242 8.435L19.7033 8.51417L19.0458 25.9033ZM16.4167 9.4275C16.4167 8.6475 16.33 8.06917 16.1975 7.66667C15.6725 7.94 15.0708 8.66583 14.75 10.1667L16.4167 9.54083V9.4275ZM15.2817 6.83333C13.5958 6.83333 12.6483 9.41583 12.25 11L13.6833 10.4817C14.025 8.405 14.8308 7.365 15.5833 6.9525C15.4995 6.87922 15.3929 6.83712 15.2817 6.83333ZM15.6483 15.1958L16.4167 12.9608C16.4167 12.9608 15.8967 12.6667 14.8458 12.6667C12.1167 12.6667 10.765 14.4483 10.765 16.2892C10.765 18.4767 12.9983 18.5358 12.9983 19.8675C12.9983 20.1892 12.765 20.6292 12.1925 20.6292C11.3175 20.6292 10.2792 19.7583 10.2792 19.7583L9.75 21.465C9.75 21.465 10.76 22.6667 12.7342 22.6667C14.38 22.6667 15.6 21.4558 15.6 19.575C15.6 17.185 12.8783 16.7942 12.8783 15.7733C12.8783 15.5867 12.94 14.8442 14.15 14.8442C14.975 14.8442 15.6475 15.1958 15.6475 15.1958H15.6483ZM17.4092 9.33333L18.0833 9.05167C17.9133 8.34667 17.6483 7.73417 17.25 7.66667C17.3492 8.05 17.4108 8.535 17.4108 9.13667V9.33333H17.4092Z" fill="#96BF48"/>
</svg>
