<svg width="40" height="40" viewBox="0 0 40 40" fill="none" xmlns="http://www.w3.org/2000/svg">
<path d="M6.68811 19.3871C6.68811 19.3871 6.79382 17.5386 8.90525 17.5386C11.0104 17.5374 11.0104 19.3871 11.0104 19.3871H6.68811ZM8.94182 16.5723C5.26982 16.5723 5.12697 19.3951 5.14582 20.1283C5.14582 20.1283 4.96582 23.4294 8.85325 23.4294C12.1921 23.4294 12.3561 21.3586 12.3561 21.3586L10.8201 21.3608C10.8201 21.3608 10.5207 22.5026 8.85897 22.4717C6.7224 22.4328 6.63897 20.3883 6.63897 20.3883H12.559C12.559 20.3883 13.0075 16.5734 8.94125 16.5723H8.94182Z" fill="#FF513B"/>
<path d="M16.2675 22.472C14.012 22.5 14.0475 20.1023 14.0475 20.1023C14.0475 20.1023 13.9663 17.7943 16.264 17.7349C18.5612 17.676 18.4869 20.1509 18.4869 20.1509C18.4869 20.1509 18.5223 22.444 16.2669 22.472H16.2675ZM16.5949 16.776C14.8092 16.7663 14.0406 17.824 14.0406 17.824V14.2852H12.6092L12.6332 21.764C12.6332 21.764 12.624 22.6349 12.5703 23.2109H13.9606L14.0206 22.3709C14.0206 22.3709 14.6697 23.428 16.5652 23.428C18.4606 23.428 19.9589 22.2714 19.9989 20.1269C20.0389 17.9817 18.3817 16.7863 16.5955 16.776H16.5949Z" fill="#0061D4"/>
<path d="M22.7883 22.5012C22.7883 22.5012 21.4569 22.5023 21.3786 21.3378C21.2957 20.0932 23.4266 20.168 23.4266 20.168L24.9317 20.1663C24.9317 20.1663 25.1746 22.5349 22.7877 22.5012H22.7883ZM26.258 21.6909C26.2609 20.6983 26.2877 19.812 26.258 19.1863C26.2231 18.4618 26.2854 16.712 23.4266 16.5829C23.4266 16.5829 20.6854 16.3086 20.4003 18.5452H21.8026C21.8026 18.5452 21.9111 17.52 23.334 17.5498C24.6803 17.5783 24.9254 18.3018 24.9186 19.192C24.9186 19.192 23.7643 19.1955 23.3791 19.1978C22.6854 19.2012 20.2574 19.2858 20.0306 20.908C19.7609 22.8349 21.3311 23.4366 22.5591 23.4292C23.7877 23.4212 24.4877 23.0183 25.0083 22.2955L25.0643 23.1932L26.2854 23.1858C26.2854 23.1858 26.254 22.6835 26.258 21.6909Z" fill="#F7B000"/>
<path d="M25.7148 17.1426H27.3708L29.7914 21.9506L32.2183 17.1426H33.7148L29.3343 25.714H27.7337L29.0017 23.3323L25.7148 17.1426Z" fill="#86BA00"/>
</svg>
