<svg width="32" height="32" viewBox="0 0 32 32" fill="none" xmlns="http://www.w3.org/2000/svg">
<g clip-path="url(#clip0_275_26898)">
<path d="M20.3144 13.2199C21.6439 14.1756 23.2404 14.6887 24.8778 14.6866V11.3991C24.5553 11.3991 24.2344 11.3658 23.9194 11.2983V13.8849C22.2819 13.8874 20.6851 13.3746 19.3553 12.4191V19.1258C19.3553 22.4808 16.6453 25.1999 13.3028 25.1999C12.1023 25.2017 10.9288 24.8438 9.93359 24.1724C10.4956 24.7516 11.1683 25.2118 11.9117 25.5259C12.6551 25.84 13.4541 26.0015 14.2611 26.0008C17.6036 26.0008 20.3144 23.2816 20.3144 19.9258V13.2208V13.2199ZM21.4961 9.90495C20.8196 9.16429 20.4045 8.22232 20.3144 7.22328V6.80078H19.4061C19.5175 7.43574 19.7612 8.0402 20.1212 8.57496C20.4813 9.10971 20.9497 9.56284 21.4961 9.90495ZM12.0478 21.5991C11.6802 21.1153 11.4817 20.5242 11.4828 19.9166C11.4822 19.4806 11.5844 19.0506 11.7812 18.6615C11.9779 18.2724 12.2636 17.9351 12.6151 17.6772C12.9667 17.4192 13.374 17.2477 13.8042 17.1767C14.2344 17.1056 14.6753 17.137 15.0911 17.2683V13.9091C14.7739 13.8653 14.4537 13.8467 14.1336 13.8533V16.4683C13.7178 16.337 13.2769 16.3056 12.8467 16.3767C12.4165 16.4477 12.0092 16.6192 11.6576 16.8772C11.3061 17.1351 11.0204 17.4724 10.8237 17.8615C10.6269 18.2506 10.5247 18.6806 10.5253 19.1166C10.5253 20.2016 11.1444 21.1416 12.0478 21.5991Z" fill="#FF513B"/>
<path d="M19.3545 12.4199C20.6844 13.3753 22.2812 13.8882 23.9187 13.8858V11.2991C22.9853 11.0985 22.138 10.611 21.4954 9.90495C20.949 9.5628 20.4806 9.10966 20.1206 8.57491C19.7605 8.04016 19.5169 7.43573 19.4054 6.80078H17.0195V19.9258C17.0184 20.6598 16.7265 21.3635 16.2076 21.8827C15.6887 22.4018 14.9852 22.6942 14.2512 22.6958C13.824 22.6959 13.4026 22.5969 13.0202 22.4066C12.6377 22.2164 12.3046 21.9399 12.047 21.5991C11.5883 21.3668 11.203 21.0117 10.9341 20.5734C10.6652 20.1351 10.5231 19.6308 10.5237 19.1166C10.5231 18.6806 10.6254 18.2506 10.8221 17.8615C11.0189 17.4724 11.3046 17.1351 11.6561 16.8772C12.0076 16.6192 12.415 16.4477 12.8452 16.3767C13.2754 16.3056 13.7162 16.337 14.132 16.4683V13.8533C10.8487 13.9216 8.20703 16.6141 8.20703 19.9266C8.20703 21.5799 8.86536 23.0783 9.93286 24.1733C10.9281 24.8447 12.1015 25.2026 13.302 25.2008C16.6454 25.2008 19.3545 22.4808 19.3545 19.1258V12.4208V12.4199Z" fill="black"/>
<path d="M23.9192 11.2983V10.5983C23.0621 10.5998 22.2221 10.3592 21.4958 9.90417C22.1382 10.6105 22.9856 11.098 23.9192 11.2983ZM19.4058 6.8C19.3841 6.6749 19.3674 6.54896 19.3558 6.4225V6H16.0617V19.125C16.0608 19.8591 15.7689 20.5629 15.25 21.0821C14.731 21.6014 14.0274 21.8937 13.2933 21.895C12.8605 21.8956 12.4336 21.7939 12.0475 21.5983C12.3051 21.9392 12.6382 22.2156 13.0206 22.4059C13.4031 22.5962 13.8245 22.6951 14.2517 22.695C14.9855 22.6935 15.6889 22.4012 16.2078 21.8822C16.7266 21.3632 17.0187 20.6597 17.02 19.9258V6.8H19.4058ZM14.1333 13.8525V13.1083C13.8583 13.0705 13.581 13.0516 13.3033 13.0517C9.96 13.0517 7.25 15.7708 7.25 19.1258C7.24885 20.1226 7.49302 21.1044 7.96098 21.9845C8.42895 22.8646 9.10632 23.6161 9.93334 24.1725C8.82498 23.0371 8.2057 21.5125 8.20834 19.9258C8.20834 16.6142 10.85 13.9208 14.1333 13.8525Z" fill="#00F2EA"/>
</g>
<defs>
<clipPath id="clip0_275_26898">
<rect width="20" height="20" fill="white" transform="translate(6 6)"/>
</clipPath>
</defs>
</svg>
