<svg width="40" height="40" viewBox="0 0 40 40" fill="none" xmlns="http://www.w3.org/2000/svg">
<path d="M23.8809 6.85352C24.5223 6.85357 25.1372 7.10898 25.5908 7.5625C26.0445 8.01616 26.2998 8.63187 26.2998 9.27344V10.082H32.3125C32.4608 10.0796 32.6085 10.1066 32.7461 10.1621C32.8843 10.2179 33.0098 10.3018 33.1152 10.4072C33.2206 10.5126 33.3036 10.6382 33.3594 10.7764C33.4148 10.9138 33.4419 11.0608 33.4395 11.209L33.4346 11.3203C33.409 11.5783 33.2943 11.8209 33.1094 12.0059C32.8981 12.217 32.6113 12.3359 32.3125 12.3359H29.5459V29.4189C29.5459 29.9085 29.449 30.3934 29.2617 30.8457C29.0743 31.2981 28.7994 31.7094 28.4531 32.0557C28.107 32.4018 27.6964 32.6769 27.2441 32.8643C26.7917 33.0517 26.3061 33.1484 25.8164 33.1484H14.1211C13.6314 33.1484 13.1458 33.0517 12.6934 32.8643C12.241 32.6769 11.8296 32.4019 11.4834 32.0557C11.1373 31.7095 10.8631 31.298 10.6758 30.8457C10.4884 30.3934 10.3916 29.9086 10.3916 29.4189V12.3398H7.61426C7.32803 12.3206 7.06017 12.193 6.86426 11.9834C6.66836 11.7738 6.55859 11.4978 6.55859 11.2109C6.55866 10.9241 6.6684 10.648 6.86426 10.4385C7.06016 10.2291 7.32813 10.1013 7.61426 10.082H13.6553V9.27246C13.6578 8.63198 13.9134 8.01841 14.3662 7.56543C14.8192 7.11242 15.4336 6.85601 16.0742 6.85352H23.8809ZM12.6455 29.4189L12.6533 29.5645C12.6877 29.9019 12.8372 30.219 13.0791 30.4609C13.3556 30.7373 13.7301 30.8935 14.1211 30.8945H25.8164C26.2076 30.8945 26.5827 30.7385 26.8594 30.4619C27.136 30.1853 27.292 29.8102 27.292 29.4189V12.3359H12.6455V29.4189ZM15.4102 15.5264C15.5651 15.5264 15.7192 15.5584 15.8613 15.6201C16.0034 15.6818 16.1315 15.7726 16.2373 15.8857C16.343 15.9989 16.4246 16.1325 16.4766 16.2783C16.5274 16.421 16.5479 16.5725 16.5391 16.7236L16.54 27.1279C16.54 27.4279 16.4201 27.7156 16.208 27.9277C15.9959 28.1398 15.7082 28.2588 15.4082 28.2588H15.4033C15.1079 28.2497 14.8267 28.1284 14.6182 27.9189C14.4095 27.7093 14.289 27.4275 14.2812 27.1318V16.7236H14.2822C14.2734 16.5725 14.2939 16.421 14.3447 16.2783C14.3967 16.1325 14.4783 15.9989 14.584 15.8857C14.6898 15.7726 14.8178 15.6818 14.96 15.6201C15.102 15.5585 15.2553 15.5264 15.4102 15.5264ZM19.9688 15.5967C20.2675 15.5967 20.5543 15.7155 20.7656 15.9268C20.9769 16.138 21.0956 16.4249 21.0957 16.7236V27.127L21.0908 27.2383C21.0804 27.3485 21.0538 27.4568 21.0117 27.5596C20.9554 27.6969 20.8723 27.8225 20.7676 27.9277C20.663 28.0328 20.5383 28.1159 20.4014 28.1729C20.2643 28.2298 20.1171 28.2588 19.9688 28.2588C19.8203 28.2588 19.6732 28.2298 19.5361 28.1729C19.3992 28.1159 19.2746 28.0328 19.1699 27.9277C19.0652 27.8225 18.9821 27.6969 18.9258 27.5596C18.8696 27.4224 18.8411 27.2752 18.8418 27.127V16.7236C18.8419 16.4249 18.9606 16.138 19.1719 15.9268C19.3832 15.7156 19.67 15.5967 19.9688 15.5967ZM24.5264 15.5264C24.6813 15.5264 24.8354 15.5584 24.9775 15.6201C25.1196 15.6818 25.2477 15.7726 25.3535 15.8857C25.4592 15.9989 25.5408 16.1325 25.5928 16.2783C25.6436 16.421 25.6641 16.5725 25.6553 16.7236L25.6562 27.1279C25.6562 27.427 25.5372 27.7138 25.3262 27.9258C25.1414 28.1114 24.8989 28.2263 24.6406 28.2529L24.5293 28.2588C24.2292 28.2588 23.9407 28.1399 23.7285 27.9277C23.5165 27.7156 23.3975 27.4278 23.3975 27.1279V16.7236H23.3984C23.3896 16.5725 23.4101 16.421 23.4609 16.2783C23.5129 16.1324 23.5945 15.9989 23.7002 15.8857C23.806 15.7725 23.934 15.6818 24.0762 15.6201C24.2182 15.5585 24.3715 15.5264 24.5264 15.5264ZM15.8916 10.082H24.0635V9.27051C24.0637 9.24679 24.0597 9.22316 24.0508 9.20117C24.0419 9.17922 24.0284 9.15938 24.0117 9.14258C23.9948 9.12571 23.9743 9.11152 23.9521 9.10254C23.9302 9.09366 23.9065 9.08954 23.8828 9.08984H16.0723C16.0486 9.08954 16.0249 9.09366 16.0029 9.10254C15.9808 9.11152 15.9602 9.12571 15.9434 9.14258C15.9267 9.15938 15.9132 9.17922 15.9043 9.20117C15.8954 9.22316 15.8913 9.24679 15.8916 9.27051V10.082Z" fill="#FF513B" stroke="#FF513B" stroke-width="0.3"/>
</svg>
