<svg width="24" height="24" viewBox="0 0 24 24" fill="none" xmlns="http://www.w3.org/2000/svg">
<path d="M16.8998 18.2007C16.8998 18.4845 16.787 18.7566 16.5864 18.9573C16.3857 19.1579 16.1136 19.2706 15.8298 19.2706H8.12957C7.84604 19.2699 7.57433 19.1569 7.37384 18.9564C7.17335 18.7559 7.06038 18.4842 7.05961 18.2007V6.85497H16.8998V18.2007ZM9.19661 4.93722C9.19622 4.90832 9.20162 4.87963 9.2125 4.85285C9.22338 4.82607 9.23952 4.80174 9.25995 4.7813C9.28039 4.76087 9.30472 4.74473 9.3315 4.73385C9.35828 4.72297 9.38696 4.71757 9.41587 4.71796H14.5552C14.5841 4.71757 14.6128 4.72297 14.6396 4.73385C14.6664 4.74473 14.6907 4.76087 14.7111 4.7813C14.7316 4.80174 14.7477 4.82607 14.7586 4.85285C14.7695 4.87963 14.7749 4.90832 14.7745 4.93722V5.56867H9.19661V4.93722ZM20.1067 5.56867H16.0491V4.93722C16.0491 4.54102 15.8917 4.16105 15.6115 3.8809C15.3314 3.60075 14.9514 3.44336 14.5552 3.44336H9.41587C9.02015 3.4449 8.64107 3.60278 8.36125 3.8826C8.08143 4.16242 7.92355 4.5415 7.92201 4.93722V5.56867H3.85264C3.68918 5.57969 3.53601 5.65239 3.42412 5.77206C3.31224 5.89174 3.25 6.04945 3.25 6.21328C3.25 6.37711 3.31224 6.53482 3.42412 6.6545C3.53601 6.77417 3.68918 6.84688 3.85264 6.85789H5.77331V18.2007C5.77331 18.5101 5.83426 18.8165 5.95267 19.1024C6.07108 19.3883 6.24464 19.648 6.46344 19.8668C6.68224 20.0856 6.94199 20.2592 7.22787 20.3776C7.51374 20.496 7.82014 20.5569 8.12957 20.5569H15.8298C16.1392 20.5569 16.4456 20.496 16.7315 20.3776C17.0174 20.2592 17.2771 20.0856 17.4959 19.8668C17.7147 19.648 17.8883 19.3883 18.0067 19.1024C18.1251 18.8165 18.1861 18.5101 18.1861 18.2007V6.85497H20.1067C20.2773 6.85497 20.4409 6.78721 20.5615 6.66659C20.6821 6.54598 20.7499 6.38239 20.7499 6.21182C20.7515 6.12692 20.7359 6.04258 20.7042 5.96383C20.6724 5.88508 20.6251 5.81355 20.5651 5.75351C20.505 5.69347 20.4335 5.64615 20.3547 5.61439C20.276 5.58263 20.1916 5.56708 20.1067 5.56867ZM11.9797 17.3383C12.0644 17.3383 12.1483 17.3215 12.2265 17.289C12.3047 17.2565 12.3757 17.2089 12.4355 17.1489C12.4953 17.0888 12.5426 17.0176 12.5747 16.9392C12.6069 16.8609 12.6232 16.7769 12.6228 16.6922V9.84268C12.6228 9.67211 12.5551 9.50852 12.4345 9.38791C12.3138 9.26729 12.1503 9.19953 11.9797 9.19953C11.8091 9.19953 11.6455 9.26729 11.5249 9.38791C11.4043 9.50852 11.3365 9.67211 11.3365 9.84268V16.6922C11.3362 16.7769 11.3525 16.8609 11.3847 16.9392C11.4168 17.0176 11.4641 17.0888 11.5239 17.1489C11.5836 17.2089 11.6547 17.2565 11.7329 17.289C11.8111 17.3215 11.895 17.3383 11.9797 17.3383ZM8.97736 17.3383C9.14871 17.3383 9.31304 17.2702 9.4342 17.149C9.55536 17.0279 9.62343 16.8636 9.62343 16.6922V9.84268C9.62938 9.75438 9.61712 9.6658 9.58742 9.58243C9.55772 9.49906 9.51121 9.42268 9.45077 9.35803C9.39033 9.29338 9.31725 9.24184 9.23606 9.2066C9.15488 9.17136 9.06732 9.15318 8.97882 9.15318C8.89032 9.15318 8.80276 9.17136 8.72157 9.2066C8.64039 9.24184 8.56731 9.29338 8.50687 9.35803C8.44643 9.42268 8.39992 9.49906 8.37022 9.58243C8.34051 9.6658 8.32826 9.75438 8.33421 9.84268V16.6922C8.33861 16.8617 8.4077 17.023 8.52729 17.1432C8.64688 17.2633 8.80792 17.3331 8.97736 17.3383ZM14.982 17.3383C15.1529 17.3375 15.3164 17.2691 15.437 17.148C15.5575 17.0269 15.6252 16.8631 15.6252 16.6922V9.84268C15.6311 9.75438 15.6189 9.6658 15.5892 9.58243C15.5595 9.49906 15.5129 9.42268 15.4525 9.35803C15.3921 9.29338 15.319 9.24184 15.2378 9.2066C15.1566 9.17136 15.0691 9.15318 14.9806 9.15318C14.8921 9.15318 14.8045 9.17136 14.7233 9.2066C14.6421 9.24184 14.5691 9.29338 14.5086 9.35803C14.4482 9.42268 14.4017 9.49906 14.372 9.58243C14.3423 9.6658 14.33 9.75438 14.3359 9.84268V16.6922C14.3359 16.8636 14.404 17.0279 14.5252 17.149C14.6463 17.2702 14.8107 17.3383 14.982 17.3383Z" fill="#5D5D5D"/>
</svg>
