<svg width="32" height="32" viewBox="0 0 32 32" fill="none" xmlns="http://www.w3.org/2000/svg">
<path d="M5.23585 10.5184C5.23585 10.3823 5.24674 10.3006 5.48093 10.3006H8.59614C9.14075 10.3006 9.44029 10.7635 9.65814 11.6349L9.83242 12.332H10.3661C10.4642 10.3605 10.5404 9.5 10.5404 9.5C10.5404 9.5 9.20611 9.65249 8.41641 9.65249H4.42982L2.29492 9.57625V10.1481L3.01382 10.2842C3.51486 10.3823 3.64013 10.4912 3.67825 10.9487C3.67825 10.9487 3.72182 12.3102 3.72182 14.554C3.72182 16.7979 3.67825 18.1485 3.67825 18.1485C3.67825 18.557 3.51486 18.704 3.01382 18.8021L2.29492 18.9437V19.5155L4.42982 19.4501H7.99706C8.80309 19.4501 10.6657 19.5155 10.6657 19.5155C10.7093 19.0253 10.9816 16.8033 11.0197 16.5637H10.5186L9.98491 17.7727C9.56011 18.7258 8.95014 18.7966 8.26937 18.7966H6.24339C5.56262 18.7966 5.23585 18.5243 5.23585 17.9361V14.8318C5.23585 14.8318 6.74989 14.8318 7.24004 14.8754C7.62127 14.9026 7.85001 15.0115 7.97527 15.5398L8.13866 16.2478H8.7214L8.67783 14.4615L8.75952 12.6642H8.17678L7.98617 13.4539C7.8609 13.9713 7.78466 14.0693 7.25093 14.1238C6.55382 14.1891 5.23585 14.1783 5.23585 14.1783V10.5184ZM23.181 21.7212C22.7725 21.7212 22.6472 21.5306 22.5928 21.2583L22.3858 20.1963L21.814 20.2235C21.7323 20.8498 21.607 21.5578 21.4436 22.1188C21.8249 22.3802 22.2878 22.5 22.9141 22.5C23.84 22.5 25.2287 22.2386 26.4813 19.2868L28.6598 14.1238C28.8341 13.7153 28.8886 13.6609 29.4223 13.4594L29.7055 13.3504V12.8712L28.4093 12.9365L27.0478 12.8712V13.3504L27.4018 13.4594C27.7558 13.5683 27.9191 13.6881 27.9191 13.9767C27.9191 14.1292 27.8756 14.1946 27.7993 14.3852C27.6468 14.7664 26.6829 17.1519 26.209 18.1866C25.6045 16.6835 24.7876 14.4506 24.6896 14.1238C24.6623 14.0421 24.646 13.9713 24.646 13.9059C24.646 13.6881 24.7985 13.5138 25.1253 13.443L25.5718 13.345V12.8712L23.7093 12.9365L22.2279 12.8712V13.3504L22.473 13.4321C22.827 13.5519 22.8651 13.5955 23.0993 14.1129C24.036 16.2369 25.0871 18.9491 25.4302 19.8314C24.6896 21.3127 23.8182 21.7212 23.181 21.7212ZM17.6095 17.3261L17.0922 17.337C17.1575 17.9906 17.1739 18.6441 17.0922 19.2432C17.0922 19.2432 18.1269 19.6244 19.1726 19.6244C20.5886 19.6244 21.7214 18.9437 21.7214 17.6202C21.7214 15.3056 18.2903 15.6705 18.2903 14.1238C18.2903 13.4811 18.8785 13.2415 19.4776 13.2415C19.9786 13.2415 20.3925 13.4158 20.4688 13.6772L20.8064 14.7011L21.3075 14.6739C21.3347 14.1292 21.3728 13.5029 21.46 12.9964C21.0243 12.8058 20.1093 12.6969 19.5429 12.6969C18.2086 12.6969 17.1357 13.2851 17.1357 14.5922C17.1357 16.8796 20.4851 16.3785 20.4851 18.0886C20.4851 18.6605 20.1148 19.0961 19.2979 19.0961C18.5245 19.0961 18.1433 18.704 17.9908 18.3065L17.6095 17.3261ZM13.3234 10.8997C13.0348 12.5444 12.2505 13.1435 11.2811 13.2524V13.7317H12.4901V17.9143C12.4901 19.0853 13.2635 19.6571 14.2983 19.6571C15.1043 19.6571 15.9321 19.3194 16.2153 18.6114L15.9321 18.2411C15.8014 18.4698 15.3657 18.8075 14.8211 18.8075C14.222 18.8075 13.8953 18.399 13.8953 17.3643V13.6772L15.9103 13.8297L16.0193 12.9039L13.8953 12.9801V10.8997H13.3234Z" fill="#FF6C2C"/>
</svg>
