<svg width="32" height="32" viewBox="0 0 32 32" fill="none" xmlns="http://www.w3.org/2000/svg">
<path d="M15.3672 14.957C15.0953 15.0719 14.8773 15.243 14.7156 15.4727C14.5539 15.7023 14.4719 15.9789 14.4719 16.3047C14.4719 16.7219 14.6477 17.043 14.9969 17.2703C15.3273 17.4836 15.6742 17.5375 16.0375 17.4297C16.457 17.3078 16.7406 17.0102 16.8906 16.5367C16.9609 16.3188 16.9961 16.075 16.9961 15.8031V14.6266C16.7008 14.6359 16.4242 14.6641 16.1641 14.7133C15.9039 14.7625 15.6391 14.8445 15.3672 14.957ZM16 5.5C10.2016 5.5 5.5 10.2016 5.5 16C5.5 21.7984 10.2016 26.5 16 26.5C21.7984 26.5 26.5 21.7984 26.5 16C26.5 10.2016 21.7984 5.5 16 5.5ZM16.8391 11.657C16.6703 11.4016 16.368 11.2727 15.932 11.2727C15.9016 11.2727 15.8617 11.275 15.8078 11.2797C15.7562 11.2844 15.6531 11.3148 15.5055 11.3664C15.3578 11.4203 15.2148 11.4906 15.0859 11.5797C14.957 11.6687 14.8164 11.8141 14.6641 12.0109C14.5141 12.2102 14.3945 12.4422 14.3055 12.7094L12.1023 12.5125C12.1023 12.2219 12.1586 11.9336 12.2664 11.6477C12.3766 11.3617 12.543 11.0875 12.768 10.8273C12.993 10.5648 13.2625 10.3352 13.5766 10.1383C13.8906 9.93906 14.2703 9.78203 14.7109 9.6625C15.1539 9.54297 15.6273 9.48438 16.1383 9.48438C16.6375 9.48438 17.0898 9.54531 17.493 9.66484C17.8961 9.78672 18.2219 9.93437 18.4633 10.1125C18.7047 10.2883 18.9062 10.4898 19.0703 10.7148C19.232 10.9398 19.3445 11.1484 19.4078 11.3406C19.4711 11.5328 19.5016 11.7086 19.5016 11.875V16.1523C19.5016 16.3023 19.5344 16.457 19.6023 16.6164C19.6703 16.7758 19.75 16.9164 19.8414 17.0383C19.9328 17.1602 20.0266 17.2703 20.1227 17.3734C20.2188 17.4742 20.3008 17.5539 20.3711 17.6055L20.4672 17.6852L18.768 19.3117C18.5687 19.1312 18.3719 18.9508 18.1773 18.7633C17.9828 18.5758 17.8375 18.4352 17.7438 18.3391L17.6008 18.1937C17.5445 18.1398 17.4836 18.0602 17.4133 17.9547C17.2234 18.2406 16.9797 18.4891 16.6844 18.7C16.3867 18.9109 16.068 19.0656 15.7305 19.1617C15.3906 19.2578 15.0414 19.3141 14.6828 19.3281C14.3242 19.3422 13.9797 19.293 13.6539 19.1758C13.3281 19.0586 13.0328 18.9016 12.7727 18.7C12.5125 18.4984 12.3062 18.2266 12.1516 17.8797C11.9969 17.5328 11.9195 17.1414 11.9195 16.6984C11.9195 16.2906 11.9898 15.918 12.1281 15.5805C12.2687 15.2406 12.4469 14.9594 12.6672 14.7344C12.8875 14.5094 13.1523 14.3078 13.4641 14.132C13.7758 13.9562 14.0828 13.818 14.3828 13.7172C14.6828 13.6188 15.0063 13.5344 15.3555 13.4664C15.7047 13.3984 16.0023 13.3539 16.2508 13.3328C16.4992 13.3117 16.7477 13.2953 16.9961 13.2859V12.3625C16.9961 12.0461 16.9422 11.8117 16.8391 11.657ZM21.0695 20.5539C21.0039 20.6312 20.8938 20.7367 20.7391 20.8703C20.5844 21.0039 20.3453 21.168 20.0242 21.3648C19.7031 21.5617 19.3492 21.7398 18.9695 21.9016C18.5875 22.0633 18.1187 22.2039 17.5609 22.3234C17.0055 22.443 16.4312 22.5016 15.843 22.5016C15.2477 22.5016 14.6547 22.4266 14.0594 22.2766C13.4641 22.1266 12.9437 21.9414 12.4937 21.7211C12.0461 21.5008 11.6125 21.2477 11.2023 20.9664C10.7898 20.6828 10.4594 20.4297 10.2086 20.2047C9.96016 19.9797 9.74922 19.7664 9.58047 19.5695C9.54063 19.525 9.51484 19.4852 9.50547 19.45C9.49609 19.4148 9.49844 19.3844 9.5125 19.3633C9.52656 19.3422 9.54766 19.3258 9.57344 19.3117C9.59922 19.3 9.62734 19.2953 9.66016 19.2977C9.69297 19.3 9.72109 19.3117 9.74687 19.3305C10.7055 19.8977 11.4555 20.2984 11.9945 20.5352C13.9375 21.3883 15.932 21.6063 17.9781 21.1891C18.9273 20.9945 19.9023 20.6687 20.9055 20.2094C20.9805 20.1812 21.0461 20.1742 21.1 20.1883C21.1539 20.2023 21.182 20.2445 21.182 20.3148C21.182 20.3805 21.1445 20.4625 21.0695 20.5539ZM22.4734 19.8742C22.4312 20.1344 22.3586 20.3805 22.2602 20.6195C22.0914 21.0203 21.8781 21.3227 21.625 21.5195C21.5406 21.5875 21.475 21.6086 21.4305 21.5852C21.3859 21.5617 21.3859 21.5031 21.4305 21.4117C21.5359 21.1938 21.6461 20.9008 21.7633 20.5281C21.8805 20.1578 21.8969 19.9188 21.8125 19.8133C21.7867 19.7781 21.7492 19.7523 21.6953 19.7289C21.6437 19.7078 21.5758 19.6938 21.4938 19.6844C21.4117 19.675 21.3367 19.6703 21.2734 19.6656C21.2078 19.6609 21.1211 19.6609 21.0109 19.6656C20.9008 19.6703 20.8234 19.675 20.7742 19.6797C20.7273 19.6844 20.65 19.6914 20.5422 19.7008C20.4344 19.7102 20.3781 19.7148 20.3734 19.7148C20.343 19.7195 20.3102 19.7242 20.2773 19.7266C20.2422 19.7289 20.2141 19.7312 20.1953 19.7336L20.132 19.7406C20.1086 19.743 20.0922 19.7453 20.0805 19.7453H20.0055L19.982 19.7406L19.968 19.7289L19.9562 19.7078C19.9258 19.6305 20.043 19.5344 20.3078 19.4172C20.5727 19.3 20.8305 19.2273 21.0789 19.1992C21.3086 19.1641 21.5781 19.1641 21.8875 19.1922C22.1969 19.2203 22.3867 19.2789 22.457 19.3656C22.5109 19.4477 22.5156 19.6164 22.4734 19.8742Z" fill="#1296DB"/>
</svg>
