<svg width="40" height="40" viewBox="0 0 40 40" fill="none" xmlns="http://www.w3.org/2000/svg">
<mask id="path-1-outside-1_275_26905" maskUnits="userSpaceOnUse" x="4.83398" y="5.72656" width="30" height="28" fill="black">
<rect fill="white" x="4.83398" y="5.72656" width="30" height="28"/>
<path fill-rule="evenodd" clip-rule="evenodd" d="M28.1201 6.72656C28.5018 6.72677 28.8774 6.82177 29.2139 7.00195C29.5504 7.18225 29.8381 7.44301 30.0498 7.76074L33.5615 13.0273C34.0908 13.8212 34.2835 14.7925 34.0986 15.7285C33.9137 16.6645 33.3656 17.4896 32.5742 18.0225C32.4512 18.1055 32.3262 18.1859 32.1992 18.2627V28.377C32.1992 31.0691 30.1159 33.2744 27.5166 33.2744H12.9111C10.3118 33.2744 8.22852 31.0691 8.22852 28.377V18.502C7.9527 18.3575 7.68552 18.1971 7.42774 18.0225C6.63618 17.4896 6.08735 16.6646 5.90235 15.7285C5.71745 14.7925 5.91114 13.8212 6.44043 13.0273L9.95215 7.76074C10.1639 7.44297 10.4505 7.18225 10.7871 7.00195C11.1239 6.82165 11.5008 6.72656 11.8828 6.72656H28.1201ZM24.9463 17.2471C23.7104 18.443 22.0563 19.1201 20.1748 19.1201C18.126 19.12 16.299 18.4656 15.04 17.2646C13.973 18.494 12.4199 19.1201 10.5166 19.1201C10.4419 19.1201 10.3657 19.1194 10.291 19.1143V28.377C10.291 29.9556 11.4768 31.2129 12.9111 31.2129H27.5166C28.9496 31.2129 30.1367 29.9556 30.1367 28.377V19.0674C29.9178 19.1034 29.7014 19.1201 29.4863 19.1201C27.5728 19.1201 26.0133 18.4879 24.9463 17.2471ZM24.0801 25.4141C24.3535 25.4141 24.6162 25.5225 24.8096 25.7158C25.0029 25.9092 25.1113 26.1719 25.1113 26.4453C25.1113 26.7186 25.0027 26.9805 24.8096 27.1738C24.6162 27.3672 24.3535 27.4766 24.0801 27.4766H16.3477C16.0744 27.4764 15.8124 27.3671 15.6191 27.1738C15.4259 26.9805 15.3174 26.7186 15.3174 26.4453C15.3174 26.1719 15.4258 25.9092 15.6191 25.7158C15.8124 25.5227 16.0745 25.4142 16.3477 25.4141H24.0801ZM11.8828 8.78906C11.8404 8.78928 11.7981 8.80008 11.7607 8.82031C11.7235 8.84054 11.6913 8.86988 11.668 8.90527L8.15625 14.1709C7.93009 14.5108 7.84768 14.9266 7.92676 15.3271C8.00594 15.7278 8.24052 16.0811 8.57911 16.3096C9.33558 16.8199 9.98437 17.0576 10.5166 17.0576C12.2472 17.0576 13.3929 16.406 14.0205 15.0723C14.0998 14.9035 14.2233 14.7594 14.3779 14.6553C14.5327 14.5511 14.7131 14.4913 14.8994 14.4814H14.915V14.4824C15.1013 14.4757 15.2859 14.5196 15.4492 14.6094C15.6126 14.6992 15.7487 14.8321 15.8428 14.9932C16.598 16.2854 18.1932 17.0585 20.1748 17.0586C21.8926 17.0586 23.2937 16.2905 24.1777 14.9619C24.2772 14.8042 24.4177 14.6761 24.584 14.5918C24.7504 14.5075 24.937 14.4702 25.1231 14.4834C25.3092 14.4966 25.4887 14.56 25.6416 14.667C25.7943 14.7739 25.9151 14.9206 25.9912 15.0908C26.6188 16.413 27.7634 17.0586 29.4863 17.0586C30.0197 17.0585 30.6666 16.8216 31.4229 16.3115C31.7615 16.0832 31.9959 15.7297 32.0752 15.3291C32.1544 14.9283 32.0721 14.512 31.8457 14.1719L28.334 8.90332C28.3105 8.86821 28.2784 8.83929 28.2412 8.81934C28.204 8.79942 28.1624 8.78914 28.1201 8.78906H11.8828Z"/>
</mask>
<path fill-rule="evenodd" clip-rule="evenodd" d="M28.1201 6.72656C28.5018 6.72677 28.8774 6.82177 29.2139 7.00195C29.5504 7.18225 29.8381 7.44301 30.0498 7.76074L33.5615 13.0273C34.0908 13.8212 34.2835 14.7925 34.0986 15.7285C33.9137 16.6645 33.3656 17.4896 32.5742 18.0225C32.4512 18.1055 32.3262 18.1859 32.1992 18.2627V28.377C32.1992 31.0691 30.1159 33.2744 27.5166 33.2744H12.9111C10.3118 33.2744 8.22852 31.0691 8.22852 28.377V18.502C7.9527 18.3575 7.68552 18.1971 7.42774 18.0225C6.63618 17.4896 6.08735 16.6646 5.90235 15.7285C5.71745 14.7925 5.91114 13.8212 6.44043 13.0273L9.95215 7.76074C10.1639 7.44297 10.4505 7.18225 10.7871 7.00195C11.1239 6.82165 11.5008 6.72656 11.8828 6.72656H28.1201ZM24.9463 17.2471C23.7104 18.443 22.0563 19.1201 20.1748 19.1201C18.126 19.12 16.299 18.4656 15.04 17.2646C13.973 18.494 12.4199 19.1201 10.5166 19.1201C10.4419 19.1201 10.3657 19.1194 10.291 19.1143V28.377C10.291 29.9556 11.4768 31.2129 12.9111 31.2129H27.5166C28.9496 31.2129 30.1367 29.9556 30.1367 28.377V19.0674C29.9178 19.1034 29.7014 19.1201 29.4863 19.1201C27.5728 19.1201 26.0133 18.4879 24.9463 17.2471ZM24.0801 25.4141C24.3535 25.4141 24.6162 25.5225 24.8096 25.7158C25.0029 25.9092 25.1113 26.1719 25.1113 26.4453C25.1113 26.7186 25.0027 26.9805 24.8096 27.1738C24.6162 27.3672 24.3535 27.4766 24.0801 27.4766H16.3477C16.0744 27.4764 15.8124 27.3671 15.6191 27.1738C15.4259 26.9805 15.3174 26.7186 15.3174 26.4453C15.3174 26.1719 15.4258 25.9092 15.6191 25.7158C15.8124 25.5227 16.0745 25.4142 16.3477 25.4141H24.0801ZM11.8828 8.78906C11.8404 8.78928 11.7981 8.80008 11.7607 8.82031C11.7235 8.84054 11.6913 8.86988 11.668 8.90527L8.15625 14.1709C7.93009 14.5108 7.84768 14.9266 7.92676 15.3271C8.00594 15.7278 8.24052 16.0811 8.57911 16.3096C9.33558 16.8199 9.98437 17.0576 10.5166 17.0576C12.2472 17.0576 13.3929 16.406 14.0205 15.0723C14.0998 14.9035 14.2233 14.7594 14.3779 14.6553C14.5327 14.5511 14.7131 14.4913 14.8994 14.4814H14.915V14.4824C15.1013 14.4757 15.2859 14.5196 15.4492 14.6094C15.6126 14.6992 15.7487 14.8321 15.8428 14.9932C16.598 16.2854 18.1932 17.0585 20.1748 17.0586C21.8926 17.0586 23.2937 16.2905 24.1777 14.9619C24.2772 14.8042 24.4177 14.6761 24.584 14.5918C24.7504 14.5075 24.937 14.4702 25.1231 14.4834C25.3092 14.4966 25.4887 14.56 25.6416 14.667C25.7943 14.7739 25.9151 14.9206 25.9912 15.0908C26.6188 16.413 27.7634 17.0586 29.4863 17.0586C30.0197 17.0585 30.6666 16.8216 31.4229 16.3115C31.7615 16.0832 31.9959 15.7297 32.0752 15.3291C32.1544 14.9283 32.0721 14.512 31.8457 14.1719L28.334 8.90332C28.3105 8.86821 28.2784 8.83929 28.2412 8.81934C28.204 8.79942 28.1624 8.78914 28.1201 8.78906H11.8828Z" fill="#666666"/>
<path d="M28.1201 6.72656L28.1202 6.54052H28.1201V6.72656ZM29.2139 7.00195L29.3017 6.83796L29.3017 6.83795L29.2139 7.00195ZM30.0498 7.76074L29.895 7.86389L29.895 7.86396L30.0498 7.76074ZM33.5615 13.0273L33.7163 12.9241L33.7163 12.9241L33.5615 13.0273ZM34.0986 15.7285L34.2812 15.7646L34.2812 15.7646L34.0986 15.7285ZM32.5742 18.0225L32.4703 17.8681L32.4702 17.8682L32.5742 18.0225ZM32.1992 18.2627L32.103 18.1035L32.0132 18.1578V18.2627H32.1992ZM27.5166 33.2744V33.0884V33.2744ZM8.22852 18.502H8.41457V18.3894L8.31485 18.3372L8.22852 18.502ZM7.42774 18.0225L7.53209 17.8684L7.53164 17.8681L7.42774 18.0225ZM5.90235 15.7285L5.71983 15.7646L5.71983 15.7646L5.90235 15.7285ZM6.44043 13.0273L6.28564 12.9241L6.28564 12.9241L6.44043 13.0273ZM9.95215 7.76074L10.1069 7.86396L10.107 7.86389L9.95215 7.76074ZM10.7871 7.00195L10.6993 6.83793L10.6993 6.83795L10.7871 7.00195ZM11.8828 6.72656L11.8828 6.91261H11.8828V6.72656ZM24.9463 17.2471L25.0874 17.1258L24.9587 16.9762L24.8169 17.1134L24.9463 17.2471ZM20.1748 19.1201L20.1748 19.3062H20.1748V19.1201ZM15.04 17.2646L15.1685 17.13L15.0274 16.9954L14.8995 17.1427L15.04 17.2646ZM10.5166 19.1201V19.3062H10.5166L10.5166 19.1201ZM10.291 19.1143L10.3038 18.9287L10.105 18.915V19.1143H10.291ZM30.1367 28.377H30.3228V28.377H30.1367ZM30.1367 19.0674H30.3228V18.8482L30.1065 18.8838L30.1367 19.0674ZM29.4863 19.1201V19.3062H29.4863L29.4863 19.1201ZM24.0801 25.4141V25.228V25.4141ZM24.8096 25.7158L24.9411 25.5843L24.9411 25.5842L24.8096 25.7158ZM25.1113 26.4453L25.2974 26.4453V26.4453H25.1113ZM24.8096 27.1738L24.9411 27.3054L24.9412 27.3053L24.8096 27.1738ZM16.3477 27.4766L16.3476 27.6626H16.3477V27.4766ZM15.6191 27.1738L15.4876 27.3053L15.4876 27.3054L15.6191 27.1738ZM15.3174 26.4453H15.1313V26.4453L15.3174 26.4453ZM15.6191 25.7158L15.4876 25.5842L15.4876 25.5843L15.6191 25.7158ZM16.3477 25.4141V25.228H16.3476L16.3477 25.4141ZM11.8828 8.78906V8.60301L11.8819 8.60302L11.8828 8.78906ZM11.7607 8.82031L11.6721 8.65676L11.6719 8.65683L11.7607 8.82031ZM11.668 8.90527L11.8228 9.0085L11.8234 9.0076L11.668 8.90527ZM8.15625 14.1709L8.00147 14.0677L8.00136 14.0678L8.15625 14.1709ZM7.92676 15.3271L7.74424 15.3632L7.74424 15.3632L7.92676 15.3271ZM8.57911 16.3096L8.47506 16.4638L8.47506 16.4638L8.57911 16.3096ZM10.5166 17.0576V17.2437H10.5166L10.5166 17.0576ZM14.0205 15.0723L14.1889 15.1515L14.1889 15.1514L14.0205 15.0723ZM14.3779 14.6553L14.2741 14.5009H14.2741L14.3779 14.6553ZM14.8994 14.4814V14.2951L14.8896 14.2957L14.8994 14.4814ZM14.915 14.4814H15.1011V14.2954H14.915V14.4814ZM14.915 14.4824H14.729V14.6753L14.9218 14.6683L14.915 14.4824ZM15.4492 14.6094L15.5389 14.4464L15.5389 14.4464L15.4492 14.6094ZM15.8428 14.9932L15.6821 15.087L15.6822 15.087L15.8428 14.9932ZM20.1748 17.0586L20.1748 17.2446H20.1748V17.0586ZM24.1777 14.9619L24.3327 15.065L24.3351 15.0611L24.1777 14.9619ZM24.584 14.5918L24.5 14.4258L24.4999 14.4258L24.584 14.5918ZM25.1231 14.4834L25.1362 14.2978L25.1362 14.2978L25.1231 14.4834ZM25.6416 14.667L25.7483 14.5146L25.7483 14.5146L25.6416 14.667ZM25.9912 15.0908L25.8213 15.1668L25.8231 15.1706L25.9912 15.0908ZM29.4863 17.0586V17.2446H29.4864L29.4863 17.0586ZM31.4229 16.3115L31.3188 16.1573L31.3188 16.1573L31.4229 16.3115ZM32.0752 15.3291L32.2577 15.3652L32.2577 15.3652L32.0752 15.3291ZM31.8457 14.1719L32.0006 14.0688L32.0005 14.0687L31.8457 14.1719ZM28.334 8.90332L28.4888 8.80013L28.4886 8.79989L28.334 8.90332ZM28.2412 8.81934L28.3291 8.65537L28.3289 8.65527L28.2412 8.81934ZM28.1201 8.78906L28.1205 8.60302H28.1201V8.78906ZM28.1201 6.72656L28.12 6.91261C28.4709 6.9128 28.8164 7.00013 29.126 7.16596L29.2139 7.00195L29.3017 6.83795C28.9384 6.64341 28.5327 6.54074 28.1202 6.54052L28.1201 6.72656ZM29.2139 7.00195L29.126 7.16595C29.4357 7.33185 29.7004 7.57178 29.895 7.86389L30.0498 7.76074L30.2046 7.65759C29.9759 7.31425 29.6651 7.03264 29.3017 6.83796L29.2139 7.00195ZM30.0498 7.76074L29.895 7.86396L33.4067 13.1306L33.5615 13.0273L33.7163 12.9241L30.2046 7.65753L30.0498 7.76074ZM33.5615 13.0273L33.4067 13.1305C33.9086 13.8834 34.0915 14.8047 33.9161 15.6925L34.0986 15.7285L34.2812 15.7646C34.4756 14.7804 34.2729 13.759 33.7163 12.9241L33.5615 13.0273ZM34.0986 15.7285L33.9161 15.6924C33.7407 16.5802 33.2209 17.3628 32.4703 17.8681L32.5742 18.0225L32.6781 18.1768C33.5104 17.6164 34.0866 16.7488 34.2812 15.7646L34.0986 15.7285ZM32.5742 18.0225L32.4702 17.8682C32.3494 17.9497 32.227 18.0285 32.103 18.1035L32.1992 18.2627L32.2955 18.4219C32.4254 18.3433 32.5531 18.2612 32.6783 18.1767L32.5742 18.0225ZM32.1992 18.2627H32.0132V28.377H32.1992H32.3853V18.2627H32.1992ZM32.1992 28.377H32.0132C32.0132 30.9749 30.0048 33.0884 27.5166 33.0884V33.2744V33.4605C30.2271 33.4605 32.3853 31.1632 32.3853 28.377H32.1992ZM27.5166 33.2744V33.0884H12.9111V33.2744V33.4605H27.5166V33.2744ZM12.9111 33.2744V33.0884C10.423 33.0884 8.41457 30.9749 8.41457 28.377H8.22852H8.04247C8.04247 31.1632 10.2006 33.4605 12.9111 33.4605V33.2744ZM8.22852 28.377H8.41457V18.502H8.22852H8.04247V28.377H8.22852ZM8.22852 18.502L8.31485 18.3372C8.04541 18.196 7.78424 18.0393 7.53209 17.8684L7.42774 18.0225L7.32339 18.1765C7.58681 18.3549 7.86 18.5189 8.14219 18.6668L8.22852 18.502ZM7.42774 18.0225L7.53164 17.8681C6.78085 17.3627 6.26032 16.5802 6.08486 15.6924L5.90235 15.7285L5.71983 15.7646C5.91438 16.749 6.49151 17.6165 7.32384 18.1768L7.42774 18.0225ZM5.90235 15.7285L6.08487 15.6925C5.90952 14.8048 6.0932 13.8835 6.59523 13.1306L6.44043 13.0273L6.28564 12.9241C5.72909 13.7589 5.52539 14.7803 5.71983 15.7646L5.90235 15.7285ZM6.44043 13.0273L6.59523 13.1306L10.1069 7.86396L9.95215 7.76074L9.79736 7.65753L6.28564 12.9241L6.44043 13.0273ZM9.95215 7.76074L10.107 7.86389C10.3018 7.57154 10.5654 7.33175 10.875 7.16595L10.7871 7.00195L10.6993 6.83795C10.3356 7.03275 10.026 7.31439 9.79732 7.65759L9.95215 7.76074ZM10.7871 7.00195L10.8749 7.16597C11.1848 7.00005 11.5316 6.91261 11.8828 6.91261L11.8828 6.72656L11.8828 6.54052C11.47 6.54052 11.0629 6.64325 10.6993 6.83793L10.7871 7.00195ZM11.8828 6.72656V6.91261H28.1201V6.72656V6.54052H11.8828V6.72656ZM24.9463 17.2471L24.8169 17.1134C23.617 18.2745 22.0098 18.9341 20.1748 18.9341V19.1201V19.3062C22.1028 19.3062 23.8038 18.6115 25.0757 17.3808L24.9463 17.2471ZM20.1748 19.1201L20.1748 18.9341C18.1641 18.934 16.3864 18.2918 15.1685 17.13L15.04 17.2646L14.9116 17.3993C16.2117 18.6394 18.0879 19.3061 20.1748 19.3062L20.1748 19.1201ZM15.04 17.2646L14.8995 17.1427C13.8748 18.3234 12.3775 18.934 10.5166 18.9341L10.5166 19.1201L10.5166 19.3062C12.4624 19.3061 14.0713 18.6646 15.1805 17.3866L15.04 17.2646ZM10.5166 19.1201V18.9341C10.4425 18.9341 10.3717 18.9333 10.3038 18.9287L10.291 19.1143L10.2782 19.2999C10.3597 19.3055 10.4414 19.3062 10.5166 19.3062V19.1201ZM10.291 19.1143H10.105V28.377H10.291H10.4771V19.1143H10.291ZM10.291 28.377H10.105C10.105 30.0454 11.3615 31.3989 12.9111 31.3989V31.2129V31.0268C11.5921 31.0268 10.4771 29.8659 10.4771 28.377H10.291ZM12.9111 31.2129V31.3989H27.5166V31.2129V31.0268H12.9111V31.2129ZM27.5166 31.2129V31.3989C29.0649 31.3989 30.3228 30.0455 30.3228 28.377H30.1367H29.9507C29.9507 29.8658 28.8344 31.0268 27.5166 31.0268V31.2129ZM30.1367 28.377H30.3228V19.0674H30.1367H29.9507V28.377H30.1367ZM30.1367 19.0674L30.1065 18.8838C29.8979 18.9181 29.6917 18.9341 29.4863 18.9341L29.4863 19.1201L29.4863 19.3062C29.7111 19.3062 29.9376 19.2887 30.167 19.251L30.1367 19.0674ZM29.4863 19.1201V18.9341C27.6154 18.9341 26.1122 18.3175 25.0874 17.1258L24.9463 17.2471L24.8052 17.3684C25.9145 18.6583 27.5301 19.3062 29.4863 19.3062V19.1201ZM24.0801 25.4141V25.6001C24.3043 25.6001 24.5197 25.6891 24.678 25.8474L24.8096 25.7158L24.9411 25.5842C24.7128 25.356 24.4026 25.228 24.0801 25.228V25.4141ZM24.8096 25.7158L24.678 25.8474C24.8363 26.0057 24.9253 26.221 24.9253 26.4453H25.1113H25.2974C25.2974 26.1227 25.1695 25.8126 24.9411 25.5843L24.8096 25.7158ZM25.1113 26.4453L24.9253 26.4453C24.9253 26.6692 24.8363 26.8839 24.678 27.0423L24.8096 27.1738L24.9412 27.3053C25.1691 27.0772 25.2974 26.768 25.2974 26.4453L25.1113 26.4453ZM24.8096 27.1738L24.678 27.0423C24.5194 27.2009 24.3039 27.2905 24.0801 27.2905V27.4766V27.6626C24.4031 27.6626 24.7131 27.5334 24.9411 27.3054L24.8096 27.1738ZM24.0801 27.4766V27.2905H16.3477V27.4766V27.6626H24.0801V27.4766ZM16.3477 27.4766L16.3477 27.2905C16.1241 27.2904 15.9093 27.2009 15.7507 27.0423L15.6191 27.1738L15.4876 27.3054C15.7154 27.5332 16.0246 27.6625 16.3476 27.6626L16.3477 27.4766ZM15.6191 27.1738L15.7507 27.0423C15.5924 26.8838 15.5034 26.6693 15.5034 26.4453L15.3174 26.4453L15.1313 26.4453C15.1314 26.768 15.2595 27.0772 15.4876 27.3053L15.6191 27.1738ZM15.3174 26.4453H15.5034C15.5034 26.221 15.5924 26.0057 15.7507 25.8474L15.6191 25.7158L15.4876 25.5843C15.2592 25.8126 15.1313 26.1227 15.1313 26.4453H15.3174ZM15.6191 25.7158L15.7507 25.8474C15.909 25.6892 16.1239 25.6002 16.3477 25.6001L16.3477 25.4141L16.3476 25.228C16.0251 25.2281 15.7157 25.3563 15.4876 25.5842L15.6191 25.7158ZM16.3477 25.4141V25.6001H24.0801V25.4141V25.228H16.3477V25.4141ZM11.8828 8.78906L11.8819 8.60302C11.8089 8.6034 11.7365 8.62185 11.6721 8.65676L11.7607 8.82031L11.8494 8.98387C11.8597 8.97831 11.8718 8.97517 11.8838 8.97511L11.8828 8.78906ZM11.7607 8.82031L11.6719 8.65683C11.6083 8.69138 11.5531 8.74151 11.5126 8.80295L11.668 8.90527L11.8234 9.0076C11.8295 8.99825 11.8387 8.98971 11.8496 8.98379L11.7607 8.82031ZM11.668 8.90527L11.5132 8.80205L8.00147 14.0677L8.15625 14.1709L8.31104 14.2741L11.8228 9.0085L11.668 8.90527ZM8.15625 14.1709L8.00136 14.0678C7.74795 14.4487 7.65565 14.9145 7.74424 15.3632L7.92676 15.3271L8.10929 15.2911C8.03971 14.9387 8.11222 14.573 8.31115 14.274L8.15625 14.1709ZM7.92676 15.3271L7.74424 15.3632C7.83294 15.8121 8.09573 16.2079 8.47506 16.4638L8.57911 16.3096L8.68316 16.1553C8.38531 15.9544 8.17893 15.6436 8.10928 15.2911L7.92676 15.3271ZM8.57911 16.3096L8.47506 16.4638C9.24619 16.984 9.93175 17.2437 10.5166 17.2437V17.0576V16.8716C10.037 16.8716 9.42497 16.6558 8.68315 16.1553L8.57911 16.3096ZM10.5166 17.0576L10.5166 17.2437C11.4046 17.2436 12.1576 17.0765 12.774 16.7269C13.3924 16.3762 13.8606 15.8491 14.1889 15.1515L14.0205 15.0723L13.8522 14.9931C13.5528 15.6292 13.1344 16.0947 12.5904 16.4032C12.0444 16.7129 11.3592 16.8715 10.5166 16.8716L10.5166 17.0576ZM14.0205 15.0723L14.1889 15.1514C14.2539 15.013 14.3551 14.8949 14.4818 14.8096L14.3779 14.6553L14.2741 14.5009C14.0914 14.6238 13.9457 14.794 13.8521 14.9932L14.0205 15.0723ZM14.3779 14.6553L14.4818 14.8096C14.6084 14.7244 14.7562 14.6753 14.9092 14.6672L14.8994 14.4814L14.8896 14.2957C14.67 14.3073 14.457 14.3778 14.2741 14.5009L14.3779 14.6553ZM14.8994 14.4814V14.6675H14.915V14.4814V14.2954H14.8994V14.4814ZM14.915 14.4814H14.729V14.4824H14.915H15.1011V14.4814H14.915ZM14.915 14.4824L14.9218 14.6683C15.0744 14.6628 15.2257 14.6988 15.3596 14.7724L15.4492 14.6094L15.5389 14.4464C15.3461 14.3403 15.1282 14.2885 14.9083 14.2965L14.915 14.4824ZM15.4492 14.6094L15.3596 14.7724C15.4934 14.846 15.605 14.9549 15.6821 15.087L15.8428 14.9932L16.0034 14.8993C15.8925 14.7094 15.7319 14.5525 15.5389 14.4464L15.4492 14.6094ZM15.8428 14.9932L15.6822 15.087C16.4808 16.4535 18.1497 17.2445 20.1748 17.2446L20.1748 17.0586L20.1748 16.8725C18.2367 16.8724 16.7152 16.1173 16.0034 14.8993L15.8428 14.9932ZM20.1748 17.0586V17.2446C21.9536 17.2446 23.4134 16.4464 24.3326 15.065L24.1777 14.9619L24.0229 14.8588C23.174 16.1346 21.8316 16.8725 20.1748 16.8725V17.0586ZM24.1777 14.9619L24.3351 15.0611C24.4167 14.9318 24.5319 14.8268 24.6681 14.7578L24.584 14.5918L24.4999 14.4258C24.3035 14.5254 24.1377 14.6766 24.0204 14.8627L24.1777 14.9619ZM24.584 14.5918L24.668 14.7578C24.8043 14.6888 24.9572 14.6581 25.1099 14.669L25.1231 14.4834L25.1362 14.2978C24.9167 14.2822 24.6966 14.3263 24.5 14.4258L24.584 14.5918ZM25.1231 14.4834L25.1099 14.669C25.2626 14.6798 25.4098 14.7319 25.5349 14.8194L25.6416 14.667L25.7483 14.5146C25.5677 14.3882 25.3557 14.3134 25.1362 14.2978L25.1231 14.4834ZM25.6416 14.667L25.5349 14.8194C25.6599 14.9069 25.7589 15.0271 25.8214 15.1668L25.9912 15.0908L26.161 15.0149C26.0713 14.8141 25.9288 14.641 25.7483 14.5146L25.6416 14.667ZM25.9912 15.0908L25.8231 15.1706C26.1516 15.8625 26.6197 16.3851 27.2367 16.7326C27.8517 17.079 28.6022 17.2446 29.4863 17.2446V17.0586V16.8725C28.6475 16.8725 27.9642 16.7154 27.4193 16.4084C26.8764 16.1026 26.4585 15.6413 26.1593 15.011L25.9912 15.0908ZM29.4863 17.0586L29.4864 17.2446C30.0723 17.2446 30.7559 16.9858 31.5269 16.4658L31.4229 16.3115L31.3188 16.1573C30.5773 16.6575 29.9672 16.8725 29.4863 16.8725L29.4863 17.0586ZM31.4229 16.3115L31.5269 16.4658C31.9063 16.2099 32.1689 15.8139 32.2577 15.3652L32.0752 15.3291L31.8927 15.293C31.8229 15.6455 31.6166 15.9565 31.3188 16.1573L31.4229 16.3115ZM32.0752 15.3291L32.2577 15.3652C32.3464 14.9163 32.2543 14.4499 32.0006 14.0688L31.8457 14.1719L31.6908 14.275C31.89 14.574 31.9624 14.9403 31.8927 15.293L32.0752 15.3291ZM31.8457 14.1719L32.0005 14.0687L28.4888 8.80013L28.334 8.90332L28.1792 9.00651L31.6909 14.2751L31.8457 14.1719ZM28.334 8.90332L28.4886 8.79989C28.448 8.73912 28.3929 8.68955 28.3291 8.65537L28.2412 8.81934L28.1533 8.9833C28.164 8.98904 28.173 8.9973 28.1793 9.00675L28.334 8.90332ZM28.2412 8.81934L28.3289 8.65527C28.2643 8.62071 28.1926 8.60315 28.1205 8.60302L28.1201 8.78906L28.1198 8.97511C28.1321 8.97513 28.1436 8.97812 28.1535 8.9834L28.2412 8.81934ZM28.1201 8.78906V8.60302H11.8828V8.78906V8.97511H28.1201V8.78906Z" fill="#666666" mask="url(#path-1-outside-1_275_26905)"/>
</svg>
