<svg width="32" height="32" viewBox="0 0 32 32" fill="none" xmlns="http://www.w3.org/2000/svg">
<path d="M6.15191 11.1044C6.2937 10.7737 6.52717 10.4906 6.82472 10.2884C7.12228 10.0863 7.47149 9.97348 7.83109 9.96341H23.997C24.2405 9.95764 24.4827 10 24.7097 10.0881C24.9367 10.1762 25.1441 10.3083 25.3199 10.4767C25.4958 10.6452 25.6366 10.8467 25.7343 11.0698C25.8321 11.2928 25.8848 11.533 25.8894 11.7765V18.0581C25.8743 18.5191 25.687 18.9577 25.3645 19.2875C25.042 19.6173 24.6077 19.8143 24.1471 19.8398H18.245C18.5017 20.4956 18.7742 21.1474 19.0351 21.7877C17.8499 21.1477 16.7041 20.4801 15.519 19.8398C12.9432 19.8163 10.3473 19.8398 7.74794 19.8398C7.28552 19.8188 6.84826 19.6233 6.52429 19.2926C6.20032 18.962 6.01375 18.5209 6.00217 18.0581V12.0055C5.98851 11.698 6.0394 11.391 6.15156 11.1044" fill="#8F5A82"/>
<path d="M14.0628 11.2421C14.1406 11.1718 14.2329 11.1194 14.3331 11.0885C14.4333 11.0577 14.539 11.0491 14.6429 11.0634C14.7468 11.0777 14.8463 11.1145 14.9344 11.1713C15.0225 11.2281 15.0972 11.3035 15.1531 11.3922C15.2707 11.5868 15.2811 11.828 15.1807 12.0322C14.8074 12.8652 14.5547 13.7472 14.4303 14.6516C14.2115 15.8142 14.1149 16.9966 14.1418 18.1793C14.1665 18.3354 14.1347 18.4951 14.0521 18.6298C13.9695 18.7646 13.8415 18.8654 13.6912 18.9142C13.5398 18.9353 13.3855 18.9135 13.2459 18.8513C13.1062 18.789 12.9868 18.6889 12.9012 18.5623C12.0634 17.5823 11.4655 16.4205 11.1551 15.1691C10.7826 15.8795 10.4243 16.5973 10.0803 17.322C9.85491 17.8251 9.55096 18.2891 9.17985 18.6968C9.0139 18.8628 8.72926 19.0129 8.51191 18.8469C8.24068 18.5265 8.05693 18.1415 7.97852 17.7291C7.50184 15.926 7.13385 14.096 6.87654 12.2489C6.78684 11.9301 6.9452 11.5934 7.24778 11.4588C7.37505 11.4016 7.51521 11.3791 7.65398 11.3937C7.79276 11.4082 7.92521 11.4593 8.03786 11.5416C8.16551 11.6858 8.24142 11.8676 8.25522 12.0591C8.4605 13.4895 8.70546 14.9079 9.05703 16.2828L10.8152 12.9286C10.8956 12.7595 11.0181 12.6139 11.1706 12.5059C11.2787 12.4324 11.4091 12.3993 11.5392 12.4123C11.6692 12.4253 11.7906 12.4836 11.882 12.577C12.0172 12.7449 12.1021 12.9476 12.127 13.1618C12.2943 14.0907 12.5442 15.0028 12.8736 15.8874C12.9739 14.5575 13.2488 13.2466 13.6912 11.9884C13.7797 11.7222 13.9047 11.4697 14.0628 11.238M17.3853 11.9611C17.704 11.917 18.0286 11.9495 18.3323 12.0559C18.6359 12.1624 18.9097 12.3397 19.1311 12.5732C19.4722 12.979 19.6854 13.4767 19.7438 14.0036C19.8504 14.9061 19.6795 15.8197 19.2539 16.6226C19.0282 17.0919 18.6818 17.4928 18.2503 17.7843C17.9188 17.9775 17.5397 18.0737 17.1562 18.0618C16.7728 18.0499 16.4003 17.9304 16.0815 17.717C15.5969 17.3394 15.2713 16.794 15.1689 16.1882C15.0431 15.5147 15.0854 14.8205 15.2922 14.1672C15.4989 13.5139 15.8636 12.9217 16.3541 12.4431C16.6427 12.1754 17.0098 12.0078 17.4012 11.9649M17.5275 13.3277C17.2367 13.4577 16.9995 13.6838 16.8557 13.9681C16.6438 14.2992 16.5161 14.6771 16.4837 15.0689C16.4514 15.4607 16.5154 15.8545 16.6701 16.2158C16.7052 16.3193 16.7642 16.413 16.8425 16.4892C16.9208 16.5654 17.016 16.622 17.1203 16.6544C17.234 16.6601 17.3476 16.6411 17.4533 16.5988C17.559 16.5566 17.6543 16.4919 17.7327 16.4094C18.084 16.0633 18.3141 15.613 18.3886 15.1256C18.5042 14.5735 18.4038 13.9981 18.1081 13.5178C18.043 13.4254 17.9495 13.3568 17.8418 13.3225C17.7341 13.2883 17.6181 13.2902 17.5116 13.3281M22.4577 11.9649C22.7689 11.9224 23.0858 11.9518 23.3838 12.0512C23.6818 12.1505 23.9531 12.3169 24.1766 12.5377C24.5569 12.9659 24.7859 13.5073 24.8283 14.0785C24.9242 14.9472 24.7593 15.8246 24.3542 16.5992C24.1229 17.0819 23.7634 17.4918 23.3151 17.7843C22.9959 17.9643 22.6348 18.0566 22.2684 18.0518C21.902 18.0469 21.5434 17.9451 21.2291 17.7567C20.8169 17.4855 20.5102 17.0812 20.36 16.6112C20.1458 15.9041 20.121 15.1531 20.2881 14.4334C20.4552 13.7137 20.8083 13.0504 21.3123 12.5101C21.6284 12.2141 22.0286 12.0236 22.4577 11.9649ZM22.596 13.3277C22.2874 13.4848 22.0389 13.7389 21.8888 14.0509C21.6956 14.3803 21.5837 14.7511 21.5625 15.1324C21.5412 15.5137 21.6112 15.8946 21.7666 16.2434C21.8063 16.3444 21.8709 16.4336 21.9545 16.5027C22.0381 16.5718 22.1379 16.6185 22.2445 16.6385C22.3664 16.6312 22.4857 16.5999 22.5956 16.5464C22.7054 16.4928 22.8036 16.4181 22.8845 16.3266C23.2445 15.9387 23.4569 15.4367 23.4848 14.9082C23.5456 14.4236 23.4383 13.9328 23.1808 13.5178C23.1145 13.4302 23.0229 13.365 22.9183 13.331C22.8137 13.2971 22.7012 13.2961 22.596 13.3281" fill="white"/>
</svg>
