<svg width="40" height="40" viewBox="0 0 40 40" fill="none" xmlns="http://www.w3.org/2000/svg">
<path d="M20 6.99609C27.1815 6.99609 33.0038 12.8186 33.0039 20C33.0039 27.1815 27.1815 33.0039 20 33.0039C12.8186 33.0038 6.99609 27.1815 6.99609 20C6.99623 12.8187 12.8187 6.99623 20 6.99609ZM20 9.01074C13.9304 9.01087 9.01087 13.9304 9.01074 20C9.01074 26.0697 13.9303 30.9901 20 30.9902C26.0698 30.9902 30.9902 26.0698 30.9902 20C30.9901 13.9303 26.0697 9.01074 20 9.01074ZM20 24.1348C21.0297 24.1348 21.8643 24.9693 21.8643 25.999C21.8641 27.0286 21.0296 27.8623 20 27.8623C18.9705 27.8622 18.1369 27.0285 18.1367 25.999C18.1367 24.9694 18.9704 24.1349 20 24.1348ZM20 11.2812C21.0296 11.2812 21.8641 12.115 21.8643 13.1445V13.1533L21.8633 13.1611L21.0059 20.8662C21.0046 21.3544 20.9068 21.8038 20.7402 22.1367C20.5772 22.4626 20.3238 22.7207 20 22.7207C19.6763 22.7206 19.4228 22.4626 19.2598 22.1367C19.0933 21.804 18.9945 21.355 18.9932 20.8672L18.1377 13.1611L18.1367 13.1533V13.1445C18.1369 12.1151 18.9705 11.2814 20 11.2812Z" fill="#FF513B" stroke="#FF513B" stroke-width="0.3"/>
</svg>
