<svg width="202" height="51" viewBox="0 0 202 51" fill="none" xmlns="http://www.w3.org/2000/svg">
<path d="M71.9783 29.2581H69.2129V7.62891H71.9783V16.7053H82.062V7.62891H84.7681V29.2581H82.062V19.0657H71.9783V29.2581ZM88.7186 36.1715C88.0273 36.1715 87.4051 36.0563 86.852 35.8258L87.3656 33.6925C87.8462 33.8637 88.2512 33.9493 88.5804 33.9493C90.233 33.9098 91.4412 32.7576 92.205 30.4926L92.5803 29.2877L86.1311 13.2485H88.9557L92.205 22.1471C92.3762 22.6673 92.6659 23.4936 93.0741 24.6261C93.3967 25.5479 93.6272 26.2195 93.7655 26.6408H93.9037C94.6148 24.2574 95.0658 22.7594 95.2568 22.1471L98.111 13.2485H100.728L94.684 30.5815C93.6305 33.5378 92.2083 35.3156 90.4174 35.9147C89.8841 36.0859 89.3178 36.1715 88.7186 36.1715ZM104.511 35.9937H101.834V13.2485H104.057L104.284 15.0658H104.373C106.177 13.6041 107.875 12.8634 109.469 12.8436C112.043 12.8436 113.867 13.9958 114.94 16.3003C115.553 17.5843 115.859 19.148 115.859 20.9916C115.859 24.0467 114.947 26.3808 113.123 27.9939C111.898 29.0869 110.489 29.6334 108.896 29.6334C107.434 29.6136 105.956 28.998 104.462 27.7865L104.511 30.5815V35.9937ZM108.461 27.3816C110.094 27.3816 111.332 26.5849 112.175 24.9915C112.748 23.8985 113.034 22.5751 113.034 21.0212C113.001 17.0838 111.602 15.1086 108.837 15.0954C107.526 15.1086 106.085 15.846 104.511 17.3077V25.7125C105.821 26.8252 107.138 27.3816 108.461 27.3816ZM124.57 29.6334C122.166 29.6334 120.247 28.7676 118.812 27.0359C117.541 25.5018 116.906 23.5726 116.906 21.2484C116.906 18.4896 117.788 16.3036 119.553 14.6905C120.902 13.4592 122.43 12.8436 124.135 12.8436C126.729 12.8436 128.563 13.93 129.636 16.1028C130.209 17.3077 130.496 18.7266 130.496 20.3595C130.496 20.8797 130.459 21.3899 130.387 21.8903H119.582C119.701 24.1158 120.527 25.7191 122.061 26.7001C122.884 27.2334 123.836 27.5001 124.915 27.5001C126.351 27.4803 127.684 27.0589 128.915 26.2359L129.893 27.9939C128.208 29.0869 126.433 29.6334 124.57 29.6334ZM119.553 19.9546H128.135C128.135 17.288 127.233 15.6847 125.429 15.1448C125.027 15.0329 124.606 14.9769 124.165 14.9769C122.65 14.9769 121.452 15.6485 120.57 16.9917C120.01 17.8345 119.671 18.8221 119.553 19.9546ZM135.147 29.2581H132.471V13.2485H134.683L134.92 16.1522H134.999C136.059 14.2559 137.366 13.1728 138.92 12.9029C139.131 12.8634 139.341 12.8436 139.552 12.8436C140.263 12.8436 140.829 12.9588 141.251 13.1893L140.767 15.5497C140.306 15.3785 139.786 15.2929 139.206 15.2929C137.903 15.2929 136.78 16.0501 135.839 17.5645C135.588 17.9859 135.358 18.4567 135.147 18.9768V29.2581ZM155.572 29.2581H140.688V27.6482L152.095 9.93997H141.725V7.62891H155.463V9.24862L144.056 26.9273H155.572V29.2581ZM163.937 29.6334C161.784 29.6334 159.999 28.8367 158.584 27.2433C157.201 25.6697 156.51 23.6714 156.51 21.2484C156.51 18.3316 157.451 16.0765 159.334 14.4831C160.678 13.3901 162.212 12.8436 163.937 12.8436C166.103 12.8436 167.897 13.6502 169.319 15.2633C170.682 16.8369 171.364 18.832 171.364 21.2484C171.364 24.152 170.426 26.3906 168.549 27.9643C167.219 29.077 165.682 29.6334 163.937 29.6334ZM163.937 27.3816C165.629 27.3816 166.906 26.5849 167.769 24.9915C168.322 23.938 168.598 22.6903 168.598 21.2484C168.598 18.8912 167.927 17.1464 166.584 16.0139C165.82 15.3818 164.938 15.0658 163.937 15.0658C162.264 15.0658 161.007 15.8724 160.164 17.4855C159.611 18.539 159.334 19.7933 159.334 21.2484C159.334 23.6911 160.022 25.4491 161.399 26.5223C162.129 27.0952 162.976 27.3816 163.937 27.3816ZM176.272 29.2581H173.596V13.2485H175.808L176.045 15.5497H176.124C177.876 13.8444 179.568 12.9424 181.201 12.8436C181.313 12.8436 181.418 12.8436 181.517 12.8436C184.756 12.8831 186.386 14.9769 186.405 19.125V29.2581H183.699V19.4706C183.699 17.1859 183.097 15.823 181.892 15.3818C181.523 15.2633 181.118 15.2041 180.677 15.2041C179.525 15.2041 178.353 15.7341 177.161 16.7941C176.898 17.0378 176.602 17.3242 176.272 17.6534V29.2581ZM196.065 29.6334C193.668 29.6334 191.749 28.7676 190.307 27.0359C189.042 25.5018 188.41 23.5726 188.41 21.2484C188.41 18.4896 189.293 16.3036 191.057 14.6905C192.4 13.4592 193.928 12.8436 195.64 12.8436C198.227 12.8436 200.058 13.93 201.131 16.1028C201.71 17.3077 202 18.7266 202 20.3595C202 20.8797 201.961 21.3899 201.882 21.8903H191.087C191.199 24.1158 192.025 25.7191 193.566 26.7001C194.389 27.2334 195.337 27.5001 196.41 27.5001C197.852 27.4803 199.189 27.0589 200.42 26.2359L201.398 27.9939C199.706 29.0869 197.928 29.6334 196.065 29.6334ZM191.057 19.9546H199.64C199.64 17.288 198.738 15.6847 196.934 15.1448C196.525 15.0329 196.101 14.9769 195.66 14.9769C194.145 14.9769 192.947 15.6485 192.065 16.9917C191.505 17.8345 191.169 18.8221 191.057 19.9546Z" fill="black"/>
<path d="M30.3558 18.8538C36.6972 18.8538 43.042 18.7498 49.3768 18.9141C51.8001 18.9744 53.2547 18.408 53.6033 15.8406C53.7106 15.0596 53.8614 13.9669 54.8434 13.8295C55.6445 13.7089 56.107 14.5937 56.5562 15.1702C58.3627 17.5164 60.1056 19.9028 61.9189 22.2423C62.8272 23.4188 62.7468 24.2802 61.4731 25.1751C57.8801 27.6989 54.3474 30.3133 50.7811 32.8841C50.2583 33.2595 49.6851 33.9298 49.0014 33.4036C48.3176 32.8774 48.807 32.1668 48.8874 31.5099C49.0014 30.5781 50.208 29.2642 48.3176 28.8855C46.8362 28.5872 45.4653 28.7916 44.9659 30.6753C43.9604 34.513 42.7437 38.2971 41.7751 42.1449C41.1751 44.5413 40.0355 45.748 37.3709 45.5502C34.5119 45.3391 31.6261 45.5234 28.7503 45.4932C25.8745 45.4631 25.6701 45.1581 26.4979 42.3359C27.5504 38.7741 28.6274 35.2191 29.729 31.6707C30.4831 29.2441 30.2351 28.7748 27.6777 28.8117C18.6013 28.9357 20.5821 27.4476 18.1086 35.8503C17.3712 38.3608 16.5601 40.8511 15.8395 43.3649C15.4406 44.7626 14.6898 45.5167 13.1581 45.4932C9.6086 45.443 6.05578 45.4631 2.50631 45.4932C0.877371 45.4932 0.398075 44.7156 0.830447 43.2241C3.02918 35.6861 5.25472 28.1682 7.44339 20.6134C7.88582 19.0917 8.87123 18.8102 10.3192 18.8269C16.9958 18.8873 23.6758 18.8538 30.3558 18.8538Z" fill="#FABE00"/>
<path d="M41.94 16.0664H36.6275C35.0857 16.0832 34.4757 15.5703 34.9851 13.9079C36.0745 10.3651 37.0565 6.79218 38.0017 3.20919C38.4475 1.50987 39.2921 0.628369 41.1758 0.681997C44.5476 0.782548 47.9194 0.752383 51.2946 0.685349C53.0979 0.655183 53.795 1.28531 53.2185 3.1187C52.0275 6.8905 50.8734 10.6746 49.7562 14.471C49.421 15.6575 48.6401 16.063 47.5072 16.0563C45.6503 16.0597 43.7935 16.0664 41.94 16.0664ZM16.6915 16.0664H11.1276C9.77015 16.0664 9.06293 15.6441 9.53888 14.0554C10.6584 10.3506 11.7208 6.62683 12.7264 2.88408C13.1286 1.32888 14.0201 0.685349 15.6122 0.685349C19.0678 0.735624 22.5268 0.725569 25.9824 0.685349C27.6047 0.685349 28.3923 1.21157 27.846 2.96117C26.6505 6.82012 25.4752 10.6858 24.32 14.5581C23.958 15.7748 23.1033 16.053 22.0039 16.0463C20.2342 16.063 18.4612 16.0697 16.6915 16.0664Z" fill="#F06A22"/>
</svg>
