<svg width="40" height="40" viewBox="0 0 40 40" fill="none" xmlns="http://www.w3.org/2000/svg">
<path d="M20.3994 7.16602C24.6616 7.16612 28.117 10.6216 28.1172 14.8838C28.1172 17.5131 26.8012 19.8343 24.7939 21.2275C28.7279 23.0444 31.4589 27.0286 31.459 31.6514C31.459 32.3043 30.9293 32.834 30.2764 32.834C29.6299 32.834 29.1052 32.3149 29.0947 31.6709L29.0938 31.6689V31.6514C29.0937 26.9212 25.4945 23.033 20.8906 22.585C20.4426 22.6133 19.9931 22.6027 19.5469 22.5537C14.7852 22.7876 10.9851 26.6909 10.9072 31.501L10.9062 31.6533C10.9053 32.3054 10.376 32.834 9.72363 32.834C9.0707 32.834 8.54102 32.3043 8.54102 31.6514C8.5411 26.8355 11.5047 22.7122 15.7051 21.0107C13.8671 19.6004 12.6816 17.3804 12.6816 14.8838C12.6818 10.6216 16.1371 7.16602 20.3994 7.16602ZM20.3994 9.53125C17.443 9.53125 15.0461 11.9274 15.0459 14.8838C15.0459 17.5836 17.045 19.8166 19.6436 20.1836C19.7621 20.1798 19.8809 20.1777 20 20.1777C20.3027 20.1777 20.6026 20.1898 20.8994 20.2129C23.6212 19.961 25.752 17.6716 25.752 14.8838C25.7518 11.9275 23.3557 9.53135 20.3994 9.53125Z" fill="#666666" stroke="#666666" stroke-width="0.47189"/>
</svg>
