<svg width="40" height="40" viewBox="0 0 40 40" fill="none" xmlns="http://www.w3.org/2000/svg">
<mask id="path-1-outside-1_275_27123" maskUnits="userSpaceOnUse" x="6.20117" y="5" width="28" height="30" fill="black">
<rect fill="white" x="6.20117" y="5" width="28" height="30"/>
<path d="M24.6992 6C24.9353 6 25.1622 6.09383 25.3291 6.26074C25.4958 6.42754 25.5897 6.65384 25.5898 6.88965V8.40234H30.1631C30.8603 8.40701 31.5284 8.68566 32.0215 9.17871C32.5144 9.67166 32.7931 10.339 32.7979 11.0361V31.3643C32.7979 32.063 32.5204 32.7335 32.0264 33.2275C31.5323 33.7215 30.8618 33.999 30.1631 33.999H9.83594C9.13728 33.999 8.4667 33.7215 7.97266 33.2275C7.4786 32.7335 7.20117 32.063 7.20117 31.3643V11.0361C7.20127 10.3376 7.47873 9.66779 7.97266 9.17383C8.46671 8.67977 9.13724 8.40234 9.83594 8.40234H14.4287V6.88965C14.4264 6.77374 14.4475 6.65855 14.4902 6.55078C14.533 6.44295 14.5965 6.34457 14.6777 6.26172C14.7589 6.17887 14.8559 6.11329 14.9629 6.06836C15.0699 6.02342 15.1847 5.99998 15.3008 6C15.5367 6 15.7628 6.09395 15.9297 6.26074C16.0965 6.42757 16.1903 6.65373 16.1904 6.88965V8.40234H23.8096V6.88965C23.8097 6.65373 23.9035 6.42757 24.0703 6.26074C24.2372 6.09393 24.4633 6.00004 24.6992 6ZM8.94531 16.9121V31.3643C8.94531 31.6003 9.03914 31.8272 9.20605 31.9941C9.37296 32.161 9.59993 32.2549 9.83594 32.2549H30.1631C30.396 32.2502 30.6182 32.1537 30.7812 31.9873C30.9443 31.8209 31.0362 31.5972 31.0361 31.3643V16.9121H8.94531ZM26.7285 19.1162C26.8453 19.1162 26.9612 19.1401 27.0684 19.1865C27.1754 19.2329 27.2717 19.3007 27.3516 19.3857C27.5135 19.5491 27.6045 19.77 27.6045 20C27.6045 20.23 27.5135 20.4509 27.3516 20.6143L18.8252 28.9443C18.6609 29.112 18.4369 29.2086 18.2021 29.2119C17.9624 29.2076 17.7334 29.1115 17.5615 28.9443L14.001 25.0996C13.9018 25.0201 13.8211 24.9201 13.7637 24.8066C13.7062 24.6931 13.6732 24.5686 13.668 24.4414C13.6628 24.3142 13.6854 24.1872 13.7334 24.0693C13.7814 23.9515 13.8538 23.8452 13.9463 23.7578C14.0388 23.6704 14.1491 23.6037 14.2695 23.5625C14.39 23.5213 14.5179 23.5071 14.6445 23.5195C14.7712 23.532 14.8938 23.571 15.0039 23.6348C15.114 23.6986 15.2095 23.7859 15.2832 23.8896L18.3086 27.165L26.1055 19.3857C26.1854 19.3006 26.2825 19.2329 26.3896 19.1865C26.4967 19.1403 26.6119 19.1162 26.7285 19.1162ZM9.83594 10.1641C9.71991 10.1617 9.60398 10.1828 9.49609 10.2256C9.38829 10.2683 9.28987 10.3319 9.20703 10.4131C9.12423 10.4942 9.05861 10.5914 9.01367 10.6982C8.96878 10.8051 8.94534 10.9202 8.94531 11.0361V15.1318H31.0361V11.0361C31.036 10.805 30.9437 10.5834 30.7803 10.4199C30.6167 10.2563 30.3944 10.1641 30.1631 10.1641H25.5898V12.5146C25.5924 12.6336 25.5702 12.7521 25.5254 12.8623C25.4804 12.9726 25.4131 13.0729 25.3281 13.1562C25.2431 13.2396 25.1414 13.3049 25.0303 13.3477C24.9192 13.3903 24.8005 13.4101 24.6816 13.4053C24.5656 13.4053 24.4507 13.3818 24.3438 13.3369C24.2369 13.292 24.1398 13.2263 24.0586 13.1436C23.9774 13.0607 23.9129 12.9623 23.8701 12.8545C23.8273 12.7466 23.8072 12.6307 23.8096 12.5146V10.1641H16.1904V12.5146C16.1904 12.7507 16.0966 12.9776 15.9297 13.1445C15.7628 13.3112 15.5367 13.4053 15.3008 13.4053C15.1847 13.4053 15.0699 13.3818 14.9629 13.3369C14.856 13.292 14.7589 13.2263 14.6777 13.1436C14.5966 13.0608 14.533 12.9622 14.4902 12.8545C14.4475 12.7466 14.4263 12.6307 14.4287 12.5146V10.1641H9.83594Z"/>
</mask>
<path d="M24.6992 6C24.9353 6 25.1622 6.09383 25.3291 6.26074C25.4958 6.42754 25.5897 6.65384 25.5898 6.88965V8.40234H30.1631C30.8603 8.40701 31.5284 8.68566 32.0215 9.17871C32.5144 9.67166 32.7931 10.339 32.7979 11.0361V31.3643C32.7979 32.063 32.5204 32.7335 32.0264 33.2275C31.5323 33.7215 30.8618 33.999 30.1631 33.999H9.83594C9.13728 33.999 8.4667 33.7215 7.97266 33.2275C7.4786 32.7335 7.20117 32.063 7.20117 31.3643V11.0361C7.20127 10.3376 7.47873 9.66779 7.97266 9.17383C8.46671 8.67977 9.13724 8.40234 9.83594 8.40234H14.4287V6.88965C14.4264 6.77374 14.4475 6.65855 14.4902 6.55078C14.533 6.44295 14.5965 6.34457 14.6777 6.26172C14.7589 6.17887 14.8559 6.11329 14.9629 6.06836C15.0699 6.02342 15.1847 5.99998 15.3008 6C15.5367 6 15.7628 6.09395 15.9297 6.26074C16.0965 6.42757 16.1903 6.65373 16.1904 6.88965V8.40234H23.8096V6.88965C23.8097 6.65373 23.9035 6.42757 24.0703 6.26074C24.2372 6.09393 24.4633 6.00004 24.6992 6ZM8.94531 16.9121V31.3643C8.94531 31.6003 9.03914 31.8272 9.20605 31.9941C9.37296 32.161 9.59993 32.2549 9.83594 32.2549H30.1631C30.396 32.2502 30.6182 32.1537 30.7812 31.9873C30.9443 31.8209 31.0362 31.5972 31.0361 31.3643V16.9121H8.94531ZM26.7285 19.1162C26.8453 19.1162 26.9612 19.1401 27.0684 19.1865C27.1754 19.2329 27.2717 19.3007 27.3516 19.3857C27.5135 19.5491 27.6045 19.77 27.6045 20C27.6045 20.23 27.5135 20.4509 27.3516 20.6143L18.8252 28.9443C18.6609 29.112 18.4369 29.2086 18.2021 29.2119C17.9624 29.2076 17.7334 29.1115 17.5615 28.9443L14.001 25.0996C13.9018 25.0201 13.8211 24.9201 13.7637 24.8066C13.7062 24.6931 13.6732 24.5686 13.668 24.4414C13.6628 24.3142 13.6854 24.1872 13.7334 24.0693C13.7814 23.9515 13.8538 23.8452 13.9463 23.7578C14.0388 23.6704 14.1491 23.6037 14.2695 23.5625C14.39 23.5213 14.5179 23.5071 14.6445 23.5195C14.7712 23.532 14.8938 23.571 15.0039 23.6348C15.114 23.6986 15.2095 23.7859 15.2832 23.8896L18.3086 27.165L26.1055 19.3857C26.1854 19.3006 26.2825 19.2329 26.3896 19.1865C26.4967 19.1403 26.6119 19.1162 26.7285 19.1162ZM9.83594 10.1641C9.71991 10.1617 9.60398 10.1828 9.49609 10.2256C9.38829 10.2683 9.28987 10.3319 9.20703 10.4131C9.12423 10.4942 9.05861 10.5914 9.01367 10.6982C8.96878 10.8051 8.94534 10.9202 8.94531 11.0361V15.1318H31.0361V11.0361C31.036 10.805 30.9437 10.5834 30.7803 10.4199C30.6167 10.2563 30.3944 10.1641 30.1631 10.1641H25.5898V12.5146C25.5924 12.6336 25.5702 12.7521 25.5254 12.8623C25.4804 12.9726 25.4131 13.0729 25.3281 13.1562C25.2431 13.2396 25.1414 13.3049 25.0303 13.3477C24.9192 13.3903 24.8005 13.4101 24.6816 13.4053C24.5656 13.4053 24.4507 13.3818 24.3438 13.3369C24.2369 13.292 24.1398 13.2263 24.0586 13.1436C23.9774 13.0607 23.9129 12.9623 23.8701 12.8545C23.8273 12.7466 23.8072 12.6307 23.8096 12.5146V10.1641H16.1904V12.5146C16.1904 12.7507 16.0966 12.9776 15.9297 13.1445C15.7628 13.3112 15.5367 13.4053 15.3008 13.4053C15.1847 13.4053 15.0699 13.3818 14.9629 13.3369C14.856 13.292 14.7589 13.2263 14.6777 13.1436C14.5966 13.0608 14.533 12.9622 14.4902 12.8545C14.4475 12.7466 14.4263 12.6307 14.4287 12.5146V10.1641H9.83594Z" fill="#666666"/>
<path d="M24.6992 6V5.56923L24.6991 5.56923L24.6992 6ZM25.3291 6.26074L25.6338 5.95625L25.6337 5.95614L25.3291 6.26074ZM25.5898 6.88965H26.0206V6.88947L25.5898 6.88965ZM25.5898 8.40234H25.1591V8.83311H25.5898V8.40234ZM30.1631 8.40234L30.166 7.97157H30.1631V8.40234ZM32.0215 9.17871L32.3261 8.87413L32.3261 8.87411L32.0215 9.17871ZM32.7979 11.0361H33.2286L33.2286 11.0332L32.7979 11.0361ZM32.7979 31.3643H32.3671H32.7979ZM32.0264 33.2275L32.331 33.5322L32.331 33.5321L32.0264 33.2275ZM9.83594 33.999V33.5683V33.999ZM7.97266 33.2275L7.66806 33.5321L7.66807 33.5322L7.97266 33.2275ZM7.20117 31.3643H6.7704H7.20117ZM7.20117 11.0361L6.7704 11.0361V11.0361H7.20117ZM7.97266 9.17383L7.66806 8.86923L7.66804 8.86924L7.97266 9.17383ZM14.4287 8.40234V8.83311H14.8595V8.40234H14.4287ZM14.4287 6.88965H14.8596L14.8594 6.88104L14.4287 6.88965ZM14.4902 6.55078L14.0898 6.39195L14.0898 6.39202L14.4902 6.55078ZM14.6777 6.26172L14.3701 5.96019L14.3701 5.96021L14.6777 6.26172ZM14.9629 6.06836L14.7961 5.6712L14.796 5.67121L14.9629 6.06836ZM15.3008 6L15.3007 6.43077H15.3008V6ZM15.9297 6.26074L16.2343 5.95614L16.2342 5.95605L15.9297 6.26074ZM16.1904 6.88965H16.6212V6.88947L16.1904 6.88965ZM16.1904 8.40234H15.7597V8.83311H16.1904V8.40234ZM23.8096 8.40234V8.83311H24.2403V8.40234H23.8096ZM23.8096 6.88965L23.3788 6.88947V6.88965H23.8096ZM24.0703 6.26074L23.7658 5.95609L23.7657 5.95614L24.0703 6.26074ZM8.94531 16.9121V16.4813H8.51454V16.9121H8.94531ZM8.94531 31.3643H8.51454H8.94531ZM9.20605 31.9941L8.90145 32.2987L8.9015 32.2988L9.20605 31.9941ZM30.1631 32.2549V32.6857L30.1717 32.6856L30.1631 32.2549ZM30.7812 31.9873L31.0889 32.2888L31.089 32.2888L30.7812 31.9873ZM31.0361 31.3643H30.6054V31.3643L31.0361 31.3643ZM31.0361 16.9121H31.4669V16.4813H31.0361V16.9121ZM26.7285 19.1162V18.6854H26.7285L26.7285 19.1162ZM27.0684 19.1865L27.2396 18.7913L27.2395 18.7912L27.0684 19.1865ZM27.3516 19.3857L27.0374 19.6807L27.0457 19.689L27.3516 19.3857ZM27.6045 20H28.0353V20H27.6045ZM27.3516 20.6143L27.6526 20.9224L27.6575 20.9176L27.3516 20.6143ZM18.8252 28.9443L18.5241 28.6361L18.5175 28.6428L18.8252 28.9443ZM18.2021 29.2119L18.1943 29.6428L18.2083 29.6426L18.2021 29.2119ZM17.5615 28.9443L17.2455 29.237L17.2531 29.2453L17.2612 29.2531L17.5615 28.9443ZM14.001 25.0996L14.317 24.8069L14.2953 24.7834L14.2703 24.7634L14.001 25.0996ZM13.7637 24.8066L13.3793 25.0011L13.3793 25.0011L13.7637 24.8066ZM13.668 24.4414L13.2376 24.459L13.2376 24.4591L13.668 24.4414ZM13.7334 24.0693L13.3344 23.9069L13.3344 23.907L13.7334 24.0693ZM13.9463 23.7578L13.6505 23.4446L13.6505 23.4446L13.9463 23.7578ZM14.2695 23.5625L14.1302 23.1549L14.1302 23.1549L14.2695 23.5625ZM14.6445 23.5195L14.6867 23.0908L14.6867 23.0908L14.6445 23.5195ZM15.0039 23.6348L15.22 23.2621L15.2199 23.2621L15.0039 23.6348ZM15.2832 23.8896L14.9321 24.1392L14.948 24.1617L14.9668 24.1819L15.2832 23.8896ZM18.3086 27.165L17.9922 27.4573L18.2959 27.7862L18.6128 27.47L18.3086 27.165ZM26.1055 19.3857L26.4099 19.6909L26.4196 19.6805L26.1055 19.3857ZM26.3896 19.1865L26.2187 18.7911L26.2185 18.7912L26.3896 19.1865ZM9.83594 10.1641L9.82714 10.5948H9.83594V10.1641ZM9.49609 10.2256L9.33734 9.82514L9.33726 9.82517L9.49609 10.2256ZM9.20703 10.4131L8.90555 10.1054L8.90552 10.1054L9.20703 10.4131ZM9.01367 10.6982L8.61658 10.5313L8.61651 10.5314L9.01367 10.6982ZM8.94531 11.0361L8.51454 11.036V11.0361H8.94531ZM8.94531 15.1318H8.51454V15.5626H8.94531V15.1318ZM31.0361 15.1318V15.5626H31.4669V15.1318H31.0361ZM31.0361 11.0361H31.4669V11.036L31.0361 11.0361ZM30.7803 10.4199L31.0849 10.1154L31.0849 10.1153L30.7803 10.4199ZM25.5898 10.1641V9.73329H25.1591V10.1641H25.5898ZM25.5898 12.5146H25.159L25.1592 12.5238L25.5898 12.5146ZM25.5254 12.8623L25.9243 13.0249L25.9244 13.0247L25.5254 12.8623ZM25.3281 13.1562L25.6297 13.4639L25.6297 13.4638L25.3281 13.1562ZM25.0303 13.3477L25.1848 13.7498L25.1849 13.7497L25.0303 13.3477ZM24.6816 13.4053L24.6993 12.9749L24.6904 12.9745L24.6816 12.9745L24.6816 13.4053ZM24.3438 13.3369L24.1769 13.7341L24.177 13.7341L24.3438 13.3369ZM24.0586 13.1436L23.7509 13.4451L23.751 13.4452L24.0586 13.1436ZM23.8701 12.8545L23.4697 13.0133L23.4697 13.0133L23.8701 12.8545ZM23.8096 12.5146L24.2403 12.5234V12.5146H23.8096ZM23.8096 10.1641H24.2403V9.73329H23.8096V10.1641ZM16.1904 10.1641V9.73329H15.7597V10.1641H16.1904ZM16.1904 12.5146H16.6212H16.1904ZM15.9297 13.1445L16.2341 13.4493L16.2343 13.4491L15.9297 13.1445ZM15.3008 13.4053V12.9745H15.3007L15.3008 13.4053ZM14.9629 13.3369L14.7961 13.7341L14.7961 13.7341L14.9629 13.3369ZM14.6777 13.1436L14.3701 13.4451L14.3702 13.4452L14.6777 13.1436ZM14.4902 12.8545L14.0898 13.0133L14.0899 13.0135L14.4902 12.8545ZM14.4287 12.5146L14.8595 12.5234V12.5146H14.4287ZM14.4287 10.1641H14.8595V9.73329H14.4287V10.1641ZM24.6992 6V6.43077C24.8212 6.43077 24.9385 6.47936 25.0245 6.56534L25.3291 6.26074L25.6337 5.95614C25.3859 5.7083 25.0493 5.56923 24.6992 5.56923V6ZM25.3291 6.26074L25.0244 6.56524C25.1106 6.6515 25.159 6.76842 25.1591 6.88983L25.5898 6.88965L26.0206 6.88947C26.0205 6.53926 25.881 6.20359 25.6338 5.95625L25.3291 6.26074ZM25.5898 6.88965H25.1591V8.40234H25.5898H26.0206V6.88965H25.5898ZM25.5898 8.40234V8.83311H30.1631V8.40234V7.97157H25.5898V8.40234ZM30.1631 8.40234L30.1602 8.8331C30.7445 8.83701 31.3041 9.07055 31.7169 9.48331L32.0215 9.17871L32.3261 8.87411C31.7528 8.30078 30.9762 7.977 30.166 7.97158L30.1631 8.40234ZM32.0215 9.17871L31.7169 9.4833C32.1296 9.89607 32.3631 10.455 32.3671 11.0391L32.7979 11.0361L33.2286 11.0332C33.2231 10.2231 32.8992 9.44726 32.3261 8.87413L32.0215 9.17871ZM32.7979 11.0361H32.3671V31.3643H32.7979H33.2286V11.0361H32.7979ZM32.7979 31.3643H32.3671C32.3671 31.9488 32.1349 32.5098 31.7218 32.9229L32.0264 33.2275L32.331 33.5321C32.9059 32.9572 33.2286 32.1771 33.2286 31.3643H32.7979ZM32.0264 33.2275L31.7218 32.9229C31.3086 33.3361 30.7476 33.5683 30.1631 33.5683V33.999V34.4298C30.9759 34.4298 31.756 34.107 32.331 33.5322L32.0264 33.2275ZM30.1631 33.999V33.5683H9.83594V33.999V34.4298H30.1631V33.999ZM9.83594 33.999V33.5683C9.25141 33.5683 8.69043 33.3361 8.27724 32.9229L7.97266 33.2275L7.66807 33.5322C8.24298 34.107 9.02315 34.4298 9.83594 34.4298V33.999ZM7.97266 33.2275L8.27726 32.9229C7.86408 32.5098 7.63194 31.9488 7.63194 31.3643H7.20117H6.7704C6.7704 32.1771 7.09312 32.9572 7.66806 33.5321L7.97266 33.2275ZM7.20117 31.3643H7.63194V11.0361H7.20117H6.7704V31.3643H7.20117ZM7.20117 11.0361L7.63194 11.0362C7.63202 10.4519 7.86411 9.8916 8.27727 9.47842L7.97266 9.17383L7.66804 8.86924C7.09335 9.44398 6.77052 10.2233 6.7704 11.0361L7.20117 11.0361ZM7.97266 9.17383L8.27726 9.47843C8.69044 9.06525 9.25135 8.83311 9.83594 8.83311V8.40234V7.97157C9.02312 7.97157 8.24299 8.29429 7.66806 8.86923L7.97266 9.17383ZM9.83594 8.40234V8.83311H14.4287V8.40234V7.97157H9.83594V8.40234ZM14.4287 8.40234H14.8595V6.88965H14.4287H13.9979V8.40234H14.4287ZM14.4287 6.88965L14.8594 6.88104C14.8582 6.82314 14.8688 6.7648 14.8907 6.70954L14.4902 6.55078L14.0898 6.39202C14.0262 6.55231 13.9946 6.72435 13.998 6.89826L14.4287 6.88965ZM14.4902 6.55078L14.8907 6.70961C14.9126 6.65419 14.9449 6.60452 14.9854 6.56323L14.6777 6.26172L14.3701 5.96021C14.2481 6.08462 14.1534 6.23171 14.0898 6.39195L14.4902 6.55078ZM14.6777 6.26172L14.9854 6.56325C15.026 6.52176 15.075 6.48849 15.1297 6.4655L14.9629 6.06836L14.796 5.67121C14.6368 5.7381 14.4918 5.83598 14.3701 5.96019L14.6777 6.26172ZM14.9629 6.06836L15.1297 6.46552C15.1846 6.44247 15.2427 6.43076 15.3007 6.43077L15.3008 6L15.3009 5.56923C15.1267 5.5692 14.9552 5.60437 14.7961 5.6712L14.9629 6.06836ZM15.3008 6V6.43077C15.4221 6.43077 15.5388 6.47906 15.6252 6.56543L15.9297 6.26074L16.2342 5.95605C15.9868 5.70884 15.6514 5.56923 15.3008 5.56923V6ZM15.9297 6.26074L15.6251 6.56534C15.7112 6.6515 15.7596 6.7682 15.7597 6.88983L16.1904 6.88965L16.6212 6.88947C16.6211 6.53926 16.4818 6.20363 16.2343 5.95614L15.9297 6.26074ZM16.1904 6.88965H15.7597V8.40234H16.1904H16.6212V6.88965H16.1904ZM16.1904 8.40234V8.83311H23.8096V8.40234V7.97157H16.1904V8.40234ZM23.8096 8.40234H24.2403V6.88965H23.8096H23.3788V8.40234H23.8096ZM23.8096 6.88965L24.2403 6.88983C24.2404 6.7682 24.2888 6.6515 24.3749 6.56534L24.0703 6.26074L23.7657 5.95614C23.5182 6.20363 23.3789 6.53926 23.3788 6.88947L23.8096 6.88965ZM24.0703 6.26074L24.3749 6.56539C24.4612 6.47912 24.5778 6.43079 24.6993 6.43077L24.6992 6L24.6991 5.56923C24.3487 5.5693 24.0132 5.70875 23.7658 5.95609L24.0703 6.26074ZM8.94531 16.9121H8.51454V31.3643H8.94531H9.37608V16.9121H8.94531ZM8.94531 31.3643H8.51454C8.51454 31.7143 8.65362 32.0509 8.90145 32.2987L9.20605 31.9941L9.51065 31.6895C9.42467 31.6036 9.37608 31.4863 9.37608 31.3643H8.94531ZM9.20605 31.9941L8.9015 32.2988C9.14928 32.5465 9.48584 32.6857 9.83594 32.6857V32.2549V31.8241C9.71402 31.8241 9.59664 31.7755 9.51061 31.6895L9.20605 31.9941ZM9.83594 32.2549V32.6857H30.1631V32.2549V31.8241H9.83594V32.2549ZM30.1631 32.2549L30.1717 32.6856C30.5181 32.6786 30.8474 32.5353 31.0889 32.2888L30.7812 31.9873L30.4736 31.6858C30.389 31.7722 30.274 31.8218 30.1545 31.8242L30.1631 32.2549ZM30.7812 31.9873L31.089 32.2888C31.3303 32.0424 31.467 31.7106 31.4669 31.3642L31.0361 31.3643L30.6054 31.3643C30.6054 31.4838 30.5582 31.5994 30.4735 31.6859L30.7812 31.9873ZM31.0361 31.3643H31.4669V16.9121H31.0361H30.6054V31.3643H31.0361ZM31.0361 16.9121V16.4813H8.94531V16.9121V17.3429H31.0361V16.9121ZM26.7285 19.1162V19.547C26.7866 19.547 26.8443 19.5589 26.8972 19.5818L27.0684 19.1865L27.2395 18.7912C27.0781 18.7213 26.9039 18.6854 26.7285 18.6854V19.1162ZM27.0684 19.1865L26.8971 19.5818C26.95 19.6047 26.9979 19.6383 27.0375 19.6806L27.3516 19.3857L27.6656 19.0909C27.5456 18.9631 27.4007 18.8611 27.2396 18.7913L27.0684 19.1865ZM27.3516 19.3857L27.0457 19.689C27.1277 19.7717 27.1737 19.8836 27.1737 20H27.6045H28.0353C28.0353 19.6563 27.8994 19.3264 27.6575 19.0824L27.3516 19.3857ZM27.6045 20H27.1737C27.1737 20.1164 27.1277 20.2283 27.0457 20.311L27.3516 20.6143L27.6575 20.9176C27.8994 20.6736 28.0353 20.3437 28.0353 20H27.6045ZM27.3516 20.6143L27.0505 20.3061L18.5242 28.6362L18.8252 28.9443L19.1262 29.2525L27.6526 20.9224L27.3516 20.6143ZM18.8252 28.9443L18.5175 28.6428C18.4322 28.7299 18.3165 28.7795 18.196 28.7812L18.2021 29.2119L18.2083 29.6426C18.5574 29.6377 18.8895 29.4942 19.1329 29.2458L18.8252 28.9443ZM18.2021 29.2119L18.21 28.7812C18.0804 28.7789 17.9558 28.7269 17.8619 28.6356L17.5615 28.9443L17.2612 29.2531C17.511 29.4961 17.8444 29.6363 18.1943 29.6426L18.2021 29.2119ZM17.5615 28.9443L17.8776 28.6516L14.317 24.8069L14.001 25.0996L13.6849 25.3923L17.2455 29.237L17.5615 28.9443ZM14.001 25.0996L14.2703 24.7634C14.2199 24.723 14.1781 24.6715 14.148 24.6121L13.7637 24.8066L13.3793 25.0011C13.4641 25.1686 13.5836 25.3172 13.7316 25.4358L14.001 25.0996ZM13.7637 24.8066L14.148 24.6122C14.1178 24.5523 14.101 24.488 14.0984 24.4238L13.668 24.4414L13.2376 24.4591C13.2454 24.6492 13.2947 24.8338 13.3793 25.0011L13.7637 24.8066ZM13.668 24.4414L14.0984 24.4238C14.0957 24.3593 14.1072 24.2936 14.1324 24.2317L13.7334 24.0693L13.3344 23.907C13.2636 24.0809 13.2298 24.2692 13.2376 24.459L13.668 24.4414ZM13.7334 24.0693L14.1324 24.2318C14.1574 24.1703 14.1949 24.1155 14.2421 24.071L13.9463 23.7578L13.6505 23.4446C13.5127 23.5748 13.4054 23.7327 13.3344 23.9069L13.7334 24.0693ZM13.9463 23.7578L14.2421 24.071C14.2901 24.0256 14.3471 23.9912 14.4089 23.9701L14.2695 23.5625L14.1302 23.1549C13.9511 23.2161 13.7876 23.3152 13.6505 23.4446L13.9463 23.7578ZM14.2695 23.5625L14.4089 23.9701C14.4697 23.9493 14.5356 23.9417 14.6024 23.9482L14.6445 23.5195L14.6867 23.0908C14.5001 23.0725 14.3102 23.0933 14.1302 23.1549L14.2695 23.5625ZM14.6445 23.5195L14.6024 23.9482C14.6689 23.9548 14.7321 23.9751 14.7879 24.0075L15.0039 23.6348L15.2199 23.2621C15.0555 23.1668 14.8734 23.1092 14.6867 23.0908L14.6445 23.5195ZM15.0039 23.6348L14.7878 24.0074C14.8443 24.0401 14.8938 24.0853 14.9321 24.1392L15.2832 23.8896L15.6343 23.6401C15.5252 23.4865 15.3838 23.3571 15.22 23.2621L15.0039 23.6348ZM15.2832 23.8896L14.9668 24.1819L17.9922 27.4573L18.3086 27.165L18.625 26.8728L15.5996 23.5974L15.2832 23.8896ZM18.3086 27.165L18.6128 27.47L26.4097 19.6907L26.1055 19.3857L25.8012 19.0808L18.0043 26.8601L18.3086 27.165ZM26.1055 19.3857L26.4196 19.6805C26.4584 19.6392 26.5065 19.6053 26.5608 19.5818L26.3896 19.1865L26.2185 18.7912C26.0585 18.8605 25.9124 18.962 25.7914 19.091L26.1055 19.3857ZM26.3896 19.1865L26.5606 19.5819C26.614 19.5588 26.6712 19.547 26.7286 19.547L26.7285 19.1162L26.7285 18.6854C26.5527 18.6855 26.3793 18.7217 26.2187 18.7911L26.3896 19.1865ZM9.83594 10.1641L9.84473 9.73338C9.67089 9.72983 9.49803 9.76143 9.33734 9.82514L9.49609 10.2256L9.65485 10.626C9.70993 10.6042 9.76892 10.5936 9.82715 10.5947L9.83594 10.1641ZM9.49609 10.2256L9.33726 9.82517C9.17703 9.88873 9.02992 9.98354 8.90555 10.1054L9.20703 10.4131L9.50851 10.7208C9.54982 10.6803 9.59956 10.648 9.65492 10.626L9.49609 10.2256ZM9.20703 10.4131L8.90552 10.1054C8.78126 10.2272 8.6834 10.3723 8.61658 10.5313L9.01367 10.6982L9.41076 10.8652C9.43382 10.8104 9.46719 10.7613 9.50854 10.7207L9.20703 10.4131ZM9.01367 10.6982L8.61651 10.5314C8.54968 10.6905 8.51458 10.8623 8.51454 11.036L8.94531 11.0361L9.37608 11.0362C9.37609 10.9782 9.38787 10.9197 9.41083 10.8651L9.01367 10.6982ZM8.94531 11.0361H8.51454V15.1318H8.94531H9.37608V11.0361H8.94531ZM8.94531 15.1318V15.5626H31.0361V15.1318V14.7011H8.94531V15.1318ZM31.0361 15.1318H31.4669V11.0361H31.0361H30.6054V15.1318H31.0361ZM31.0361 11.0361L31.4669 11.036C31.4668 10.69 31.3286 10.3591 31.0849 10.1154L30.7803 10.4199L30.4756 10.7245C30.5588 10.8077 30.6053 10.92 30.6054 11.0363L31.0361 11.0361ZM30.7803 10.4199L31.0849 10.1153C30.8407 9.87115 30.5089 9.73329 30.1631 9.73329V10.1641V10.5948C30.2799 10.5948 30.3927 10.6415 30.4757 10.7245L30.7803 10.4199ZM30.1631 10.1641V9.73329H25.5898V10.1641V10.5948H30.1631V10.1641ZM25.5898 10.1641H25.1591V12.5146H25.5898H26.0206V10.1641H25.5898ZM25.5898 12.5146L25.1592 12.5238C25.1604 12.5834 25.1493 12.6436 25.1264 12.6999L25.5254 12.8623L25.9244 13.0247C25.9911 12.8606 26.0243 12.6838 26.0205 12.5055L25.5898 12.5146ZM25.5254 12.8623L25.1265 12.6997C25.1037 12.7555 25.0695 12.8065 25.0265 12.8487L25.3281 13.1562L25.6297 13.4638C25.7568 13.3392 25.8572 13.1896 25.9243 13.0249L25.5254 12.8623ZM25.3281 13.1562L25.0266 12.8486C24.9836 12.8907 24.932 12.9239 24.8756 12.9456L25.0303 13.3477L25.1849 13.7497C25.3509 13.6859 25.5025 13.5885 25.6297 13.4639L25.3281 13.1562ZM25.0303 13.3477L24.8757 12.9456C24.8189 12.9674 24.7587 12.9773 24.6993 12.9749L24.6816 13.4053L24.664 13.8357C24.8423 13.843 25.0195 13.8133 25.1848 13.7498L25.0303 13.3477ZM24.6816 13.4053L24.6816 12.9745C24.6237 12.9745 24.5654 12.9628 24.5105 12.9397L24.3438 13.3369L24.177 13.7341C24.336 13.8009 24.5076 13.8361 24.6817 13.836L24.6816 13.4053ZM24.3438 13.3369L24.5106 12.9398C24.456 12.9169 24.4069 12.8835 24.3661 12.8419L24.0586 13.1436L23.751 13.4452C23.8726 13.5692 24.0177 13.6672 24.1769 13.7341L24.3438 13.3369ZM24.0586 13.1436L24.3663 12.842C24.3243 12.7993 24.2918 12.7492 24.2705 12.6957L23.8701 12.8545L23.4697 13.0133C23.534 13.1755 23.6305 13.3221 23.7509 13.4451L24.0586 13.1436ZM23.8701 12.8545L24.2706 12.6957C24.2496 12.6429 24.239 12.5841 24.2402 12.5234L23.8096 12.5146L23.3789 12.5059C23.3754 12.6772 23.4051 12.8503 23.4697 13.0133L23.8701 12.8545ZM23.8096 12.5146H24.2403V10.1641H23.8096H23.3788V12.5146H23.8096ZM23.8096 10.1641V9.73329H16.1904V10.1641V10.5948H23.8096V10.1641ZM16.1904 10.1641H15.7597V12.5146H16.1904H16.6212V10.1641H16.1904ZM16.1904 12.5146H15.7597C15.7597 12.6367 15.7111 12.7539 15.6251 12.8399L15.9297 13.1445L16.2343 13.4491C16.4821 13.2013 16.6212 12.8647 16.6212 12.5146H16.1904ZM15.9297 13.1445L15.6253 12.8398C15.5388 12.9262 15.4219 12.9745 15.3008 12.9745V13.4053V13.836C15.6514 13.836 15.9869 13.6963 16.2341 13.4493L15.9297 13.1445ZM15.3008 13.4053L15.3007 12.9745C15.2428 12.9745 15.1846 12.9628 15.1297 12.9397L14.9629 13.3369L14.7961 13.7341C14.9552 13.8009 15.1267 13.8361 15.3009 13.836L15.3008 13.4053ZM14.9629 13.3369L15.1297 12.9398C15.0752 12.9168 15.0261 12.8835 14.9853 12.8419L14.6777 13.1436L14.3702 13.4452C14.4918 13.5692 14.6368 13.6672 14.7961 13.7341L14.9629 13.3369ZM14.6777 13.1436L14.9854 12.842C14.9451 12.8009 14.9126 12.751 14.8906 12.6955L14.4902 12.8545L14.0899 13.0135C14.1534 13.1734 14.2481 13.3207 14.3701 13.4451L14.6777 13.1436ZM14.4902 12.8545L14.8907 12.6957C14.8688 12.6407 14.8582 12.5817 14.8594 12.5234L14.4287 12.5146L13.998 12.5059C13.9945 12.6797 14.0261 12.8526 14.0898 13.0133L14.4902 12.8545ZM14.4287 12.5146H14.8595V10.1641H14.4287H13.9979V12.5146H14.4287ZM14.4287 10.1641V9.73329H9.83594V10.1641V10.5948H14.4287V10.1641Z" fill="#666666" mask="url(#path-1-outside-1_275_27123)"/>
</svg>
