<svg width="50" height="50" viewBox="0 0 50 50" fill="none" xmlns="http://www.w3.org/2000/svg">
<rect width="50" height="50" rx="12" fill="#42B83E" fill-opacity="0.13"/>
<path d="M33.8403 18.1008H27.6555V17.8319C27.7227 15.6807 25.9748 14 23.8235 14H16.8319C14.6807 14 13 15.7479 13 17.8319V31.9496C13 33.6975 14.4118 35.1092 16.1597 35.1092H33.8403C35.5882 35.1092 37 33.6975 37 31.9496V21.1933C37 19.5126 35.5882 18.1008 33.8403 18.1008ZM15.0168 17.8319C15.0168 16.8235 15.8235 16.0168 16.8319 16.0168H23.8235C24.8319 16.0168 25.6387 16.8235 25.6387 17.8319V18.1008H15.0168V17.8319ZM33.8403 33.0924H16.1597C15.5546 33.0924 15.0168 32.6218 15.0168 31.9496V20.1176H33.8403C34.4454 20.1176 34.9832 20.5882 34.9832 21.2605V22.8067H29.2689C27.1849 22.8067 25.5714 24.4874 25.5714 26.5042V26.7731C25.5714 28.8571 27.2521 30.4706 29.2689 30.4706H34.9832V31.9496C34.9832 32.6218 34.4454 33.0924 33.8403 33.0924ZM34.8487 24.8235V28.4538H29.2689C28.3277 28.4538 27.5882 27.7143 27.5882 26.7731V26.5714C27.5882 25.6303 28.3277 24.8908 29.2689 24.8908H34.8487V24.8235Z" fill="#42B83E"/>
</svg>
