<svg width="50" height="50" viewBox="0 0 50 50" fill="none" xmlns="http://www.w3.org/2000/svg">
<rect width="50" height="50" rx="12" fill="#FF5A00" fill-opacity="0.13"/>
<path opacity="0.7" d="M34.3184 14.9004C35.3025 14.9006 36.0996 15.6995 36.0996 16.6846V34.3154C36.0996 35.3005 35.3025 36.0994 34.3184 36.0996H16.6816C15.6975 36.0994 14.9004 35.3005 14.9004 34.3154V16.6846C14.9004 15.6995 15.6975 14.9006 16.6816 14.9004H34.3184ZM16.7822 34.2158H34.2178V16.7842H16.7822V34.2158ZM19.7246 29.416C20.0575 29.4161 20.377 29.5488 20.6123 29.7842C20.8475 30.0194 20.9803 30.3382 20.9805 30.6709C20.9805 31.364 20.4177 31.9258 19.7246 31.9258C19.0317 31.9256 18.4697 31.3638 18.4697 30.6709C18.4699 29.9781 19.0318 29.4162 19.7246 29.416ZM31.5898 29.7314C32.1089 29.7314 32.5301 30.1519 32.5303 30.6709C32.5303 31.19 32.109 31.6113 31.5898 31.6113H23.2949C22.7758 31.6113 22.3555 31.19 22.3555 30.6709C22.3557 30.1519 22.7759 29.7315 23.2949 29.7314H31.5898ZM19.7246 24.2188C20.0573 24.2188 20.377 24.3507 20.6123 24.5859C20.8476 24.8213 20.9804 25.1408 20.9805 25.4736C20.9805 26.1667 20.4177 26.7285 19.7246 26.7285C19.0317 26.7283 18.4697 26.1666 18.4697 25.4736C18.4698 24.7807 19.0317 24.219 19.7246 24.2188ZM31.5898 24.5342C32.1089 24.5342 32.5302 24.9545 32.5303 25.4736C32.5303 25.9928 32.109 26.4141 31.5898 26.4141H23.2949C22.7758 26.414 22.3555 25.9928 22.3555 25.4736C22.3555 24.9546 22.7759 24.5342 23.2949 24.5342H31.5898ZM19.7246 19.0215C20.0574 19.0215 20.377 19.1534 20.6123 19.3887C20.8477 19.624 20.9804 19.9435 20.9805 20.2764C20.9804 20.9694 20.4177 21.5312 19.7246 21.5312C19.0317 21.531 18.4698 20.9692 18.4697 20.2764C18.4697 19.5834 19.0317 19.0217 19.7246 19.0215ZM31.5898 19.3359C32.109 19.3359 32.5303 19.7572 32.5303 20.2764C32.5302 20.7955 32.1089 21.2158 31.5898 21.2158H23.2949C22.7759 21.2158 22.3555 20.7954 22.3555 20.2764C22.3555 19.7572 22.7758 19.336 23.2949 19.3359H31.5898Z" fill="#F06A22" stroke="#F06A22" stroke-width="0.2"/>
</svg>
