<svg width="50" height="50" viewBox="0 0 50 50" fill="none" xmlns="http://www.w3.org/2000/svg">
<rect width="50" height="50" rx="12" fill="#FABE00" fill-opacity="0.13"/>
<path d="M23.942 15.098V12.966H25.554V15.098C27.114 15.202 28.336 15.644 29.272 16.398C30.338 17.23 30.988 18.608 31.248 20.48H28.492C28.336 19.362 27.92 18.556 27.27 18.088C26.828 17.75 26.256 17.542 25.554 17.464V23.418C27.478 24.146 28.596 24.588 28.856 24.692C30.65 25.706 31.56 27.136 31.56 29.008C31.56 30.854 30.858 32.232 29.506 33.168C28.466 33.844 27.166 34.234 25.554 34.338V36.626H23.942V34.338C22.174 34.234 20.822 33.714 19.886 32.804C18.794 31.764 18.196 30.204 18.04 28.072H20.848C20.952 29.476 21.29 30.49 21.914 31.088C22.382 31.556 23.058 31.842 23.942 31.946V25.602L21.004 24.51C19.184 23.548 18.274 22.118 18.274 20.194C18.274 18.504 18.924 17.204 20.224 16.294C21.212 15.566 22.434 15.176 23.942 15.098ZM25.554 26.174V31.946C26.386 31.842 27.062 31.608 27.634 31.244C28.362 30.724 28.752 30.022 28.752 29.112C28.752 27.916 27.842 26.98 26.022 26.356C25.866 26.304 25.71 26.226 25.554 26.174ZM23.942 22.82V17.438C23.214 17.49 22.616 17.698 22.174 18.01C21.446 18.478 21.108 19.206 21.108 20.194C21.108 21.26 22.018 22.118 23.838 22.794C23.864 22.794 23.89 22.82 23.942 22.82Z" fill="#FABE00"/>
</svg>
