<svg width="56" height="56" viewBox="0 0 56 56" fill="none" xmlns="http://www.w3.org/2000/svg">
<rect width="56" height="56" rx="12" fill="white"/>
<path d="M28.3652 16.3252C32.2339 16.3253 35.3701 19.4614 35.3701 23.3301C35.37 25.7425 34.1485 27.8672 32.293 29.127C35.9062 30.7647 38.4207 34.406 38.4209 38.6357C38.4209 39.2095 37.9555 39.6746 37.3818 39.6748C36.8137 39.6748 36.352 39.2193 36.3428 38.6533V38.6357C36.3426 34.2944 33.0364 30.7267 28.8096 30.3193C28.4009 30.3451 27.991 30.3361 27.584 30.291C23.2166 30.5061 19.7316 34.0863 19.6602 38.498L19.6592 38.6377C19.6583 39.2107 19.1933 39.6746 18.6201 39.6748C18.0462 39.6748 17.5811 39.2096 17.5811 38.6357C17.5812 34.2302 20.3079 30.4625 24.1641 28.9326C22.4627 27.6549 21.3604 25.6222 21.3604 23.3301C21.3604 19.4613 24.4964 16.3252 28.3652 16.3252ZM28.3652 18.4033C25.6442 18.4033 23.4385 20.609 23.4385 23.3301C23.4386 25.817 25.2812 27.8729 27.6758 28.208C27.7838 28.2046 27.8924 28.2031 28.001 28.2031C28.2774 28.2031 28.5513 28.2132 28.8223 28.2344C31.3287 28.004 33.2919 25.8968 33.292 23.3301C33.292 20.6091 31.0862 18.4034 28.3652 18.4033Z" fill="#333333"/>
<path d="M28.3652 16.3252C32.2339 16.3253 35.3701 19.4614 35.3701 23.3301C35.37 25.7425 34.1485 27.8672 32.293 29.127C35.9062 30.7647 38.4207 34.406 38.4209 38.6357C38.4209 39.2095 37.9555 39.6746 37.3818 39.6748C36.8137 39.6748 36.352 39.2193 36.3428 38.6533V38.6357C36.3426 34.2944 33.0364 30.7267 28.8096 30.3193C28.4009 30.3451 27.991 30.3361 27.584 30.291C23.2166 30.5061 19.7316 34.0863 19.6602 38.498L19.6592 38.6377C19.6583 39.2107 19.1933 39.6746 18.6201 39.6748C18.0462 39.6748 17.5811 39.2096 17.5811 38.6357C17.5812 34.2302 20.3079 30.4625 24.1641 28.9326C22.4627 27.6549 21.3604 25.6222 21.3604 23.3301C21.3604 19.4613 24.4964 16.3252 28.3652 16.3252ZM28.3652 18.4033C25.6442 18.4033 23.4385 20.609 23.4385 23.3301C23.4386 25.817 25.2812 27.8729 27.6758 28.208C27.7838 28.2046 27.8924 28.2031 28.001 28.2031C28.2774 28.2031 28.5513 28.2132 28.8223 28.2344C31.3287 28.004 33.2919 25.8968 33.292 23.3301C33.292 20.6091 31.0862 18.4034 28.3652 18.4033Z" fill="#333333"/>
<path d="M28.3652 16.3252C32.2339 16.3253 35.3701 19.4614 35.3701 23.3301C35.37 25.7425 34.1485 27.8672 32.293 29.127C35.9062 30.7647 38.4207 34.406 38.4209 38.6357C38.4209 39.2095 37.9555 39.6746 37.3818 39.6748C36.8137 39.6748 36.352 39.2193 36.3428 38.6533V38.6357C36.3426 34.2944 33.0364 30.7267 28.8096 30.3193C28.4009 30.3451 27.991 30.3361 27.584 30.291C23.2166 30.5061 19.7316 34.0863 19.6602 38.498L19.6592 38.6377C19.6583 39.2107 19.1933 39.6746 18.6201 39.6748C18.0462 39.6748 17.5811 39.2096 17.5811 38.6357C17.5812 34.2302 20.3079 30.4625 24.1641 28.9326C22.4627 27.6549 21.3604 25.6222 21.3604 23.3301C21.3604 19.4613 24.4964 16.3252 28.3652 16.3252ZM28.3652 18.4033C25.6442 18.4033 23.4385 20.609 23.4385 23.3301C23.4386 25.817 25.2812 27.8729 27.6758 28.208C27.7838 28.2046 27.8924 28.2031 28.001 28.2031C28.2774 28.2031 28.5513 28.2132 28.8223 28.2344C31.3287 28.004 33.2919 25.8968 33.292 23.3301C33.292 20.6091 31.0862 18.4034 28.3652 18.4033Z" stroke="#333333" stroke-width="0.350522"/>
</svg>
