<svg width="56" height="56" viewBox="0 0 56 56" fill="none" xmlns="http://www.w3.org/2000/svg">
<rect width="56" height="56" rx="14" fill="white"/>
<rect x="0.5" y="0.5" width="55" height="55" rx="13.5" stroke="#E0E0E0" stroke-opacity="0.11"/>
<path d="M36.4531 36.0762C36.7032 36.0762 36.9432 36.1757 37.1201 36.3525C37.297 36.5294 37.3964 36.7695 37.3965 37.0195C37.3965 37.2698 37.2971 37.5106 37.1201 37.6875C36.9432 37.8643 36.7032 37.9638 36.4531 37.9639H19.5469C19.2966 37.9639 19.0559 37.8644 18.8789 37.6875C18.702 37.5106 18.6025 37.2698 18.6025 37.0195C18.6027 36.7695 18.7021 36.5294 18.8789 36.3525C19.0559 36.1756 19.2966 36.0762 19.5469 36.0762H36.4531ZM28 18.0342C28.1835 18.0343 28.3633 18.085 28.5205 18.1797H28.5215C28.8246 18.3644 28.9531 18.7014 28.9531 19.1133V31.332L34.376 26.1719C34.4607 26.0836 34.5624 26.0124 34.6748 25.9639C34.7901 25.9142 34.9145 25.8884 35.04 25.8887C35.1657 25.889 35.2901 25.9156 35.4053 25.9658C35.5175 26.0148 35.6188 26.0861 35.7031 26.1748L35.7695 26.2441C35.9145 26.412 35.9921 26.6149 35.9922 26.8311V26.832C35.9919 26.954 35.9669 27.0748 35.918 27.1865C35.8695 27.2972 35.7982 27.396 35.71 27.4785L28.7852 34.168C28.5914 34.4204 28.3299 34.5616 28.0215 34.5986L27.999 34.6016L27.9775 34.5986C27.6808 34.5618 27.4107 34.4245 27.2422 34.2002L20.2881 27.4805V27.4795C20.2002 27.3971 20.1293 27.2979 20.0811 27.1875C20.0322 27.0757 20.007 26.955 20.0068 26.833C20.0067 26.7109 20.0314 26.5896 20.0801 26.4775C20.1287 26.3655 20.2007 26.2649 20.29 26.1816C20.3745 26.0919 20.4752 26.0188 20.5879 25.9688C20.705 25.9168 20.8319 25.8903 20.96 25.8896H20.9609C21.0837 25.889 21.2052 25.9132 21.3184 25.9609C21.4291 26.0077 21.5292 26.0762 21.6133 26.1621H21.6143L27.0449 31.3311V19.1133C27.0449 18.7019 27.1739 18.3655 27.4775 18.1797H27.4785C27.6359 18.0849 27.8163 18.0342 28 18.0342Z" fill="#333333" stroke="#333333" stroke-width="0.360716"/>
</svg>
