<svg width="24" height="24" viewBox="0 0 24 24" fill="none" xmlns="http://www.w3.org/2000/svg">
<path d="M16.2432 2.41602C16.468 2.41613 16.6837 2.50508 16.8428 2.66406C17.0019 2.82323 17.0918 3.03955 17.0918 3.26465V3.91309H18.7393C20.311 3.91309 21.584 5.18692 21.584 6.76074V18.7363C21.5839 20.309 20.3105 21.584 18.7393 21.584H5.25977C3.6881 21.5838 2.41602 20.3101 2.41602 18.7363V6.76074C2.41618 5.18815 3.68867 3.91324 5.25977 3.91309H6.9082V3.26465C6.9082 3.03962 6.99718 2.82322 7.15625 2.66406C7.31541 2.5049 7.53175 2.41603 7.75684 2.41602C7.98194 2.41602 8.19825 2.50489 8.35742 2.66406C8.51653 2.82322 8.60547 3.0396 8.60547 3.26465V3.91309H15.3936V3.26465C15.3936 3.03955 15.4834 2.82323 15.6426 2.66406C15.8017 2.50494 16.0181 2.41602 16.2432 2.41602ZM5.25977 5.61035C5.10907 5.61059 4.95947 5.6404 4.82031 5.69824C4.68113 5.75613 4.5547 5.84151 4.44824 5.94824C4.34182 6.05499 4.25769 6.18194 4.2002 6.32129C4.14271 6.46067 4.11307 6.60997 4.11328 6.76074V18.7363L4.11816 18.8486C4.1289 18.9609 4.15618 19.0711 4.19922 19.1758C4.25668 19.3153 4.3417 19.443 4.44824 19.5498C4.55468 19.6565 4.68116 19.741 4.82031 19.7988C4.95957 19.8566 5.10899 19.8866 5.25977 19.8867H18.7393C18.89 19.8865 19.0395 19.8567 19.1787 19.7988C19.318 19.7409 19.4443 19.6556 19.5508 19.5488C19.6573 19.442 19.7423 19.3152 19.7998 19.1758C19.8572 19.0365 19.8869 18.887 19.8867 18.7363V6.76074C19.8871 6.60996 19.8572 6.46072 19.7998 6.32129C19.7424 6.18191 19.6582 6.05502 19.5518 5.94824C19.4452 5.8414 19.3181 5.75609 19.1787 5.69824C19.0395 5.64051 18.89 5.61038 18.7393 5.61035H17.0918V6.25977C17.0917 6.48472 17.0018 6.70029 16.8428 6.85938C16.6837 7.01845 16.4681 7.10829 16.2432 7.1084C16.0181 7.1084 15.8017 7.01855 15.6426 6.85938C15.4836 6.7003 15.3937 6.48469 15.3936 6.25977V5.61035H8.60547V6.25977C8.60537 6.4846 8.51634 6.70032 8.35742 6.85938C8.19825 7.01855 7.98194 7.1084 7.75684 7.1084C7.53175 7.10838 7.31541 7.01853 7.15625 6.85938C6.99737 6.70032 6.9083 6.48458 6.9082 6.25977V5.61035H5.25977ZM13.7471 14.3955C13.9721 14.3956 14.1876 14.4854 14.3467 14.6445C14.5058 14.8036 14.5956 15.0191 14.5957 15.2441C14.5957 15.4692 14.5059 15.6856 14.3467 15.8447C14.1876 16.0037 13.972 16.0927 13.7471 16.0928H7.25781C7.03271 16.0928 6.8164 16.0039 6.65723 15.8447C6.49811 15.6856 6.40918 15.4692 6.40918 15.2441C6.40925 15.0193 6.49831 14.8036 6.65723 14.6445C6.8164 14.4854 7.03271 14.3955 7.25781 14.3955H13.7471ZM16.7422 10.6523C16.9671 10.6524 17.1827 10.7414 17.3418 10.9004C17.501 11.0596 17.5908 11.2759 17.5908 11.501C17.5907 11.726 17.5009 11.9415 17.3418 12.1006C17.1827 12.2597 16.9672 12.3495 16.7422 12.3496H7.25781C7.03271 12.3496 6.8164 12.2598 6.65723 12.1006C6.49831 11.9415 6.40927 11.7258 6.40918 11.501C6.40918 11.2759 6.49813 11.0596 6.65723 10.9004C6.8164 10.7412 7.03271 10.6523 7.25781 10.6523H16.7422Z" fill="#A4A4A4" stroke="#A4A4A4" stroke-width="0.2"/>
</svg>
