<svg width="56" height="56" viewBox="0 0 56 56" fill="none" xmlns="http://www.w3.org/2000/svg">
<rect width="56" height="56" rx="12" fill="white"/>
<path d="M33.3125 36.25C33.8904 36.2502 34.3594 36.7189 34.3594 37.2969C34.3594 37.8749 33.8904 38.3436 33.3125 38.3438H22.6875C22.1096 38.3436 21.6406 37.8749 21.6406 37.2969C21.6406 36.7189 22.1096 36.2502 22.6875 36.25H33.3125ZM37.2832 17.6572C38.3352 17.6574 39.1883 18.5105 39.1885 19.5625V31.7432C39.1885 32.7953 38.3353 33.6483 37.2832 33.6484H18.7168C17.6647 33.6483 16.8115 32.7953 16.8115 31.7432V19.5625C16.8117 18.5105 17.6648 17.6574 18.7168 17.6572H37.2832ZM18.9053 31.5547H37.0947V19.751H18.9053V31.5547Z" fill="#333333"/>
<path d="M33.3125 36.25C33.8904 36.2502 34.3594 36.7189 34.3594 37.2969C34.3594 37.8749 33.8904 38.3436 33.3125 38.3438H22.6875C22.1096 38.3436 21.6406 37.8749 21.6406 37.2969C21.6406 36.7189 22.1096 36.2502 22.6875 36.25H33.3125ZM37.2832 17.6572C38.3352 17.6574 39.1883 18.5105 39.1885 19.5625V31.7432C39.1885 32.7953 38.3353 33.6483 37.2832 33.6484H18.7168C17.6647 33.6483 16.8115 32.7953 16.8115 31.7432V19.5625C16.8117 18.5105 17.6648 17.6574 18.7168 17.6572H37.2832ZM18.9053 31.5547H37.0947V19.751H18.9053V31.5547Z" fill="#333333"/>
<path d="M33.3125 36.25C33.8904 36.2502 34.3594 36.7189 34.3594 37.2969C34.3594 37.8749 33.8904 38.3436 33.3125 38.3438H22.6875C22.1096 38.3436 21.6406 37.8749 21.6406 37.2969C21.6406 36.7189 22.1096 36.2502 22.6875 36.25H33.3125ZM37.2832 17.6572C38.3352 17.6574 39.1883 18.5105 39.1885 19.5625V31.7432C39.1885 32.7953 38.3353 33.6483 37.2832 33.6484H18.7168C17.6647 33.6483 16.8115 32.7953 16.8115 31.7432V19.5625C16.8117 18.5105 17.6648 17.6574 18.7168 17.6572H37.2832ZM18.9053 31.5547H37.0947V19.751H18.9053V31.5547Z" stroke="#333333" stroke-width="0.376364"/>
</svg>
