<svg width="56" height="56" viewBox="0 0 56 56" fill="none" xmlns="http://www.w3.org/2000/svg">
<rect width="56" height="56" rx="12" fill="white"/>
<path d="M28 16.8037C34.1836 16.8037 39.1963 21.8164 39.1963 28C39.1963 34.1836 34.1836 39.1963 28 39.1963C21.8164 39.1963 16.8037 34.1836 16.8037 28C16.8037 21.8164 21.8164 16.8037 28 16.8037ZM18.8232 28.9824C19.2373 32.8963 22.0958 36.0787 25.8447 36.9756C24.1604 34.6594 23.1508 31.9023 22.9648 28.9824H18.8232ZM33.0352 28.9824C32.8493 31.9025 31.8388 34.6592 30.1543 36.9756C33.9037 36.079 36.7636 32.8966 37.1777 28.9824H33.0352ZM24.9355 28.9824C25.1407 31.7905 26.221 34.4161 28 36.54C29.779 34.4162 30.8593 31.7905 31.0645 28.9824H24.9355ZM30.1543 19.0234C31.839 21.34 32.8483 24.0972 33.0342 27.0176H37.1777C36.7637 23.1033 33.9039 19.9199 30.1543 19.0234ZM28 19.458C26.2205 21.5822 25.1407 24.209 24.9355 27.0176H31.0645C30.8593 24.209 29.7795 21.5821 28 19.458ZM25.8457 19.0215C22.0959 19.9178 19.2374 23.1032 18.8232 27.0176H22.9648C23.1508 24.0967 24.1604 21.3383 25.8457 19.0215Z" fill="#333333"/>
<path d="M28 16.8037C34.1836 16.8037 39.1963 21.8164 39.1963 28C39.1963 34.1836 34.1836 39.1963 28 39.1963C21.8164 39.1963 16.8037 34.1836 16.8037 28C16.8037 21.8164 21.8164 16.8037 28 16.8037ZM18.8232 28.9824C19.2373 32.8963 22.0958 36.0787 25.8447 36.9756C24.1604 34.6594 23.1508 31.9023 22.9648 28.9824H18.8232ZM33.0352 28.9824C32.8493 31.9025 31.8388 34.6592 30.1543 36.9756C33.9037 36.079 36.7636 32.8966 37.1777 28.9824H33.0352ZM24.9355 28.9824C25.1407 31.7905 26.221 34.4161 28 36.54C29.779 34.4162 30.8593 31.7905 31.0645 28.9824H24.9355ZM30.1543 19.0234C31.839 21.34 32.8483 24.0972 33.0342 27.0176H37.1777C36.7637 23.1033 33.9039 19.9199 30.1543 19.0234ZM28 19.458C26.2205 21.5822 25.1407 24.209 24.9355 27.0176H31.0645C30.8593 24.209 29.7795 21.5821 28 19.458ZM25.8457 19.0215C22.0959 19.9178 19.2374 23.1032 18.8232 27.0176H22.9648C23.1508 24.0967 24.1604 21.3383 25.8457 19.0215Z" fill="#333333"/>
<path d="M28 16.8037C34.1836 16.8037 39.1963 21.8164 39.1963 28C39.1963 34.1836 34.1836 39.1963 28 39.1963C21.8164 39.1963 16.8037 34.1836 16.8037 28C16.8037 21.8164 21.8164 16.8037 28 16.8037ZM18.8232 28.9824C19.2373 32.8963 22.0958 36.0787 25.8447 36.9756C24.1604 34.6594 23.1508 31.9023 22.9648 28.9824H18.8232ZM33.0352 28.9824C32.8493 31.9025 31.8388 34.6592 30.1543 36.9756C33.9037 36.079 36.7636 32.8966 37.1777 28.9824H33.0352ZM24.9355 28.9824C25.1407 31.7905 26.221 34.4161 28 36.54C29.779 34.4162 30.8593 31.7905 31.0645 28.9824H24.9355ZM30.1543 19.0234C31.839 21.34 32.8483 24.0972 33.0342 27.0176H37.1777C36.7637 23.1033 33.9039 19.9199 30.1543 19.0234ZM28 19.458C26.2205 21.5822 25.1407 24.209 24.9355 27.0176H31.0645C30.8593 24.209 29.7795 21.5821 28 19.458ZM25.8457 19.0215C22.0959 19.9178 19.2374 23.1032 18.8232 27.0176H22.9648C23.1508 24.0967 24.1604 21.3383 25.8457 19.0215Z" stroke="#333333" stroke-width="0.392727"/>
</svg>
