<svg width="50" height="50" viewBox="0 0 50 50" fill="none" xmlns="http://www.w3.org/2000/svg">
<rect width="50" height="50" rx="12" fill="#0092FA" fill-opacity="0.13"/>
<path opacity="0.7" d="M34.5898 14.9004C35.5927 14.9004 36.4053 15.713 36.4053 16.7158V35.0996H13.9004V25.8311C13.9004 24.8282 14.713 24.0156 15.7158 24.0156H20.79V21.2734C20.7901 20.2707 21.6028 19.4582 22.6055 19.458H27.627V16.7158C27.627 15.713 28.4395 14.9004 29.4424 14.9004H34.5898ZM29.542 20.959C29.5599 21.0612 29.5693 21.1663 29.5693 21.2734V33.1846H34.4902V16.8154H29.542V20.959ZM22.7061 33.1846H27.627V21.373H22.7061V33.1846ZM15.8154 33.1846H20.7637V25.9307H15.8154V33.1846Z" fill="#0092FA" stroke="#0092FA" stroke-width="0.2"/>
</svg>
