<svg width="18" height="18" viewBox="0 0 18 18" fill="none" xmlns="http://www.w3.org/2000/svg">
<mask id="path-1-outside-1_275_26874" maskUnits="userSpaceOnUse" x="0" y="0.5" width="17" height="17" fill="black">
<rect fill="white" y="0.5" width="17" height="17"/>
<path d="M2.64268 1.5C1.98995 1.5 1.47962 1.82391 1.21352 2.39503C0.99583 2.86228 0.950323 3.47012 1.05095 4.18695C1.2387 5.52443 1.93837 7.23229 2.99542 8.91173C4.15341 10.7515 5.66417 12.4485 7.37968 13.7594C9.35215 15.2667 11.5297 16.2212 13.8251 16.4881C14.8678 16.6092 15.7601 15.7924 15.8399 14.7294L15.9943 12.6709C16.0664 11.7092 15.4488 10.8303 14.5252 10.5934L12.1207 9.97682L12.1055 9.973C11.6043 9.84887 11.0752 9.93165 10.634 10.2033L9.76457 10.7383L9.76136 10.7359C9.16187 10.2842 8.53843 9.70049 7.92497 9.03342L7.88468 8.98947L7.83962 8.93997L7.79477 8.89037L7.77242 8.86553L7.72791 8.81578L7.68364 8.76597L7.66161 8.74105L7.61773 8.69121C7.60318 8.6746 7.58865 8.65797 7.57418 8.64135L7.53092 8.59154L7.488 8.54177L7.44544 8.49208C7.43837 8.48384 7.43132 8.47555 7.42429 8.46728L7.38227 8.41778L7.3614 8.39307L7.31996 8.34375L7.27898 8.29463L7.25863 8.27016L7.2183 8.22135C7.20493 8.20513 7.19164 8.18895 7.17842 8.17279L7.13904 8.12451L7.10014 8.07651L7.06178 8.02885L7.04278 8.00513L7.00523 7.95797L6.96823 7.91121L6.93182 7.86484L6.89601 7.8189L6.86081 7.77343L6.82624 7.72844L6.80921 7.70612L6.77565 7.66191L6.74949 7.62722L7.47615 6.50921C7.83326 5.95978 7.89941 5.26607 7.65328 4.65726L6.91084 2.82056C6.62006 2.10122 5.9424 1.61901 5.17534 1.59126L2.66437 1.50039C2.65714 1.5 2.6499 1.5 2.64266 1.5H2.64268ZM2.62618 2.70004H2.63291L5.13193 2.79047C5.42265 2.80097 5.68369 2.98673 5.79831 3.27028L6.54075 5.107C6.64024 5.35305 6.61337 5.6347 6.47001 5.85525L5.51876 7.31888C5.45374 7.41893 5.42002 7.53611 5.42193 7.65542C5.42384 7.77474 5.46128 7.89078 5.52947 7.9887L5.55251 8.02165L5.57604 8.05502L5.60008 8.08883L5.62461 8.12307L5.64964 8.15772L5.67512 8.19276L5.70107 8.2282L5.72749 8.26401L5.75434 8.30018L5.78164 8.3367L5.80939 8.37357L5.83751 8.41075L5.86611 8.44825L5.89508 8.48607L5.92444 8.52417L5.93927 8.54331L5.96923 8.58182L5.99955 8.6206L6.04573 8.67923L6.07697 8.7186L6.10854 8.7582L6.14046 8.79799L6.17271 8.838L6.20526 8.87819L6.25468 8.93875L6.28802 8.97934L6.32162 9.02007L6.35552 9.06094L6.3897 9.10189L6.42412 9.14297L6.45881 9.18415L6.49376 9.2254L6.52894 9.26672L6.56434 9.30809L6.59996 9.34952L6.63581 9.39096L6.67187 9.43244L6.70811 9.47393L6.74454 9.5154L6.76283 9.53614L6.79952 9.57758L6.83638 9.61902L6.89196 9.68106L6.92921 9.72235L6.96658 9.76356L7.00408 9.80468L7.04171 9.8457L7.06684 9.87299L7.11714 9.9273L7.14233 9.95432L7.19273 10.0081C7.20953 10.026 7.22634 10.0438 7.24316 10.0616L7.29368 10.1147C7.31051 10.1324 7.32735 10.15 7.34421 10.1675L7.39479 10.2199C7.43679 10.2632 7.47901 10.3064 7.52143 10.3493L7.57215 10.4004L7.62291 10.4512C8.21522 11.041 8.81366 11.5527 9.40028 11.9539C9.49599 12.0193 9.60861 12.0556 9.72453 12.0584C9.84045 12.0612 9.95469 12.0303 10.0534 11.9696L11.2629 11.2252C11.4319 11.1212 11.6327 11.0905 11.8227 11.1392L14.2271 11.7558C14.5824 11.8469 14.8266 12.1945 14.7977 12.5812L14.6433 14.6396C14.6126 15.0488 14.2998 15.3352 13.9637 15.2961C11.8959 15.0557 9.91755 14.1885 8.10827 12.8059C6.51073 11.5851 5.09533 9.99525 4.011 8.2725C3.03772 6.72621 2.40097 5.17189 2.23927 4.02013L2.23491 3.98822L2.23082 3.95665L2.22697 3.92541L2.22515 3.9099L2.22171 3.87915L2.21852 3.84872L2.21559 3.81863L2.21293 3.78887L2.21049 3.75945L2.20836 3.73039L2.20644 3.70165L2.20479 3.67326L2.20404 3.65919L2.20279 3.63133C2.20241 3.62211 2.20204 3.61296 2.20175 3.60383L2.20097 3.57668L2.20042 3.54986C2.19919 3.47001 2.20123 3.39499 2.20642 3.32513L2.20826 3.30203C2.20892 3.29438 2.20959 3.2868 2.21032 3.2793L2.21263 3.25697C2.22832 3.11304 2.25844 2.9937 2.30122 2.90184C2.36792 2.75873 2.45047 2.70332 2.62618 2.70004Z"/>
</mask>
<path d="M2.64268 1.5C1.98995 1.5 1.47962 1.82391 1.21352 2.39503C0.99583 2.86228 0.950323 3.47012 1.05095 4.18695C1.2387 5.52443 1.93837 7.23229 2.99542 8.91173C4.15341 10.7515 5.66417 12.4485 7.37968 13.7594C9.35215 15.2667 11.5297 16.2212 13.8251 16.4881C14.8678 16.6092 15.7601 15.7924 15.8399 14.7294L15.9943 12.6709C16.0664 11.7092 15.4488 10.8303 14.5252 10.5934L12.1207 9.97682L12.1055 9.973C11.6043 9.84887 11.0752 9.93165 10.634 10.2033L9.76457 10.7383L9.76136 10.7359C9.16187 10.2842 8.53843 9.70049 7.92497 9.03342L7.88468 8.98947L7.83962 8.93997L7.79477 8.89037L7.77242 8.86553L7.72791 8.81578L7.68364 8.76597L7.66161 8.74105L7.61773 8.69121C7.60318 8.6746 7.58865 8.65797 7.57418 8.64135L7.53092 8.59154L7.488 8.54177L7.44544 8.49208C7.43837 8.48384 7.43132 8.47555 7.42429 8.46728L7.38227 8.41778L7.3614 8.39307L7.31996 8.34375L7.27898 8.29463L7.25863 8.27016L7.2183 8.22135C7.20493 8.20513 7.19164 8.18895 7.17842 8.17279L7.13904 8.12451L7.10014 8.07651L7.06178 8.02885L7.04278 8.00513L7.00523 7.95797L6.96823 7.91121L6.93182 7.86484L6.89601 7.8189L6.86081 7.77343L6.82624 7.72844L6.80921 7.70612L6.77565 7.66191L6.74949 7.62722L7.47615 6.50921C7.83326 5.95978 7.89941 5.26607 7.65328 4.65726L6.91084 2.82056C6.62006 2.10122 5.9424 1.61901 5.17534 1.59126L2.66437 1.50039C2.65714 1.5 2.6499 1.5 2.64266 1.5H2.64268ZM2.62618 2.70004H2.63291L5.13193 2.79047C5.42265 2.80097 5.68369 2.98673 5.79831 3.27028L6.54075 5.107C6.64024 5.35305 6.61337 5.6347 6.47001 5.85525L5.51876 7.31888C5.45374 7.41893 5.42002 7.53611 5.42193 7.65542C5.42384 7.77474 5.46128 7.89078 5.52947 7.9887L5.55251 8.02165L5.57604 8.05502L5.60008 8.08883L5.62461 8.12307L5.64964 8.15772L5.67512 8.19276L5.70107 8.2282L5.72749 8.26401L5.75434 8.30018L5.78164 8.3367L5.80939 8.37357L5.83751 8.41075L5.86611 8.44825L5.89508 8.48607L5.92444 8.52417L5.93927 8.54331L5.96923 8.58182L5.99955 8.6206L6.04573 8.67923L6.07697 8.7186L6.10854 8.7582L6.14046 8.79799L6.17271 8.838L6.20526 8.87819L6.25468 8.93875L6.28802 8.97934L6.32162 9.02007L6.35552 9.06094L6.3897 9.10189L6.42412 9.14297L6.45881 9.18415L6.49376 9.2254L6.52894 9.26672L6.56434 9.30809L6.59996 9.34952L6.63581 9.39096L6.67187 9.43244L6.70811 9.47393L6.74454 9.5154L6.76283 9.53614L6.79952 9.57758L6.83638 9.61902L6.89196 9.68106L6.92921 9.72235L6.96658 9.76356L7.00408 9.80468L7.04171 9.8457L7.06684 9.87299L7.11714 9.9273L7.14233 9.95432L7.19273 10.0081C7.20953 10.026 7.22634 10.0438 7.24316 10.0616L7.29368 10.1147C7.31051 10.1324 7.32735 10.15 7.34421 10.1675L7.39479 10.2199C7.43679 10.2632 7.47901 10.3064 7.52143 10.3493L7.57215 10.4004L7.62291 10.4512C8.21522 11.041 8.81366 11.5527 9.40028 11.9539C9.49599 12.0193 9.60861 12.0556 9.72453 12.0584C9.84045 12.0612 9.95469 12.0303 10.0534 11.9696L11.2629 11.2252C11.4319 11.1212 11.6327 11.0905 11.8227 11.1392L14.2271 11.7558C14.5824 11.8469 14.8266 12.1945 14.7977 12.5812L14.6433 14.6396C14.6126 15.0488 14.2998 15.3352 13.9637 15.2961C11.8959 15.0557 9.91755 14.1885 8.10827 12.8059C6.51073 11.5851 5.09533 9.99525 4.011 8.2725C3.03772 6.72621 2.40097 5.17189 2.23927 4.02013L2.23491 3.98822L2.23082 3.95665L2.22697 3.92541L2.22515 3.9099L2.22171 3.87915L2.21852 3.84872L2.21559 3.81863L2.21293 3.78887L2.21049 3.75945L2.20836 3.73039L2.20644 3.70165L2.20479 3.67326L2.20404 3.65919L2.20279 3.63133C2.20241 3.62211 2.20204 3.61296 2.20175 3.60383L2.20097 3.57668L2.20042 3.54986C2.19919 3.47001 2.20123 3.39499 2.20642 3.32513L2.20826 3.30203C2.20892 3.29438 2.20959 3.2868 2.21032 3.2793L2.21263 3.25697C2.22832 3.11304 2.25844 2.9937 2.30122 2.90184C2.36792 2.75873 2.45047 2.70332 2.62618 2.70004Z" fill="white"/>
<path d="M2.64268 1.5C1.98995 1.5 1.47962 1.82391 1.21352 2.39503C0.99583 2.86228 0.950323 3.47012 1.05095 4.18695C1.2387 5.52443 1.93837 7.23229 2.99542 8.91173C4.15341 10.7515 5.66417 12.4485 7.37968 13.7594C9.35215 15.2667 11.5297 16.2212 13.8251 16.4881C14.8678 16.6092 15.7601 15.7924 15.8399 14.7294L15.9943 12.6709C16.0664 11.7092 15.4488 10.8303 14.5252 10.5934L12.1207 9.97682L12.1055 9.973C11.6043 9.84887 11.0752 9.93165 10.634 10.2033L9.76457 10.7383L9.76136 10.7359C9.16187 10.2842 8.53843 9.70049 7.92497 9.03342L7.88468 8.98947L7.83962 8.93997L7.79477 8.89037L7.77242 8.86553L7.72791 8.81578L7.68364 8.76597L7.66161 8.74105L7.61773 8.69121C7.60318 8.6746 7.58865 8.65797 7.57418 8.64135L7.53092 8.59154L7.488 8.54177L7.44544 8.49208C7.43837 8.48384 7.43132 8.47555 7.42429 8.46728L7.38227 8.41778L7.3614 8.39307L7.31996 8.34375L7.27898 8.29463L7.25863 8.27016L7.2183 8.22135C7.20493 8.20513 7.19164 8.18895 7.17842 8.17279L7.13904 8.12451L7.10014 8.07651L7.06178 8.02885L7.04278 8.00513L7.00523 7.95797L6.96823 7.91121L6.93182 7.86484L6.89601 7.8189L6.86081 7.77343L6.82624 7.72844L6.80921 7.70612L6.77565 7.66191L6.74949 7.62722L7.47615 6.50921C7.83326 5.95978 7.89941 5.26607 7.65328 4.65726L6.91084 2.82056C6.62006 2.10122 5.9424 1.61901 5.17534 1.59126L2.66437 1.50039C2.65714 1.5 2.6499 1.5 2.64266 1.5H2.64268ZM2.62618 2.70004H2.63291L5.13193 2.79047C5.42265 2.80097 5.68369 2.98673 5.79831 3.27028L6.54075 5.107C6.64024 5.35305 6.61337 5.6347 6.47001 5.85525L5.51876 7.31888C5.45374 7.41893 5.42002 7.53611 5.42193 7.65542C5.42384 7.77474 5.46128 7.89078 5.52947 7.9887L5.55251 8.02165L5.57604 8.05502L5.60008 8.08883L5.62461 8.12307L5.64964 8.15772L5.67512 8.19276L5.70107 8.2282L5.72749 8.26401L5.75434 8.30018L5.78164 8.3367L5.80939 8.37357L5.83751 8.41075L5.86611 8.44825L5.89508 8.48607L5.92444 8.52417L5.93927 8.54331L5.96923 8.58182L5.99955 8.6206L6.04573 8.67923L6.07697 8.7186L6.10854 8.7582L6.14046 8.79799L6.17271 8.838L6.20526 8.87819L6.25468 8.93875L6.28802 8.97934L6.32162 9.02007L6.35552 9.06094L6.3897 9.10189L6.42412 9.14297L6.45881 9.18415L6.49376 9.2254L6.52894 9.26672L6.56434 9.30809L6.59996 9.34952L6.63581 9.39096L6.67187 9.43244L6.70811 9.47393L6.74454 9.5154L6.76283 9.53614L6.79952 9.57758L6.83638 9.61902L6.89196 9.68106L6.92921 9.72235L6.96658 9.76356L7.00408 9.80468L7.04171 9.8457L7.06684 9.87299L7.11714 9.9273L7.14233 9.95432L7.19273 10.0081C7.20953 10.026 7.22634 10.0438 7.24316 10.0616L7.29368 10.1147C7.31051 10.1324 7.32735 10.15 7.34421 10.1675L7.39479 10.2199C7.43679 10.2632 7.47901 10.3064 7.52143 10.3493L7.57215 10.4004L7.62291 10.4512C8.21522 11.041 8.81366 11.5527 9.40028 11.9539C9.49599 12.0193 9.60861 12.0556 9.72453 12.0584C9.84045 12.0612 9.95469 12.0303 10.0534 11.9696L11.2629 11.2252C11.4319 11.1212 11.6327 11.0905 11.8227 11.1392L14.2271 11.7558C14.5824 11.8469 14.8266 12.1945 14.7977 12.5812L14.6433 14.6396C14.6126 15.0488 14.2998 15.3352 13.9637 15.2961C11.8959 15.0557 9.91755 14.1885 8.10827 12.8059C6.51073 11.5851 5.09533 9.99525 4.011 8.2725C3.03772 6.72621 2.40097 5.17189 2.23927 4.02013L2.23491 3.98822L2.23082 3.95665L2.22697 3.92541L2.22515 3.9099L2.22171 3.87915L2.21852 3.84872L2.21559 3.81863L2.21293 3.78887L2.21049 3.75945L2.20836 3.73039L2.20644 3.70165L2.20479 3.67326L2.20404 3.65919L2.20279 3.63133C2.20241 3.62211 2.20204 3.61296 2.20175 3.60383L2.20097 3.57668L2.20042 3.54986C2.19919 3.47001 2.20123 3.39499 2.20642 3.32513L2.20826 3.30203C2.20892 3.29438 2.20959 3.2868 2.21032 3.2793L2.21263 3.25697C2.22832 3.11304 2.25844 2.9937 2.30122 2.90184C2.36792 2.75873 2.45047 2.70332 2.62618 2.70004Z" fill="#333333"/>
<path d="M2.64268 1.5C1.98995 1.5 1.47962 1.82391 1.21352 2.39503C0.99583 2.86228 0.950323 3.47012 1.05095 4.18695C1.2387 5.52443 1.93837 7.23229 2.99542 8.91173C4.15341 10.7515 5.66417 12.4485 7.37968 13.7594C9.35215 15.2667 11.5297 16.2212 13.8251 16.4881C14.8678 16.6092 15.7601 15.7924 15.8399 14.7294L15.9943 12.6709C16.0664 11.7092 15.4488 10.8303 14.5252 10.5934L12.1207 9.97682L12.1055 9.973C11.6043 9.84887 11.0752 9.93165 10.634 10.2033L9.76457 10.7383L9.76136 10.7359C9.16187 10.2842 8.53843 9.70049 7.92497 9.03342L7.88468 8.98947L7.83962 8.93997L7.79477 8.89037L7.77242 8.86553L7.72791 8.81578L7.68364 8.76597L7.66161 8.74105L7.61773 8.69121C7.60318 8.6746 7.58865 8.65797 7.57418 8.64135L7.53092 8.59154L7.488 8.54177L7.44544 8.49208C7.43837 8.48384 7.43132 8.47555 7.42429 8.46728L7.38227 8.41778L7.3614 8.39307L7.31996 8.34375L7.27898 8.29463L7.25863 8.27016L7.2183 8.22135C7.20493 8.20513 7.19164 8.18895 7.17842 8.17279L7.13904 8.12451L7.10014 8.07651L7.06178 8.02885L7.04278 8.00513L7.00523 7.95797L6.96823 7.91121L6.93182 7.86484L6.89601 7.8189L6.86081 7.77343L6.82624 7.72844L6.80921 7.70612L6.77565 7.66191L6.74949 7.62722L7.47615 6.50921C7.83326 5.95978 7.89941 5.26607 7.65328 4.65726L6.91084 2.82056C6.62006 2.10122 5.9424 1.61901 5.17534 1.59126L2.66437 1.50039C2.65714 1.5 2.6499 1.5 2.64266 1.5H2.64268ZM2.62618 2.70004H2.63291L5.13193 2.79047C5.42265 2.80097 5.68369 2.98673 5.79831 3.27028L6.54075 5.107C6.64024 5.35305 6.61337 5.6347 6.47001 5.85525L5.51876 7.31888C5.45374 7.41893 5.42002 7.53611 5.42193 7.65542C5.42384 7.77474 5.46128 7.89078 5.52947 7.9887L5.55251 8.02165L5.57604 8.05502L5.60008 8.08883L5.62461 8.12307L5.64964 8.15772L5.67512 8.19276L5.70107 8.2282L5.72749 8.26401L5.75434 8.30018L5.78164 8.3367L5.80939 8.37357L5.83751 8.41075L5.86611 8.44825L5.89508 8.48607L5.92444 8.52417L5.93927 8.54331L5.96923 8.58182L5.99955 8.6206L6.04573 8.67923L6.07697 8.7186L6.10854 8.7582L6.14046 8.79799L6.17271 8.838L6.20526 8.87819L6.25468 8.93875L6.28802 8.97934L6.32162 9.02007L6.35552 9.06094L6.3897 9.10189L6.42412 9.14297L6.45881 9.18415L6.49376 9.2254L6.52894 9.26672L6.56434 9.30809L6.59996 9.34952L6.63581 9.39096L6.67187 9.43244L6.70811 9.47393L6.74454 9.5154L6.76283 9.53614L6.79952 9.57758L6.83638 9.61902L6.89196 9.68106L6.92921 9.72235L6.96658 9.76356L7.00408 9.80468L7.04171 9.8457L7.06684 9.87299L7.11714 9.9273L7.14233 9.95432L7.19273 10.0081C7.20953 10.026 7.22634 10.0438 7.24316 10.0616L7.29368 10.1147C7.31051 10.1324 7.32735 10.15 7.34421 10.1675L7.39479 10.2199C7.43679 10.2632 7.47901 10.3064 7.52143 10.3493L7.57215 10.4004L7.62291 10.4512C8.21522 11.041 8.81366 11.5527 9.40028 11.9539C9.49599 12.0193 9.60861 12.0556 9.72453 12.0584C9.84045 12.0612 9.95469 12.0303 10.0534 11.9696L11.2629 11.2252C11.4319 11.1212 11.6327 11.0905 11.8227 11.1392L14.2271 11.7558C14.5824 11.8469 14.8266 12.1945 14.7977 12.5812L14.6433 14.6396C14.6126 15.0488 14.2998 15.3352 13.9637 15.2961C11.8959 15.0557 9.91755 14.1885 8.10827 12.8059C6.51073 11.5851 5.09533 9.99525 4.011 8.2725C3.03772 6.72621 2.40097 5.17189 2.23927 4.02013L2.23491 3.98822L2.23082 3.95665L2.22697 3.92541L2.22515 3.9099L2.22171 3.87915L2.21852 3.84872L2.21559 3.81863L2.21293 3.78887L2.21049 3.75945L2.20836 3.73039L2.20644 3.70165L2.20479 3.67326L2.20404 3.65919L2.20279 3.63133C2.20241 3.62211 2.20204 3.61296 2.20175 3.60383L2.20097 3.57668L2.20042 3.54986C2.19919 3.47001 2.20123 3.39499 2.20642 3.32513L2.20826 3.30203C2.20892 3.29438 2.20959 3.2868 2.21032 3.2793L2.21263 3.25697C2.22832 3.11304 2.25844 2.9937 2.30122 2.90184C2.36792 2.75873 2.45047 2.70332 2.62618 2.70004Z" stroke="#333333" stroke-width="0.4" mask="url(#path-1-outside-1_275_26874)"/>
</svg>
