<svg width="20" height="20" viewBox="0 0 20 20" fill="none" xmlns="http://www.w3.org/2000/svg">
<path d="M8.22559 1.0752C9.99087 0.724069 11.8205 0.904058 13.4834 1.59277C15.1463 2.28157 16.5683 3.44778 17.5684 4.94434C18.5684 6.44098 19.1016 8.20097 19.1016 10.001C19.0989 12.4138 18.1397 14.7274 16.4336 16.4336C14.7274 18.1397 12.4138 19.0989 10.001 19.1016C8.20097 19.1016 6.44098 18.5684 4.94434 17.5684C3.44778 16.5683 2.28157 15.1463 1.59277 13.4834C0.904058 11.8205 0.724069 9.99087 1.0752 8.22559C1.42636 6.46017 2.29264 4.83822 3.56543 3.56543C4.83822 2.29264 6.46017 1.42636 8.22559 1.0752ZM9.71289 2.23047C8.2759 2.28373 6.87942 2.73417 5.68066 3.53516C4.40194 4.38957 3.40592 5.60456 2.81738 7.02539C2.22888 8.44615 2.07504 10.0093 2.375 11.5176C2.67503 13.0259 3.41546 14.4116 4.50293 15.499C5.5904 16.5865 6.97601 17.3269 8.48438 17.627C9.99265 17.9269 11.5558 17.7731 12.9766 17.1846C14.3974 16.596 15.6124 15.6 16.4668 14.3213C17.3212 13.0426 17.7764 11.5389 17.7764 10.001C17.774 7.93943 16.9548 5.96262 15.4971 4.50488C14.0393 3.04714 12.0625 2.22797 10.001 2.22559L9.71289 2.23047ZM13.9346 7.08984C14.1102 7.0881 14.2798 7.15544 14.4053 7.27832C14.5308 7.40125 14.6026 7.56941 14.6045 7.74512C14.6064 7.92079 14.5379 8.09022 14.415 8.21582L9.45996 13.2773C9.39876 13.3398 9.32561 13.3897 9.24512 13.4238C9.16456 13.4579 9.07771 13.4761 8.99023 13.4766H8.98828C8.8126 13.4765 8.64374 13.4065 8.51953 13.2822L5.59473 10.3564L5.58887 10.3516V10.3506C5.48012 10.2238 5.42322 10.0605 5.42969 9.89355C5.43619 9.7263 5.50537 9.56728 5.62402 9.44922C5.74268 9.33115 5.90204 9.2625 6.06934 9.25684C6.2366 9.25119 6.40001 9.3092 6.52637 9.41895L6.53125 9.42383L8.98145 11.873L13.4678 7.28906C13.5908 7.16343 13.7588 7.09171 13.9346 7.08984Z" fill="#333333" stroke="#333333" stroke-width="0.2"/>
</svg>
