<svg width="24" height="24" viewBox="0 0 24 24" fill="none" xmlns="http://www.w3.org/2000/svg">
<path d="M21.25 6.81456C21.25 5.56324 20.1847 4.54883 18.8712 4.54883H5.12931C3.81529 4.54883 2.75 5.56324 2.75 6.81456V17.1854C2.75 18.4372 3.81529 19.4516 5.12879 19.4516H18.8707C20.1847 19.4516 21.25 18.4372 21.25 17.1859V6.81508V6.81456ZM5.12879 6.05915H18.8707C19.307 6.05915 19.6636 6.39934 19.6636 6.81456V8.65223H4.33586V6.81456C4.33586 6.39934 4.6925 6.05915 5.12879 6.05915ZM18.8707 17.9413H5.12931C4.69301 17.9413 4.33637 17.6011 4.33637 17.1859V10.1626H19.6647V17.1859C19.6647 17.6011 19.308 17.9413 18.8717 17.9413H18.8707ZM9.67362 14.5178H6.08C5.64114 14.5178 5.28707 14.8549 5.28707 15.2732C5.28707 15.6905 5.64165 16.0281 6.08 16.0281H9.67414C10.113 16.0281 10.4671 15.6905 10.4671 15.2727C10.4671 14.8549 10.113 14.5172 9.67414 14.5172L9.67362 14.5178Z" fill="#333333"/>
</svg>
