<svg width="40" height="40" viewBox="0 0 40 40" fill="none" xmlns="http://www.w3.org/2000/svg">
<path d="M18.9358 25.0473C19.2927 26.0162 19.0888 27.138 18.2729 27.9539L16.5901 29.6876C16.0802 30.1976 15.3663 30.5035 14.6524 30.5035C13.8875 30.5035 13.2246 30.1976 12.7147 29.6876L10.369 27.342C9.29816 26.2711 9.29816 24.4864 10.369 23.4155L12.1028 21.6818C12.6127 21.1719 13.3266 20.8659 14.0405 20.8659C14.3974 20.8659 14.7034 20.9169 15.0093 21.0189L16.8961 19.1321C16.0802 18.6222 15.1113 18.3163 14.0915 18.3163C12.6637 18.3163 11.3379 18.8772 10.369 19.846L8.63525 21.5798C6.59554 23.6705 6.59554 27.036 8.63525 29.0757L10.9809 31.4214C11.9498 32.4412 13.2756 32.9512 14.7034 32.9512C16.1312 32.9512 17.457 32.3903 18.4258 31.4214L20.1596 29.6876C21.1795 28.6678 21.6894 27.342 21.6894 25.9142C21.6894 24.8943 21.3834 23.9255 20.8735 23.1096L18.9358 25.0473ZM16.4881 14.8488L11.7968 10.1574L9.96106 11.9422L14.6524 16.6335L16.4881 14.8488ZM31.327 10.9223L28.9813 8.57666C27.9615 7.5568 26.6357 7.04688 25.2589 7.04688C23.8311 7.04688 22.5053 7.6078 21.5364 8.57666L19.8027 10.3104C18.7828 11.3303 18.2729 12.6561 18.2729 14.0839C18.2729 15.1037 18.5788 16.0726 19.0888 16.9395L20.9755 15.0527C20.8735 14.7468 20.8225 14.4408 20.8225 14.0839C20.8225 13.319 21.1285 12.6561 21.6384 12.0952L23.3721 10.3614C23.8821 9.85147 24.596 9.54552 25.3099 9.54552C26.0238 9.54552 26.7377 9.85147 27.2476 10.3614L29.5933 12.7071C30.6641 13.7779 30.6641 15.5627 29.5933 16.6335L27.8085 18.4182C27.2986 18.9282 26.5847 19.2341 25.8708 19.2341C25.5648 19.2341 25.2589 19.1831 24.9529 19.0812L23.0662 20.9679C23.8821 21.4778 24.8509 21.7838 25.8708 21.7838C27.2986 21.7838 28.6244 21.2228 29.5933 20.254L31.327 18.5202C33.4177 16.3785 33.4177 13.013 31.327 10.9223ZM23.3211 25.2003L28.0125 29.8916L29.7972 28.1069L25.1059 23.4155L23.3211 25.2003Z" fill="#FF513B"/>
</svg>
