<svg width="27" height="27" viewBox="0 0 27 27" fill="none" xmlns="http://www.w3.org/2000/svg">
<path d="M8.79784 14.3639L17.9253 14.3636L17.9253 12.5055L8.79836 12.5063L8.79784 14.3639ZM10.3662 15.5403C10.0398 16.2275 9.34442 16.707 8.53389 16.7056C6.76508 16.7038 6.03832 16.8568 5.28444 16.1029C4.53634 15.3549 4.68412 14.7788 4.68096 12.2168C4.68091 11.9496 4.73351 11.685 4.83576 11.4381C4.93801 11.1913 5.08791 10.967 5.27688 10.778C5.46585 10.5891 5.6902 10.4393 5.93709 10.3371C6.18399 10.2349 6.44861 10.1824 6.71582 10.1825C8.32158 10.1841 9.6908 9.92012 10.3694 11.3726L12.3186 11.3752C11.9277 9.63775 10.3754 8.33464 8.52415 8.33306L6.71424 8.33175C4.57006 8.32911 2.82732 10.0713 2.82943 12.2155C2.83233 14.6086 2.5834 16.0176 3.97659 17.4108C5.32263 18.7568 6.69027 18.5556 8.53469 18.5572C10.3696 18.5603 11.9214 17.2815 12.3183 15.5427L10.3659 15.5406L10.3662 15.5403ZM24.0415 14.6563L24.0415 12.2118C24.0423 10.0668 22.2938 8.32779 20.1588 8.32859L18.3513 8.32859C16.5077 8.32832 14.9538 9.62089 14.5639 11.3631L16.5108 11.3628C16.8701 10.5921 17.6035 10.178 18.3508 10.1777C20.1712 10.178 20.8503 10.0321 21.5944 10.7762C22.3415 11.5233 22.1926 12.1004 22.1924 14.6568C22.1917 15.1961 21.9771 15.7131 21.5958 16.0945C21.2146 16.4759 20.6976 16.6906 20.1583 16.6914C18.5591 16.6911 17.2073 16.9546 16.5211 15.5255L14.5689 15.5258C14.7313 16.2362 15.0913 16.8862 15.6073 17.4008C16.9476 18.741 18.306 18.5406 20.1578 18.5406C22.2998 18.5406 24.0415 16.7978 24.0418 14.6565L24.0415 14.6563Z" fill="#333333"/>
</svg>
