<svg width="24" height="24" viewBox="0 0 24 24" fill="none" xmlns="http://www.w3.org/2000/svg">
<path d="M12.1543 4.15234C12.2703 4.15242 12.328 4.21023 12.3281 4.32617V11.1729H18.8252C18.9414 11.1729 18.9999 11.2306 19 11.3467V12.6553C18.9999 12.7714 18.9414 12.8291 18.8252 12.8291H12.3281V19.6758C12.328 19.7917 12.2703 19.8495 12.1543 19.8496H10.8457C10.7297 19.8495 10.672 19.7917 10.6719 19.6758V12.8291H4.1748C4.0586 12.8291 4.00008 12.7714 4 12.6553V11.3467C4.00008 11.2306 4.0586 11.1729 4.1748 11.1729H10.6719V4.32617C10.672 4.21023 10.7297 4.15242 10.8457 4.15234H12.1543Z" fill="#FF5A00"/>
</svg>
