<svg width="40" height="40" viewBox="0 0 40 40" fill="none" xmlns="http://www.w3.org/2000/svg">
<path d="M27.2627 26.3799C26.7845 26.3818 26.3267 26.5734 25.9893 26.9121C25.6519 27.2508 25.462 27.7094 25.4619 28.1875C25.4619 28.6657 25.6517 29.125 25.9893 29.4639C26.3267 29.8026 26.7846 29.9942 27.2627 29.9961C27.7409 29.998 28.2009 29.8098 28.541 29.4736C28.8807 29.1377 29.0731 28.6808 29.0771 28.2031V28.1738C29.0734 27.6957 28.881 27.2385 28.541 26.9023C28.2009 26.5662 27.7409 26.378 27.2627 26.3799ZM12.6768 26.2129C12.4363 26.2194 12.1996 26.2739 11.9805 26.373C11.7612 26.4723 11.5631 26.6145 11.3994 26.791C11.2359 26.9675 11.1097 27.1753 11.0273 27.4014C10.945 27.6275 10.9082 27.868 10.9199 28.1084L10.9209 28.1406C10.9397 28.3959 11.0115 28.645 11.1338 28.8701C11.2613 29.1048 11.4396 29.3082 11.6553 29.4658L11.6562 29.4668L11.666 29.4736H11.665C11.9346 29.6688 12.2531 29.7856 12.585 29.8115C12.9171 29.8375 13.2501 29.7714 13.5469 29.6201C13.8436 29.4688 14.0925 29.238 14.2666 28.9541C14.4406 28.6703 14.5329 28.3436 14.5332 28.0107L14.5234 27.8311C14.5046 27.6521 14.4595 27.4766 14.3887 27.3105C14.2942 27.0893 14.1562 26.889 13.9834 26.7217C13.8105 26.5542 13.6052 26.4223 13.3809 26.335C13.1567 26.2478 12.9172 26.2064 12.6768 26.2129ZM26.2344 23.8213C27.1026 23.605 28.0174 23.6617 28.8525 23.9893C29.712 24.3264 30.4382 24.9311 30.9287 25.7119H32.915V22.877C32.915 21.5891 32.4978 20.3418 31.7383 19.3174L31.5215 19.041L31.2871 18.7764V18.7773C30.3487 17.7823 29.0672 17.1803 27.7021 17.0938V17.0928L27.3555 17.083V17.082L26.2344 17.0801V23.8213ZM8.72852 10.126C8.34117 10.1612 7.97383 10.3208 7.68262 10.583C7.35141 10.8815 7.14083 11.2921 7.09375 11.7354L7.08496 11.9316V23.9014C7.08477 24.3489 7.25105 24.781 7.55078 25.1133C7.84941 25.4442 8.25996 25.6533 8.70312 25.7002H8.7041L8.89941 25.7119H9.07031C9.45307 25.1024 9.98143 24.5971 10.6094 24.2441C11.2549 23.8814 11.9831 23.6904 12.7236 23.6904C13.4642 23.6905 14.1923 23.8813 14.8379 24.2441C15.4659 24.5971 15.9942 25.1023 16.377 25.7119H23.6211L23.7217 25.5566V11.9268C23.7217 11.0536 23.1054 10.325 22.2832 10.1562L22.0957 10.127L21.9092 10.1182H8.89551L8.72852 10.126ZM26.2344 14.5703H27.3613C29.2705 14.5704 31.1109 15.2614 32.5459 16.5078L32.8271 16.7646L32.8291 16.7666L33.1123 17.0508L33.1143 17.0527C34.4105 18.4269 35.2083 20.1921 35.3877 22.0654L35.415 22.4424V22.4453L35.4248 22.8721V26.1992C35.425 26.6994 35.2394 27.1823 34.9043 27.5537C34.5692 27.925 34.1079 28.1589 33.6104 28.21H33.6064L33.5996 28.1045L33.6055 28.21L33.4111 28.2217H31.5908C31.5539 29.3078 31.1098 30.3418 30.3428 31.1152C29.551 31.9136 28.4787 32.3714 27.3545 32.3916C26.2303 32.4118 25.1422 31.993 24.3223 31.2236C23.5024 30.4544 23.0153 29.3955 22.9639 28.2725V28.2686L22.9629 28.2217H17.0342C16.9832 29.2642 16.5571 30.2547 15.8311 31.0078C15.081 31.7858 14.066 32.254 12.9873 32.3203H12.9834L12.7266 32.3271H12.7236C10.427 32.3271 8.54971 30.5348 8.41309 28.2734L8.41211 28.2705V28.2695L8.41016 28.1924C7.41831 28.0805 6.49413 27.6291 5.79688 26.9121C5.07773 26.1725 4.64743 25.1995 4.58301 24.1699L4.58203 24.166L4.5752 23.9043V11.9268C4.57498 10.8268 4.9952 9.7679 5.74902 8.9668C6.50284 8.16574 7.53389 7.68282 8.63184 7.61621L8.63574 7.61523L8.89062 7.6084H21.9141C23.0136 7.60818 24.072 8.02796 24.873 8.78125C25.6496 9.51159 26.1262 10.5026 26.2158 11.5625H26.2246L26.2266 11.666L26.2334 11.9238L26.2344 11.9268V14.5703Z" fill="#666666" stroke="#666666" stroke-width="0.212202"/>
</svg>
