<svg width="22" height="22" viewBox="0 0 22 22" fill="none" xmlns="http://www.w3.org/2000/svg">
<path d="M10.2805 14.4083C10.5215 15.0626 10.3838 15.8203 9.83278 16.3712L8.69635 17.5421C8.35198 17.8865 7.86986 18.0931 7.38774 18.0931C6.87118 18.0931 6.42349 17.8865 6.07912 17.5421L4.495 15.958C3.77182 15.2348 3.77182 14.0295 4.495 13.3063L5.66587 12.1355C6.01024 11.7911 6.49237 11.5845 6.97449 11.5845C7.21555 11.5845 7.42217 11.6189 7.6288 11.6878L8.90298 10.4136C8.35198 10.0692 7.69767 9.8626 7.00893 9.8626C6.04468 9.8626 5.14931 10.2414 4.495 10.8957L3.32413 12.0666C1.94664 13.4785 1.94664 15.7514 3.32413 17.1289L4.90825 18.713C5.56256 19.4017 6.45793 19.7461 7.42217 19.7461C8.38642 19.7461 9.28179 19.3673 9.9361 18.713L11.107 17.5421C11.7957 16.8534 12.1401 15.958 12.1401 14.9938C12.1401 14.305 11.9335 13.6507 11.5891 13.0997L10.2805 14.4083ZM8.62748 7.52086L5.45925 4.35263L4.2195 5.55793L7.38774 8.72617L8.62748 7.52086ZM18.6487 4.86919L17.0646 3.28507C16.3759 2.59633 15.4805 2.25195 14.5507 2.25195C13.5864 2.25195 12.6911 2.63076 12.0368 3.28507L10.8659 4.45594C10.1772 5.14469 9.83278 6.04006 9.83278 7.0043C9.83278 7.69305 10.0394 8.34736 10.3838 8.93279L11.658 7.65861C11.5891 7.45199 11.5546 7.24536 11.5546 7.0043C11.5546 6.48774 11.7613 6.04006 12.1056 5.66125L13.2765 4.49038C13.6209 4.14601 14.103 3.93938 14.5851 3.93938C15.0673 3.93938 15.5494 4.14601 15.8938 4.49038L17.4779 6.07449C18.201 6.79768 18.201 8.00298 17.4779 8.72617L16.2726 9.93147C15.9282 10.2758 15.4461 10.4825 14.9639 10.4825C14.7573 10.4825 14.5507 10.448 14.3441 10.3792L13.0699 11.6533C13.6209 11.9977 14.2752 12.2043 14.9639 12.2043C15.9282 12.2043 16.8236 11.8255 17.4779 11.1712L18.6487 10.0003C20.0607 8.55398 20.0607 6.28112 18.6487 4.86919ZM13.2421 14.5116L16.4103 17.6799L17.6156 16.4746L14.4474 13.3063L13.2421 14.5116Z" fill="#FF513B"/>
</svg>
