<svg width="16" height="16" viewBox="0 0 16 16" fill="none" xmlns="http://www.w3.org/2000/svg">
<mask id="path-1-outside-1_275_26963" maskUnits="userSpaceOnUse" x="0" y="0" width="16" height="16" fill="black">
<rect fill="white" width="16" height="16"/>
<path fill-rule="evenodd" clip-rule="evenodd" d="M13.6456 1C13.7572 1 13.8649 1.04033 13.9474 1.11328C14.0298 1.18624 14.0808 1.28677 14.0909 1.39453V4.97852C14.0924 5.03607 14.0822 5.09383 14.0606 5.14746C14.039 5.20095 14.0061 5.24974 13.9649 5.29102C13.9238 5.33218 13.8747 5.36507 13.8204 5.3877C13.7658 5.41037 13.7069 5.42239 13.6475 5.42285H9.97665C9.85902 5.42285 9.74636 5.37751 9.66317 5.29688C9.58003 5.21627 9.53335 5.10715 9.53329 4.99316C9.53329 4.87909 9.57998 4.76914 9.66317 4.68848C9.74634 4.608 9.85914 4.5625 9.97665 4.5625H12.7823C12.0411 3.65 11.0356 2.96396 9.88583 2.59961C8.48252 2.15506 6.96 2.21864 5.60165 2.7793C4.24327 3.33999 3.14033 4.35954 2.49813 5.64844C1.85606 6.93717 1.71831 8.40804 2.10946 9.78809C2.50075 11.1682 3.3947 12.3648 4.62606 13.1543C5.85744 13.9438 7.34273 14.2732 8.80575 14.082C10.2688 13.8908 11.6113 13.1918 12.5831 12.1143C13.5548 11.0368 14.0905 9.65391 14.0909 8.22266V7.77734C14.0822 7.66341 14.1205 7.55048 14.1974 7.46387C14.2743 7.37733 14.3835 7.32398 14.5011 7.31543C14.6187 7.30688 14.7349 7.34434 14.8243 7.41895C14.9136 7.49347 14.9687 7.599 14.9776 7.71289C14.9776 7.88135 15.0001 8.05061 15.0001 8.22266C14.997 10.0223 14.2567 11.7477 12.9425 13.0186C11.6282 14.2892 9.84733 15.0018 7.9913 15C6.76819 15 5.56624 14.6888 4.50595 14.0977C3.44566 13.5064 2.56344 12.6559 1.94833 11.6309C1.33321 10.6057 1.00616 9.44182 1.00009 8.25586C0.99402 7.06989 1.30955 5.90306 1.91415 4.87207C2.51869 3.84128 3.39134 2.98225 4.4454 2.38086C5.49966 1.77941 6.6988 1.45607 7.92196 1.44434C9.14499 1.43267 10.3499 1.73244 11.4161 2.31348C12.0881 2.67968 12.6903 3.14962 13.2003 3.70215V1.39453C13.2104 1.2868 13.2615 1.18623 13.3438 1.11328C13.4262 1.04034 13.534 1.00002 13.6456 1Z"/>
</mask>
<path fill-rule="evenodd" clip-rule="evenodd" d="M13.6456 1C13.7572 1 13.8649 1.04033 13.9474 1.11328C14.0298 1.18624 14.0808 1.28677 14.0909 1.39453V4.97852C14.0924 5.03607 14.0822 5.09383 14.0606 5.14746C14.039 5.20095 14.0061 5.24974 13.9649 5.29102C13.9238 5.33218 13.8747 5.36507 13.8204 5.3877C13.7658 5.41037 13.7069 5.42239 13.6475 5.42285H9.97665C9.85902 5.42285 9.74636 5.37751 9.66317 5.29688C9.58003 5.21627 9.53335 5.10715 9.53329 4.99316C9.53329 4.87909 9.57998 4.76914 9.66317 4.68848C9.74634 4.608 9.85914 4.5625 9.97665 4.5625H12.7823C12.0411 3.65 11.0356 2.96396 9.88583 2.59961C8.48252 2.15506 6.96 2.21864 5.60165 2.7793C4.24327 3.33999 3.14033 4.35954 2.49813 5.64844C1.85606 6.93717 1.71831 8.40804 2.10946 9.78809C2.50075 11.1682 3.3947 12.3648 4.62606 13.1543C5.85744 13.9438 7.34273 14.2732 8.80575 14.082C10.2688 13.8908 11.6113 13.1918 12.5831 12.1143C13.5548 11.0368 14.0905 9.65391 14.0909 8.22266V7.77734C14.0822 7.66341 14.1205 7.55048 14.1974 7.46387C14.2743 7.37733 14.3835 7.32398 14.5011 7.31543C14.6187 7.30688 14.7349 7.34434 14.8243 7.41895C14.9136 7.49347 14.9687 7.599 14.9776 7.71289C14.9776 7.88135 15.0001 8.05061 15.0001 8.22266C14.997 10.0223 14.2567 11.7477 12.9425 13.0186C11.6282 14.2892 9.84733 15.0018 7.9913 15C6.76819 15 5.56624 14.6888 4.50595 14.0977C3.44566 13.5064 2.56344 12.6559 1.94833 11.6309C1.33321 10.6057 1.00616 9.44182 1.00009 8.25586C0.99402 7.06989 1.30955 5.90306 1.91415 4.87207C2.51869 3.84128 3.39134 2.98225 4.4454 2.38086C5.49966 1.77941 6.6988 1.45607 7.92196 1.44434C9.14499 1.43267 10.3499 1.73244 11.4161 2.31348C12.0881 2.67968 12.6903 3.14962 13.2003 3.70215V1.39453C13.2104 1.2868 13.2615 1.18623 13.3438 1.11328C13.4262 1.04034 13.534 1.00002 13.6456 1Z" fill="#FF5A00"/>
<path d="M13.6456 1V0.818958H13.6456L13.6456 1ZM13.9474 1.11328L14.0673 0.977719L14.0673 0.977716L13.9474 1.11328ZM14.0909 1.39453H14.2719V1.38604L14.2712 1.37758L14.0909 1.39453ZM14.0909 4.97852H13.9098L13.9099 4.98315L14.0909 4.97852ZM14.0606 5.14746L14.2285 5.21522L14.2286 5.21506L14.0606 5.14746ZM13.9649 5.29102L14.093 5.41902L14.0931 5.41891L13.9649 5.29102ZM13.8204 5.3877L13.8899 5.55488L13.89 5.55483L13.8204 5.3877ZM13.6475 5.42285V5.6039L13.649 5.60389L13.6475 5.42285ZM9.66317 5.29688L9.53715 5.42685L9.53717 5.42687L9.66317 5.29688ZM9.53329 4.99316H9.35225V4.99326L9.53329 4.99316ZM9.66317 4.68848L9.53728 4.55837L9.53715 4.5585L9.66317 4.68848ZM9.97665 4.5625V4.74354V4.5625ZM12.7823 4.5625V4.74354H13.1626L12.9228 4.44836L12.7823 4.5625ZM9.88583 2.59961L9.94052 2.42702L9.9405 2.42702L9.88583 2.59961ZM5.60165 2.7793L5.53258 2.61195L5.53257 2.61195L5.60165 2.7793ZM2.49813 5.64844L2.33609 5.5677L2.33609 5.5677L2.49813 5.64844ZM2.10946 9.78809L1.93528 9.83745L1.93528 9.83747L2.10946 9.78809ZM4.62606 13.1543L4.52834 13.3067L4.52835 13.3067L4.62606 13.1543ZM8.80575 14.082L8.82921 14.2615L8.82922 14.2615L8.80575 14.082ZM12.5831 12.1143L12.7175 12.2355L12.7175 12.2355L12.5831 12.1143ZM14.0909 8.22266L14.2719 8.22271V8.22266H14.0909ZM14.0909 7.77734H14.2725L14.2714 7.76356L14.0909 7.77734ZM14.1974 7.46387L14.0621 7.34357L14.0619 7.3437L14.1974 7.46387ZM14.5011 7.31543L14.4879 7.13486L14.4879 7.13486L14.5011 7.31543ZM14.8243 7.41895L14.9403 7.27996L14.9403 7.27993L14.8243 7.41895ZM14.9776 7.71289H15.1592L15.1581 7.69876L14.9776 7.71289ZM15.0001 8.22266L15.1811 8.22296V8.22266H15.0001ZM12.9425 13.0186L13.0683 13.1487L13.0683 13.1487L12.9425 13.0186ZM7.9913 15L7.99147 14.819H7.99129L7.9913 15ZM4.50595 14.0977L4.41777 14.2558L4.41778 14.2558L4.50595 14.0977ZM1.94833 11.6309L1.79309 11.724L1.79309 11.724L1.94833 11.6309ZM1.00009 8.25586L0.819046 8.25679V8.25679L1.00009 8.25586ZM1.91415 4.87207L1.75798 4.78048L1.75798 4.78049L1.91415 4.87207ZM4.4454 2.38086L4.35569 2.22361L4.35568 2.22361L4.4454 2.38086ZM7.92196 1.44434L7.92023 1.2633L7.92022 1.2633L7.92196 1.44434ZM11.4161 2.31348L11.5027 2.15451L11.5027 2.15451L11.4161 2.31348ZM13.2003 3.70215L13.0672 3.82494L13.3813 4.16522V3.70215H13.2003ZM13.2003 1.39453L13.02 1.37758L13.0192 1.38604V1.39453H13.2003ZM13.3438 1.11328L13.2238 0.977719L13.2238 0.977743L13.3438 1.11328ZM13.6456 1V1.18104C13.7139 1.18104 13.7787 1.20577 13.8274 1.24885L13.9474 1.11328L14.0673 0.977716C13.9512 0.874885 13.8005 0.818958 13.6456 0.818958V1ZM13.9474 1.11328L13.8274 1.24884C13.8756 1.29156 13.9049 1.34981 13.9107 1.41148L14.0909 1.39453L14.2712 1.37758C14.2567 1.22374 14.1839 1.08091 14.0673 0.977719L13.9474 1.11328ZM14.0909 1.39453H13.9099V4.97852H14.0909H14.2719V1.39453H14.0909ZM14.0909 4.97852L13.9099 4.98315C13.9108 5.01649 13.9049 5.04963 13.8927 5.07986L14.0606 5.14746L14.2286 5.21506C14.2596 5.13803 14.274 5.05564 14.2719 4.97388L14.0909 4.97852ZM14.0606 5.14746L13.8927 5.0797C13.8807 5.10947 13.8618 5.13808 13.8368 5.16312L13.9649 5.29102L14.0931 5.41891C14.1505 5.36141 14.1974 5.29242 14.2285 5.21522L14.0606 5.14746ZM13.9649 5.29102L13.8369 5.16301C13.8125 5.18741 13.7833 5.20702 13.7508 5.22056L13.8204 5.3877L13.89 5.55483C13.9661 5.52312 14.035 5.47696 14.093 5.41902L13.9649 5.29102ZM13.8204 5.3877L13.7509 5.22051C13.7179 5.23422 13.6821 5.24153 13.6461 5.24182L13.6475 5.42285L13.649 5.60389C13.7317 5.60324 13.8137 5.58652 13.8899 5.55488L13.8204 5.3877ZM13.6475 5.42285V5.24181H9.97665V5.42285V5.60389H13.6475V5.42285ZM9.97665 5.42285V5.24181C9.90537 5.24181 9.8381 5.2143 9.78917 5.16688L9.66317 5.29688L9.53717 5.42687C9.65462 5.54072 9.81267 5.60389 9.97665 5.60389V5.42285ZM9.66317 5.29688L9.78919 5.1669C9.74055 5.11973 9.71437 5.0572 9.71433 4.99306L9.53329 4.99316L9.35225 4.99326C9.35234 5.15711 9.41952 5.3128 9.53715 5.42685L9.66317 5.29688ZM9.53329 4.99316H9.71433C9.71433 4.92864 9.74076 4.86541 9.78919 4.81846L9.66317 4.68848L9.53715 4.5585C9.41919 4.67286 9.35225 4.82954 9.35225 4.99316H9.53329ZM9.66317 4.68848L9.78907 4.81858C9.83809 4.77114 9.90559 4.74354 9.97665 4.74354V4.5625V4.38146C9.81268 4.38146 9.65458 4.44486 9.53728 4.55837L9.66317 4.68848ZM9.97665 4.5625V4.74354H12.7823V4.5625V4.38146H9.97665V4.5625ZM12.7823 4.5625L12.9228 4.44836C12.1591 3.50815 11.1237 2.80195 9.94052 2.42702L9.88583 2.59961L9.83114 2.77219C10.9476 3.12596 11.9231 3.79185 12.6418 4.67664L12.7823 4.5625ZM9.88583 2.59961L9.9405 2.42702C8.49672 1.96965 6.93039 2.035 5.53258 2.61195L5.60165 2.7793L5.67072 2.94664C6.98962 2.40227 8.46831 2.34047 9.83115 2.7722L9.88583 2.59961ZM5.60165 2.7793L5.53257 2.61195C4.13468 3.18895 2.99824 4.23877 2.33609 5.5677L2.49813 5.64844L2.66017 5.72918C3.28243 4.48032 4.35186 3.49103 5.67072 2.94664L5.60165 2.7793ZM2.49813 5.64844L2.33609 5.5677C1.67397 6.89666 1.5318 8.41391 1.93528 9.83745L2.10946 9.78809L2.28364 9.73872C1.90482 8.40217 2.03814 6.97768 2.66018 5.72917L2.49813 5.64844ZM2.10946 9.78809L1.93528 9.83747C2.33887 11.261 3.26052 12.4938 4.52834 13.3067L4.62606 13.1543L4.72378 13.0019C3.52888 12.2357 2.66263 11.0755 2.28364 9.7387L2.10946 9.78809ZM4.62606 13.1543L4.52835 13.3067C5.79603 14.1195 7.3243 14.4582 8.82921 14.2615L8.80575 14.082L8.78229 13.9025C7.36116 14.0882 5.91886 13.7681 4.72378 13.0019L4.62606 13.1543ZM8.80575 14.082L8.82922 14.2615C10.3342 14.0648 11.7163 13.3457 12.7175 12.2355L12.5831 12.1143L12.4487 11.993C11.5063 13.0379 10.2035 13.7167 8.78228 13.9025L8.80575 14.082ZM12.5831 12.1143L12.7175 12.2355C13.7188 11.1253 14.2715 9.6994 14.2719 8.22271L14.0909 8.22266L13.9099 8.2226C13.9095 9.60843 13.3908 10.9483 12.4486 11.993L12.5831 12.1143ZM14.0909 8.22266H14.2719V7.77734H14.0909H13.9099V8.22266H14.0909ZM14.0909 7.77734L14.2714 7.76356C14.2665 7.69917 14.288 7.63442 14.3328 7.58404L14.1974 7.46387L14.0619 7.3437C13.9529 7.46653 13.8979 7.62765 13.9104 7.79113L14.0909 7.77734ZM14.1974 7.46387L14.3326 7.58416C14.3776 7.53359 14.4427 7.50119 14.5142 7.496L14.5011 7.31543L14.4879 7.13486C14.3244 7.14676 14.171 7.22108 14.0621 7.34357L14.1974 7.46387ZM14.5011 7.31543L14.5142 7.496C14.5853 7.49083 14.6551 7.51356 14.7083 7.55796L14.8243 7.41895L14.9403 7.27993C14.8146 7.17511 14.6521 7.12293 14.4879 7.13486L14.5011 7.31543ZM14.8243 7.41895L14.7083 7.55793C14.761 7.60193 14.7921 7.66284 14.7971 7.72702L14.9776 7.71289L15.1581 7.69876C15.1453 7.53516 15.0662 7.38501 14.9403 7.27996L14.8243 7.41895ZM14.9776 7.71289H14.7966C14.7966 7.80413 14.8027 7.89459 14.8082 7.97838C14.8139 8.06416 14.819 8.14358 14.819 8.22266H15.0001H15.1811C15.1811 8.12969 15.1751 8.03846 15.1695 7.95448C15.1638 7.86851 15.1587 7.79011 15.1587 7.71289H14.9776ZM15.0001 8.22266L14.819 8.22235C14.8161 9.97219 14.0963 11.6509 12.8166 12.8884L12.9425 13.0186L13.0683 13.1487C14.4171 11.8444 15.178 10.0725 15.1811 8.22296L15.0001 8.22266ZM12.9425 13.0186L12.8166 12.8884C11.5368 14.1258 9.8013 14.8207 7.99147 14.819L7.9913 15L7.99112 15.181C9.89335 15.1829 11.7197 14.4526 13.0683 13.1487L12.9425 13.0186ZM7.9913 15L7.99129 14.819C6.7988 14.819 5.62724 14.5156 4.59411 13.9395L4.50595 14.0977L4.41778 14.2558C5.50524 14.8621 6.73757 15.1811 7.9913 15.181L7.9913 15ZM4.50595 14.0977L4.59412 13.9395C3.56099 13.3634 2.7021 12.5351 2.10356 11.5377L1.94833 11.6309L1.79309 11.724C2.42478 12.7767 3.33032 13.6494 4.41777 14.2558L4.50595 14.0977ZM1.94833 11.6309L2.10357 11.5377C1.50503 10.5402 1.18703 9.40812 1.18113 8.25493L1.00009 8.25586L0.819046 8.25679C0.825285 9.47553 1.1614 10.6713 1.79309 11.724L1.94833 11.6309ZM1.00009 8.25586L1.18113 8.25493C1.17523 7.10179 1.482 5.96687 2.07032 4.96365L1.91415 4.87207L1.75798 4.78049C1.13709 5.83925 0.812812 7.03798 0.819046 8.25679L1.00009 8.25586ZM1.91415 4.87207L2.07031 4.96366C2.65858 3.96061 3.50814 3.12405 4.53512 2.53811L4.4454 2.38086L4.35568 2.22361C3.27455 2.84046 2.3788 3.72194 1.75798 4.78048L1.91415 4.87207ZM4.4454 2.38086L4.53511 2.53811C5.56238 1.95207 6.7312 1.63681 7.9237 1.62537L7.92196 1.44434L7.92022 1.2633C6.66639 1.27533 5.43694 1.60676 4.35569 2.22361L4.4454 2.38086ZM7.92196 1.44434L7.92369 1.62537C9.11609 1.61399 10.2905 1.90628 11.3295 2.47245L11.4161 2.31348L11.5027 2.15451C10.4092 1.5586 9.17389 1.25134 7.92023 1.2633L7.92196 1.44434ZM11.4161 2.31348L11.3295 2.47245C11.9842 2.82926 12.5707 3.28701 13.0672 3.82494L13.2003 3.70215L13.3333 3.57936C12.8099 3.01223 12.1919 2.5301 11.5027 2.15451L11.4161 2.31348ZM13.2003 3.70215H13.3813V1.39453H13.2003H13.0192V3.70215H13.2003ZM13.2003 1.39453L13.3805 1.41148C13.3863 1.34986 13.4156 1.29156 13.4639 1.24882L13.3438 1.11328L13.2238 0.977743C13.1073 1.0809 13.0345 1.22374 13.02 1.37758L13.2003 1.39453ZM13.3438 1.11328L13.4638 1.24884C13.5125 1.2058 13.5773 1.18105 13.6456 1.18104L13.6456 1L13.6456 0.818958C13.4907 0.81898 13.34 0.874882 13.2238 0.977719L13.3438 1.11328Z" fill="#FF5A00" mask="url(#path-1-outside-1_275_26963)"/>
</svg>
