<svg width="24" height="24" viewBox="0 0 24 24" fill="none" xmlns="http://www.w3.org/2000/svg">
<mask id="path-1-outside-1_275_26938" maskUnits="userSpaceOnUse" x="1.16406" y="1.7832" width="21" height="20" fill="black">
<rect fill="white" x="1.16406" y="1.7832" width="21" height="20"/>
<path fill-rule="evenodd" clip-rule="evenodd" d="M17.6383 2.7832C17.9031 2.78343 18.1637 2.84871 18.3971 2.97363C18.6308 3.09882 18.8302 3.28037 18.9772 3.50098L21.4157 7.1582C21.7831 7.70935 21.9171 8.38339 21.7887 9.0332C21.6603 9.68317 21.2797 10.256 20.7301 10.626C20.6449 10.6835 20.5583 10.7388 20.4704 10.792V17.8154C20.4704 19.6845 19.0241 21.2157 17.2194 21.2158H7.07779C5.273 21.2158 3.82681 19.6846 3.82681 17.8154V10.959C3.63517 10.8586 3.44928 10.7473 3.27017 10.626C2.72061 10.256 2.34002 9.68314 2.21158 9.0332C2.08323 8.38344 2.21731 7.70932 2.58463 7.1582L5.0231 3.50098C5.17016 3.28025 5.36935 3.09882 5.60318 2.97363C5.83702 2.84844 6.09869 2.7832 6.36392 2.7832H17.6383ZM15.4342 10.0869C14.5762 10.9172 13.428 11.3886 12.1217 11.3887C10.699 11.3887 9.42954 10.9336 8.55533 10.0996C7.81445 10.9532 6.73627 11.3887 5.41471 11.3887C5.36292 11.3887 5.31023 11.3874 5.25846 11.3838V17.8154C5.25846 18.9115 6.08189 19.7842 7.07779 19.7842H17.2194C18.2143 19.784 19.0378 18.9114 19.0378 17.8154V11.3516C18.8859 11.3766 18.7358 11.3887 18.5866 11.3887C17.2578 11.3887 16.1751 10.9486 15.4342 10.0869ZM14.8327 15.7578C15.0224 15.7579 15.2044 15.8336 15.3385 15.9678C15.4726 16.102 15.5485 16.2839 15.5485 16.4736C15.5485 16.6634 15.4727 16.8453 15.3385 16.9795C15.2044 17.1136 15.0224 17.1893 14.8327 17.1895H9.46353C9.27371 17.1895 9.09191 17.1137 8.95767 16.9795C8.82346 16.8453 8.74775 16.6634 8.74771 16.4736C8.74771 16.2838 8.82347 16.102 8.95767 15.9678C9.09192 15.8335 9.27368 15.7578 9.46353 15.7578H14.8327ZM6.36392 4.21484C6.33445 4.215 6.30488 4.22228 6.27896 4.23633C6.25328 4.25027 6.23164 4.27058 6.21549 4.29492L3.77701 7.95117C3.61979 8.18731 3.56186 8.47657 3.61685 8.75488C3.67184 9.03302 3.83496 9.27794 4.06998 9.43652C4.59505 9.79074 5.04523 9.95595 5.41471 9.95605C6.61636 9.95605 7.41253 9.50416 7.8483 8.57812C7.90334 8.46086 7.98888 8.36041 8.09635 8.28809C8.20381 8.21577 8.3293 8.17383 8.45865 8.16699H8.46939V8.16797C8.59864 8.16332 8.72716 8.19353 8.84049 8.25586C8.95384 8.31824 9.04768 8.41074 9.11295 8.52246C9.63729 9.41993 10.7456 9.95703 12.1217 9.95703C13.3144 9.95696 14.2872 9.42344 14.901 8.50098C14.9701 8.39143 15.0677 8.30264 15.1833 8.24414C15.2988 8.18571 15.4281 8.15977 15.5573 8.16895C15.6863 8.17817 15.8106 8.22174 15.9167 8.2959C16.0228 8.37017 16.1069 8.47257 16.1598 8.59082C16.5956 9.5086 17.3904 9.95703 18.5866 9.95703C18.957 9.95696 19.4062 9.79176 19.9313 9.4375C20.1664 9.27894 20.3294 9.03401 20.3844 8.75586C20.4394 8.47755 20.3815 8.18829 20.2243 7.95215L17.7868 4.29492C17.7705 4.27055 17.7481 4.25021 17.7223 4.23633C17.6966 4.22251 17.6676 4.21497 17.6383 4.21484H6.36392Z"/>
</mask>
<path fill-rule="evenodd" clip-rule="evenodd" d="M17.6383 2.7832C17.9031 2.78343 18.1637 2.84871 18.3971 2.97363C18.6308 3.09882 18.8302 3.28037 18.9772 3.50098L21.4157 7.1582C21.7831 7.70935 21.9171 8.38339 21.7887 9.0332C21.6603 9.68317 21.2797 10.256 20.7301 10.626C20.6449 10.6835 20.5583 10.7388 20.4704 10.792V17.8154C20.4704 19.6845 19.0241 21.2157 17.2194 21.2158H7.07779C5.273 21.2158 3.82681 19.6846 3.82681 17.8154V10.959C3.63517 10.8586 3.44928 10.7473 3.27017 10.626C2.72061 10.256 2.34002 9.68314 2.21158 9.0332C2.08323 8.38344 2.21731 7.70932 2.58463 7.1582L5.0231 3.50098C5.17016 3.28025 5.36935 3.09882 5.60318 2.97363C5.83702 2.84844 6.09869 2.7832 6.36392 2.7832H17.6383ZM15.4342 10.0869C14.5762 10.9172 13.428 11.3886 12.1217 11.3887C10.699 11.3887 9.42954 10.9336 8.55533 10.0996C7.81445 10.9532 6.73627 11.3887 5.41471 11.3887C5.36292 11.3887 5.31023 11.3874 5.25846 11.3838V17.8154C5.25846 18.9115 6.08189 19.7842 7.07779 19.7842H17.2194C18.2143 19.784 19.0378 18.9114 19.0378 17.8154V11.3516C18.8859 11.3766 18.7358 11.3887 18.5866 11.3887C17.2578 11.3887 16.1751 10.9486 15.4342 10.0869ZM14.8327 15.7578C15.0224 15.7579 15.2044 15.8336 15.3385 15.9678C15.4726 16.102 15.5485 16.2839 15.5485 16.4736C15.5485 16.6634 15.4727 16.8453 15.3385 16.9795C15.2044 17.1136 15.0224 17.1893 14.8327 17.1895H9.46353C9.27371 17.1895 9.09191 17.1137 8.95767 16.9795C8.82346 16.8453 8.74775 16.6634 8.74771 16.4736C8.74771 16.2838 8.82347 16.102 8.95767 15.9678C9.09192 15.8335 9.27368 15.7578 9.46353 15.7578H14.8327ZM6.36392 4.21484C6.33445 4.215 6.30488 4.22228 6.27896 4.23633C6.25328 4.25027 6.23164 4.27058 6.21549 4.29492L3.77701 7.95117C3.61979 8.18731 3.56186 8.47657 3.61685 8.75488C3.67184 9.03302 3.83496 9.27794 4.06998 9.43652C4.59505 9.79074 5.04523 9.95595 5.41471 9.95605C6.61636 9.95605 7.41253 9.50416 7.8483 8.57812C7.90334 8.46086 7.98888 8.36041 8.09635 8.28809C8.20381 8.21577 8.3293 8.17383 8.45865 8.16699H8.46939V8.16797C8.59864 8.16332 8.72716 8.19353 8.84049 8.25586C8.95384 8.31824 9.04768 8.41074 9.11295 8.52246C9.63729 9.41993 10.7456 9.95703 12.1217 9.95703C13.3144 9.95696 14.2872 9.42344 14.901 8.50098C14.9701 8.39143 15.0677 8.30264 15.1833 8.24414C15.2988 8.18571 15.4281 8.15977 15.5573 8.16895C15.6863 8.17817 15.8106 8.22174 15.9167 8.2959C16.0228 8.37017 16.1069 8.47257 16.1598 8.59082C16.5956 9.5086 17.3904 9.95703 18.5866 9.95703C18.957 9.95696 19.4062 9.79176 19.9313 9.4375C20.1664 9.27894 20.3294 9.03401 20.3844 8.75586C20.4394 8.47755 20.3815 8.18829 20.2243 7.95215L17.7868 4.29492C17.7705 4.27055 17.7481 4.25021 17.7223 4.23633C17.6966 4.22251 17.6676 4.21497 17.6383 4.21484H6.36392Z" fill="white"/>
<path d="M17.6383 2.7832L17.6386 2.49055H17.6383V2.7832ZM18.3971 2.97363L18.5353 2.71567L18.5352 2.71562L18.3971 2.97363ZM18.9772 3.50098L18.7337 3.66323L18.7337 3.66332L18.9772 3.50098ZM21.4157 7.1582L21.6592 6.99589L21.6592 6.99586L21.4157 7.1582ZM21.7887 9.0332L22.0758 9.08994L22.0758 9.08992L21.7887 9.0332ZM20.7301 10.626L20.5667 10.3832L20.5664 10.3834L20.7301 10.626ZM20.4704 10.792L20.3189 10.5416L20.1777 10.627V10.792H20.4704ZM17.2194 21.2158V21.5085H17.2194L17.2194 21.2158ZM3.82681 10.959H4.11946V10.7819L3.96261 10.6997L3.82681 10.959ZM3.27017 10.626L3.43432 10.3837L3.43361 10.3832L3.27017 10.626ZM2.21158 9.0332L1.92448 9.08992L1.92448 9.08994L2.21158 9.0332ZM2.58463 7.1582L2.34114 6.99586L2.34111 6.9959L2.58463 7.1582ZM5.0231 3.50098L5.26659 3.66332L5.26665 3.66323L5.0231 3.50098ZM5.60318 2.97363L5.46505 2.71563L5.46505 2.71563L5.60318 2.97363ZM6.36392 2.7832L6.36392 3.07585H6.36392V2.7832ZM15.4342 10.0869L15.6561 9.89612L15.4538 9.66077L15.2307 9.87661L15.4342 10.0869ZM12.1217 11.3887V11.6813H12.1217L12.1217 11.3887ZM8.55533 10.0996L8.75733 9.88786L8.53538 9.67613L8.33432 9.90778L8.55533 10.0996ZM5.41471 11.3887L5.41468 11.6813H5.41471V11.3887ZM5.25846 11.3838L5.27859 11.0918L4.96581 11.0703V11.3838H5.25846ZM17.2194 19.7842V20.0768H17.2194L17.2194 19.7842ZM19.0378 17.8154H19.3304H19.0378ZM19.0378 11.3516H19.3304V11.0068L18.9902 11.0628L19.0378 11.3516ZM18.5866 11.3887V11.6813H18.5866L18.5866 11.3887ZM14.8327 15.7578L14.8328 15.4652H14.8327V15.7578ZM15.3385 15.9678L15.5456 15.7609L15.5455 15.7608L15.3385 15.9678ZM15.5485 16.4736L15.8411 16.4737V16.4736H15.5485ZM15.3385 16.9795L15.5455 17.1864L15.5455 17.1864L15.3385 16.9795ZM14.8327 17.1895V17.4821H14.8328L14.8327 17.1895ZM9.46353 17.1895V17.4821V17.1895ZM8.95767 16.9795L8.75074 17.1864L8.75076 17.1865L8.95767 16.9795ZM8.74771 16.4736H8.45506V16.4737L8.74771 16.4736ZM8.95767 15.9678L8.75074 15.7608L8.75071 15.7609L8.95767 15.9678ZM9.46353 15.7578V15.4652V15.7578ZM6.36392 4.21484V3.92219L6.36241 3.9222L6.36392 4.21484ZM6.27896 4.23633L6.13948 3.97906L6.13933 3.97914L6.27896 4.23633ZM6.21549 4.29492L6.45896 4.4573L6.45931 4.45677L6.21549 4.29492ZM3.77701 7.95117L3.53354 7.78879L3.53341 7.78899L3.77701 7.95117ZM3.61685 8.75488L3.32975 8.81161L3.32976 8.81164L3.61685 8.75488ZM4.06998 9.43652L3.90629 9.67911L3.90631 9.67913L4.06998 9.43652ZM5.41471 9.95605L5.41462 10.2487H5.41471V9.95605ZM7.8483 8.57812L8.11309 8.70273L8.11322 8.70246L7.8483 8.57812ZM8.09635 8.28809L7.93296 8.04529L7.93295 8.0453L8.09635 8.28809ZM8.45865 8.16699V7.87434H8.45092L8.44321 7.87475L8.45865 8.16699ZM8.46939 8.16699H8.76204V7.87434H8.46939V8.16699ZM8.46939 8.16797H8.17674V8.47132L8.4799 8.46043L8.46939 8.16797ZM8.84049 8.25586L8.98159 7.99948L8.98152 7.99943L8.84049 8.25586ZM9.11295 8.52246L8.86026 8.67008L8.86026 8.67009L9.11295 8.52246ZM12.1217 9.95703V10.2497H12.1218L12.1217 9.95703ZM14.901 8.50098L15.1448 8.66314L15.1486 8.65709L14.901 8.50098ZM15.1833 8.24414L15.0512 7.983L15.0511 7.98305L15.1833 8.24414ZM15.5573 8.16895L15.5782 7.87704L15.578 7.87703L15.5573 8.16895ZM15.9167 8.2959L16.0844 8.05612L16.0844 8.05609L15.9167 8.2959ZM16.1598 8.59082L15.8926 8.71035L15.8955 8.71635L16.1598 8.59082ZM18.5866 9.95703V10.2497H18.5866L18.5866 9.95703ZM19.9313 9.4375L19.7677 9.19489L19.7676 9.19489L19.9313 9.4375ZM20.3844 8.75586L20.6715 8.81265L20.6715 8.81259L20.3844 8.75586ZM20.2243 7.95215L20.4679 7.78996L20.4678 7.78985L20.2243 7.95215ZM17.7868 4.29492L18.0303 4.13262L18.0302 4.1325L17.7868 4.29492ZM17.7223 4.23633L17.861 3.97864L17.8606 3.97841L17.7223 4.23633ZM17.6383 4.21484L17.6396 3.92219H17.6383V4.21484ZM17.6383 2.7832L17.6381 3.07585C17.8549 3.07603 18.0682 3.1295 18.259 3.23165L18.3971 2.97363L18.5352 2.71562C18.2593 2.56793 17.9513 2.49082 17.6386 2.49055L17.6383 2.7832ZM18.3971 2.97363L18.2589 3.2316C18.4499 3.33393 18.6133 3.48253 18.7337 3.66323L18.9772 3.50098L19.2208 3.33872C19.0472 3.0782 18.8116 2.8637 18.5353 2.71567L18.3971 2.97363ZM18.9772 3.50098L18.7337 3.66332L21.1722 7.32055L21.4157 7.1582L21.6592 6.99586L19.2207 3.33863L18.9772 3.50098ZM21.4157 7.1582L21.1722 7.32052C21.4966 7.80727 21.615 8.40254 21.5016 8.97648L21.7887 9.0332L22.0758 9.08992C22.2192 8.36423 22.0695 7.61144 21.6592 6.99589L21.4157 7.1582ZM21.7887 9.0332L21.5016 8.97647C21.3882 9.55058 21.0521 10.0565 20.5667 10.3832L20.7301 10.626L20.8936 10.8687C21.5074 10.4555 21.9324 9.81576 22.0758 9.08994L21.7887 9.0332ZM20.7301 10.626L20.5664 10.3834C20.4853 10.4381 20.4028 10.4909 20.3189 10.5416L20.4704 10.792L20.6218 11.0424C20.7139 10.9867 20.8046 10.9288 20.8938 10.8686L20.7301 10.626ZM20.4704 10.792H20.1777V17.8154H20.4704H20.763V10.792H20.4704ZM20.4704 17.8154H20.1777C20.1777 19.5365 18.8492 20.923 17.2194 20.9232L17.2194 21.2158L17.2194 21.5085C19.1989 21.5083 20.763 19.8326 20.763 17.8154H20.4704ZM17.2194 21.2158V20.9232H7.07779V21.2158V21.5085H17.2194V21.2158ZM7.07779 21.2158V20.9232C5.4479 20.9232 4.11946 19.5366 4.11946 17.8154H3.82681H3.53416C3.53416 19.8327 5.09811 21.5085 7.07779 21.5085V21.2158ZM3.82681 17.8154H4.11946V10.959H3.82681H3.53416V17.8154H3.82681ZM3.82681 10.959L3.96261 10.6997C3.7808 10.6045 3.60436 10.4989 3.43432 10.3837L3.27017 10.626L3.10602 10.8683C3.29419 10.9957 3.48955 11.1127 3.69102 11.2182L3.82681 10.959ZM3.27017 10.626L3.43361 10.3832C2.94829 10.0565 2.61213 9.55054 2.49868 8.97647L2.21158 9.0332L1.92448 9.08994C2.06792 9.81574 2.49294 10.4555 3.10673 10.8687L3.27017 10.626ZM2.21158 9.0332L2.49868 8.97649C2.38532 8.40261 2.50375 7.80723 2.82815 7.32051L2.58463 7.1582L2.34111 6.9959C1.93087 7.61141 1.78114 8.36428 1.92448 9.08992L2.21158 9.0332ZM2.58463 7.1582L2.82812 7.32055L5.26659 3.66332L5.0231 3.50098L4.77961 3.33863L2.34114 6.99586L2.58463 7.1582ZM5.0231 3.50098L5.26665 3.66323C5.38715 3.48237 5.55023 3.33394 5.74131 3.23163L5.60318 2.97363L5.46505 2.71563C5.18848 2.86371 4.95317 3.07812 4.77955 3.33872L5.0231 3.50098ZM5.60318 2.97363L5.74131 3.23163C5.9324 3.12933 6.14658 3.07585 6.36392 3.07585L6.36392 2.7832L6.36392 2.49055C6.05079 2.49055 5.74163 2.56756 5.46505 2.71563L5.60318 2.97363ZM6.36392 2.7832V3.07585H17.6383V2.7832V2.49055H6.36392V2.7832ZM15.4342 10.0869L15.2307 9.87661C14.4291 10.6523 13.3547 11.096 12.1217 11.096L12.1217 11.3887L12.1217 11.6813C13.5014 11.6813 14.7233 11.1821 15.6377 10.2972L15.4342 10.0869ZM12.1217 11.3887V11.096C10.759 11.096 9.56699 10.6602 8.75733 9.88786L8.55533 10.0996L8.35333 10.3114C9.29208 11.2069 10.639 11.6813 12.1217 11.6813V11.3887ZM8.55533 10.0996L8.33432 9.90778C7.65975 10.685 6.66935 11.096 5.41471 11.096V11.3887V11.6813C6.8032 11.6813 7.96914 11.2214 8.77634 10.2914L8.55533 10.0996ZM5.41471 11.3887L5.41473 11.096C5.36763 11.096 5.32192 11.0948 5.27859 11.0918L5.25846 11.3838L5.23832 11.6757C5.29855 11.6799 5.35822 11.6813 5.41468 11.6813L5.41471 11.3887ZM5.25846 11.3838H4.96581V17.8154H5.25846H5.5511V11.3838H5.25846ZM5.25846 17.8154H4.96581C4.96581 19.0528 5.90066 20.0768 7.07779 20.0768V19.7842V19.4915C6.26313 19.4915 5.5511 18.7703 5.5511 17.8154H5.25846ZM7.07779 19.7842V20.0768H17.2194V19.7842V19.4915H7.07779V19.7842ZM17.2194 19.7842L17.2194 20.0768C18.3956 20.0766 19.3304 19.0527 19.3304 17.8154H19.0378H18.7451C18.7451 18.7702 18.033 19.4914 17.2193 19.4915L17.2194 19.7842ZM19.0378 17.8154H19.3304V11.3516H19.0378H18.7451V17.8154H19.0378ZM19.0378 11.3516L18.9902 11.0628C18.854 11.0852 18.7198 11.096 18.5866 11.096L18.5866 11.3887L18.5866 11.6813C18.7518 11.6813 18.9177 11.6679 19.0853 11.6403L19.0378 11.3516ZM18.5866 11.3887V11.096C17.3251 11.096 16.3307 10.6807 15.6561 9.89612L15.4342 10.0869L15.2123 10.2777C16.0195 11.2165 17.1905 11.6813 18.5866 11.6813V11.3887ZM14.8327 15.7578L14.8325 16.0505C14.9444 16.0505 15.0521 16.0952 15.1316 16.1747L15.3385 15.9678L15.5455 15.7608C15.3567 15.572 15.1004 15.4653 14.8328 15.4652L14.8327 15.7578ZM15.3385 15.9678L15.1315 16.1746C15.2112 16.2544 15.2558 16.3621 15.2558 16.4736H15.5485H15.8411C15.8411 16.2057 15.734 15.9496 15.5456 15.7609L15.3385 15.9678ZM15.5485 16.4736L15.2558 16.4736C15.2558 16.5853 15.2112 16.6929 15.1315 16.7726L15.3385 16.9795L15.5455 17.1864C15.7341 16.9976 15.8411 16.7415 15.8411 16.4737L15.5485 16.4736ZM15.3385 16.9795L15.1316 16.7726C15.0521 16.8521 14.9444 16.8967 14.8325 16.8968L14.8327 17.1895L14.8328 17.4821C15.1004 17.4819 15.3567 17.3752 15.5455 17.1864L15.3385 16.9795ZM14.8327 17.1895V16.8968H9.46353V17.1895V17.4821H14.8327V17.1895ZM9.46353 17.1895V16.8968C9.3518 16.8968 9.24429 16.8522 9.16458 16.7725L8.95767 16.9795L8.75076 17.1865C8.93954 17.3752 9.19562 17.4821 9.46353 17.4821V17.1895ZM8.95767 16.9795L9.16461 16.7726C9.08498 16.6929 9.04038 16.5854 9.04036 16.4736L8.74771 16.4736L8.45506 16.4737C8.45511 16.7415 8.56193 16.9976 8.75074 17.1864L8.95767 16.9795ZM8.74771 16.4736H9.04036C9.04036 16.3619 9.08495 16.2544 9.16463 16.1747L8.95767 15.9678L8.75071 15.7609C8.56198 15.9496 8.45506 16.2057 8.45506 16.4736H8.74771ZM8.95767 15.9678L9.16461 16.1747C9.24429 16.095 9.35175 16.0505 9.46353 16.0505V15.7578V15.4652C9.19562 15.4652 8.93955 15.572 8.75074 15.7608L8.95767 15.9678ZM9.46353 15.7578V16.0505H14.8327V15.7578V15.4652H9.46353V15.7578ZM6.36392 4.21484L6.36241 3.9222C6.28673 3.92259 6.20949 3.9411 6.13948 3.97906L6.27896 4.23633L6.41845 4.4936C6.40026 4.50346 6.38217 4.5074 6.36544 4.50749L6.36392 4.21484ZM6.27896 4.23633L6.13933 3.97914C6.06941 4.0171 6.01279 4.07111 5.97167 4.13307L6.21549 4.29492L6.45931 4.45677C6.45049 4.47005 6.43716 4.48344 6.4186 4.49352L6.27896 4.23633ZM6.21549 4.29492L5.97202 4.13254L3.53354 7.78879L3.77701 7.95117L4.02048 8.11355L6.45896 4.4573L6.21549 4.29492ZM3.77701 7.95117L3.53341 7.78899C3.33353 8.08921 3.25971 8.45713 3.32975 8.81161L3.61685 8.75488L3.90395 8.69815C3.86401 8.49602 3.90605 8.28541 4.02061 8.11336L3.77701 7.95117ZM3.61685 8.75488L3.32976 8.81164C3.3998 9.16588 3.60746 9.47748 3.90629 9.67911L4.06998 9.43652L4.23367 9.19393C4.06246 9.07841 3.94389 8.90016 3.90395 8.69812L3.61685 8.75488ZM4.06998 9.43652L3.90631 9.67913C4.45435 10.0488 4.96235 10.2486 5.41462 10.2487L5.41471 9.95605L5.41479 9.6634C5.1281 9.66332 4.73574 9.53264 4.23364 9.19392L4.06998 9.43652ZM5.41471 9.95605V10.2487C6.05124 10.2487 6.60391 10.1291 7.06296 9.86898C7.52517 9.60711 7.87245 9.21412 8.11309 8.70273L7.8483 8.57812L7.5835 8.45352C7.38838 8.86816 7.11969 9.16413 6.77445 9.35973C6.42606 9.55711 5.97983 9.6634 5.41471 9.6634V9.95605ZM7.8483 8.57812L8.11322 8.70246C8.14604 8.63254 8.19675 8.57326 8.25974 8.53087L8.09635 8.28809L7.93295 8.0453C7.781 8.14756 7.66063 8.28917 7.58337 8.45379L7.8483 8.57812ZM8.09635 8.28809L8.25974 8.53088C8.32326 8.48813 8.39762 8.46327 8.47409 8.45923L8.45865 8.16699L8.44321 7.87475C8.26098 7.88438 8.08436 7.94341 7.93296 8.04529L8.09635 8.28809ZM8.45865 8.16699V8.45964H8.46939V8.16699V7.87434H8.45865V8.16699ZM8.46939 8.16699H8.17674V8.16797H8.46939H8.76204V8.16699H8.46939ZM8.46939 8.16797L8.4799 8.46043C8.55686 8.45766 8.63293 8.4757 8.69945 8.51228L8.84049 8.25586L8.98152 7.99943C8.82138 7.91136 8.64043 7.86898 8.45888 7.87551L8.46939 8.16797ZM8.84049 8.25586L8.69938 8.51224C8.76538 8.54857 8.82109 8.60303 8.86026 8.67008L9.11295 8.52246L9.36564 8.37484C9.27428 8.21845 9.14229 8.08792 8.98159 7.99948L8.84049 8.25586ZM9.11295 8.52246L8.86026 8.67009C9.45285 9.68437 10.6771 10.2497 12.1217 10.2497V9.95703V9.66438C10.814 9.66438 9.82173 9.15549 9.36563 8.37483L9.11295 8.52246ZM12.1217 9.95703L12.1218 10.2497C13.4104 10.2496 14.4756 9.66868 15.1447 8.66309L14.901 8.50098L14.6574 8.33886C14.0989 9.17821 13.2184 9.66432 12.1217 9.66438L12.1217 9.95703ZM14.901 8.50098L15.1486 8.65709C15.1894 8.59236 15.2471 8.53984 15.3154 8.50524L15.1833 8.24414L15.0511 7.98305C14.8883 8.06544 14.7508 8.19051 14.6535 8.34486L14.901 8.50098ZM15.1833 8.24414L15.3154 8.50528C15.3835 8.47081 15.46 8.45542 15.5365 8.46086L15.5573 8.16895L15.578 7.87703C15.3963 7.86411 15.2141 7.9006 15.0512 7.983L15.1833 8.24414ZM15.5573 8.16895L15.5364 8.46085C15.6135 8.46636 15.6869 8.49231 15.7489 8.53571L15.9167 8.2959L16.0844 8.05609C15.9344 7.95117 15.7592 7.88999 15.5782 7.87704L15.5573 8.16895ZM15.9167 8.2959L15.7489 8.53567C15.8112 8.57927 15.8612 8.6399 15.8927 8.71032L16.1598 8.59082L16.427 8.47132C16.3527 8.30523 16.2344 8.16108 16.0844 8.05612L15.9167 8.2959ZM16.1598 8.59082L15.8955 8.71635C16.1364 9.22369 16.4835 9.61343 16.9444 9.87307C17.4022 10.1309 17.9529 10.2497 18.5866 10.2497V9.95703V9.66438C18.0241 9.66438 17.5793 9.55891 17.2317 9.36311C16.8873 9.1691 16.6191 8.87573 16.4242 8.46529L16.1598 8.59082ZM18.5866 9.95703L18.5866 10.2497C19.0399 10.2496 19.547 10.0498 20.095 9.68011L19.9313 9.4375L19.7676 9.19489C19.2654 9.53372 18.874 9.66433 18.5865 9.66438L18.5866 9.95703ZM19.9313 9.4375L20.095 9.68011C20.3939 9.47846 20.6015 9.16682 20.6715 8.81265L20.3844 8.75586L20.0973 8.69907C20.0574 8.90119 19.9388 9.07942 19.7677 9.19489L19.9313 9.4375ZM20.3844 8.75586L20.6715 8.81259C20.7416 8.4581 20.6678 8.09018 20.4679 7.78996L20.2243 7.95215L19.9807 8.11433C20.0952 8.28639 20.1373 8.497 20.0973 8.69913L20.3844 8.75586ZM20.2243 7.95215L20.4678 7.78985L18.0303 4.13262L17.7868 4.29492L17.5433 4.45722L19.9808 8.11445L20.2243 7.95215ZM17.7868 4.29492L18.0302 4.1325C17.9873 4.06813 17.9288 4.01514 17.861 3.97864L17.7223 4.23633L17.5836 4.49402C17.5674 4.48528 17.5538 4.47297 17.5433 4.45734L17.7868 4.29492ZM17.7223 4.23633L17.8606 3.97841C17.7938 3.94261 17.718 3.92254 17.6396 3.9222L17.6383 4.21484L17.637 4.50749C17.6172 4.5074 17.5993 4.50241 17.584 4.49425L17.7223 4.23633ZM17.6383 4.21484V3.92219H6.36392V4.21484V4.50749H17.6383V4.21484Z" fill="white" mask="url(#path-1-outside-1_275_26938)"/>
</svg>
