<svg width="24" height="24" viewBox="0 0 24 24" fill="none" xmlns="http://www.w3.org/2000/svg">
<path d="M17.9468 7.71999L17.3691 8.2977L17.5988 8.06795C17.6879 7.96789 17.7353 7.83746 17.7311 7.70354C17.7269 7.56962 17.6714 7.44241 17.5762 7.34813L17.9468 7.71999ZM14.8125 4.58043L15.3902 5.15682L15.1605 4.92839C15.0606 4.8391 14.9303 4.79154 14.7963 4.79549C14.6624 4.79945 14.5351 4.85462 14.4407 4.94964L14.8125 4.58043ZM21 20.3446C21 20.2371 20.9788 20.1306 20.9376 20.0312C20.8964 19.9319 20.836 19.8417 20.7599 19.7657C20.6838 19.6897 20.5935 19.6295 20.4941 19.5884C20.3946 19.5474 20.2881 19.5264 20.1806 19.5265H3.81876C3.60161 19.5265 3.39335 19.6128 3.23981 19.7663C3.08626 19.9199 3 20.1281 3 20.3453C3 20.5624 3.08626 20.7707 3.23981 20.9242C3.39335 21.0778 3.60161 21.164 3.81876 21.164H20.1832C20.4001 21.1633 20.6078 21.0767 20.7609 20.9231C20.914 20.7695 21 20.5615 21 20.3446ZM5.11097 18.2476C5.56251 18.2476 5.93039 17.8824 5.93039 17.4282V13.1372C5.93039 12.92 5.84413 12.7118 5.69058 12.5582C5.53703 12.4047 5.32878 12.3184 5.11163 12.3184C4.89448 12.3184 4.68623 12.4047 4.53268 12.5582C4.37914 12.7118 4.29288 12.92 4.29288 13.1372V17.4282C4.29288 17.8824 4.66075 18.2476 5.11097 18.2476ZM4.29288 17.4308C4.29288 17.8824 4.6581 18.2503 5.11097 18.2503H9.39134C9.60866 18.2503 9.81708 18.1639 9.97076 18.0103C10.1244 17.8566 10.2108 17.6482 10.2108 17.4308C10.2108 17.2135 10.1244 17.0051 9.97076 16.8514C9.81708 16.6978 9.60866 16.6114 9.39134 16.6114H5.11097C4.89387 16.6118 4.68579 16.6983 4.53241 16.8519C4.37903 17.0055 4.29288 17.2137 4.29288 17.4308ZM19.2948 6.76112C19.2921 6.7598 19.2881 6.75714 19.2868 6.75316L15.7037 3.17002C15.4439 2.94481 15.1085 2.82644 14.7649 2.83876C14.4214 2.85109 14.0953 2.99319 13.8523 3.23643L13.8444 3.2444L4.52396 12.5608C4.44801 12.6368 4.38776 12.7269 4.34665 12.8262C4.30555 12.9254 4.28439 13.0318 4.28439 13.1392C4.28439 13.2466 4.30555 13.353 4.34665 13.4522C4.38776 13.5514 4.44801 13.6416 4.52396 13.7176C4.59991 13.7935 4.69008 13.8538 4.78932 13.8949C4.88856 13.936 4.99492 13.9571 5.10234 13.9571C5.20975 13.9571 5.31611 13.936 5.41535 13.8949C5.51459 13.8538 5.60476 13.7935 5.68071 13.7176L14.8085 4.58973L17.9388 7.71734L8.8123 16.8438C8.73643 16.9197 8.67625 17.0098 8.6352 17.1089C8.59414 17.208 8.573 17.3143 8.573 17.4215C8.573 17.5288 8.59414 17.6351 8.6352 17.7342C8.67625 17.8333 8.73643 17.9234 8.8123 17.9993C8.88817 18.0751 8.97823 18.1353 9.07736 18.1764C9.17648 18.2174 9.28272 18.2386 9.39001 18.2386C9.4973 18.2386 9.60354 18.2174 9.70266 18.1764C9.80179 18.1353 9.89185 18.0751 9.96772 17.9993L19.3837 8.58457C19.822 8.05201 19.7915 7.26048 19.2948 6.76112Z" fill="#333333"/>
</svg>
