<svg width="28" height="28" viewBox="0 0 28 28" fill="none" xmlns="http://www.w3.org/2000/svg">
<path d="M13.8545 13.4473C14.3184 12.9918 15.0588 12.9872 15.5283 13.4336L15.5752 13.4775V13.4795L18.2949 16.1494C18.6865 16.5339 18.6921 17.163 18.3076 17.5547C17.9269 17.9424 17.3065 17.9521 16.9141 17.5791L16.9023 17.5674L15.6924 16.3799V23.4502C15.6924 23.999 15.2471 24.4443 14.6982 24.4443C14.1494 24.4443 13.7041 23.999 13.7041 23.4502V16.3799L12.4941 17.5674C12.1064 17.948 11.4861 17.9464 11.1006 17.5664L11.0889 17.5547C10.7083 17.167 10.7099 16.5466 11.0898 16.1611L11.1016 16.1494L13.8545 13.4473ZM13.999 3.55664C17.3974 3.55664 20.3549 5.92191 21.2656 9.28516C23.8625 9.37516 25.9229 11.5942 25.9229 14.2959C25.9228 17.0574 23.7716 19.3096 21.1016 19.3096C20.55 19.3095 20.1057 18.8577 20.1055 18.3037C20.1055 17.7498 20.5493 17.2975 21.1006 17.2969H21.1484C22.6792 17.2706 23.9296 15.946 23.9297 14.2959C23.9297 12.6291 22.6537 11.2949 21.1016 11.2949C20.9474 11.2949 20.7935 11.3078 20.6416 11.334L20.6406 11.335L20.626 11.3369H20.625C20.081 11.4218 19.5721 11.0447 19.4883 10.4961L19.4746 10.4102C19.0087 7.6165 16.6952 5.57031 13.999 5.57031C12.1345 5.57046 10.4114 6.54924 9.38184 8.16602L9.18555 8.49805L9.17969 8.50879L9.17871 8.50977C9.08677 8.67298 8.95088 8.80732 8.78613 8.89648C8.6626 8.96332 8.52671 9.00321 8.3877 9.01367H8.24805L8.20996 9.01172C8.13635 9.00748 8.06314 9.00476 7.99023 9.00488C5.83448 9.00488 4.06958 10.8518 4.06934 13.1504C4.06934 15.4492 5.8344 17.2969 7.99023 17.2969H8.00586C8.55018 17.3058 8.98633 17.7549 8.98633 18.3037C8.98608 18.8576 8.54177 19.3094 7.99023 19.3096C4.71652 19.3096 2.07642 16.545 2.07617 13.1514C2.07617 9.84515 4.58524 7.12484 7.75684 6.99707L7.76855 6.98047H7.76953C9.17282 4.84592 11.4919 3.55678 13.999 3.55664Z" fill="#F06A22" stroke="#F06A22" stroke-width="0.3"/>
</svg>
