<svg width="40" height="40" viewBox="0 0 40 40" fill="none" xmlns="http://www.w3.org/2000/svg">
<rect x="0.5" y="0.5" width="39" height="39" rx="19.5" stroke="#E7E7E7"/>
<mask id="path-2-outside-1_275_26932" maskUnits="userSpaceOnUse" x="9.16406" y="9.7832" width="21" height="20" fill="black">
<rect fill="white" x="9.16406" y="9.7832" width="21" height="20"/>
<path fill-rule="evenodd" clip-rule="evenodd" d="M25.6374 10.7832C25.9025 10.7834 26.1635 10.8494 26.3972 10.9746C26.6308 11.0998 26.8303 11.2804 26.9773 11.501L29.4157 15.1582C29.7832 15.7094 29.9172 16.3843 29.7888 17.0342C29.6603 17.6839 29.2795 18.2561 28.7302 18.626C28.6448 18.6836 28.5576 18.7397 28.4695 18.793V25.8154C28.4695 27.6846 27.0233 29.2158 25.2185 29.2158H15.0769C13.2723 29.2155 11.8269 27.6845 11.8269 25.8154V18.959C11.6352 18.8586 11.4493 18.7473 11.2702 18.626C10.7208 18.2561 10.3402 17.6839 10.2116 17.0342C10.0832 16.3842 10.2172 15.7094 10.5847 15.1582L13.0232 11.501C13.1702 11.2804 13.3695 11.0998 13.6032 10.9746C13.837 10.8495 14.0979 10.7833 14.363 10.7832H25.6374ZM23.4333 18.0879C22.5753 18.918 21.427 19.3887 20.1208 19.3887C18.6984 19.3886 17.4295 18.9344 16.5554 18.1006C15.8145 18.954 14.7362 19.3887 13.4148 19.3887C13.363 19.3887 13.3103 19.3874 13.2585 19.3838V25.8154C13.2585 26.9114 14.0812 27.7839 15.0769 27.7842H25.2185C26.2135 27.7842 27.0378 26.9115 27.0378 25.8154V19.3516C26.8857 19.3766 26.7351 19.3887 26.5857 19.3887C25.2571 19.3886 24.1741 18.9495 23.4333 18.0879ZM22.8318 23.7578C23.0216 23.7578 23.2044 23.8335 23.3386 23.9678C23.4726 24.102 23.5476 24.284 23.5476 24.4736C23.5476 24.6633 23.4727 24.8453 23.3386 24.9795C23.2044 25.1137 23.0216 25.1895 22.8318 25.1895H17.4636C17.2738 25.1895 17.091 25.1137 16.9568 24.9795C16.8227 24.8453 16.7478 24.6633 16.7478 24.4736C16.7478 24.284 16.8228 24.102 16.9568 23.9678C17.091 23.8335 17.2738 23.7578 17.4636 23.7578H22.8318ZM14.363 12.2148C14.3337 12.215 14.3048 12.2224 14.279 12.2363C14.2531 12.2504 14.2308 12.2713 14.2146 12.2959L11.7761 15.9521C11.6191 16.1882 11.562 16.4768 11.6169 16.7549C11.6719 17.0332 11.8348 17.2789 12.07 17.4375C12.5952 17.7917 13.0453 17.956 13.4148 17.9561C14.6164 17.9561 15.4116 17.5041 15.8474 16.5781C15.9024 16.4609 15.9889 16.3604 16.0964 16.2881C16.2037 16.2159 16.3286 16.1739 16.4577 16.167H16.4685V16.168C16.5979 16.1632 16.7261 16.1945 16.8396 16.2568C16.953 16.3192 17.0477 16.4107 17.113 16.5225C17.6373 17.4198 18.7449 17.9569 20.1208 17.957C21.3136 17.957 22.2863 17.4235 22.9001 16.501C22.9692 16.3915 23.0669 16.3027 23.1824 16.2441C23.2978 16.1857 23.4273 16.1598 23.5564 16.1689C23.6856 16.1781 23.8106 16.2226 23.9167 16.2969C24.0227 16.3711 24.1071 16.4727 24.1599 16.5908C24.5956 17.5085 25.3897 17.9569 26.5857 17.957C26.9561 17.957 27.4061 17.7928 27.9314 17.4385C28.1666 17.2799 28.3295 17.0342 28.3845 16.7559C28.4394 16.4777 28.3814 16.1892 28.2243 15.9531L25.7859 12.2949C25.7696 12.2705 25.7473 12.2502 25.7214 12.2363C25.6956 12.2226 25.6667 12.2149 25.6374 12.2148H14.363Z"/>
</mask>
<path fill-rule="evenodd" clip-rule="evenodd" d="M25.6374 10.7832C25.9025 10.7834 26.1635 10.8494 26.3972 10.9746C26.6308 11.0998 26.8303 11.2804 26.9773 11.501L29.4157 15.1582C29.7832 15.7094 29.9172 16.3843 29.7888 17.0342C29.6603 17.6839 29.2795 18.2561 28.7302 18.626C28.6448 18.6836 28.5576 18.7397 28.4695 18.793V25.8154C28.4695 27.6846 27.0233 29.2158 25.2185 29.2158H15.0769C13.2723 29.2155 11.8269 27.6845 11.8269 25.8154V18.959C11.6352 18.8586 11.4493 18.7473 11.2702 18.626C10.7208 18.2561 10.3402 17.6839 10.2116 17.0342C10.0832 16.3842 10.2172 15.7094 10.5847 15.1582L13.0232 11.501C13.1702 11.2804 13.3695 11.0998 13.6032 10.9746C13.837 10.8495 14.0979 10.7833 14.363 10.7832H25.6374ZM23.4333 18.0879C22.5753 18.918 21.427 19.3887 20.1208 19.3887C18.6984 19.3886 17.4295 18.9344 16.5554 18.1006C15.8145 18.954 14.7362 19.3887 13.4148 19.3887C13.363 19.3887 13.3103 19.3874 13.2585 19.3838V25.8154C13.2585 26.9114 14.0812 27.7839 15.0769 27.7842H25.2185C26.2135 27.7842 27.0378 26.9115 27.0378 25.8154V19.3516C26.8857 19.3766 26.7351 19.3887 26.5857 19.3887C25.2571 19.3886 24.1741 18.9495 23.4333 18.0879ZM22.8318 23.7578C23.0216 23.7578 23.2044 23.8335 23.3386 23.9678C23.4726 24.102 23.5476 24.284 23.5476 24.4736C23.5476 24.6633 23.4727 24.8453 23.3386 24.9795C23.2044 25.1137 23.0216 25.1895 22.8318 25.1895H17.4636C17.2738 25.1895 17.091 25.1137 16.9568 24.9795C16.8227 24.8453 16.7478 24.6633 16.7478 24.4736C16.7478 24.284 16.8228 24.102 16.9568 23.9678C17.091 23.8335 17.2738 23.7578 17.4636 23.7578H22.8318ZM14.363 12.2148C14.3337 12.215 14.3048 12.2224 14.279 12.2363C14.2531 12.2504 14.2308 12.2713 14.2146 12.2959L11.7761 15.9521C11.6191 16.1882 11.562 16.4768 11.6169 16.7549C11.6719 17.0332 11.8348 17.2789 12.07 17.4375C12.5952 17.7917 13.0453 17.956 13.4148 17.9561C14.6164 17.9561 15.4116 17.5041 15.8474 16.5781C15.9024 16.4609 15.9889 16.3604 16.0964 16.2881C16.2037 16.2159 16.3286 16.1739 16.4577 16.167H16.4685V16.168C16.5979 16.1632 16.7261 16.1945 16.8396 16.2568C16.953 16.3192 17.0477 16.4107 17.113 16.5225C17.6373 17.4198 18.7449 17.9569 20.1208 17.957C21.3136 17.957 22.2863 17.4235 22.9001 16.501C22.9692 16.3915 23.0669 16.3027 23.1824 16.2441C23.2978 16.1857 23.4273 16.1598 23.5564 16.1689C23.6856 16.1781 23.8106 16.2226 23.9167 16.2969C24.0227 16.3711 24.1071 16.4727 24.1599 16.5908C24.5956 17.5085 25.3897 17.9569 26.5857 17.957C26.9561 17.957 27.4061 17.7928 27.9314 17.4385C28.1666 17.2799 28.3295 17.0342 28.3845 16.7559C28.4394 16.4777 28.3814 16.1892 28.2243 15.9531L25.7859 12.2949C25.7696 12.2705 25.7473 12.2502 25.7214 12.2363C25.6956 12.2226 25.6667 12.2149 25.6374 12.2148H14.363Z" fill="#333333"/>
<path d="M25.6374 10.7832L25.6376 10.4906H25.6374V10.7832ZM26.3972 10.9746L26.5354 10.7166L26.5354 10.7166L26.3972 10.9746ZM26.9773 11.501L26.7337 11.6632L26.7338 11.6633L26.9773 11.501ZM29.4157 15.1582L29.6593 14.9959L29.6592 14.9959L29.4157 15.1582ZM29.7888 17.0342L30.0759 17.091L30.0759 17.0909L29.7888 17.0342ZM28.7302 18.626L28.5667 18.3832L28.5665 18.3834L28.7302 18.626ZM28.4695 18.793L28.318 18.5425L28.1768 18.6279V18.793H28.4695ZM25.2185 29.2158V28.9232V29.2158ZM15.0769 29.2158L15.0768 29.5085H15.0769V29.2158ZM11.8269 18.959H12.1195V18.7819L11.9627 18.6997L11.8269 18.959ZM11.2702 18.626L11.4344 18.3837L11.4337 18.3832L11.2702 18.626ZM10.2116 17.0342L9.92455 17.0909L9.92456 17.091L10.2116 17.0342ZM10.5847 15.1582L10.3412 14.9959L10.3412 14.9959L10.5847 15.1582ZM13.0232 11.501L13.2667 11.6633L13.2667 11.6633L13.0232 11.501ZM13.6032 10.9746L13.4651 10.7166L13.4651 10.7166L13.6032 10.9746ZM14.363 10.7832V10.4906H14.363L14.363 10.7832ZM23.4333 18.0879L23.6552 17.8971L23.4529 17.6618L23.2298 17.8776L23.4333 18.0879ZM20.1208 19.3887L20.1208 19.6813H20.1208V19.3887ZM16.5554 18.1006L16.7574 17.8888L16.5355 17.6771L16.3344 17.9087L16.5554 18.1006ZM13.4148 19.3887L13.4148 19.6813H13.4148V19.3887ZM13.2585 19.3838L13.2786 19.0918L12.9659 19.0703V19.3838H13.2585ZM15.0769 27.7842L15.0768 28.0768H15.0769V27.7842ZM27.0378 25.8154H27.3305H27.0378ZM27.0378 19.3516H27.3305V19.0068L26.9903 19.0628L27.0378 19.3516ZM26.5857 19.3887L26.5856 19.6813H26.5857V19.3887ZM22.8318 23.7578V23.4652V23.7578ZM23.3386 23.9678L23.5457 23.761L23.5455 23.7608L23.3386 23.9678ZM23.5476 24.4736L23.8402 24.4737V24.4736H23.5476ZM23.3386 24.9795L23.5455 25.1864L23.5456 25.1863L23.3386 24.9795ZM17.4636 25.1895V25.4821V25.1895ZM16.9568 24.9795L16.7497 25.1863L16.7498 25.1864L16.9568 24.9795ZM16.7478 24.4736H16.4551V24.4737L16.7478 24.4736ZM16.9568 23.9678L16.7498 23.7608L16.7497 23.761L16.9568 23.9678ZM17.4636 23.7578V23.4652V23.7578ZM14.363 12.2148V11.9222L14.361 11.9222L14.363 12.2148ZM14.279 12.2363L14.1399 11.9788L14.1395 11.9791L14.279 12.2363ZM14.2146 12.2959L14.4581 12.4583L14.459 12.4569L14.2146 12.2959ZM11.7761 15.9521L11.5326 15.7898L11.5324 15.7901L11.7761 15.9521ZM11.6169 16.7549L11.3298 16.8116L11.3298 16.8116L11.6169 16.7549ZM12.07 17.4375L12.2337 17.1949L12.2337 17.1949L12.07 17.4375ZM13.4148 17.9561L13.4148 18.2487H13.4148V17.9561ZM15.8474 16.5781L16.1122 16.7027L16.1123 16.7025L15.8474 16.5781ZM16.0964 16.2881L15.9332 16.0452L15.933 16.0453L16.0964 16.2881ZM16.4577 16.167V15.8743H16.45L16.4422 15.8748L16.4577 16.167ZM16.4685 16.167H16.7611V15.8743H16.4685V16.167ZM16.4685 16.168H16.1758V16.4715L16.4792 16.4604L16.4685 16.168ZM16.8396 16.2568L16.9806 16.0004L16.9806 16.0004L16.8396 16.2568ZM17.113 16.5225L17.3657 16.3748L17.3657 16.3748L17.113 16.5225ZM20.1208 17.957L20.1208 18.2497H20.1208V17.957ZM22.9001 16.501L23.1438 16.6631L23.1477 16.6571L22.9001 16.501ZM23.1824 16.2441L23.0502 15.983L23.0501 15.9831L23.1824 16.2441ZM23.5564 16.1689L23.5771 15.877L23.577 15.877L23.5564 16.1689ZM23.9167 16.2969L24.0847 16.0572L24.0845 16.0571L23.9167 16.2969ZM24.1599 16.5908L23.8927 16.7103L23.8955 16.7163L24.1599 16.5908ZM26.5857 17.957L26.5856 18.2497H26.5857V17.957ZM27.9314 17.4385L27.7678 17.1958L27.7677 17.1959L27.9314 17.4385ZM28.3845 16.7559L28.6716 16.8126L28.6716 16.8126L28.3845 16.7559ZM28.2243 15.9531L28.468 15.791L28.4679 15.7908L28.2243 15.9531ZM25.7859 12.2949L26.0294 12.1326L26.0293 12.1324L25.7859 12.2949ZM25.7214 12.2363L25.8597 11.9784L25.8591 11.9781L25.7214 12.2363ZM25.6374 12.2148L25.638 11.9222H25.6374V12.2148ZM25.6374 10.7832L25.6373 11.0759C25.8538 11.076 26.0675 11.13 26.259 11.2326L26.3972 10.9746L26.5354 10.7166C26.2596 10.5689 25.9512 10.4907 25.6376 10.4906L25.6374 10.7832ZM26.3972 10.9746L26.259 11.2326C26.4505 11.3352 26.6136 11.483 26.7337 11.6632L26.9773 11.501L27.2208 11.3387C27.047 11.0778 26.8112 10.8644 26.5354 10.7166L26.3972 10.9746ZM26.9773 11.501L26.7338 11.6633L29.1723 15.3206L29.4157 15.1582L29.6592 14.9959L27.2208 11.3386L26.9773 11.501ZM29.4157 15.1582L29.1722 15.3205C29.4967 15.8073 29.6151 16.4034 29.5017 16.9774L29.7888 17.0342L30.0759 17.0909C30.2193 16.3652 30.0697 15.6115 29.6593 14.9959L29.4157 15.1582ZM29.7888 17.0342L29.5017 16.9774C29.3882 17.5511 29.052 18.0565 28.5667 18.3832L28.7302 18.626L28.8937 18.8687C29.5071 18.4556 29.9323 17.8166 30.0759 17.091L29.7888 17.0342ZM28.7302 18.626L28.5665 18.3834C28.4847 18.4386 28.4016 18.492 28.318 18.5425L28.4695 18.793L28.6209 19.0434C28.7136 18.9873 28.8049 18.9286 28.8939 18.8686L28.7302 18.626ZM28.4695 18.793H28.1768V25.8154H28.4695H28.7621V18.793H28.4695ZM28.4695 25.8154H28.1768C28.1768 27.5366 26.8484 28.9232 25.2185 28.9232V29.2158V29.5085C27.1982 29.5085 28.7621 27.8327 28.7621 25.8154H28.4695ZM25.2185 29.2158V28.9232H15.0769V29.2158V29.5085H25.2185V29.2158ZM15.0769 29.2158L15.0769 28.9232C13.4473 28.9229 12.1195 27.5365 12.1195 25.8154H11.8269H11.5342C11.5342 27.8324 13.0974 29.5082 15.0768 29.5085L15.0769 29.2158ZM11.8269 25.8154H12.1195V18.959H11.8269H11.5342V25.8154H11.8269ZM11.8269 18.959L11.9627 18.6997C11.7809 18.6045 11.6044 18.4989 11.4344 18.3837L11.2702 18.626L11.1061 18.8683C11.2943 18.9957 11.4896 19.1127 11.6911 19.2182L11.8269 18.959ZM11.2702 18.626L11.4337 18.3832C10.9484 18.0565 10.6123 17.5512 10.4987 16.9774L10.2116 17.0342L9.92456 17.091C10.0681 17.8167 10.4932 18.4557 11.1068 18.8687L11.2702 18.626ZM10.2116 17.0342L10.4987 16.9774C10.3853 16.4033 10.5037 15.8073 10.8282 15.3205L10.5847 15.1582L10.3412 14.9959C9.9307 15.6116 9.78112 16.3652 9.92455 17.0909L10.2116 17.0342ZM10.5847 15.1582L10.8282 15.3206L13.2667 11.6633L13.0232 11.501L12.7797 11.3386L10.3412 14.9959L10.5847 15.1582ZM13.0232 11.501L13.2667 11.6633C13.3869 11.4829 13.5499 11.3351 13.7414 11.2326L13.6032 10.9746L13.4651 10.7166C13.1891 10.8644 12.9535 11.0778 12.7796 11.3387L13.0232 11.501ZM13.6032 10.9746L13.7414 11.2326C13.9331 11.1299 14.1467 11.0759 14.3631 11.0759L14.363 10.7832L14.363 10.4906C14.0491 10.4906 13.7408 10.569 13.4651 10.7166L13.6032 10.9746ZM14.363 10.7832V11.0759H25.6374V10.7832V10.4906H14.363V10.7832ZM23.4333 18.0879L23.2298 17.8776C22.4283 18.653 21.3538 19.096 20.1208 19.096V19.3887V19.6813C21.5002 19.6813 22.7222 19.183 23.6368 18.2982L23.4333 18.0879ZM20.1208 19.3887L20.1208 19.096C18.7583 19.0959 17.5669 18.661 16.7574 17.8888L16.5554 18.1006L16.3534 18.3123C17.2921 19.2077 18.6385 19.6812 20.1208 19.6813L20.1208 19.3887ZM16.5554 18.1006L16.3344 17.9087C15.6599 18.6857 14.6694 19.096 13.4148 19.096V19.3887V19.6813C14.803 19.6813 15.9691 19.2223 16.7764 18.2924L16.5554 18.1006ZM13.4148 19.3887L13.4148 19.096C13.3677 19.096 13.322 19.0948 13.2786 19.0918L13.2585 19.3838L13.2384 19.6757C13.2986 19.6799 13.3582 19.6813 13.4148 19.6813L13.4148 19.3887ZM13.2585 19.3838H12.9659V25.8154H13.2585H13.5512V19.3838H13.2585ZM13.2585 25.8154H12.9659C12.9659 27.0525 13.8998 28.0765 15.0768 28.0768L15.0769 27.7842L15.077 27.4915C14.2626 27.4913 13.5512 26.7702 13.5512 25.8154H13.2585ZM15.0769 27.7842V28.0768H25.2185V27.7842V27.4915H15.0769V27.7842ZM25.2185 27.7842V28.0768C26.3946 28.0768 27.3305 27.0529 27.3305 25.8154H27.0378H26.7452C26.7452 26.7702 26.0323 27.4915 25.2185 27.4915V27.7842ZM27.0378 25.8154H27.3305V19.3516H27.0378H26.7452V25.8154H27.0378ZM27.0378 19.3516L26.9903 19.0628C26.854 19.0852 26.7192 19.096 26.5857 19.096V19.3887V19.6813C26.7509 19.6813 26.9175 19.668 27.0854 19.6403L27.0378 19.3516ZM26.5857 19.3887L26.5857 19.096C25.3242 19.0959 24.3296 18.6814 23.6552 17.8971L23.4333 18.0879L23.2114 18.2787C24.0187 19.2175 25.19 19.6812 26.5856 19.6813L26.5857 19.3887ZM22.8318 23.7578V24.0505C22.944 24.0505 23.0523 24.0953 23.1317 24.1747L23.3386 23.9678L23.5455 23.7608C23.3564 23.5717 23.0993 23.4652 22.8318 23.4652V23.7578ZM23.3386 23.9678L23.1315 24.1746C23.2105 24.2536 23.2549 24.3612 23.2549 24.4736H23.5476H23.8402C23.8402 24.2068 23.7347 23.9503 23.5457 23.761L23.3386 23.9678ZM23.5476 24.4736L23.2549 24.4736C23.2549 24.5862 23.2105 24.6937 23.1316 24.7727L23.3386 24.9795L23.5456 25.1863C23.7348 24.9969 23.8402 24.7404 23.8402 24.4737L23.5476 24.4736ZM23.3386 24.9795L23.1317 24.7726C23.0523 24.8519 22.944 24.8968 22.8318 24.8968V25.1895V25.4821C23.0993 25.4821 23.3564 25.3755 23.5455 25.1864L23.3386 24.9795ZM22.8318 25.1895V24.8968H17.4636V25.1895V25.4821H22.8318V25.1895ZM17.4636 25.1895V24.8968C17.3514 24.8968 17.2431 24.8519 17.1637 24.7726L16.9568 24.9795L16.7498 25.1864C16.9389 25.3755 17.1961 25.4821 17.4636 25.4821V25.1895ZM16.9568 24.9795L17.1638 24.7727C17.0849 24.6937 17.0404 24.5861 17.0404 24.4736L16.7478 24.4736L16.4551 24.4737C16.4552 24.7404 16.5606 24.9969 16.7497 25.1863L16.9568 24.9795ZM16.7478 24.4736H17.0404C17.0404 24.3612 17.0849 24.2536 17.1639 24.1745L16.9568 23.9678L16.7497 23.761C16.5607 23.9503 16.4551 24.2068 16.4551 24.4736H16.7478ZM16.9568 23.9678L17.1637 24.1747C17.2431 24.0953 17.3514 24.0505 17.4636 24.0505V23.7578V23.4652C17.1961 23.4652 16.9389 23.5717 16.7498 23.7608L16.9568 23.9678ZM17.4636 23.7578V24.0505H22.8318V23.7578V23.4652H17.4636V23.7578ZM14.363 12.2148L14.361 11.9222C14.2842 11.9227 14.2082 11.942 14.1399 11.9788L14.279 12.2363L14.4181 12.4938C14.4014 12.5028 14.3832 12.5074 14.365 12.5075L14.363 12.2148ZM14.279 12.2363L14.1395 11.9791C14.0695 12.017 14.0118 12.0718 13.9702 12.1349L14.2146 12.2959L14.459 12.4569C14.4498 12.4708 14.4368 12.4837 14.4185 12.4936L14.279 12.2363ZM14.2146 12.2959L13.9711 12.1335L11.5326 15.7898L11.7761 15.9521L12.0196 16.1145L14.458 12.4583L14.2146 12.2959ZM11.7761 15.9521L11.5324 15.7901C11.3326 16.0905 11.2599 16.4578 11.3298 16.8116L11.6169 16.7549L11.904 16.6982C11.864 16.4957 11.9056 16.2858 12.0198 16.1142L11.7761 15.9521ZM11.6169 16.7549L11.3298 16.8116C11.3998 17.1656 11.607 17.4782 11.9064 17.6801L12.07 17.4375L12.2337 17.1949C12.0627 17.0796 11.9441 16.9008 11.904 16.6982L11.6169 16.7549ZM12.07 17.4375L11.9064 17.6801C12.4548 18.05 12.9627 18.2487 13.4148 18.2487L13.4148 17.9561L13.4148 17.6634C13.1279 17.6634 12.7355 17.5334 12.2337 17.1949L12.07 17.4375ZM13.4148 17.9561V18.2487C14.0513 18.2487 14.6038 18.129 15.0626 17.8689C15.5246 17.607 15.8716 17.214 16.1122 16.7027L15.8474 16.5781L15.5826 16.4535C15.3874 16.8682 15.1189 17.1642 14.774 17.3598C14.4258 17.5571 13.9799 17.6634 13.4148 17.6634V17.9561ZM15.8474 16.5781L16.1123 16.7025C16.1446 16.6336 16.1959 16.5739 16.2598 16.5309L16.0964 16.2881L15.933 16.0453C15.782 16.1469 15.6602 16.2881 15.5825 16.4538L15.8474 16.5781ZM16.0964 16.2881L16.2597 16.531C16.3236 16.488 16.3975 16.4633 16.4733 16.4592L16.4577 16.167L16.4422 15.8748C16.2597 15.8845 16.0839 15.9439 15.9332 16.0452L16.0964 16.2881ZM16.4577 16.167V16.4596H16.4685V16.167V15.8743H16.4577V16.167ZM16.4685 16.167H16.1758V16.168H16.4685H16.7611V16.167H16.4685ZM16.4685 16.168L16.4792 16.4604C16.5545 16.4577 16.6305 16.4758 16.6986 16.5133L16.8396 16.2568L16.9806 16.0004C16.8218 15.9131 16.6412 15.8688 16.4578 15.8755L16.4685 16.168ZM16.8396 16.2568L16.6985 16.5133C16.7664 16.5506 16.8222 16.6048 16.8603 16.6701L17.113 16.5225L17.3657 16.3748C17.2732 16.2166 17.1396 16.0878 16.9806 16.0004L16.8396 16.2568ZM17.113 16.5225L16.8603 16.6701C17.4528 17.6842 18.6764 18.2496 20.1208 18.2497L20.1208 17.957L20.1209 17.6644C18.8133 17.6643 17.8218 17.1554 17.3657 16.3748L17.113 16.5225ZM20.1208 17.957V18.2497C21.4096 18.2497 22.4746 17.6687 23.1438 16.6631L22.9001 16.501L22.6565 16.3389C22.098 17.1783 21.2175 17.6644 20.1208 17.6644V17.957ZM22.9001 16.501L23.1477 16.6571C23.1884 16.5925 23.2462 16.5399 23.3146 16.5052L23.1824 16.2441L23.0501 15.9831C22.8875 16.0654 22.7499 16.1905 22.6526 16.3449L22.9001 16.501ZM23.1824 16.2441L23.3145 16.5052C23.3824 16.4709 23.459 16.4555 23.5358 16.4609L23.5564 16.1689L23.577 15.877C23.3955 15.8642 23.2132 15.9005 23.0502 15.983L23.1824 16.2441ZM23.5564 16.1689L23.5356 16.4609C23.6118 16.4663 23.686 16.4926 23.7489 16.5366L23.9167 16.2969L24.0845 16.0571C23.9352 15.9526 23.7594 15.89 23.5771 15.877L23.5564 16.1689ZM23.9167 16.2969L23.7488 16.5365C23.8119 16.5808 23.8618 16.6411 23.8927 16.7103L24.1599 16.5908L24.427 16.4713C24.3523 16.3044 24.2334 16.1615 24.0847 16.0572L23.9167 16.2969ZM24.1599 16.5908L23.8955 16.7163C24.1364 17.2236 24.4833 17.6133 24.944 17.873C25.4016 18.1309 25.9521 18.2496 26.5856 18.2497L26.5857 17.957L26.5857 17.6644C26.0233 17.6643 25.5788 17.5588 25.2314 17.3631C24.8872 17.1691 24.6191 16.8758 24.4243 16.4653L24.1599 16.5908ZM26.5857 17.957V18.2497C27.0386 18.2497 27.5464 18.0512 28.095 17.6811L27.9314 17.4385L27.7677 17.1959C27.2659 17.5344 26.8736 17.6644 26.5857 17.6644V17.957ZM27.9314 17.4385L28.095 17.6811C28.3944 17.4792 28.6017 17.1666 28.6716 16.8126L28.3845 16.7559L28.0974 16.6991C28.0574 16.9017 27.9387 17.0806 27.7678 17.1958L27.9314 17.4385ZM28.3845 16.7559L28.6716 16.8126C28.7416 16.458 28.6676 16.091 28.468 15.791L28.2243 15.9531L27.9807 16.1152C28.0953 16.2874 28.1373 16.4973 28.0974 16.6992L28.3845 16.7559ZM28.2243 15.9531L28.4679 15.7908L26.0294 12.1326L25.7859 12.2949L25.5424 12.4572L27.9808 16.1154L28.2243 15.9531ZM25.7859 12.2949L26.0293 12.1324C25.9865 12.0684 25.9283 12.0152 25.8597 11.9784L25.7214 12.2363L25.5831 12.4942C25.5663 12.4852 25.5526 12.4726 25.5425 12.4574L25.7859 12.2949ZM25.7214 12.2363L25.8591 11.9781C25.7936 11.9432 25.7178 11.9223 25.638 11.9222L25.6374 12.2148L25.6369 12.5075C25.6156 12.5075 25.5977 12.502 25.5838 12.4946L25.7214 12.2363ZM25.6374 12.2148V11.9222H14.363V12.2148V12.5075H25.6374V12.2148Z" fill="#333333" mask="url(#path-2-outside-1_275_26932)"/>
</svg>
