<svg width="24" height="24" viewBox="0 0 24 24" fill="none" xmlns="http://www.w3.org/2000/svg">
<path d="M15.1191 5.09766C16.4827 5.09778 17.5588 5.63505 18.3086 6.5166C19.0705 7.41261 19.5419 8.7238 19.542 10.3145C19.542 11.3868 19.057 12.6251 17.8955 14.0605C16.7356 15.494 14.9602 17.0496 12.5332 18.7344C12.2524 18.9288 11.8918 18.9535 11.5908 18.8076L11.4658 18.7344C9.03879 17.0496 7.26337 15.494 6.10352 14.0605C4.94207 12.6251 4.45703 11.3868 4.45703 10.3145C4.45712 8.72364 4.92936 7.41261 5.69141 6.5166C6.44122 5.63504 7.51713 5.09766 8.88086 5.09766C9.74317 5.09773 10.3297 5.35622 11.3525 6.22363L11.999 6.77246L12.6465 6.22363C13.67 5.35612 14.2569 5.09766 15.1191 5.09766Z" stroke="#F06A22" stroke-width="2"/>
</svg>
