<svg width="24" height="24" viewBox="0 0 24 24" fill="none" xmlns="http://www.w3.org/2000/svg">
<path d="M12.0029 2.9502C14.0374 2.9502 15.8085 4.29794 16.4551 6.23926L16.5137 6.42871V6.42969C16.5244 6.46941 16.5308 6.5095 16.5371 6.5498H17.0264C17.6718 6.54984 18.2971 6.77713 18.792 7.19141C19.2249 7.55389 19.534 8.03975 19.6807 8.58105L19.7334 8.81641V8.81738L19.7578 8.97949V8.98145L20.8096 17.9814C20.8943 18.7058 20.6876 19.4347 20.2354 20.0068C19.7831 20.5788 19.1217 20.9475 18.3975 21.0322H18.3965L18.2393 21.0459H18.2363L18.0801 21.0508H5.92285C5.19356 21.0508 4.49424 20.7608 3.97852 20.2451C3.46283 19.7294 3.17291 19.0301 3.17285 18.3008V18.2988L3.17676 18.1426L3.17773 18.1396L3.19141 17.9824V17.9814L4.24316 8.98145C4.31796 8.34017 4.61591 7.74539 5.08496 7.30176C5.55399 6.8582 6.16424 6.59368 6.80859 6.55469H6.81055L6.97363 6.5498H7.46582C7.47167 6.51629 7.47728 6.48218 7.48633 6.44922V6.44824C8.07178 4.39611 9.89602 2.9504 12.0029 2.9502ZM6.97559 8.4502C6.78424 8.45028 6.59829 8.51504 6.44824 8.63379C6.29928 8.75175 6.19298 8.91594 6.14844 9.10059L6.14941 9.10156L6.13086 9.2002L6.13184 9.20117L5.0791 18.2021C5.0661 18.313 5.07508 18.4258 5.10547 18.5332C5.13589 18.6405 5.18769 18.7406 5.25684 18.8281C5.32607 18.9157 5.41227 18.9885 5.50977 19.043C5.60724 19.0974 5.71432 19.1325 5.8252 19.1455H5.82422L5.92578 19.1504H18.0791C18.3045 19.1504 18.5213 19.0608 18.6807 18.9014C18.8392 18.7427 18.9289 18.5279 18.9297 18.3037L18.9229 18.1992V18.1982L17.8711 9.20117C17.8487 9.01124 17.7632 8.83439 17.6279 8.69922C17.4925 8.56392 17.3152 8.47811 17.125 8.45605V8.45508L17.0234 8.4502H6.97559ZM12.0029 4.84961C10.9084 4.84979 9.92829 5.52629 9.46875 6.5498H14.5371C14.0767 5.5261 13.0967 4.84961 12.0029 4.84961Z" fill="white" stroke="white" stroke-width="0.1"/>
</svg>
