<svg width="20" height="20" viewBox="0 0 20 20" fill="none" xmlns="http://www.w3.org/2000/svg">
<path fill-rule="evenodd" clip-rule="evenodd" d="M14.8594 2.73828C15.7768 2.73828 16.5234 3.48444 16.5234 4.40234V12.8311C16.5232 13.7487 15.7767 14.4951 14.8594 14.4951H13.7568V15.5967C13.7566 16.5146 13.0101 17.2607 12.0928 17.2607H3.66504C2.74768 17.2607 2.00006 16.5146 2 15.5967V7.16797C2.00003 6.25024 2.74748 5.50391 3.66504 5.50391H4.7666V4.40234C4.76663 3.48472 5.51324 2.73845 6.43066 2.73828H14.8594ZM3.66504 6.88672C3.51002 6.88672 3.38382 7.01331 3.38379 7.16797V15.5967C3.38385 15.7513 3.51022 15.8779 3.66504 15.8779H12.0928C12.2478 15.8779 12.374 15.7513 12.374 15.5967V7.16797C12.374 7.01331 12.2476 6.88672 12.0928 6.88672H3.66504ZM6.43066 4.12109C6.2757 4.12116 6.14945 4.24773 6.14941 4.40234V5.50391H12.0928C13.0102 5.50391 13.7568 6.25007 13.7568 7.16797V13.1123H14.8594C15.0144 13.1123 15.1406 12.9857 15.1406 12.8311V4.40234C15.1406 4.2477 15.0142 4.12112 14.8594 4.12109H6.43066Z" fill="#333333"/>
</svg>
