<svg width="40" height="40" viewBox="0 0 40 40" fill="none" xmlns="http://www.w3.org/2000/svg">
<path d="M20 0.5C30.7696 0.5 39.5 9.23045 39.5 20C39.5 30.7696 30.7696 39.5 20 39.5C9.23045 39.5 0.5 30.7696 0.5 20C0.5 9.23045 9.23045 0.5 20 0.5Z" stroke="#E7E7E7"/>
<path d="M25.0605 24.4209C24.7209 24.4222 24.3949 24.5582 24.1553 24.7988C23.9159 25.0393 23.7814 25.3648 23.7812 25.7041C23.7812 26.0436 23.9157 26.3698 24.1553 26.6104C24.3949 26.851 24.7209 26.987 25.0605 26.9883C25.4 26.9895 25.7263 26.8558 25.9678 26.6172C26.209 26.3786 26.3459 26.0542 26.3486 25.7148V25.6943L26.3418 25.5684C26.3106 25.2753 26.1792 25 25.9678 24.791C25.7263 24.5525 25.3999 24.4197 25.0605 24.4209ZM14.8955 24.3047C14.7247 24.3093 14.5561 24.3475 14.4004 24.418C14.2447 24.4885 14.1045 24.5895 13.9883 24.7148C13.8721 24.8402 13.7821 24.9879 13.7236 25.1484C13.6798 25.2689 13.6539 25.3949 13.6475 25.5225V25.6543C13.6585 25.8422 13.7099 26.0259 13.7998 26.1914C13.8904 26.358 14.0168 26.5024 14.1699 26.6143L14.1709 26.6152L14.1768 26.6191H14.1758C14.3673 26.758 14.5942 26.8409 14.8301 26.8594C15.0658 26.8778 15.302 26.831 15.5127 26.7236C15.7234 26.6162 15.9008 26.4526 16.0244 26.251C16.1479 26.0494 16.2136 25.8174 16.2139 25.5811L16.2061 25.4531C16.1927 25.3262 16.1606 25.2018 16.1104 25.084C16.0433 24.9268 15.946 24.7839 15.8232 24.665C15.7005 24.5462 15.5547 24.4536 15.3955 24.3916C15.2363 24.3297 15.0663 24.3001 14.8955 24.3047ZM24.3193 22.6924C24.9285 22.5339 25.5722 22.5706 26.1592 22.8008C26.7574 23.0355 27.2624 23.4577 27.6016 24.0029H29.0225V22.0039C29.0225 21.1006 28.7303 20.2251 28.1973 19.5068L28.0439 19.3125V19.3115L27.8809 19.1289V19.1279C27.2229 18.4311 26.3246 18.0099 25.3682 17.9492V17.9482L25.126 17.9414V17.9404H24.3193V22.6924ZM12.2607 13.0889C11.9426 13.0884 11.6357 13.206 11.3994 13.4189C11.1631 13.6319 11.0139 13.9248 10.9814 14.2412L10.9756 14.375V22.7178C10.9755 23.0355 11.0928 23.3422 11.3057 23.5781C11.5186 23.8141 11.8118 23.9626 12.1279 23.9951H12.127L12.2617 24.0029H12.3955C12.6607 23.5765 13.0288 23.2237 13.4668 22.9775C13.9131 22.7267 14.4167 22.5947 14.9287 22.5947C15.4405 22.5948 15.9435 22.7268 16.3896 22.9775C16.8276 23.2237 17.1958 23.5765 17.4609 24.0029H22.5352L22.6162 23.8779V14.3721C22.6161 13.7511 22.1772 13.2339 21.5918 13.1152V13.1143L21.4609 13.0947V13.0938L21.3301 13.0889H12.2607ZM24.3193 16.2393H25.1289C26.4537 16.2393 27.7309 16.7181 28.7266 17.583L28.9219 17.7607L28.9229 17.7617L29.1191 17.9609L29.1201 17.9619C30.0197 18.9157 30.5738 20.1402 30.6982 21.4404L30.7178 21.7012V21.7031L30.7236 22.001V24.3184C30.7238 24.661 30.5967 24.9917 30.3672 25.2461C30.1377 25.5004 29.8222 25.6603 29.4814 25.6953L29.4795 25.6963L29.3428 25.7041H28.0518C28.0318 26.4634 27.7252 27.1874 27.1895 27.7275C26.6421 28.2794 25.9011 28.5963 25.124 28.6104C24.3468 28.6244 23.5942 28.3346 23.0273 27.8027C22.4605 27.2709 22.1234 26.5382 22.0879 25.7617V25.7607L22.0869 25.7041H17.9072C17.8772 26.4332 17.5834 27.1272 17.0762 27.6533C16.5576 28.191 15.8559 28.5147 15.1104 28.5605H15.1094L14.9297 28.5654H14.9287C13.341 28.5654 12.0427 27.326 11.9482 25.7627V25.7607L11.9463 25.6846C11.2527 25.6113 10.6061 25.2994 10.1191 24.7988C9.62186 24.2875 9.32386 23.6152 9.2793 22.9033V22.9014L9.27441 22.7188V14.3721C9.27435 13.6118 9.56397 12.8799 10.085 12.3262C10.606 11.7724 11.3192 11.4387 12.0781 11.3926H12.0801L12.2578 11.3877H21.333C22.0931 11.3876 22.8242 11.6776 23.3779 12.1982C23.9204 12.7084 24.2506 13.4023 24.3076 14.1436H24.3135L24.3145 14.1914L24.3193 14.3711V16.2393Z" fill="#333333" stroke="#333333" stroke-width="0.1"/>
</svg>
