<svg width="40" height="40" viewBox="0 0 40 40" fill="none" xmlns="http://www.w3.org/2000/svg">
<path d="M20 0.5C30.7696 0.5 39.5 9.23045 39.5 20C39.5 30.7696 30.7696 39.5 20 39.5C9.23045 39.5 0.5 30.7696 0.5 20C0.5 9.23045 9.23045 0.5 20 0.5Z" stroke="#E7E7E7"/>
<path d="M23.5322 12.1816C25.0771 12.1816 26.2961 12.7903 27.1455 13.7891C28.0088 14.8042 28.5439 16.2896 28.5439 18.0918C28.5439 19.3065 27.9934 20.7089 26.6777 22.335C25.3636 23.9589 23.3522 25.7213 20.6025 27.6299C20.2391 27.8809 19.758 27.8814 19.3945 27.6299H19.3955C16.6458 25.7212 14.6343 23.9589 13.3203 22.335C12.0047 20.7089 11.4551 19.3065 11.4551 18.0918C11.4551 16.2897 11.9894 14.8042 12.8525 13.7891C13.7019 12.7904 14.921 12.1817 16.4658 12.1816C17.4429 12.1816 18.1076 12.4742 19.2666 13.457L19.999 14.0781L20.7314 13.457C21.8909 12.4742 22.5555 12.1817 23.5322 12.1816Z" stroke="#333333" stroke-width="2.26559"/>
</svg>
