<svg width="40" height="40" viewBox="0 0 40 40" fill="none" xmlns="http://www.w3.org/2000/svg">
<path d="M11.6499 12.5258H28.3551L25.3656 9.53637H14.6484L11.6499 12.5258ZM30.4627 15.5153H9.53637V28.9679C9.53637 29.3644 9.69385 29.7446 9.97417 30.0249C10.2545 30.3052 10.6347 30.4627 11.0311 30.4627H28.9679C29.3644 30.4627 29.7446 30.3052 30.0249 30.0249C30.3052 29.7446 30.4627 29.3644 30.4627 28.9679V15.5153ZM28.9679 33.4521H11.0311C9.84182 33.4521 8.70125 32.9797 7.86029 32.1388C7.01934 31.2978 6.5469 30.1572 6.5469 28.9679V14.0206C6.54576 13.8239 6.58347 13.6289 6.65785 13.4467C6.73224 13.2646 6.84184 13.099 6.98037 12.9593L12.9593 6.98037C13.099 6.84184 13.2646 6.73224 13.4467 6.65785C13.6289 6.58347 13.8239 6.54576 14.0206 6.5469H25.9785C26.1752 6.54576 26.3702 6.58347 26.5523 6.65785C26.7344 6.73224 26.9001 6.84184 27.0397 6.98037L33.0187 12.9593C33.1572 13.099 33.2668 13.2646 33.3412 13.4467C33.4156 13.6289 33.4533 13.8239 33.4521 14.0206V28.9679C33.4521 30.1572 32.9797 31.2978 32.1388 32.1388C31.2978 32.9797 30.1572 33.4521 28.9679 33.4521ZM25.9785 21.4943H14.0206C13.6241 21.4943 13.244 21.3368 12.9636 21.0565C12.6833 20.7761 12.5258 20.396 12.5258 19.9995C12.5258 19.6031 12.6833 19.2229 12.9636 18.9426C13.244 18.6623 13.6241 18.5048 14.0206 18.5048H25.9785C26.3749 18.5048 26.7551 18.6623 27.0354 18.9426C27.3157 19.2229 27.4732 19.6031 27.4732 19.9995C27.4732 20.396 27.3157 20.7761 27.0354 21.0565C26.7551 21.3368 26.3749 21.4943 25.9785 21.4943Z" fill="#666666"/>
</svg>
