<svg width="24" height="24" viewBox="0 0 24 24" fill="none" xmlns="http://www.w3.org/2000/svg">
<mask id="path-1-outside-1_275_26942" maskUnits="userSpaceOnUse" x="0.75" y="1.57812" width="22" height="21" fill="black">
<rect fill="white" x="0.75" y="1.57812" width="22" height="21"/>
<path d="M2.80469 2.57812C3.85869 2.57828 4.78131 3.36886 5.04492 4.42285L5.45801 6.39941H19.8037C21.7802 6.39953 22.8345 7.98132 21.9121 9.69434L19.1445 15.0977H7.27344L7.54883 16.415C7.67967 16.8073 8.06963 17.1992 8.46191 17.2051C8.46484 17.2051 8.46777 17.2051 8.4707 17.2051C8.47652 17.2051 8.48247 17.206 8.48828 17.2061H16.0947C16.1011 17.206 16.1078 17.2051 16.1143 17.2051C16.1201 17.2051 16.126 17.206 16.1318 17.2061H18.6182V18.5234H17.9443C18.0375 18.7663 18.0908 19.0322 18.0908 19.3135C18.0908 20.4994 17.3001 21.4217 16.1143 21.4219C15.06 21.4219 14.1377 20.4995 14.1377 19.3135C14.1377 19.0323 14.183 18.7662 14.2666 18.5234H10.3008C10.394 18.7663 10.4473 19.0322 10.4473 19.3135C10.4473 20.4995 9.65669 21.4219 8.4707 21.4219C7.41655 21.4218 6.49416 20.4994 6.49414 19.3135C6.49414 18.7681 6.66208 18.279 6.95801 17.9092C6.61154 17.5876 6.35119 17.1615 6.23047 16.6787L3.72656 4.68652C3.72635 4.29138 3.19991 3.89669 2.80469 3.89648H1.75V2.57812H2.80469ZM8.46191 18.5225C8.07155 18.5284 7.81152 18.9211 7.81152 19.3135C7.81153 19.8405 8.07546 20.1044 8.4707 20.1045C8.86601 20.1045 9.26159 19.7088 9.12988 19.3135C9.12988 18.7911 8.87088 18.5281 8.48145 18.5234H8.4707C8.46777 18.5234 8.46484 18.5225 8.46191 18.5225ZM16.0996 18.5234C15.7123 18.5329 15.4551 18.923 15.4551 19.3135C15.4551 19.8406 15.7189 20.1045 16.1143 20.1045C16.5095 20.1043 16.9042 19.7087 16.7725 19.3135C16.7725 18.7913 16.5142 18.5283 16.125 18.5234H16.0996ZM6.99805 13.7793H18.3535L20.7256 9.16699C21.1208 8.24466 20.726 7.71786 19.8037 7.71777H5.73242L6.99805 13.7793Z"/>
</mask>
<path d="M2.80469 2.57812C3.85869 2.57828 4.78131 3.36886 5.04492 4.42285L5.45801 6.39941H19.8037C21.7802 6.39953 22.8345 7.98132 21.9121 9.69434L19.1445 15.0977H7.27344L7.54883 16.415C7.67967 16.8073 8.06963 17.1992 8.46191 17.2051C8.46484 17.2051 8.46777 17.2051 8.4707 17.2051C8.47652 17.2051 8.48247 17.206 8.48828 17.2061H16.0947C16.1011 17.206 16.1078 17.2051 16.1143 17.2051C16.1201 17.2051 16.126 17.206 16.1318 17.2061H18.6182V18.5234H17.9443C18.0375 18.7663 18.0908 19.0322 18.0908 19.3135C18.0908 20.4994 17.3001 21.4217 16.1143 21.4219C15.06 21.4219 14.1377 20.4995 14.1377 19.3135C14.1377 19.0323 14.183 18.7662 14.2666 18.5234H10.3008C10.394 18.7663 10.4473 19.0322 10.4473 19.3135C10.4473 20.4995 9.65669 21.4219 8.4707 21.4219C7.41655 21.4218 6.49416 20.4994 6.49414 19.3135C6.49414 18.7681 6.66208 18.279 6.95801 17.9092C6.61154 17.5876 6.35119 17.1615 6.23047 16.6787L3.72656 4.68652C3.72635 4.29138 3.19991 3.89669 2.80469 3.89648H1.75V2.57812H2.80469ZM8.46191 18.5225C8.07155 18.5284 7.81152 18.9211 7.81152 19.3135C7.81153 19.8405 8.07546 20.1044 8.4707 20.1045C8.86601 20.1045 9.26159 19.7088 9.12988 19.3135C9.12988 18.7911 8.87088 18.5281 8.48145 18.5234H8.4707C8.46777 18.5234 8.46484 18.5225 8.46191 18.5225ZM16.0996 18.5234C15.7123 18.5329 15.4551 18.923 15.4551 19.3135C15.4551 19.8406 15.7189 20.1045 16.1143 20.1045C16.5095 20.1043 16.9042 19.7087 16.7725 19.3135C16.7725 18.7913 16.5142 18.5283 16.125 18.5234H16.0996ZM6.99805 13.7793H18.3535L20.7256 9.16699C21.1208 8.24466 20.726 7.71786 19.8037 7.71777H5.73242L6.99805 13.7793Z" fill="white"/>
<path d="M2.80469 2.57812L2.80472 2.37812H2.80469V2.57812ZM5.04492 4.42285L5.24084 4.38191L5.23895 4.37432L5.04492 4.42285ZM5.45801 6.39941L5.26224 6.44033L5.29549 6.59941H5.45801V6.39941ZM19.8037 6.39941L19.8037 6.19941H19.8037V6.39941ZM21.9121 9.69434L21.736 9.5995L21.7341 9.60316L21.9121 9.69434ZM19.1445 15.0977V15.2977H19.2668L19.3225 15.1888L19.1445 15.0977ZM7.27344 15.0977V14.8977H7.02731L7.07767 15.1386L7.27344 15.0977ZM7.54883 16.415L7.35306 16.456L7.35543 16.4673L7.3591 16.4783L7.54883 16.415ZM8.46191 17.2051L8.45892 17.4051L8.4627 17.4051L8.46191 17.2051ZM8.4707 17.2051V17.0051H8.47069L8.4707 17.2051ZM8.48828 17.2061L8.48635 17.4061H8.48828V17.2061ZM16.0947 17.2061V17.4061L16.0964 17.406L16.0947 17.2061ZM16.1143 17.2051L16.1143 17.0051H16.1143V17.2051ZM16.1318 17.2061L16.1299 17.4061H16.1318V17.2061ZM18.6182 17.2061H18.8182V17.0061H18.6182V17.2061ZM18.6182 18.5234V18.7234H18.8182V18.5234H18.6182ZM17.9443 18.5234V18.3234H17.6533L17.7576 18.5951L17.9443 18.5234ZM18.0908 19.3135L18.2908 19.3135V19.3135H18.0908ZM16.1143 21.4219V21.6219H16.1143L16.1143 21.4219ZM14.1377 19.3135H13.9377V19.3135L14.1377 19.3135ZM14.2666 18.5234L14.4557 18.5886L14.547 18.3234H14.2666V18.5234ZM10.3008 18.5234V18.3234H10.0098L10.1141 18.5951L10.3008 18.5234ZM10.4473 19.3135L10.6473 19.3135V19.3135H10.4473ZM8.4707 21.4219L8.47069 21.6219H8.4707V21.4219ZM6.49414 19.3135H6.29414V19.3135L6.49414 19.3135ZM6.95801 17.9092L7.11417 18.0341L7.23028 17.889L7.09407 17.7626L6.95801 17.9092ZM6.23047 16.6787L6.03454 16.7196L6.03644 16.7272L6.23047 16.6787ZM3.72656 4.68652L3.52656 4.68663L3.52657 4.70723L3.53078 4.7274L3.72656 4.68652ZM2.80469 3.89648L2.80479 3.69648H2.80469V3.89648ZM1.75 3.89648H1.55V4.09648H1.75V3.89648ZM1.75 2.57812V2.37812H1.55V2.57812H1.75ZM8.46191 18.5225L8.46276 18.3224L8.45889 18.3225L8.46191 18.5225ZM7.81152 19.3135H7.61152V19.3135L7.81152 19.3135ZM8.4707 20.1045L8.47067 20.3045H8.4707V20.1045ZM9.12988 19.3135H8.92988V19.3459L8.94014 19.3767L9.12988 19.3135ZM8.48145 18.5234L8.48385 18.3234H8.48145V18.5234ZM8.4707 18.5234L8.47069 18.7234H8.4707V18.5234ZM16.0996 18.5234V18.3234L16.0947 18.3235L16.0996 18.5234ZM15.4551 19.3135H15.2551V19.3135L15.4551 19.3135ZM16.1143 20.1045V20.3045H16.1144L16.1143 20.1045ZM16.7725 19.3135H16.5725V19.3459L16.5827 19.3767L16.7725 19.3135ZM16.125 18.5234L16.1275 18.3234H16.125V18.5234ZM6.99805 13.7793L6.80227 13.8202L6.83549 13.9793H6.99805V13.7793ZM18.3535 13.7793V13.9793H18.4756L18.5314 13.8708L18.3535 13.7793ZM20.7256 9.16699L20.9039 9.25869L20.9094 9.24577L20.7256 9.16699ZM19.8037 7.71777L19.8037 7.51777H19.8037V7.71777ZM5.73242 7.71777V7.51777H5.48635L5.53664 7.75865L5.73242 7.71777ZM2.80469 2.57812L2.80466 2.77813C3.75639 2.77827 4.60689 3.49578 4.8509 4.47138L5.04492 4.42285L5.23895 4.37432C4.95572 3.24195 3.96099 2.3783 2.80472 2.37812L2.80469 2.57812ZM5.04492 4.42285L4.84915 4.46377L5.26224 6.44033L5.45801 6.39941L5.65378 6.3585L5.24069 4.38194L5.04492 4.42285ZM5.45801 6.39941V6.59941H19.8037V6.39941V6.19941H5.45801V6.39941ZM19.8037 6.39941L19.8037 6.59941C20.7393 6.59947 21.4262 6.97223 21.7772 7.51336C22.1261 8.05146 22.1687 8.79584 21.736 9.59952L21.9121 9.69434L22.0882 9.78915C22.5778 8.87982 22.5545 7.97679 22.1128 7.29571C21.673 6.61766 20.8446 6.19948 19.8037 6.19941L19.8037 6.39941ZM21.9121 9.69434L21.7341 9.60316L18.9665 15.0065L19.1445 15.0977L19.3225 15.1888L22.0901 9.78551L21.9121 9.69434ZM19.1445 15.0977V14.8977H7.27344V15.0977V15.2977H19.1445V15.0977ZM7.27344 15.0977L7.07767 15.1386L7.35306 16.456L7.54883 16.415L7.7446 16.3741L7.46921 15.0567L7.27344 15.0977ZM7.54883 16.415L7.3591 16.4783C7.43609 16.7091 7.58634 16.9338 7.77296 17.1031C7.95815 17.2711 8.19835 17.4012 8.45892 17.4051L8.46191 17.2051L8.46491 17.0051C8.33319 17.0031 8.18227 16.9343 8.0417 16.8068C7.90256 16.6806 7.79241 16.5132 7.73855 16.3518L7.54883 16.415ZM8.46191 17.2051L8.4627 17.4051C8.46519 17.4051 8.46663 17.4051 8.47072 17.4051L8.4707 17.2051L8.47069 17.0051C8.46891 17.0051 8.4645 17.0051 8.46113 17.0051L8.46191 17.2051ZM8.4707 17.2051V17.4051C8.467 17.4051 8.4643 17.4049 8.46322 17.4049C8.46231 17.4048 8.46183 17.4048 8.46342 17.4049C8.46437 17.405 8.46764 17.4052 8.47108 17.4055C8.47475 17.4057 8.48008 17.406 8.48635 17.406L8.48828 17.2061L8.49021 17.0061C8.49358 17.0061 8.49598 17.0062 8.49673 17.0063C8.49723 17.0063 8.49756 17.0064 8.49557 17.0062C8.49422 17.0061 8.49079 17.0058 8.48695 17.0056C8.48295 17.0053 8.47731 17.0051 8.4707 17.0051V17.2051ZM8.48828 17.2061V17.4061H16.0947V17.2061V17.0061H8.48828V17.2061ZM16.0947 17.2061L16.0964 17.406C16.1024 17.406 16.1075 17.4058 16.1111 17.4055C16.1145 17.4054 16.1178 17.4051 16.1189 17.405C16.1207 17.4049 16.1206 17.4049 16.1201 17.4049C16.1195 17.405 16.1173 17.4051 16.1143 17.4051V17.2051V17.0051C16.108 17.0051 16.1026 17.0053 16.0987 17.0055C16.095 17.0057 16.0916 17.006 16.09 17.0061C16.0879 17.0062 16.0879 17.0062 16.088 17.0062C16.0884 17.0062 16.0903 17.0061 16.093 17.0061L16.0947 17.2061ZM16.1143 17.2051L16.1142 17.4051C16.1106 17.4051 16.1079 17.4049 16.1068 17.4049C16.1059 17.4048 16.1054 17.4048 16.1069 17.4049C16.1079 17.405 16.1112 17.4052 16.1146 17.4055C16.1183 17.4057 16.1236 17.406 16.1299 17.406L16.1318 17.2061L16.1338 17.0061C16.1371 17.0061 16.1395 17.0062 16.1403 17.0063C16.1408 17.0063 16.1412 17.0064 16.1392 17.0062C16.1378 17.0061 16.1344 17.0058 16.1305 17.0056C16.1265 17.0053 16.1209 17.0051 16.1143 17.0051L16.1143 17.2051ZM16.1318 17.2061V17.4061H18.6182V17.2061V17.0061H16.1318V17.2061ZM18.6182 17.2061H18.4182V18.5234H18.6182H18.8182V17.2061H18.6182ZM18.6182 18.5234V18.3234H17.9443V18.5234V18.7234H18.6182V18.5234ZM17.9443 18.5234L17.7576 18.5951C17.8424 18.816 17.8908 19.0577 17.8908 19.3135H18.0908H18.2908C18.2908 19.0067 18.2327 18.7165 18.1311 18.4518L17.9443 18.5234ZM18.0908 19.3135L17.8908 19.3135C17.8908 20.4064 17.1729 21.2217 16.1142 21.2219L16.1143 21.4219L16.1143 21.6219C17.4273 21.6217 18.2908 20.5923 18.2908 19.3135L18.0908 19.3135ZM16.1143 21.4219V21.2219C15.1788 21.2219 14.3377 20.3975 14.3377 19.3135L14.1377 19.3135L13.9377 19.3135C13.9377 20.6014 14.9413 21.6219 16.1143 21.6219V21.4219ZM14.1377 19.3135H14.3377C14.3377 19.0538 14.3795 18.8098 14.4557 18.5886L14.2666 18.5234L14.0775 18.4583C13.9864 18.7227 13.9377 19.0107 13.9377 19.3135H14.1377ZM14.2666 18.5234V18.3234H10.3008V18.5234V18.7234H14.2666V18.5234ZM10.3008 18.5234L10.1141 18.5951C10.1989 18.816 10.2473 19.0577 10.2473 19.3135H10.4473H10.6473C10.6473 19.0067 10.5892 18.7166 10.4875 18.4518L10.3008 18.5234ZM10.4473 19.3135L10.2473 19.3135C10.2473 20.4065 9.52949 21.2219 8.4707 21.2219V21.4219V21.6219C9.7839 21.6219 10.6473 20.5924 10.6473 19.3135L10.4473 19.3135ZM8.4707 21.4219L8.47072 21.2219C7.53529 21.2218 6.69416 20.3974 6.69414 19.3135L6.49414 19.3135L6.29414 19.3135C6.29416 20.6014 7.29781 21.6218 8.47069 21.6219L8.4707 21.4219ZM6.49414 19.3135H6.69414C6.69414 18.8091 6.84927 18.3652 7.11417 18.0341L6.95801 17.9092L6.80185 17.7842C6.47489 18.1928 6.29414 18.7271 6.29414 19.3135H6.49414ZM6.95801 17.9092L7.09407 17.7626C6.77522 17.4666 6.53555 17.0743 6.42449 16.6302L6.23047 16.6787L6.03644 16.7272C6.16683 17.2487 6.44787 17.7085 6.82194 18.0558L6.95801 17.9092ZM6.23047 16.6787L6.42625 16.6378L3.92234 4.64565L3.72656 4.68652L3.53078 4.7274L6.03469 16.7196L6.23047 16.6787ZM3.72656 4.68652L3.92656 4.68642C3.92641 4.40308 3.74326 4.15455 3.54038 3.9886C3.33474 3.82038 3.06108 3.69662 2.80479 3.69648L2.80469 3.89648L2.80458 4.09648C2.94352 4.09656 3.13068 4.17024 3.28712 4.29821C3.44633 4.42844 3.5265 4.57482 3.52656 4.68663L3.72656 4.68652ZM2.80469 3.89648V3.69648H1.75V3.89648V4.09648H2.80469V3.89648ZM1.75 3.89648H1.95V2.57812H1.75H1.55V3.89648H1.75ZM1.75 2.57812V2.77813H2.80469V2.57812V2.37812H1.75V2.57812ZM8.46191 18.5225L8.45889 18.3225C8.19147 18.3265 7.9754 18.4644 7.83179 18.6511C7.68972 18.8359 7.61152 19.0755 7.61152 19.3135H7.81152H8.01152C8.01152 19.1591 8.06334 19.0062 8.14887 18.895C8.23287 18.7858 8.34199 18.7243 8.46494 18.7224L8.46191 18.5225ZM7.81152 19.3135L7.61152 19.3135C7.61153 19.6082 7.68533 19.8588 7.84239 20.0383C8.00248 20.2213 8.22647 20.3045 8.47067 20.3045L8.4707 20.1045L8.47074 19.9045C8.31969 19.9045 8.2141 19.8557 8.14341 19.7749C8.06969 19.6906 8.01153 19.5458 8.01152 19.3135L7.81152 19.3135ZM8.4707 20.1045V20.3045C8.73216 20.3045 8.98228 20.1759 9.14741 19.9901C9.31424 19.8024 9.41348 19.532 9.31963 19.2503L9.12988 19.3135L8.94014 19.3767C8.97799 19.4903 8.9453 19.6154 8.84844 19.7244C8.74988 19.8352 8.60456 19.9045 8.4707 19.9045V20.1045ZM9.12988 19.3135H9.32988C9.32988 19.0214 9.25749 18.7728 9.10321 18.5938C8.94588 18.4112 8.72523 18.3264 8.48385 18.3235L8.48145 18.5234L8.47904 18.7234C8.62709 18.7252 8.73067 18.7742 8.8002 18.8549C8.87278 18.9391 8.92988 19.0832 8.92988 19.3135H9.12988ZM8.48145 18.5234V18.3234H8.4707V18.5234V18.7234H8.48145V18.5234ZM8.4707 18.5234L8.47071 18.3234C8.48072 18.3234 8.48863 18.3243 8.49305 18.3248C8.49705 18.3253 8.50031 18.3259 8.49899 18.3256C8.49883 18.3256 8.4975 18.3254 8.49603 18.3252C8.49444 18.3249 8.49201 18.3246 8.48908 18.3242C8.48333 18.3235 8.47409 18.3225 8.46276 18.3225L8.46191 18.5225L8.46107 18.7225C8.4512 18.7224 8.44342 18.7216 8.43915 18.7211C8.43533 18.7206 8.43213 18.72 8.43363 18.7203C8.43377 18.7203 8.43849 18.7211 8.44396 18.7218C8.44985 18.7225 8.45922 18.7234 8.47069 18.7234L8.4707 18.5234ZM16.0996 18.5234L16.0947 18.3235C15.8294 18.33 15.6154 18.468 15.4732 18.6541C15.3324 18.8383 15.2551 19.0767 15.2551 19.3135H15.4551H15.6551C15.6551 19.1598 15.7063 19.0078 15.791 18.897C15.8742 18.7881 15.9825 18.7264 16.1045 18.7234L16.0996 18.5234ZM15.4551 19.3135L15.2551 19.3135C15.2551 19.6082 15.3289 19.8588 15.4859 20.0383C15.646 20.2213 15.87 20.3045 16.1143 20.3045V20.1045V19.9045C15.9632 19.9045 15.8576 19.8557 15.7869 19.7749C15.7132 19.6907 15.6551 19.5458 15.6551 19.3135L15.4551 19.3135ZM16.1143 20.1045L16.1144 20.3045C16.3758 20.3044 16.6257 20.1757 16.7906 19.9899C16.9572 19.8021 17.056 19.5317 16.9622 19.2502L16.7725 19.3135L16.5827 19.3767C16.6206 19.4904 16.588 19.6155 16.4914 19.7244C16.3931 19.8352 16.248 19.9044 16.1142 19.9045L16.1143 20.1045ZM16.7725 19.3135H16.9725C16.9725 19.0216 16.9003 18.7731 16.7463 18.594C16.5892 18.4114 16.3688 18.3265 16.1275 18.3235L16.125 18.5234L16.1225 18.7234C16.2704 18.7253 16.3737 18.7743 16.443 18.8549C16.5155 18.9391 16.5725 19.0832 16.5725 19.3135H16.7725ZM16.125 18.5234V18.3234H16.0996V18.5234V18.7234H16.125V18.5234ZM6.99805 13.7793V13.9793H18.3535V13.7793V13.5793H6.99805V13.7793ZM18.3535 13.7793L18.5314 13.8708L20.9034 9.25846L20.7256 9.16699L20.5477 9.07552L18.1757 13.6878L18.3535 13.7793ZM20.7256 9.16699L20.9094 9.24577C21.1185 8.75777 21.1444 8.31468 20.9252 7.98564C20.7065 7.65756 20.294 7.51782 19.8037 7.51777L19.8037 7.71777L19.8037 7.91777C20.2357 7.91781 20.4817 8.04152 20.5923 8.20745C20.7022 8.37241 20.7279 8.65389 20.5418 9.08821L20.7256 9.16699ZM19.8037 7.71777V7.51777H5.73242V7.71777V7.91777H19.8037V7.71777ZM5.73242 7.71777L5.53664 7.75865L6.80227 13.8202L6.99805 13.7793L7.19382 13.7384L5.9282 7.6769L5.73242 7.71777Z" fill="white" mask="url(#path-1-outside-1_275_26942)"/>
</svg>
