<svg width="24" height="24" viewBox="0 0 24 24" fill="none" xmlns="http://www.w3.org/2000/svg">
<mask id="path-1-outside-1_275_26921" maskUnits="userSpaceOnUse" x="2.5" y="3.03516" width="19" height="18" fill="black">
<rect fill="white" x="2.5" y="3.03516" width="19" height="18"/>
<path fill-rule="evenodd" clip-rule="evenodd" d="M16.8711 4.03516C17.1002 4.03528 17.3264 4.09202 17.5284 4.2002C17.7301 4.30836 17.9024 4.46475 18.0293 4.65527L20.1358 7.81543C20.4533 8.29167 20.5699 8.87402 20.459 9.43555C20.348 9.99721 20.0189 10.4928 19.544 10.8125C19.4702 10.8623 19.3945 10.91 19.3184 10.9561V17.0254C19.3182 18.6405 18.0692 19.9629 16.5098 19.9629H7.74612C6.18665 19.9629 4.93675 18.6405 4.93655 17.0254V11.0996C4.77116 11.013 4.61067 10.9172 4.45609 10.8125C3.98115 10.4928 3.65205 9.99721 3.54105 9.43555C3.43019 8.87413 3.54595 8.29162 3.86331 7.81543L5.97073 4.65527C6.0978 4.46455 6.26968 4.3074 6.47171 4.19922C6.67377 4.09104 6.89974 4.03516 7.12894 4.03516H16.8711ZM14.9668 10.3467C14.2253 11.0641 13.2333 11.4707 12.1045 11.4707C10.8752 11.4707 9.77888 11.078 9.02347 10.3574C8.38329 11.095 7.45153 11.4706 6.3096 11.4707C6.26475 11.4707 6.21871 11.4699 6.17386 11.4668V17.0254C6.17405 17.9724 6.88564 18.7266 7.74612 18.7266H16.5098C17.3695 18.7265 18.0819 17.9724 18.0821 17.0254V11.4395C17.9507 11.4611 17.8205 11.4707 17.6914 11.4707C16.5432 11.4707 15.6071 11.0913 14.9668 10.3467ZM14.4473 15.2471C14.6113 15.2471 14.7688 15.3127 14.8848 15.4287C15.0007 15.5447 15.0655 15.7022 15.0655 15.8662C15.0654 16.0302 15.0007 16.1878 14.8848 16.3037C14.7688 16.4196 14.6113 16.4843 14.4473 16.4844H9.80765C9.64369 16.4843 9.4861 16.4196 9.37015 16.3037C9.25421 16.1878 9.18957 16.0302 9.18948 15.8662C9.18948 15.7023 9.2543 15.5447 9.37015 15.4287C9.48611 15.3128 9.64366 15.2471 9.80765 15.2471H14.4473ZM7.12894 5.27148C7.10347 5.27162 7.07808 5.27888 7.05569 5.29102C7.03349 5.30314 7.01493 5.32067 7.00101 5.3418L4.89359 8.50098C4.75772 8.70503 4.70837 8.95481 4.75589 9.19531C4.80347 9.43569 4.94432 9.64719 5.14749 9.78418C5.60135 10.0903 5.99027 10.2334 6.3096 10.2334C7.34789 10.2333 8.03561 9.84221 8.41214 9.04199C8.45966 8.94091 8.53338 8.85441 8.62601 8.79199C8.71888 8.72949 8.8277 8.69341 8.93948 8.6875H8.94827V8.68848C9.06002 8.6844 9.17059 8.71079 9.26859 8.76465C9.36656 8.81854 9.44849 8.8976 9.50491 8.99414C9.95801 9.76966 10.9154 10.2334 12.1045 10.2334C13.1352 10.2334 13.9755 9.77272 14.5059 8.97559C14.5656 8.88094 14.6502 8.80447 14.75 8.75391C14.8499 8.70336 14.9617 8.68057 15.0733 8.68848C15.1848 8.69641 15.2922 8.73476 15.3838 8.79883C15.4754 8.86292 15.5481 8.95073 15.5938 9.05273C15.9703 9.84606 16.6576 10.2334 17.6914 10.2334C18.0115 10.2333 18.3998 10.0913 18.8535 9.78516C19.0566 9.64818 19.1976 9.43655 19.2451 9.19629C19.2926 8.95593 19.2431 8.70594 19.1075 8.50195L17 5.34082C16.9859 5.31969 16.9668 5.30204 16.9444 5.29004C16.922 5.27808 16.8965 5.27153 16.8711 5.27148H7.12894Z"/>
</mask>
<path fill-rule="evenodd" clip-rule="evenodd" d="M16.8711 4.03516C17.1002 4.03528 17.3264 4.09202 17.5284 4.2002C17.7301 4.30836 17.9024 4.46475 18.0293 4.65527L20.1358 7.81543C20.4533 8.29167 20.5699 8.87402 20.459 9.43555C20.348 9.99721 20.0189 10.4928 19.544 10.8125C19.4702 10.8623 19.3945 10.91 19.3184 10.9561V17.0254C19.3182 18.6405 18.0692 19.9629 16.5098 19.9629H7.74612C6.18665 19.9629 4.93675 18.6405 4.93655 17.0254V11.0996C4.77116 11.013 4.61067 10.9172 4.45609 10.8125C3.98115 10.4928 3.65205 9.99721 3.54105 9.43555C3.43019 8.87413 3.54595 8.29162 3.86331 7.81543L5.97073 4.65527C6.0978 4.46455 6.26968 4.3074 6.47171 4.19922C6.67377 4.09104 6.89974 4.03516 7.12894 4.03516H16.8711ZM14.9668 10.3467C14.2253 11.0641 13.2333 11.4707 12.1045 11.4707C10.8752 11.4707 9.77888 11.078 9.02347 10.3574C8.38329 11.095 7.45153 11.4706 6.3096 11.4707C6.26475 11.4707 6.21871 11.4699 6.17386 11.4668V17.0254C6.17405 17.9724 6.88564 18.7266 7.74612 18.7266H16.5098C17.3695 18.7265 18.0819 17.9724 18.0821 17.0254V11.4395C17.9507 11.4611 17.8205 11.4707 17.6914 11.4707C16.5432 11.4707 15.6071 11.0913 14.9668 10.3467ZM14.4473 15.2471C14.6113 15.2471 14.7688 15.3127 14.8848 15.4287C15.0007 15.5447 15.0655 15.7022 15.0655 15.8662C15.0654 16.0302 15.0007 16.1878 14.8848 16.3037C14.7688 16.4196 14.6113 16.4843 14.4473 16.4844H9.80765C9.64369 16.4843 9.4861 16.4196 9.37015 16.3037C9.25421 16.1878 9.18957 16.0302 9.18948 15.8662C9.18948 15.7023 9.2543 15.5447 9.37015 15.4287C9.48611 15.3128 9.64366 15.2471 9.80765 15.2471H14.4473ZM7.12894 5.27148C7.10347 5.27162 7.07808 5.27888 7.05569 5.29102C7.03349 5.30314 7.01493 5.32067 7.00101 5.3418L4.89359 8.50098C4.75772 8.70503 4.70837 8.95481 4.75589 9.19531C4.80347 9.43569 4.94432 9.64719 5.14749 9.78418C5.60135 10.0903 5.99027 10.2334 6.3096 10.2334C7.34789 10.2333 8.03561 9.84221 8.41214 9.04199C8.45966 8.94091 8.53338 8.85441 8.62601 8.79199C8.71888 8.72949 8.8277 8.69341 8.93948 8.6875H8.94827V8.68848C9.06002 8.6844 9.17059 8.71079 9.26859 8.76465C9.36656 8.81854 9.44849 8.8976 9.50491 8.99414C9.95801 9.76966 10.9154 10.2334 12.1045 10.2334C13.1352 10.2334 13.9755 9.77272 14.5059 8.97559C14.5656 8.88094 14.6502 8.80447 14.75 8.75391C14.8499 8.70336 14.9617 8.68057 15.0733 8.68848C15.1848 8.69641 15.2922 8.73476 15.3838 8.79883C15.4754 8.86292 15.5481 8.95073 15.5938 9.05273C15.9703 9.84606 16.6576 10.2334 17.6914 10.2334C18.0115 10.2333 18.3998 10.0913 18.8535 9.78516C19.0566 9.64818 19.1976 9.43655 19.2451 9.19629C19.2926 8.95593 19.2431 8.70594 19.1075 8.50195L17 5.34082C16.9859 5.31969 16.9668 5.30204 16.9444 5.29004C16.922 5.27808 16.8965 5.27153 16.8711 5.27148H7.12894Z" fill="#333333"/>
<path d="M16.8711 4.03516L16.8713 3.78226H16.8711V4.03516ZM17.5284 4.2002L17.6478 3.97732L17.6478 3.97728L17.5284 4.2002ZM18.0293 4.65527L17.8189 4.79549L17.8189 4.79554L18.0293 4.65527ZM20.1358 7.81543L19.9253 7.95569L19.9254 7.95572L20.1358 7.81543ZM20.459 9.43555L20.7071 9.48458L20.7071 9.48453L20.459 9.43555ZM19.544 10.8125L19.4027 10.6027L19.4025 10.6029L19.544 10.8125ZM19.3184 10.9561L19.1875 10.7396L19.0655 10.8134V10.9561H19.3184ZM19.3184 17.0254L19.5713 17.0254V17.0254H19.3184ZM16.5098 19.9629V20.2158H16.5098L16.5098 19.9629ZM4.93655 17.0254H4.68366V17.0254L4.93655 17.0254ZM4.93655 11.0996H5.18945V10.9466L5.05391 10.8756L4.93655 11.0996ZM4.45609 10.8125L4.59792 10.6031L4.59731 10.6027L4.45609 10.8125ZM3.54105 9.43555L3.29295 9.48454L3.29295 9.48458L3.54105 9.43555ZM3.86331 7.81543L3.65291 7.67512L3.65287 7.67518L3.86331 7.81543ZM5.97073 4.65527L6.18113 4.79558L6.1812 4.79549L5.97073 4.65527ZM6.47171 4.19922L6.35235 3.97627L6.35233 3.97628L6.47171 4.19922ZM7.12894 4.03516V3.78226H7.12893L7.12894 4.03516ZM14.9668 10.3467L15.1586 10.1818L14.9837 9.97844L14.791 10.1649L14.9668 10.3467ZM12.1045 11.4707L12.1045 11.7236H12.1045V11.4707ZM9.02347 10.3574L9.19802 10.1744L9.00622 9.99147L8.83248 10.1917L9.02347 10.3574ZM6.3096 11.4707V11.7236H6.30961L6.3096 11.4707ZM6.17386 11.4668L6.19126 11.2145L5.92097 11.1959V11.4668H6.17386ZM6.17386 17.0254H5.92097V17.0254L6.17386 17.0254ZM16.5098 18.7266V18.9795H16.5098L16.5098 18.7266ZM18.0821 17.0254L18.335 17.0254V17.0254H18.0821ZM18.0821 11.4395H18.335V11.1415L18.041 11.1899L18.0821 11.4395ZM17.6914 11.4707V11.7236H17.6915L17.6914 11.4707ZM14.4473 15.2471L14.4473 14.9942H14.4473V15.2471ZM14.8848 15.4287L15.0637 15.25L15.0636 15.2499L14.8848 15.4287ZM15.0655 15.8662L15.3184 15.8663V15.8662H15.0655ZM14.8848 16.3037L15.0636 16.4826L15.0636 16.4825L14.8848 16.3037ZM14.4473 16.4844V16.7373H14.4473L14.4473 16.4844ZM9.80765 16.4844L9.80757 16.7373H9.80765V16.4844ZM9.37015 16.3037L9.19133 16.4825L9.19135 16.4826L9.37015 16.3037ZM9.18948 15.8662H8.93659V15.8663L9.18948 15.8662ZM9.37015 15.4287L9.19133 15.2499L9.19122 15.25L9.37015 15.4287ZM9.80765 15.2471V14.9942H9.80757L9.80765 15.2471ZM7.12894 5.27148V5.01859L7.12761 5.0186L7.12894 5.27148ZM7.05569 5.29102L6.93516 5.0687L6.93448 5.06907L7.05569 5.29102ZM7.00101 5.3418L7.21139 5.48214L7.21219 5.48093L7.00101 5.3418ZM4.89359 8.50098L4.68321 8.36064L4.68308 8.36082L4.89359 8.50098ZM4.75589 9.19531L4.5078 9.24433L4.50781 9.24442L4.75589 9.19531ZM5.14749 9.78418L5.28892 9.57453L5.28887 9.5745L5.14749 9.78418ZM6.3096 10.2334V10.4863H6.30962L6.3096 10.2334ZM8.41214 9.04199L8.64097 9.14966L8.64101 9.14958L8.41214 9.04199ZM8.62601 8.79199L8.48481 8.58219L8.48469 8.58227L8.62601 8.79199ZM8.93948 8.6875V8.43426L8.92614 8.43496L8.93948 8.6875ZM8.94827 8.6875H9.20116V8.43461H8.94827V8.6875ZM8.94827 8.68848H8.69538V8.95077L8.9575 8.9412L8.94827 8.68848ZM9.26859 8.76465L9.39046 8.54306L9.39039 8.54302L9.26859 8.76465ZM9.50491 8.99414L9.72327 8.86657L9.72325 8.86653L9.50491 8.99414ZM12.1045 10.2334L12.1045 10.4863H12.1045V10.2334ZM14.5059 8.97559L14.7165 9.11573L14.7198 9.11046L14.5059 8.97559ZM14.75 8.75391L14.6358 8.52828L14.6357 8.52832L14.75 8.75391ZM15.0733 8.68848L15.0912 8.43622L15.0911 8.43622L15.0733 8.68848ZM15.3838 8.79883L15.5288 8.59163L15.5287 8.59155L15.3838 8.79883ZM15.5938 9.05273L15.363 9.15619L15.3653 9.16118L15.5938 9.05273ZM17.6914 10.2334V10.4863H17.6915L17.6914 10.2334ZM18.8535 9.78516L18.7121 9.57551L18.7121 9.57551L18.8535 9.78516ZM19.2451 9.19629L19.4932 9.24542L19.4932 9.24531L19.2451 9.19629ZM19.1075 8.50195L19.318 8.3619L19.3179 8.36167L19.1075 8.50195ZM17 5.34082L17.2104 5.20054L17.2104 5.20047L17 5.34082ZM16.9444 5.29004L17.0639 5.06716L17.0636 5.06705L16.9444 5.29004ZM16.8711 5.27148L16.8716 5.01859H16.8711V5.27148ZM16.8711 4.03516L16.871 4.28805C17.0585 4.28815 17.2438 4.33463 17.4089 4.42311L17.5284 4.2002L17.6478 3.97728C17.4091 3.84941 17.1419 3.78241 16.8713 3.78226L16.8711 4.03516ZM17.5284 4.2002L17.4089 4.42308C17.574 4.51164 17.7151 4.63967 17.8189 4.79549L18.0293 4.65527L18.2398 4.51506C18.0897 4.28984 17.8862 4.10509 17.6478 3.97732L17.5284 4.2002ZM18.0293 4.65527L17.8189 4.79554L19.9253 7.95569L20.1358 7.81543L20.3462 7.67517L18.2398 4.51501L18.0293 4.65527ZM20.1358 7.81543L19.9254 7.95572C20.2059 8.37649 20.3088 8.89082 20.2109 9.38656L20.459 9.43555L20.7071 9.48453C20.831 8.85721 20.7007 8.20684 20.3462 7.67514L20.1358 7.81543ZM20.459 9.43555L20.2109 9.38652C20.1129 9.88267 19.8221 10.3204 19.4027 10.6027L19.544 10.8125L19.6852 11.0223C20.2157 10.6652 20.5832 10.1118 20.7071 9.48458L20.459 9.43555ZM19.544 10.8125L19.4025 10.6029C19.333 10.6498 19.261 10.6952 19.1875 10.7396L19.3184 10.9561L19.4492 11.1725C19.5281 11.1248 19.6074 11.0748 19.6854 11.0221L19.544 10.8125ZM19.3184 10.9561H19.0655V17.0254H19.3184H19.5713V10.9561H19.3184ZM19.3184 17.0254L19.0655 17.0254C19.0653 18.5125 17.9181 19.71 16.5098 19.71L16.5098 19.9629L16.5098 20.2158C18.2204 20.2157 19.5711 18.7684 19.5713 17.0254L19.3184 17.0254ZM16.5098 19.9629V19.71H7.74612V19.9629V20.2158H16.5098V19.9629ZM7.74612 19.9629V19.71C6.33768 19.71 5.18963 18.5125 5.18945 17.0254L4.93655 17.0254L4.68366 17.0254C4.68388 18.7685 6.03562 20.2158 7.74612 20.2158V19.9629ZM4.93655 17.0254H5.18945V11.0996H4.93655H4.68366V17.0254H4.93655ZM4.93655 11.0996L5.05391 10.8756C4.89678 10.7933 4.74447 10.7024 4.59792 10.6031L4.45609 10.8125L4.31425 11.0219C4.47687 11.132 4.64554 11.2326 4.81919 11.3236L4.93655 11.0996ZM4.45609 10.8125L4.59731 10.6027C4.17793 10.3204 3.88719 9.88267 3.78914 9.38652L3.54105 9.43555L3.29295 9.48458C3.4169 10.1118 3.78437 10.6652 4.31486 11.0223L4.45609 10.8125ZM3.54105 9.43555L3.78915 9.38656C3.69123 8.89066 3.79349 8.3762 4.07375 7.95568L3.86331 7.81543L3.65287 7.67518C3.29841 8.20704 3.16915 8.85759 3.29295 9.48454L3.54105 9.43555ZM3.86331 7.81543L4.07371 7.95574L6.18113 4.79558L5.97073 4.65527L5.76034 4.51496L3.65291 7.67512L3.86331 7.81543ZM5.97073 4.65527L6.1812 4.79549C6.2855 4.63893 6.42629 4.51041 6.59109 4.42216L6.47171 4.19922L6.35233 3.97628C6.11308 4.10439 5.9101 4.29017 5.76027 4.51506L5.97073 4.65527ZM6.47171 4.19922L6.59107 4.42217C6.7559 4.33392 6.94079 4.28805 7.12894 4.28805L7.12894 4.03516L7.12893 3.78226C6.85869 3.78227 6.59165 3.84815 6.35235 3.97627L6.47171 4.19922ZM7.12894 4.03516V4.28805H16.8711V4.03516V3.78226H7.12894V4.03516ZM14.9668 10.3467L14.791 10.1649C14.0983 10.8351 13.1701 11.2178 12.1045 11.2178V11.4707V11.7236C13.2966 11.7236 14.3523 11.2931 15.1427 10.5284L14.9668 10.3467ZM12.1045 11.4707L12.1045 11.2178C10.9269 11.2178 9.89762 10.8418 9.19802 10.1744L9.02347 10.3574L8.84891 10.5404C9.66014 11.3143 10.8234 11.7236 12.1045 11.7236L12.1045 11.4707ZM9.02347 10.3574L8.83248 10.1917C8.24968 10.8631 7.39383 11.2178 6.30959 11.2178L6.3096 11.4707L6.30961 11.7236C7.50924 11.7235 8.51689 11.3269 9.21446 10.5232L9.02347 10.3574ZM6.3096 11.4707V11.2178C6.26735 11.2178 6.22781 11.217 6.19126 11.2145L6.17386 11.4668L6.15646 11.7191C6.2096 11.7228 6.26216 11.7236 6.3096 11.7236V11.4707ZM6.17386 11.4668H5.92097V17.0254H6.17386H6.42675V11.4668H6.17386ZM6.17386 17.0254L5.92097 17.0254C5.92119 18.0945 6.72902 18.9795 7.74612 18.9795V18.7266V18.4737C7.04226 18.4737 6.42692 17.8503 6.42675 17.0253L6.17386 17.0254ZM7.74612 18.7266V18.9795H16.5098V18.7266V18.4737H7.74612V18.7266ZM16.5098 18.7266L16.5098 18.9795C17.526 18.9794 18.3347 18.0946 18.335 17.0254L18.0821 17.0254L17.8292 17.0253C17.829 17.8502 17.2129 18.4736 16.5098 18.4737L16.5098 18.7266ZM18.0821 17.0254H18.335V11.4395H18.0821H17.8292V17.0254H18.0821ZM18.0821 11.4395L18.041 11.1899C17.9243 11.2091 17.8079 11.2178 17.6914 11.2178L17.6914 11.4707L17.6915 11.7236C17.8331 11.7236 17.9771 11.713 18.1232 11.689L18.0821 11.4395ZM17.6914 11.4707V11.2178C16.6011 11.2178 15.7414 10.8596 15.1586 10.1818L14.9668 10.3467L14.7751 10.5116C15.4727 11.323 16.4852 11.7236 17.6914 11.7236V11.4707ZM14.4473 15.2471L14.4473 15.5C14.5438 15.5 14.6371 15.5387 14.706 15.6075L14.8848 15.4287L15.0636 15.2499C14.9005 15.0868 14.6788 14.9942 14.4473 14.9942L14.4473 15.2471ZM14.8848 15.4287L14.7059 15.6074C14.7741 15.6757 14.8126 15.7688 14.8126 15.8662H15.0655H15.3184C15.3184 15.6357 15.2273 15.4137 15.0637 15.25L14.8848 15.4287ZM15.0655 15.8662L14.8126 15.8661C14.8125 15.9637 14.774 16.0569 14.706 16.1249L14.8848 16.3037L15.0636 16.4825C15.2275 16.3187 15.3182 16.0966 15.3184 15.8663L15.0655 15.8662ZM14.8848 16.3037L14.706 16.1248C14.6379 16.193 14.5448 16.2315 14.4473 16.2315L14.4473 16.4844L14.4473 16.7373C14.6778 16.7372 14.8998 16.6463 15.0636 16.4826L14.8848 16.3037ZM14.4473 16.4844V16.2315H9.80765V16.4844V16.7373H14.4473V16.4844ZM9.80765 16.4844L9.80773 16.2315C9.71017 16.2315 9.61705 16.193 9.54895 16.1249L9.37015 16.3037L9.19135 16.4826C9.35515 16.6463 9.57721 16.7372 9.80757 16.7373L9.80765 16.4844ZM9.37015 16.3037L9.54897 16.1249C9.48094 16.0569 9.44242 15.9637 9.44238 15.8661L9.18948 15.8662L8.93659 15.8663C8.93671 16.0966 9.02749 16.3187 9.19133 16.4825L9.37015 16.3037ZM9.18948 15.8662H9.44238C9.44238 15.7689 9.48089 15.6757 9.54907 15.6074L9.37015 15.4287L9.19122 15.25C9.02771 15.4137 8.93659 15.6357 8.93659 15.8662H9.18948ZM9.37015 15.4287L9.54897 15.6075C9.61777 15.5387 9.71114 15.5 9.80773 15.5L9.80765 15.2471L9.80757 14.9942C9.57618 14.9943 9.35444 15.0868 9.19133 15.2499L9.37015 15.4287ZM9.80765 15.2471V15.5H14.4473V15.2471V14.9942H9.80765V15.2471ZM7.12894 5.27148L7.12761 5.0186C7.0557 5.01897 6.9897 5.03913 6.93516 5.0687L7.05569 5.29102L7.17623 5.51333C7.16647 5.51863 7.15124 5.52426 7.13027 5.52437L7.12894 5.27148ZM7.05569 5.29102L6.93448 5.06907C6.87403 5.10208 6.82527 5.14887 6.78983 5.20267L7.00101 5.3418L7.21219 5.48093C7.20459 5.49246 7.19295 5.5042 7.17691 5.51296L7.05569 5.29102ZM7.00101 5.3418L6.79063 5.20146L4.68321 8.36064L4.89359 8.50098L5.10396 8.64132L7.21139 5.48214L7.00101 5.3418ZM4.89359 8.50098L4.68308 8.36082C4.51008 8.62067 4.44736 8.93849 4.5078 9.24433L4.75589 9.19531L5.00398 9.14629C4.96938 8.97114 5.00537 8.7894 5.10409 8.64113L4.89359 8.50098ZM4.75589 9.19531L4.50781 9.24442C4.5684 9.5505 4.74773 9.81964 5.00611 9.99386L5.14749 9.78418L5.28887 9.5745C5.14091 9.47473 5.03854 9.32087 5.00397 9.14621L4.75589 9.19531ZM5.14749 9.78418L5.00606 9.99383C5.47962 10.3133 5.91857 10.4863 6.3096 10.4863V10.2334V9.98051C6.06197 9.98051 5.72308 9.86741 5.28892 9.57453L5.14749 9.78418ZM6.3096 10.2334L6.30962 10.4863C6.85968 10.4863 7.3372 10.3827 7.73379 10.1577C8.13309 9.93126 8.43306 9.59152 8.64097 9.14966L8.41214 9.04199L8.18331 8.93432C8.01469 9.29269 7.78254 9.54861 7.48427 9.71778C7.1833 9.88848 6.79781 9.98048 6.30958 9.98051L6.3096 10.2334ZM8.41214 9.04199L8.64101 9.14958C8.66931 9.08936 8.71298 9.03833 8.76733 9.00171L8.62601 8.79199L8.48469 8.58227C8.35377 8.67049 8.25 8.79246 8.18327 8.93441L8.41214 9.04199ZM8.62601 8.79199L8.76721 9.00179C8.82175 8.96509 8.88631 8.94355 8.95283 8.94004L8.93948 8.6875L8.92614 8.43496C8.76909 8.44326 8.616 8.49389 8.48481 8.58219L8.62601 8.79199ZM8.93948 8.6875V8.94039H8.94827V8.6875V8.43461H8.93948V8.6875ZM8.94827 8.6875H8.69538V8.68848H8.94827H9.20116V8.6875H8.94827ZM8.94827 8.68848L8.9575 8.9412C9.02333 8.9388 9.08864 8.95432 9.14678 8.98627L9.26859 8.76465L9.39039 8.54302C9.25254 8.46726 9.09671 8.43 8.93904 8.43575L8.94827 8.68848ZM9.26859 8.76465L9.14671 8.98624C9.20538 9.0185 9.25365 9.06541 9.28658 9.12175L9.50491 8.99414L9.72325 8.86653C9.64333 8.7298 9.52775 8.61857 9.39046 8.54306L9.26859 8.76465ZM9.50491 8.99414L9.28656 9.12171C9.79864 9.9982 10.8563 10.4863 12.1045 10.4863L12.1045 10.2334L12.1045 9.98051C10.9744 9.98047 10.1174 9.54111 9.72327 8.86657L9.50491 8.99414ZM12.1045 10.2334V10.4863C13.2181 10.4863 14.1382 9.98467 14.7164 9.11568L14.5059 8.97559L14.2954 8.83549C13.8127 9.56078 13.0522 9.98051 12.1045 9.98051V10.2334ZM14.5059 8.97559L14.7198 9.11046C14.7547 9.05512 14.8047 9.00972 14.8643 8.9795L14.75 8.75391L14.6357 8.52832C14.4958 8.59923 14.3764 8.70676 14.292 8.84071L14.5059 8.97559ZM14.75 8.75391L14.8643 8.97953C14.9236 8.94948 14.9898 8.93609 15.0554 8.94074L15.0733 8.68848L15.0911 8.43622C14.9335 8.42505 14.7761 8.45725 14.6358 8.52828L14.75 8.75391ZM15.0733 8.68848L15.0553 8.94073C15.1208 8.94538 15.1844 8.96795 15.2389 9.0061L15.3838 8.79883L15.5287 8.59155C15.4 8.50156 15.2488 8.44743 15.0912 8.43622L15.0733 8.68848ZM15.3838 8.79883L15.2388 9.00603C15.293 9.04396 15.336 9.09593 15.363 9.15617L15.5938 9.05273L15.8246 8.9493C15.7601 8.80552 15.6578 8.68188 15.5288 8.59163L15.3838 8.79883ZM15.5938 9.05273L15.3653 9.16118C15.5735 9.59977 15.8736 9.93658 16.2721 10.1609C16.6678 10.3837 17.1438 10.4863 17.6914 10.4863V10.2334V9.98051C17.2053 9.98051 16.8207 9.88939 16.5202 9.7202C16.2224 9.55255 15.9906 9.29903 15.8222 8.94429L15.5938 9.05273ZM17.6914 10.2334L17.6915 10.4863C18.0829 10.4862 18.5211 10.3145 18.995 9.9948L18.8535 9.78516L18.7121 9.57551C18.2784 9.8681 17.9401 9.98046 17.6914 9.98051L17.6914 10.2334ZM18.8535 9.78516L18.995 9.9948C19.2532 9.82062 19.4326 9.55139 19.4932 9.24542L19.2451 9.19629L18.9971 9.14716C18.9625 9.32171 18.86 9.47574 18.7121 9.57551L18.8535 9.78516ZM19.2451 9.19629L19.4932 9.24531C19.5537 8.93953 19.4907 8.62156 19.318 8.3619L19.1075 8.50195L18.8969 8.64201C18.9955 8.79033 19.0316 8.97234 18.9971 9.14727L19.2451 9.19629ZM19.1075 8.50195L19.3179 8.36167L17.2104 5.20054L17 5.34082L16.7896 5.4811L18.897 8.64223L19.1075 8.50195ZM17 5.34082L17.2104 5.20047C17.1739 5.14576 17.1239 5.09934 17.0639 5.06716L16.9444 5.29004L16.8249 5.51292C16.8096 5.50474 16.798 5.49362 16.7897 5.48117L17 5.34082ZM16.9444 5.29004L17.0636 5.06705C17.0055 5.03593 16.9392 5.01872 16.8716 5.01859L16.8711 5.27148L16.8707 5.52438C16.8537 5.52434 16.8386 5.52024 16.8251 5.51303L16.9444 5.29004ZM16.8711 5.27148V5.01859H7.12894V5.27148V5.52438H16.8711V5.27148Z" fill="#333333" mask="url(#path-1-outside-1_275_26921)"/>
</svg>
