<svg width="18" height="18" viewBox="0 0 18 18" fill="none" xmlns="http://www.w3.org/2000/svg">
<g clip-path="url(#clip0_275_27104)">
<path d="M0.259783 10.4063C0.342485 10.826 0.456584 11.239 0.601118 11.6416H1.31288L0.742697 12.0121C0.952152 12.5183 1.20621 12.9992 1.50292 13.453L4.28599 11.6397H6.29326L2.16427 14.3316C2.28432 14.471 2.40849 14.6068 2.53663 14.7389L6.35725 12.2487V17.0273C6.6956 17.1233 7.03952 17.1984 7.38707 17.2523V10.4063H0.259783ZM10.0673 17.2542C10.4148 17.2004 10.7588 17.1252 11.0971 17.0293V12.303L14.8867 14.7718C15.2746 14.3762 15.6256 13.9437 15.934 13.4783L13.1102 11.6397H15.1175L16.477 12.526C16.5526 12.3708 16.6244 12.2138 16.6903 12.0547L16.0542 11.6397H16.8513C16.9961 11.2371 17.1102 10.8241 17.1926 10.4043H10.0673V17.2542ZM7.38707 0.199219C7.03952 0.253083 6.6956 0.328213 6.35725 0.424185V5.3037L2.47651 2.77474C2.11191 3.15874 1.78221 3.5757 1.4913 4.01982L4.24136 5.81183H2.23409L0.952152 4.97595C0.866708 5.1543 0.787148 5.33541 0.713601 5.51899L1.16355 5.81183H0.601101C0.457578 6.2094 0.343169 6.62251 0.259766 7.04529H7.38707V0.199219ZM17.1946 7.04723C17.1112 6.62443 16.9967 6.21134 16.8532 5.81377H16.2094L16.7252 5.47825C16.5197 4.97207 16.2656 4.48917 15.9728 4.03535L13.244 5.81377H11.2348L15.3172 3.15292C15.197 3.01134 15.0748 2.87559 14.9449 2.74177L11.0971 5.2494V0.426128C10.7588 0.330156 10.4148 0.255026 10.0673 0.201162V7.04721H17.1946V7.04723Z" fill="white"/>
<path d="M0.601562 11.6413C0.64617 11.7674 0.694648 11.8895 0.745085 12.0117L1.31526 11.6413H0.601562ZM0.712102 5.51862C0.673242 5.61546 0.636387 5.7131 0.601562 5.81146H1.16205L0.712102 5.51862ZM14.9453 2.74141C13.9039 1.65922 12.5812 0.84856 11.0976 0.425781V5.24903L14.9453 2.74141ZM6.35769 0.425781C4.8566 0.852429 3.52423 1.67668 2.47695 2.77437L6.35769 5.30334V0.425781ZM2.53706 14.7385C3.57463 15.8071 4.88566 16.608 6.35768 17.027V12.2483L2.53706 14.7385ZM16.8537 5.81339C16.8131 5.70079 16.7704 5.58893 16.7257 5.47787L16.2098 5.81339H16.8537ZM11.0976 17.027C12.5541 16.6119 13.8534 15.8246 14.8871 14.7715L11.0976 12.3026V17.027ZM16.6927 12.0544C16.7496 11.9173 16.8032 11.7789 16.8537 11.6393H16.0566L16.6927 12.0544Z" fill="#002377"/>
<path d="M10.0681 17.2555V10.4094H17.1953C17.302 9.86643 17.3582 9.30399 17.3582 8.72994C17.3582 8.15588 17.302 7.59345 17.1953 7.05042H10.0681V0.204347C9.64395 0.13772 9.21541 0.10336 8.78612 0.101562H8.66976C8.2334 0.103489 7.80479 0.140341 7.38783 0.204347V7.0504H0.260543C0.153872 7.59343 0.0976562 8.15586 0.0976562 8.72992C0.0976562 9.30398 0.153906 9.86641 0.26056 10.4094H7.38783V17.2555C7.80674 17.3214 8.2334 17.3563 8.66976 17.3583H8.78419C9.22055 17.3544 9.64914 17.3195 10.0681 17.2555Z" fill="#FF513B"/>
<path d="M13.1112 11.6411L15.933 13.4796C16.1347 13.1751 16.317 12.8571 16.4799 12.5274L15.1204 11.6411H13.1112ZM13.2431 5.81516L15.9718 4.03674C15.7723 3.7289 15.5534 3.43415 15.3163 3.1543L11.2358 5.81518H13.2431V5.81516ZM4.24233 5.81516L1.49226 4.02317C1.29251 4.32958 1.11215 4.64959 0.951172 4.97929L2.23311 5.81516H4.24233ZM4.28693 11.6411L1.50585 13.4525C1.70753 13.7589 1.92863 14.0537 2.16523 14.331L6.29421 11.6391H4.28693V11.6411Z" fill="#FF513B"/>
</g>
<defs>
<clipPath id="clip0_275_27104">
<rect width="17.4545" height="17.4545" fill="white"/>
</clipPath>
</defs>
</svg>
