<svg width="18" height="18" viewBox="0 0 18 18" fill="none" xmlns="http://www.w3.org/2000/svg">
<g clip-path="url(#clip0_275_27088)">
<path d="M9 18C4.0293 18 0 13.9707 0 9C0 4.02975 4.0293 0 9 0C13.9707 0 18 4.02975 18 9C18 13.9707 13.9707 18 9 18Z" fill="#002F9F"/>
<path d="M6.0668 2.84858L6.2459 3.38588C6.25017 3.39886 6.25843 3.41015 6.2695 3.41815C6.28057 3.42616 6.29389 3.43045 6.30755 3.43043H6.87275C6.88631 3.43063 6.89947 3.43508 6.91036 3.44316C6.92126 3.45123 6.92935 3.46252 6.9335 3.47543C6.9376 3.48829 6.93764 3.5021 6.93361 3.51498C6.92958 3.52787 6.92169 3.5392 6.911 3.54743L6.4538 3.87998C6.44289 3.88806 6.43478 3.89934 6.43059 3.91224C6.42639 3.92515 6.42633 3.93904 6.4304 3.95198L6.6095 4.48973C6.61354 4.50276 6.61337 4.51674 6.60901 4.52967C6.60465 4.5426 6.59631 4.55382 6.5852 4.56173C6.5741 4.56985 6.5607 4.57423 6.54695 4.57423C6.53319 4.57423 6.5198 4.56985 6.5087 4.56173L6.0515 4.23008C6.04034 4.2221 6.02697 4.2178 6.01325 4.2178C5.99953 4.2178 5.98615 4.2221 5.975 4.23008L5.51825 4.56218C5.51361 4.56942 5.50759 4.57568 5.50053 4.58059C5.49348 4.5855 5.48552 4.58898 5.47712 4.59082C5.46872 4.59265 5.46004 4.59282 5.45158 4.5913C5.44312 4.58979 5.43504 4.58662 5.4278 4.58198C5.42056 4.57734 5.4143 4.57132 5.40939 4.56427C5.40448 4.55721 5.401 4.54926 5.39916 4.54086C5.39733 4.53246 5.39716 4.52378 5.39867 4.51532C5.40019 4.50685 5.40336 4.49877 5.408 4.49153L5.5871 3.95423C5.59127 3.94123 5.59126 3.92724 5.58706 3.91424C5.58286 3.90124 5.57469 3.88989 5.5637 3.88178L5.10245 3.55148C5.07995 3.53438 5.07185 3.50558 5.07995 3.47903C5.08411 3.46605 5.09227 3.4547 5.10326 3.44662C5.11425 3.43854 5.12751 3.43414 5.14115 3.43403H5.7059C5.73425 3.43403 5.759 3.41603 5.768 3.38903L5.94665 2.85218C5.95136 2.84041 5.95941 2.83027 5.9698 2.823C5.98019 2.81572 5.99247 2.81164 6.00515 2.81123C6.01796 2.81071 6.03063 2.81398 6.0416 2.82062C6.05256 2.82726 6.06133 2.83699 6.0668 2.84858ZM3.8123 5.01083L3.9914 5.54813C4.0004 5.57468 4.02515 5.59268 4.05305 5.59268H4.61825C4.63184 5.59299 4.645 5.59747 4.65595 5.60552C4.6669 5.61357 4.6751 5.6248 4.67945 5.63768C4.68355 5.65054 4.68359 5.66435 4.67956 5.67723C4.67553 5.69012 4.66764 5.70145 4.65695 5.70968L4.1993 6.04223C4.18839 6.05031 4.18028 6.06159 4.17609 6.07449C4.17189 6.0874 4.17183 6.10129 4.1759 6.11423L4.355 6.65198C4.35894 6.66502 4.3587 6.67896 4.35432 6.69185C4.34994 6.70474 4.34164 6.71594 4.33058 6.72388C4.31951 6.73181 4.30624 6.73609 4.29263 6.73611C4.27901 6.73613 4.26573 6.73189 4.25465 6.72398L3.79745 6.39233C3.78629 6.38435 3.77292 6.38005 3.7592 6.38005C3.74548 6.38005 3.7321 6.38435 3.72095 6.39233L3.25925 6.72713C3.24808 6.73482 3.23481 6.73887 3.22125 6.73872C3.2077 6.73857 3.19452 6.73422 3.18353 6.72629C3.17254 6.71835 3.16427 6.70721 3.15986 6.69439C3.15545 6.68157 3.15511 6.6677 3.1589 6.65468L3.338 6.11738C3.34224 6.10438 3.34226 6.09037 3.33806 6.07736C3.33386 6.06435 3.32564 6.05299 3.3146 6.04493L2.8574 5.71283C2.8465 5.70466 2.83843 5.69329 2.83433 5.6803C2.83022 5.66732 2.83028 5.65337 2.8345 5.64042C2.83871 5.62747 2.84688 5.61616 2.85784 5.60809C2.86881 5.60001 2.88203 5.59557 2.89565 5.59538H3.46085C3.48875 5.59538 3.5135 5.57738 3.5225 5.55038L3.7016 5.01353C3.70714 5.00389 3.71508 4.99584 3.72464 4.99015C3.7342 4.98446 3.74507 4.98133 3.75619 4.98106C3.76731 4.98079 3.77831 4.98339 3.78814 4.9886C3.79797 4.99381 3.80629 5.00147 3.8123 5.01083ZM2.9906 8.02808L3.1697 8.56538C3.1787 8.59193 3.20345 8.60993 3.23135 8.60993H3.7961C3.80437 8.60358 3.81405 8.59931 3.82432 8.59747C3.83459 8.59563 3.84515 8.59628 3.85511 8.59937C3.86508 8.60245 3.87416 8.60788 3.88159 8.6152C3.88903 8.62252 3.8946 8.63151 3.89784 8.64142C3.90108 8.65134 3.9019 8.66189 3.90022 8.67218C3.89854 8.68248 3.89442 8.69222 3.88821 8.7006C3.88199 8.70897 3.87385 8.71573 3.86448 8.72032C3.85511 8.7249 3.84478 8.72717 3.83435 8.72693L3.3767 9.05948C3.36593 9.06766 3.35794 9.07897 3.35383 9.09185C3.34973 9.10474 3.3497 9.11858 3.35375 9.13148L3.53285 9.66923C3.5365 9.68222 3.53606 9.69602 3.5316 9.70875C3.52713 9.72148 3.51886 9.73253 3.5079 9.74039C3.49694 9.74826 3.48382 9.75256 3.47033 9.75271C3.45684 9.75286 3.44363 9.74885 3.4325 9.74123L2.97485 9.40958C2.96377 9.4014 2.95037 9.39698 2.9366 9.39698C2.92283 9.39698 2.90942 9.4014 2.89835 9.40958L2.44115 9.74168C2.43 9.74974 2.41658 9.75403 2.40282 9.75395C2.38907 9.75387 2.3757 9.74942 2.36465 9.74123C2.35369 9.7332 2.34554 9.72193 2.34134 9.70901C2.33714 9.69609 2.33711 9.68217 2.34125 9.66923L2.52035 9.13193C2.52452 9.11893 2.52451 9.10494 2.52031 9.09194C2.51611 9.07894 2.50794 9.06759 2.49695 9.05948L2.0258 8.72648C2.01496 8.71826 2.00697 8.70685 2.00294 8.69386C1.9989 8.68087 1.99903 8.66695 2.0033 8.65403C2.00746 8.64105 2.01562 8.6297 2.02661 8.62162C2.0376 8.61354 2.05086 8.60914 2.0645 8.60903H2.6315C2.6603 8.60903 2.68505 8.59103 2.69405 8.56403L2.8727 8.02718C2.87816 8.01616 2.88665 8.00693 2.89717 8.00055C2.90768 7.99418 2.9198 7.99093 2.9321 7.99118C2.95685 7.99118 2.97935 8.00558 2.99015 8.02808M3.81185 11.0408L3.99095 11.5777C3.99995 11.6047 4.0247 11.6227 4.0526 11.6227H4.6178C4.62606 11.6163 4.63572 11.6121 4.64596 11.6102C4.65621 11.6084 4.66675 11.609 4.67671 11.6121C4.68666 11.6151 4.69574 11.6205 4.70318 11.6278C4.71062 11.6351 4.71621 11.6441 4.71948 11.654C4.72275 11.6638 4.7236 11.6744 4.72198 11.6846C4.72035 11.6949 4.71628 11.7047 4.71011 11.7131C4.70395 11.7215 4.69587 11.7283 4.68654 11.7329C4.67721 11.7375 4.66691 11.7398 4.6565 11.7397L4.19885 12.0722C4.18794 12.0803 4.17983 12.0916 4.17564 12.1045C4.17144 12.1174 4.17138 12.1313 4.17545 12.1442L4.35455 12.682C4.35849 12.695 4.35825 12.709 4.35387 12.7218C4.34949 12.7347 4.34119 12.7459 4.33013 12.7539C4.31906 12.7618 4.30579 12.7661 4.29218 12.7661C4.27856 12.7661 4.26528 12.7619 4.2542 12.754L3.797 12.4219C3.78574 12.4141 3.77241 12.41 3.75875 12.41C3.74509 12.41 3.73175 12.4141 3.7205 12.4219L3.2588 12.7571C3.2476 12.7649 3.23427 12.769 3.22064 12.7688C3.20702 12.7687 3.19378 12.7643 3.18275 12.7563C3.17173 12.7483 3.16347 12.737 3.15912 12.7241C3.15476 12.7112 3.15453 12.6973 3.15845 12.6842L3.33755 12.1474C3.34182 12.1343 3.34187 12.1202 3.33766 12.1071C3.33346 12.094 3.32523 12.0826 3.31415 12.0745L2.85695 11.7428C2.84605 11.7347 2.83798 11.7233 2.83388 11.7103C2.82977 11.6973 2.82983 11.6834 2.83405 11.6704C2.83826 11.6575 2.84643 11.6462 2.85739 11.6381C2.86836 11.63 2.88158 11.6256 2.8952 11.6254H3.4604C3.47406 11.6252 3.48733 11.6207 3.49837 11.6127C3.50941 11.6046 3.51768 11.5933 3.52205 11.5804L3.70115 11.0435C3.70669 11.0339 3.71463 11.0258 3.72419 11.0201C3.73375 11.0145 3.74462 11.0113 3.75574 11.0111C3.76686 11.0108 3.77786 11.0134 3.78769 11.0186C3.79752 11.0238 3.80584 11.0315 3.81185 11.0408ZM5.975 13.3102L6.1541 13.8475C6.1631 13.874 6.18785 13.8925 6.2162 13.8925H6.78095C6.80795 13.8925 6.83315 13.9105 6.8417 13.937C6.8507 13.9636 6.8417 13.9928 6.8192 14.009L6.362 14.342C6.35099 14.35 6.34279 14.3613 6.33859 14.3742C6.33438 14.3872 6.33439 14.4011 6.3386 14.414L6.5177 14.9513C6.52174 14.9644 6.52157 14.9783 6.51721 14.9913C6.51285 15.0042 6.50451 15.0154 6.4934 15.0233C6.4823 15.0315 6.4689 15.0358 6.45515 15.0358C6.44139 15.0358 6.428 15.0315 6.4169 15.0233L5.96015 14.6917C5.94897 14.6838 5.9356 14.6795 5.9219 14.6795C5.90819 14.6795 5.89483 14.6838 5.88365 14.6917L5.42645 15.0238C5.4153 15.0318 5.40188 15.0361 5.38812 15.0361C5.37437 15.036 5.361 15.0315 5.34995 15.0233C5.3388 15.0155 5.33048 15.0042 5.32618 14.9913C5.32189 14.9783 5.32186 14.9643 5.3261 14.9513L5.5052 14.414C5.50941 14.4011 5.50941 14.3872 5.50521 14.3742C5.501 14.3613 5.49281 14.35 5.4818 14.342L5.0246 14.009C5.01377 14.0009 5.00575 13.9896 5.00164 13.9767C4.99753 13.9638 4.99753 13.9499 5.00165 13.937C5.00587 13.9241 5.01405 13.9128 5.02502 13.9047C5.036 13.8966 5.04923 13.8922 5.06285 13.892H5.6276C5.64136 13.892 5.65475 13.8876 5.66589 13.8795C5.67704 13.8715 5.68536 13.8601 5.6897 13.847L5.8688 13.3102C5.87483 13.3017 5.8828 13.2948 5.89204 13.2901C5.90127 13.2853 5.91151 13.2829 5.9219 13.2829C5.93228 13.2829 5.94252 13.2853 5.95176 13.2901C5.96099 13.2948 5.96896 13.3017 5.975 13.3102ZM9.00485 14.0864L9.18395 14.6237C9.18826 14.6367 9.19652 14.648 9.20757 14.6561C9.21862 14.6642 9.23191 14.6686 9.2456 14.6687H9.8108C9.82429 14.669 9.83737 14.6734 9.84825 14.6814C9.85913 14.6893 9.86727 14.7005 9.87155 14.7133C9.87565 14.7261 9.87569 14.74 9.87166 14.7528C9.86763 14.7657 9.85974 14.777 9.84905 14.7853L9.39185 15.1178C9.38078 15.1258 9.37255 15.137 9.36834 15.15C9.36413 15.1629 9.36417 15.1769 9.36845 15.1898L9.54755 15.7276C9.55149 15.7406 9.55125 15.7546 9.54687 15.7674C9.54249 15.7803 9.53419 15.7915 9.52313 15.7995C9.51206 15.8074 9.49879 15.8117 9.48518 15.8117C9.47156 15.8117 9.45828 15.8075 9.4472 15.7996L8.98955 15.4679C8.97839 15.4599 8.96502 15.4557 8.9513 15.4557C8.93758 15.4557 8.9242 15.4599 8.91305 15.4679L8.4518 15.8018C8.44063 15.8095 8.42736 15.8136 8.4138 15.8134C8.40025 15.8133 8.38707 15.8089 8.37608 15.801C8.36509 15.7931 8.35682 15.7819 8.35241 15.7691C8.348 15.7563 8.34766 15.7424 8.35145 15.7294L8.53055 15.1921C8.53472 15.1791 8.53471 15.1651 8.53051 15.1521C8.52631 15.1391 8.51814 15.1277 8.50715 15.1196L8.0495 14.7875C8.03875 14.7793 8.03084 14.7679 8.02686 14.755C8.02288 14.742 8.02303 14.7281 8.02728 14.7153C8.03153 14.7024 8.03968 14.6912 8.0506 14.6832C8.06151 14.6752 8.07465 14.6707 8.0882 14.6705H8.65295C8.66665 14.6705 8.67997 14.6661 8.69104 14.658C8.7021 14.6499 8.71035 14.6386 8.7146 14.6255L8.8937 14.0882C8.89943 14.0787 8.90754 14.0707 8.91724 14.0652C8.92693 14.0597 8.93789 14.0568 8.94905 14.0567C8.96011 14.0565 8.97105 14.0591 8.98081 14.0643C8.99058 14.0695 8.99886 14.0771 9.00485 14.0864ZM12.0329 13.3102L12.212 13.8475C12.2205 13.874 12.2453 13.8925 12.2736 13.8925H12.8384C12.8521 13.8924 12.8654 13.8967 12.8765 13.9047C12.8876 13.9127 12.8959 13.9239 12.9002 13.9369C12.9045 13.9499 12.9046 13.9639 12.9004 13.977C12.8963 13.99 12.8881 14.0014 12.8771 14.0095L12.4194 14.342C12.4084 14.35 12.4002 14.3613 12.396 14.3742C12.3918 14.3872 12.3918 14.4011 12.396 14.414L12.5751 14.9513C12.5793 14.9643 12.5792 14.9783 12.575 14.9912C12.5707 15.0042 12.5624 15.0154 12.5513 15.0233C12.5402 15.0315 12.5268 15.0358 12.513 15.0358C12.4993 15.0358 12.4859 15.0315 12.4748 15.0233L12.0176 14.6917C12.0064 14.6837 11.9931 14.6794 11.9793 14.6794C11.9656 14.6794 11.9523 14.6837 11.9411 14.6917L11.4839 15.0238C11.4808 15.0337 11.4754 15.0427 11.4682 15.05C11.4609 15.0574 11.452 15.063 11.4422 15.0662C11.4324 15.0695 11.422 15.0704 11.4117 15.0688C11.4015 15.0673 11.3918 15.0633 11.3834 15.0572C11.375 15.0512 11.3682 15.0432 11.3635 15.034C11.3588 15.0248 11.3564 15.0146 11.3564 15.0042C11.3564 14.9939 11.3588 14.9837 11.3636 14.9745C11.3683 14.9653 11.3751 14.9574 11.3835 14.9513L11.5626 14.414C11.5668 14.4011 11.5669 14.3873 11.5628 14.3743C11.5586 14.3614 11.5506 14.3501 11.5397 14.342L11.082 14.009C11.0714 14.0008 11.0635 13.9895 11.0594 13.9766C11.0554 13.9637 11.0554 13.9499 11.0595 13.937C11.0636 13.9241 11.0717 13.9128 11.0826 13.9047C11.0935 13.8966 11.1067 13.8922 11.1203 13.892H11.6747C11.6884 13.892 11.7017 13.8876 11.7128 13.8795C11.7239 13.8714 11.7321 13.8601 11.7363 13.847L11.9154 13.3102C11.921 13.2994 11.9293 13.2904 11.9397 13.284C11.95 13.2777 11.9618 13.2744 11.9739 13.2744C11.986 13.2744 11.9979 13.2777 12.0082 13.284C12.0186 13.2904 12.0269 13.2994 12.0324 13.3102M14.2433 11.0408L14.4224 11.5777C14.4314 11.6047 14.4561 11.6227 14.484 11.6227H15.0492C15.0628 11.623 15.0758 11.6275 15.0867 11.6355C15.0975 11.6436 15.1056 11.6548 15.1098 11.6676C15.114 11.6805 15.1141 11.6943 15.1101 11.7072C15.1061 11.7201 15.0982 11.7315 15.0875 11.7397L14.6294 12.0736C14.6184 12.0818 14.6103 12.0932 14.6061 12.1063C14.6019 12.1194 14.6019 12.1334 14.606 12.1465L14.7851 12.6833C14.789 12.6964 14.7888 12.7103 14.7844 12.7232C14.7801 12.7361 14.7718 12.7474 14.7608 12.7554C14.7498 12.7634 14.7365 12.7678 14.7229 12.7679C14.7093 12.7681 14.6959 12.764 14.6847 12.7562L14.2271 12.4232C14.2159 12.4152 14.2026 12.411 14.1888 12.411C14.1751 12.411 14.1618 12.4152 14.1506 12.4232L13.6934 12.7562C13.6822 12.7641 13.6689 12.7683 13.6552 12.7682C13.6416 12.7681 13.6283 12.7637 13.6173 12.7557C13.6062 12.7476 13.598 12.7363 13.5937 12.7233C13.5895 12.7103 13.5894 12.6964 13.5935 12.6833L13.7726 12.1465C13.7767 12.1334 13.7767 12.1194 13.7725 12.1063C13.7683 12.0932 13.7602 12.0818 13.7492 12.0736L13.2915 11.7419C13.2812 11.742 13.271 11.7396 13.2617 11.7349C13.2525 11.7303 13.2445 11.7235 13.2384 11.7151C13.2323 11.7067 13.2282 11.697 13.2266 11.6868C13.225 11.6766 13.2259 11.6661 13.2291 11.6563C13.2324 11.6464 13.2379 11.6375 13.2453 11.6302C13.2527 11.623 13.2617 11.6175 13.2715 11.6144C13.2814 11.6113 13.2919 11.6106 13.3021 11.6124C13.3123 11.6141 13.322 11.6183 13.3302 11.6245H13.895C13.9087 11.6244 13.922 11.62 13.9331 11.6119C13.9442 11.6039 13.9524 11.5925 13.9566 11.5795L14.1357 11.0422C14.1417 11.0335 14.1497 11.0263 14.159 11.0213C14.1684 11.0163 14.1787 11.0136 14.1893 11.0134C14.2104 11.0134 14.2307 11.0233 14.2433 11.0404M14.9871 8.07173L15.1662 8.60903C15.1752 8.63558 15.2 8.65358 15.2279 8.65358H15.7931C15.8066 8.65398 15.8197 8.6585 15.8305 8.66655C15.8414 8.67459 15.8495 8.68577 15.8538 8.69858C15.8628 8.72513 15.8538 8.75438 15.8313 8.77058L15.3723 9.10223C15.3614 9.11046 15.3532 9.12189 15.349 9.13495C15.3448 9.14801 15.3448 9.16205 15.3489 9.17513L15.528 9.71198C15.5319 9.72503 15.5316 9.73894 15.5273 9.75182C15.5229 9.7647 15.5147 9.77593 15.5037 9.78398C15.4926 9.79197 15.4792 9.79627 15.4655 9.79627C15.4518 9.79627 15.4384 9.79197 15.4272 9.78398L14.9705 9.45233C14.9593 9.44441 14.9459 9.44015 14.9322 9.44015C14.9185 9.44015 14.9052 9.44441 14.894 9.45233L14.4368 9.78443C14.4256 9.79242 14.4123 9.79671 14.3985 9.79671C14.3848 9.79671 14.3715 9.79242 14.3603 9.78443C14.3492 9.77643 14.3409 9.76511 14.3366 9.75209C14.3323 9.73907 14.3322 9.72503 14.3364 9.71198L14.5155 9.17513C14.5197 9.16205 14.5197 9.14801 14.5155 9.13495C14.5113 9.12189 14.5031 9.11046 14.4921 9.10223L14.0349 8.77013C14.024 8.76207 14.016 8.75075 14.0119 8.73781C14.0079 8.72486 14.0081 8.71097 14.0124 8.69813C14.021 8.67113 14.0453 8.65313 14.0732 8.65268H14.6294C14.6573 8.65268 14.682 8.63468 14.691 8.60768L14.8697 8.07083C14.8752 8.06005 14.8836 8.05099 14.8939 8.04464C14.9042 8.0383 14.9161 8.0349 14.9282 8.03483C14.9404 8.03499 14.9523 8.03852 14.9627 8.04503C14.973 8.05154 14.9813 8.06078 14.9867 8.07173M14.1974 5.01083L14.3765 5.54813C14.3855 5.57468 14.4102 5.59268 14.4381 5.59268H15.0033C15.0169 5.59299 15.0301 5.59747 15.041 5.60552C15.052 5.61357 15.0602 5.6248 15.0645 5.63768C15.0686 5.65054 15.0687 5.66435 15.0647 5.67723C15.0606 5.69012 15.0527 5.70145 15.042 5.70968L14.5844 6.04223C14.5735 6.05031 14.5654 6.06159 14.5612 6.07449C14.557 6.0874 14.5569 6.10129 14.561 6.11423L14.7401 6.65198C14.7439 6.665 14.7435 6.67887 14.7391 6.69169C14.7347 6.70451 14.7265 6.71565 14.7155 6.72359C14.7045 6.73152 14.6913 6.73587 14.6777 6.73602C14.6642 6.73617 14.6509 6.73212 14.6397 6.72443L14.1825 6.39233C14.1714 6.38435 14.158 6.38005 14.1443 6.38005C14.1306 6.38005 14.1172 6.38435 14.106 6.39233L13.6443 6.72713C13.6332 6.73482 13.6199 6.73887 13.6064 6.73872C13.5928 6.73857 13.5796 6.73422 13.5686 6.72629C13.5576 6.71835 13.5494 6.70721 13.545 6.69439C13.5405 6.68157 13.5402 6.6677 13.544 6.65468L13.7231 6.11738C13.7273 6.10438 13.7273 6.09039 13.7231 6.07739C13.7189 6.06439 13.7107 6.05304 13.6997 6.04493L13.2425 5.71283C13.2321 5.71297 13.2219 5.71064 13.2126 5.70602C13.2033 5.70141 13.1952 5.69464 13.1891 5.68628C13.1829 5.67793 13.1788 5.66823 13.1772 5.65798C13.1755 5.64774 13.1763 5.63725 13.1796 5.62738C13.1828 5.61752 13.1883 5.60856 13.1957 5.60125C13.203 5.59395 13.212 5.5885 13.2219 5.58538C13.2318 5.58225 13.2423 5.58152 13.2525 5.58326C13.2628 5.585 13.2724 5.58916 13.2807 5.59538H13.8459C13.8738 5.59538 13.8986 5.57738 13.9076 5.55038L14.0867 5.01353C14.0922 5.00389 14.1002 4.99584 14.1097 4.99015C14.1193 4.98446 14.1302 4.98133 14.1413 4.98106C14.1524 4.98079 14.1634 4.98339 14.1732 4.9886C14.1831 4.99381 14.1914 5.00147 14.1974 5.01083ZM12.0329 2.84858L12.212 3.38588C12.2162 3.3989 12.2244 3.41023 12.2355 3.41824C12.2466 3.42625 12.26 3.43052 12.2736 3.43043H12.8384C12.8519 3.43065 12.8651 3.43507 12.876 3.44309C12.8869 3.45111 12.8951 3.46232 12.8993 3.47518C12.9036 3.48804 12.9037 3.50191 12.8997 3.51485C12.8958 3.5278 12.8878 3.53919 12.8771 3.54743L12.4194 3.87998C12.4085 3.88806 12.4004 3.89934 12.3962 3.91224C12.392 3.92515 12.392 3.93904 12.396 3.95198L12.5751 4.48973C12.5793 4.50271 12.5792 4.51668 12.575 4.52962C12.5707 4.54256 12.5624 4.5538 12.5513 4.56173C12.5402 4.56985 12.5268 4.57423 12.513 4.57423C12.4993 4.57423 12.4859 4.56985 12.4748 4.56173L12.0176 4.23008C12.0064 4.2221 11.9931 4.2178 11.9793 4.2178C11.9656 4.2178 11.9523 4.2221 11.9411 4.23008L11.4839 4.56218C11.4808 4.57206 11.4754 4.58105 11.4682 4.58844C11.4609 4.59582 11.452 4.60137 11.4422 4.60464C11.4324 4.6079 11.422 4.60879 11.4117 4.60722C11.4015 4.60566 11.3918 4.60168 11.3834 4.59563C11.375 4.58958 11.3682 4.58161 11.3635 4.5724C11.3588 4.56319 11.3564 4.55299 11.3564 4.54265C11.3564 4.53231 11.3588 4.52211 11.3636 4.51291C11.3683 4.50371 11.3751 4.49577 11.3835 4.48973L11.5626 3.95243C11.5668 3.93947 11.5668 3.92553 11.5627 3.91255C11.5586 3.89957 11.5506 3.88819 11.5397 3.87998L11.0712 3.55148C11.0609 3.55155 11.0507 3.54916 11.0414 3.54449C11.0322 3.53983 11.0242 3.53303 11.0181 3.52466C11.012 3.51629 11.0079 3.50658 11.0063 3.49635C11.0047 3.48612 11.0056 3.47565 11.0088 3.46581C11.0121 3.45598 11.0176 3.44705 11.025 3.43978C11.0324 3.43251 11.0414 3.42709 11.0512 3.42399C11.0611 3.42088 11.0716 3.42017 11.0818 3.42192C11.092 3.42367 11.1017 3.42782 11.1099 3.43403H11.6747C11.7026 3.43403 11.7278 3.41603 11.7363 3.38903L11.9154 2.85218C11.9103 2.84239 11.9078 2.83146 11.9081 2.82041C11.9083 2.80937 11.9114 2.79857 11.917 2.78904C11.9226 2.77951 11.9305 2.77155 11.94 2.76591C11.9495 2.76027 11.9603 2.75713 11.9713 2.75679C11.9823 2.75645 11.9933 2.75892 12.0031 2.76397C12.0129 2.76902 12.0213 2.77648 12.0275 2.78565C12.0336 2.79483 12.0374 2.80541 12.0383 2.81642C12.0393 2.82743 12.0374 2.83849 12.0329 2.84858ZM9.0503 2.02958L9.2294 2.56688C9.2384 2.59343 9.26315 2.61143 9.2915 2.61143H9.85625C9.86451 2.60509 9.87417 2.60082 9.88441 2.59897C9.89466 2.59713 9.9052 2.59776 9.91516 2.60082C9.92511 2.60388 9.93419 2.60928 9.94163 2.61657C9.94907 2.62385 9.95466 2.63281 9.95793 2.6427C9.9612 2.65259 9.96205 2.66311 9.96043 2.6734C9.9588 2.68368 9.95473 2.69343 9.94857 2.70182C9.9424 2.71021 9.93432 2.71701 9.92499 2.72164C9.91566 2.72627 9.90536 2.7286 9.89495 2.72843L9.43595 3.05918C9.42512 3.06732 9.4171 3.07862 9.41299 3.09152C9.40888 3.10442 9.40888 3.11828 9.413 3.13118L9.5921 3.66893C9.59588 3.68195 9.59554 3.69582 9.59114 3.70864C9.58673 3.72146 9.57846 3.7326 9.56747 3.74054C9.55647 3.74847 9.5433 3.75282 9.52974 3.75297C9.51618 3.75312 9.50291 3.74907 9.49175 3.74138L9.03455 3.40928C9.02345 3.40117 9.01005 3.39679 8.9963 3.39679C8.98254 3.39679 8.96915 3.40117 8.95805 3.40928L8.50085 3.74138C8.48968 3.74907 8.47641 3.75312 8.46285 3.75297C8.4493 3.75282 8.43612 3.74847 8.42513 3.74054C8.41414 3.7326 8.40587 3.72146 8.40146 3.70864C8.39705 3.69582 8.39671 3.68195 8.4005 3.66893L8.5796 3.13163C8.58377 3.11863 8.58376 3.10464 8.57956 3.09164C8.57536 3.07864 8.56719 3.06729 8.5562 3.05918L8.099 2.72618C8.0765 2.70998 8.0675 2.68073 8.0765 2.65418C8.0807 2.6413 8.08881 2.63005 8.09969 2.62199C8.11058 2.61392 8.1237 2.60945 8.13725 2.60918H8.702C8.73035 2.60918 8.7551 2.59118 8.7641 2.56418L8.9432 2.02778C8.94922 2.01906 8.9573 2.01196 8.96673 2.00712C8.97615 2.00227 8.98663 1.99983 8.99723 2.00001C9.00783 2.00019 9.01822 2.00298 9.02747 2.00814C9.03673 2.0133 9.04457 2.02066 9.0503 2.02958Z" fill="#FFC911"/>
</g>
<defs>
<clipPath id="clip0_275_27088">
<rect width="18" height="18" fill="white"/>
</clipPath>
</defs>
</svg>
