<svg width="18" height="18" viewBox="0 0 18 18" fill="none" xmlns="http://www.w3.org/2000/svg">
<g clip-path="url(#clip0_275_27091)">
<path d="M17.3758 8.96158C17.3758 13.7605 13.4862 17.6497 8.68863 17.6497C3.89021 17.6497 0 13.7606 0 8.96158C0 4.16406 3.89021 0.273438 8.68863 0.273438C13.4862 0.273438 17.3758 4.16415 17.3758 8.96158Z" fill="black"/>
<path d="M10.2344 0.528989V1.37996L7.22234 3.38789H10.2344V5.9598H7.21083L10.2344 7.97538V8.96056H8.74821L5.0904 6.52286V8.96047H2.51858V6.52286L0.156537 8.09709C0.127628 8.38395 0.113191 8.67208 0.113282 8.96039C0.113282 13.6958 3.95259 17.5342 8.68777 17.5342C13.4222 17.5342 17.2608 13.6958 17.2608 8.96039C17.2608 4.75398 14.2304 1.25743 10.2344 0.528989H10.2344ZM4.68597 15.1351L3.80473 14.2088L2.92424 15.1351L3.09891 13.8688L1.82616 13.7583L2.92498 13.1057L2.21751 12.0409L3.41403 12.4936L3.80473 11.277L4.19699 12.4936L5.39236 12.0409L4.6849 13.1057L5.7838 13.7583L4.51146 13.8688L4.68613 15.1351H4.68597ZM13.8833 8.81845L13.4524 8.36509L13.0215 8.81845L13.1092 8.19873L12.4853 8.14429L13.0235 7.82563L12.6779 7.30549L13.2609 7.52712L13.4524 6.93173L13.6443 7.52712L14.2276 7.30549L13.8825 7.82563L14.4211 8.14429L13.7967 8.19873L13.8833 8.81845ZM8.68761 0.386722C7.44533 0.385596 6.21774 0.655371 5.0904 1.17725V2.83165L8.75701 0.388449C8.73317 0.388038 8.71063 0.386722 8.68761 0.386722Z" fill="#004990"/>
<path d="M6.41892 3.92585H10.2345V3.39025H7.22252L6.41892 3.92585ZM4.55481 6.16823V8.96283H5.09066V6.52522L4.55481 6.16823ZM7.21101 5.96215H10.2345V5.42631H6.40741L7.21101 5.96215ZM5.09066 2.83409V1.17969C4.90919 1.26391 4.73048 1.35395 4.55481 1.44967V3.19165L5.09066 2.83409ZM3.05493 2.50203C2.90674 2.63089 2.76118 2.76378 2.62212 2.90325L3.05493 3.19165V2.50203ZM0.877505 5.42631C0.831734 5.52687 0.787922 5.62831 0.746094 5.73058L1.20233 5.42631H0.877505ZM2.51867 6.52522V8.96283H3.05493V6.16823L2.51867 6.52522Z" fill="white"/>
<path d="M6.40702 5.42613H4.55443V6.16805L5.09027 6.52495L8.74809 8.96265H10.2341V8.93814L5.76024 5.96197H6.77832L10.2342 8.26102V7.97755L7.21063 5.96197L6.40702 5.42613ZM3.05454 3.19147L2.62174 2.90307C2.30423 3.21943 2.01468 3.56219 1.75079 3.92567H3.05454V3.19147ZM4.55443 3.19147V3.92567H6.41854L7.22214 3.39007L10.2342 1.38213V0.531165C10.1786 0.520803 10.1242 0.510277 10.0683 0.501313L5.72447 3.39007H5.09019V3.13432L9.19455 0.405263C9.04899 0.396628 8.90261 0.391859 8.75681 0.390625L5.09019 2.83383L4.55435 3.19147H4.55443ZM3.05454 6.16805V5.42613H1.20195L0.745711 5.7304C0.583089 6.12931 0.451076 6.54003 0.350818 6.95899L1.84996 5.96197H2.51829V6.1947L0.202219 7.73521C0.18419 7.8562 0.168863 7.97758 0.15625 8.09926L2.51829 6.52495L3.05454 6.16797V6.16805Z" fill="white"/>
<path d="M3.05633 5.42586V8.96238H4.55621V5.42586H10.2359V3.9254H4.55621V1.44922C4.0201 1.74543 3.51727 2.09823 3.05633 2.50158V3.9254H1.75257C1.411 4.39449 1.11826 4.89726 0.878906 5.42586H3.05633Z" fill="#FF513B"/>
<path d="M5.76107 5.96109L10.2351 8.93726V8.26013L6.77906 5.96109H5.76107ZM5.09118 3.38918H5.72546L10.0691 0.500512C9.77979 0.453285 9.4882 0.42117 9.19553 0.404297L5.09118 3.13352V3.38918ZM2.51919 5.96109H1.85087L0.351724 6.95802C0.29087 7.21295 0.241035 7.47133 0.203125 7.73441L2.51919 6.19381V5.96109Z" fill="#FF513B"/>
<path d="M4.68491 13.1076L5.39238 12.0428L4.19701 12.4955L3.80475 11.2788L3.41413 12.4955L2.21761 12.0428L2.925 13.1076L1.82617 13.7602L3.09892 13.8707L2.92426 15.137L3.80475 14.2107L4.68614 15.137L4.51148 13.8707L5.78382 13.7602L4.68491 13.1076ZM13.8826 7.82757L14.2277 7.30735L13.6444 7.52898L13.4525 6.93359L13.261 7.52898L12.678 7.30735L13.0236 7.82749L12.4854 8.14615L13.1093 8.20059L13.0216 8.82031L13.4525 8.36695L13.8834 8.82031L13.7968 8.20059L14.4211 8.14615L13.8826 7.82757Z" fill="white"/>
</g>
<defs>
<clipPath id="clip0_275_27091">
<rect width="17.4545" height="17.4545" fill="white" transform="translate(0 0.273438)"/>
</clipPath>
</defs>
</svg>
