<svg width="24" height="24" viewBox="0 0 24 24" fill="none" xmlns="http://www.w3.org/2000/svg">
<path d="M11.825 2.03111C11.9414 2.02088 12.0586 2.02088 12.175 2.03111C12.308 2.04311 12.436 2.07111 12.537 2.09411L12.564 2.10011L19.991 3.75011C20.191 3.79511 20.391 3.84011 20.559 3.89011C20.747 3.94611 20.961 4.02811 21.169 4.17811C21.4636 4.39025 21.6948 4.67855 21.838 5.01211C21.939 5.24811 21.973 5.47511 21.988 5.67011C22 5.84611 22 6.05011 22 6.25511V7.43111C22 7.68311 22 7.92911 21.983 8.13711C21.9677 8.40456 21.8993 8.66629 21.782 8.90711C21.5903 9.28342 21.2843 9.58937 20.908 9.78111C20.6672 9.89845 20.4054 9.96678 20.138 9.98211C20.094 9.98611 20.048 9.98911 20 9.99111V16.0071C20.048 16.0101 20.094 16.0121 20.138 16.0161C20.367 16.0351 20.637 16.0791 20.908 16.2171C21.2843 16.4089 21.5903 16.7148 21.782 17.0911C21.92 17.3621 21.964 17.6321 21.983 17.8611C22 18.0691 22 18.3151 22 18.5671V19.4311C22 19.6831 22 19.9291 21.983 20.1371C21.9677 20.4046 21.8993 20.6663 21.782 20.9071C21.5903 21.2834 21.2843 21.5894 20.908 21.7811C20.6672 21.8985 20.4054 21.9668 20.138 21.9821C19.903 21.9969 19.6675 22.0025 19.432 21.9991H4.568C4.316 21.9991 4.07 21.9991 3.862 21.9821C3.59455 21.9668 3.33282 21.8985 3.092 21.7811C2.71569 21.5894 2.40974 21.2834 2.218 20.9071C2.10065 20.6663 2.03233 20.4046 2.017 20.1371C2 19.9291 2 19.6831 2 19.4311V18.5671C2 18.3151 2 18.0691 2.017 17.8611C2.036 17.6321 2.08 17.3631 2.218 17.0911C2.40974 16.7148 2.71569 16.4089 3.092 16.2171C3.3328 16.0997 3.59454 16.0314 3.862 16.0161C3.906 16.0121 3.952 16.0101 4 16.0071V9.99111C3.95395 9.9889 3.90795 9.9859 3.862 9.98211C3.59455 9.9668 3.33281 9.89848 3.092 9.78111C2.71569 9.58937 2.40974 9.28342 2.218 8.90711C2.10065 8.66629 2.03233 8.40456 2.017 8.13711C2 7.92911 2 7.68311 2 7.43111V6.28211V6.25511C2 6.05011 2 5.84511 2.013 5.67011C2.027 5.47511 2.061 5.24811 2.163 5.01211C2.30591 4.67867 2.53682 4.39038 2.831 4.17811C3.039 4.02811 3.253 3.94611 3.441 3.89011C3.61 3.84011 3.809 3.79511 4.009 3.75011L4.036 3.74411L11.436 2.10011L11.463 2.09411C11.564 2.07111 11.692 2.04311 11.825 2.03111ZM6 9.99911V15.9991H8.5V9.99911H6ZM4.6 7.99911H19.4C19.5964 8.0025 19.7929 7.99883 19.989 7.98811V7.97411C20 7.85911 20 7.69611 20 7.39911V6.28211C20.0025 6.12406 19.9998 5.96598 19.992 5.80811L19.983 5.80511C19.8332 5.76434 19.6821 5.72832 19.53 5.69711L12.13 4.05211C12.0874 4.04264 12.0448 4.03364 12.002 4.02511H11.998C11.9552 4.03364 11.9126 4.04264 11.87 4.05211L4.47 5.69711C4.31486 5.7288 4.16078 5.76549 4.008 5.80711V5.81711C4.00044 5.97199 3.99777 6.12706 4 6.28211V7.39911C3.9966 7.59551 4.00027 7.79197 4.011 7.98811H4.025C4.14 7.99911 4.303 7.99911 4.6 7.99911ZM10.5 9.99911V15.9991H13.5V9.99911H10.5ZM15.5 9.99911V15.9991H18V9.99911H15.5ZM4.6 17.9991C4.40359 17.9961 4.20713 18.0001 4.011 18.0111V18.0241C4 18.1391 4 18.3031 4 18.5991V19.3991C3.9966 19.5955 4.00027 19.792 4.011 19.9881H4.025C4.141 19.9981 4.303 19.9991 4.6 19.9991H19.4C19.697 19.9991 19.859 19.9991 19.975 19.9891L19.989 19.9881V19.9741C19.999 19.8581 20 19.6951 20 19.3991V18.5991C20.003 18.403 19.999 18.2069 19.988 18.0111L19.975 18.0091C19.7835 17.9991 19.5917 17.9957 19.4 17.9991H4.6Z" fill="#333333"/>
</svg>
