<svg width="18" height="18" viewBox="0 0 18 18" fill="none" xmlns="http://www.w3.org/2000/svg">
<g clip-path="url(#clip0_275_27100)">
<path d="M8.99973 0.0928878C4.31428 0.0928878 0.496094 3.91107 0.496094 8.59652C0.496094 13.2825 4.31428 17.1007 8.99973 17.1007C13.6852 17.1007 17.5034 13.2825 17.5034 8.59707C17.5034 3.90998 13.7725 0.0917969 8.99973 0.0917969" fill="#FAFAFA"/>
<path d="M13.1654 1.18945V16.1147C14.4865 15.3686 15.5849 14.284 16.3476 12.9723C17.1102 11.6607 17.5096 10.1696 17.5045 8.65236C17.5912 5.44127 15.7689 2.66436 13.1654 1.18945ZM12.2109 7.35036C11.0829 7.52382 10.9961 7.69782 10.9961 6.91673C10.6492 7.26364 10.2151 7.958 9.95487 8.13145C9.78142 8.30491 9.69469 8.13145 9.78142 8.04473C9.78142 7.95745 10.3885 6.74327 10.3885 6.13563C9.78142 6.56927 9.52123 6.30909 8.9136 4.92091C8.39269 6.22236 8.04578 6.48254 7.43814 6.13563C7.52542 6.83 8.04578 7.95745 8.04578 8.04473C8.04578 8.132 8.04578 8.30491 7.87232 8.132C7.61214 7.95745 7.17796 7.17745 6.83051 6.91673C6.91778 7.69782 6.74433 7.52382 5.61578 7.35036C5.70305 8.21818 6.04996 8.56564 5.3556 8.73909C7.00451 10.214 7.09123 10.3007 6.4836 10.9951C7.7856 10.8216 8.56669 10.4747 8.56669 10.4747C8.65342 10.4747 8.65342 10.5615 8.65342 10.5615V12.5573H9.17378V10.5609C9.17378 10.4747 9.17378 10.3875 9.26105 10.4747C9.26105 10.4747 9.95487 10.8216 11.3431 10.9951C10.736 10.3875 10.8227 10.214 12.4716 8.73909C11.864 8.56564 12.1241 8.21818 12.2109 7.35036ZM4.83523 1.18945V16.1147C3.51414 15.3686 2.41573 14.284 1.65308 12.9723C0.890424 11.6607 0.491078 10.1696 0.496143 8.65236C0.490981 7.13506 0.890281 5.64379 1.65294 4.33207C2.4156 3.02036 3.51406 1.9356 4.83523 1.18945Z" fill="#FF513B"/>
</g>
<defs>
<clipPath id="clip0_275_27100">
<rect width="18" height="17.4545" fill="white"/>
</clipPath>
</defs>
</svg>
