<svg width="18" height="18" viewBox="0 0 18 18" fill="none" xmlns="http://www.w3.org/2000/svg">
<g clip-path="url(#clip0_275_27110)">
<path d="M8.87804 5.41133H16.6537C16.4664 4.96519 16.2445 4.53848 15.9875 4.13539H8.87743V5.41133H8.87804ZM14.9207 14.6811H2.53471C3.00022 15.1636 3.51909 15.5921 4.08464 15.957H13.3684C13.9363 15.5921 14.4552 15.1636 14.9207 14.6811ZM8.87804 2.77398H14.9201C14.4546 2.29148 13.9357 1.86294 13.3702 1.49805H8.87802L8.87804 2.77398ZM8.87804 8.04625H17.2926C17.258 7.61164 17.1919 7.18552 17.0956 6.77031H8.87802L8.87804 8.04625ZM17.2913 9.40886H0.164062C0.198614 9.84347 0.264682 10.2696 0.361074 10.6848H17.0943C17.1907 10.2702 17.2586 9.84345 17.2914 9.40886H17.2913ZM16.6543 12.0444H0.801153C0.988466 12.4905 1.2103 12.9172 1.46731 13.3203H15.9881C16.2452 12.9166 16.467 12.4899 16.6543 12.0444Z" fill="white"/>
<path d="M13.3704 1.49961C12.0696 0.663733 10.5312 0.167898 8.87828 0.140625V1.49961H13.3704ZM8.87828 4.13695H15.9902C15.6792 3.64839 15.3222 3.19076 14.9228 2.77614H8.8807V4.13695H8.87828ZM8.87828 6.77368H17.0964C16.9861 6.30452 16.8394 5.84869 16.6563 5.41287H8.87828V6.77368ZM8.87828 9.41042H17.2928C17.3104 9.18675 17.3201 8.95885 17.3201 8.7291C17.3201 8.49937 17.3104 8.27327 17.2928 8.04777H8.87828V9.41039V9.41042ZM17.0946 10.6845H0.361328C0.471646 11.1537 0.618339 11.6095 0.801391 12.0453H16.6539C16.8376 11.6095 16.9843 11.1561 17.0946 10.6845ZM15.9884 13.3219H1.46754C1.77849 13.8104 2.13552 14.2681 2.53496 14.6827H14.921C15.3204 14.2675 15.6774 13.8123 15.9884 13.3219ZM13.3704 15.9586H4.08549C5.41962 16.8157 7.00408 17.3158 8.70492 17.3194H8.74735C10.4518 17.3158 12.0369 16.8157 13.3704 15.9586Z" fill="#FF513B"/>
<path d="M8.87785 8.04571V0.138526C8.83542 0.138526 8.79298 0.136719 8.75057 0.136719H8.70815C7.62133 0.138526 6.58057 0.343429 5.62529 0.715582L5.70046 0.948952H6.08294L5.772 1.17504L5.88959 1.53993L5.57865 1.31384L5.26771 1.53993L5.38529 1.17504L5.07615 0.948952C3.49048 1.69633 2.16786 2.91467 1.29136 4.42399L1.36834 4.66161H1.75263L1.44228 4.8877L1.5617 5.25259L1.25076 5.0265L0.939815 5.25259L1.05741 4.8877L1.04591 4.8798C0.663423 5.64053 0.391276 6.46488 0.250651 7.33348L0.287639 7.44562H0.671929L0.360986 7.67171L0.480406 8.03661L0.185213 7.82204C0.15431 8.11904 0.136719 8.42212 0.136719 8.72763C0.136719 8.95735 0.146418 9.18346 0.164009 9.40895H8.87795V8.04572L8.87785 8.04571ZM1.56167 8.9628L1.25072 8.73671L0.939781 8.9628L1.05738 8.59791L0.746435 8.37182H1.13072L1.2483 8.00693L1.36772 8.37182H1.75201L1.44107 8.59791L1.5617 8.9628H1.56167ZM1.44225 6.74066L1.56167 7.10555L1.25072 6.87946L0.93794 7.10737L1.05554 6.74248L0.744594 6.51639H1.12888L1.24646 6.1515L1.36588 6.51639H1.75017L1.44225 6.74066ZM2.52484 7.66928L2.64242 8.03417L2.33147 7.80808L2.02053 8.03417L2.13813 7.66928L1.82718 7.44318H2.21147L2.33089 7.07829L2.45032 7.44318H2.83461L2.52486 7.66928H2.52484ZM2.52484 5.81386L2.64242 6.17875L2.33207 5.95326L2.02113 6.17875L2.13871 5.81386L1.82776 5.58777H2.21205L2.33147 5.22288L2.45089 5.58777H2.83518L2.52484 5.81386ZM2.52484 3.95724L2.64242 4.32213L2.33207 4.09604L2.02113 4.32213L2.13871 3.95724L1.82776 3.73114H2.21205L2.33207 3.36625L2.45149 3.73114H2.83578L2.52484 3.95724ZM3.72561 8.9628L3.41466 8.73671L3.10372 8.9628L3.22314 8.59791L2.9122 8.37182H3.29649L3.41407 8.00693L3.53166 8.37182H3.91595L3.60501 8.59791L3.72564 8.9628H3.72561ZM3.6062 6.74066L3.72562 7.10555L3.41468 6.87946L3.10374 7.10737L3.22316 6.74248L2.91221 6.51639H3.2965L3.41408 6.1515L3.53168 6.51639H3.91597L3.60622 6.74066H3.6062ZM3.6062 4.88586L3.72562 5.25075L3.41468 5.02466L3.10374 5.25075L3.22316 4.88586L2.91221 4.65976H3.2965L3.41408 4.29487L3.53168 4.65976H3.91597L3.60622 4.88586H3.6062ZM3.6062 3.03044L3.72562 3.39533L3.41468 3.16924L3.10374 3.39533L3.22316 3.03044L2.91221 2.80435H3.2965L3.41408 2.43946L3.53168 2.80435H3.91597L3.60622 3.03044H3.6062ZM4.68937 7.66928L4.80879 8.03417L4.49785 7.80808L4.18507 8.03417L4.30449 7.66928L3.99354 7.44318H4.37783L4.49543 7.07829L4.61485 7.44318H4.99914L4.68939 7.66928H4.68937ZM4.68937 5.81386L4.80879 6.17875L4.49785 5.95266L4.18691 6.17875L4.30633 5.81386L3.99538 5.58777H4.37967L4.49727 5.22288L4.61669 5.58777H5.00098L4.68942 5.81386H4.68937ZM4.68937 3.95724L4.80879 4.32213L4.49785 4.09604L4.18691 4.32213L4.30633 3.95724L3.99538 3.73114H4.37967L4.49727 3.36625L4.61669 3.73114H5.00098L4.68942 3.95724H4.68937ZM4.68937 2.10184L4.80879 2.46673L4.49785 2.24064L4.18691 2.46673L4.30633 2.10184L3.99354 1.87575H4.37783L4.49603 1.51145L4.61545 1.87634H4.99974L4.68939 2.10184H4.68937ZM5.88956 8.9628L5.57862 8.73671L5.26767 8.9628L5.38525 8.59791L5.07431 8.37182H5.4586L5.57802 8.00693L5.69744 8.37182H6.08173L5.77079 8.59791L5.88959 8.9628H5.88956ZM5.77195 6.74066L5.88954 7.10737L5.5786 6.88128L5.26766 7.10737L5.38525 6.74248L5.07431 6.51639H5.4586L5.57802 6.1515L5.69744 6.51639H6.08173L5.77198 6.74066H5.77195ZM5.77195 4.88586L5.88954 5.25075L5.5786 5.02466L5.26766 5.25075L5.38525 4.88586L5.07431 4.65976H5.4586L5.57802 4.29487L5.69744 4.65976H6.08173L5.77198 4.88586H5.77195ZM5.77195 3.03044L5.88954 3.39533L5.5786 3.16924L5.26766 3.39533L5.38525 3.03044L5.07431 2.80435H5.4586L5.57802 2.43946L5.69744 2.80435H6.08173L5.77198 3.03044H5.77195ZM6.85331 7.66928L6.97089 8.03417L6.66175 7.80808L6.35081 8.03417L6.47023 7.66928L6.15929 7.44318H6.54358L6.663 7.07829L6.78058 7.44318H7.16487L6.85331 7.66928ZM6.85331 5.81386L6.97089 6.17875L6.66175 5.95266L6.35081 6.17875L6.46839 5.81386L6.15745 5.58777H6.54174L6.66116 5.22288L6.77874 5.58777H7.16303L6.85328 5.81386H6.85331ZM6.85331 3.95724L6.97089 4.32213L6.66175 4.09846L6.35081 4.32455L6.47023 3.95966L6.15929 3.73357H6.54358L6.663 3.36867L6.78058 3.73357H7.16487L6.85331 3.95724ZM6.85331 2.10184L6.97089 2.46673L6.66175 2.24064L6.35081 2.46673L6.47023 2.10184L6.15745 1.87575H6.54174L6.66116 1.51086L6.77874 1.87575H7.16303L6.85328 2.10184H6.85331ZM8.0559 8.9628L7.74312 8.73671L7.43217 8.9628L7.54975 8.59791L7.24062 8.37H7.62491L7.7425 8.00511L7.86192 8.37H8.24621L7.93527 8.59791L8.0559 8.9628ZM7.9359 6.74066L8.05532 7.10555L7.74254 6.88188L7.43159 7.10797L7.54917 6.74308L7.24004 6.51516H7.62433L7.74192 6.15027L7.86134 6.51516H8.24563L7.93588 6.74066H7.9359ZM7.9359 4.88586L8.05532 5.25075L7.74254 5.02466L7.43159 5.25075L7.54917 4.88586L7.24004 4.65976H7.62433L7.74192 4.29487L7.86134 4.65976H8.24563L7.93588 4.88586H7.9359ZM7.9359 3.03044L8.05532 3.39533L7.74254 3.16924L7.43159 3.39533L7.54917 3.03044L7.24004 2.80435H7.62433L7.74192 2.43946L7.86134 2.80435H8.24563L7.93588 3.03044H7.9359ZM7.9359 1.17503L8.05532 1.53992L7.74254 1.31383L7.43159 1.53992L7.54917 1.17503L7.24004 0.948935H7.62433L7.74192 0.582219L7.86134 0.947111H8.24563L7.93588 1.17503H7.9359Z" fill="#223BAE"/>
<path d="M5.5223 0.755859C5.37156 0.816163 5.22277 0.881253 5.07617 0.95103H5.45865L5.5223 0.755859Z" fill="#223BAE"/>
<path d="M5.26858 1.5411L5.57952 1.31501L5.89046 1.5411L5.77287 1.17621L6.08381 0.950121H5.69952L5.62375 0.716751C5.59101 0.730098 5.55828 0.741604 5.52555 0.755547L5.46191 0.950717H5.07942L5.39037 1.17681L5.26853 1.5411H5.26858ZM7.74349 0.583984L7.62591 0.9507H7.24162L7.55257 1.17679L7.43315 1.54168L7.74409 1.31559L8.05687 1.54168L7.93745 1.17679L8.24839 0.9507H7.86411L7.74347 0.583984H7.74349ZM4.61577 1.8769L4.49635 1.5126L4.37875 1.8775H3.99446L4.30541 2.10359L4.18599 2.4703L4.49693 2.24239L4.80971 2.4703L4.69029 2.10359L5.00124 1.8775H4.61572V1.8769H4.61577ZM6.78032 1.8769L6.66274 1.51201L6.54332 1.8769H6.15903L6.46997 2.10299L6.35238 2.46971L6.66332 2.24179L6.97426 2.46971L6.85484 2.10299L7.16763 1.8769H6.78032ZM3.4156 2.4388L3.29618 2.80552H2.91189L3.22283 3.03161L3.10525 3.3965L3.4162 3.17041L3.72714 3.3965L3.60772 3.03161L3.91866 2.80552H3.53437L3.41557 2.4388H3.4156ZM5.57955 2.4388L5.46196 2.80552H5.07767L5.3868 3.03161L5.26921 3.3965L5.58015 3.17041L5.89109 3.3965L5.7735 3.03161L6.08444 2.80552H5.70015L5.57952 2.4388H5.57955ZM7.74349 2.4388L7.62591 2.80552H7.24162L7.55257 3.03161L7.43315 3.3965L7.74409 3.17041L8.05687 3.3965L7.93745 3.03161L8.24839 2.80552H7.86411L7.74347 2.4388H7.74349ZM2.45182 3.73233L2.33239 3.36744L2.21297 3.73233H1.82868L2.13963 3.95842L2.02143 4.32514L2.33238 4.09905L2.64332 4.32514L2.52574 3.95842L2.83668 3.73233H2.45178H2.45182ZM4.61577 3.73233L4.49635 3.36744L4.37875 3.73233H3.99446L4.30541 3.95842L4.18539 4.32514L4.49633 4.09905L4.80912 4.32514L4.6897 3.95842L5.00064 3.73233H4.61574H4.61577ZM6.78032 3.73233L6.66274 3.36744L6.54332 3.73233H6.15903L6.46997 3.95842L6.35238 4.32514L6.66332 4.09905L6.97426 4.32514L6.85484 3.95842L7.16763 3.73233H6.78032ZM0.938281 5.25132L1.24922 5.02523L1.56017 5.25132L1.44075 4.88643L1.75169 4.66034H1.3674L1.28981 4.42334C1.20313 4.57185 1.12189 4.72458 1.04492 4.87675L1.05642 4.88464L0.93823 5.25135L0.938281 5.25132ZM3.4156 4.29422L3.29618 4.66093H2.91189L3.22283 4.88702L3.10525 5.25192L3.4162 5.02582L3.72714 5.25192L3.60772 4.88702L3.91866 4.66093H3.53437L3.41557 4.29422H3.4156ZM5.57955 4.29422L5.46196 4.66093H5.07767L5.3868 4.88702L5.26921 5.25192L5.58015 5.02582L5.89109 5.25192L5.7735 4.88702L6.08444 4.66093H5.70015L5.57952 4.29422H5.57955ZM7.74349 4.29422L7.62591 4.66093H7.24162L7.55257 4.88702L7.43315 5.25192L7.74409 5.02582L8.05687 5.25192L7.93745 4.88702L8.24839 4.66093H7.86411L7.74347 4.29422H7.74349ZM2.45182 5.58955L2.33239 5.22284L2.21297 5.58955H1.82868L2.13963 5.81564L2.02143 6.17994L2.33238 5.95385L2.64332 6.17994L2.52574 5.81505L2.83668 5.58896H2.45178V5.58955H2.45182ZM4.61577 5.58955L4.49635 5.22284L4.37875 5.58955H3.99446L4.30541 5.81564L4.18539 6.17994L4.49633 5.95385L4.80912 6.17994L4.6897 5.81505L5.00064 5.58896H4.61574V5.58955H4.61577ZM6.78032 5.58955L6.66274 5.22284L6.54332 5.58955H6.15903L6.46997 5.81564L6.35238 6.18053L6.66332 5.95444L6.97426 6.18053L6.85484 5.81564L7.16763 5.58955H6.78032ZM1.24922 6.15146L1.13164 6.51635H0.747355L1.0583 6.74244L0.938878 7.10915L1.24982 6.88306L1.56261 7.10915L1.44318 6.74244L1.75413 6.51635H1.36984L1.24922 6.15146ZM3.4156 6.15146L3.29618 6.51635H2.91189L3.22283 6.74244L3.10525 7.10915L3.4162 6.88306L3.72714 7.10915L3.60772 6.74244L3.91866 6.51635H3.53437L3.41557 6.15146H3.4156ZM5.57955 6.15146L5.46196 6.51635H5.07767L5.3868 6.74244L5.26921 7.10915L5.58015 6.88306L5.89109 7.10915L5.7735 6.74244L6.08444 6.51635H5.70015L5.57952 6.15146H5.57955ZM7.74349 6.15146L7.62591 6.51635H7.24162L7.55257 6.74244L7.43315 7.10915L7.74409 6.88306L8.05687 7.10915L7.93745 6.74244L8.24839 6.51635H7.86411L7.74347 6.15146H7.74349ZM0.479435 8.03535L0.360014 7.67046L0.670957 7.44437H0.286054L0.249065 7.33223C0.221776 7.49469 0.200571 7.65652 0.183594 7.82078L0.479401 8.03535H0.479435ZM2.45182 7.44435L2.33239 7.07764L2.21297 7.44435H1.82868L2.13963 7.67044L2.02205 8.03534L2.33299 7.80925L2.64393 8.03534L2.52636 7.67044L2.8373 7.44435H2.45178H2.45182ZM4.61577 7.44435L4.49635 7.07764L4.37875 7.44435H3.99446L4.30541 7.67044L4.18599 8.03534L4.49693 7.80925L4.80971 8.03534L4.69029 7.67044L5.00124 7.44435H4.61572H4.61577ZM6.78032 7.44435L6.66274 7.07764L6.54332 7.44435H6.15903L6.46997 7.67044L6.35238 8.03534L6.66332 7.80925L6.97426 8.03534L6.85484 7.67044L7.16763 7.44435H6.78032ZM1.36924 8.37115L1.24982 8.00626L1.13224 8.37115H0.747952L1.05889 8.59906L0.939474 8.96395L1.25042 8.73786L1.5632 8.96395L1.44378 8.59906L1.75472 8.37115H1.36921H1.36924ZM3.5332 8.37115L3.4156 8.00626L3.29618 8.37115H2.91189L3.22283 8.59906L3.10525 8.96395L3.4162 8.73786L3.72714 8.96395L3.60772 8.59906L3.91866 8.37115H3.53314H3.5332ZM5.69896 8.37115L5.57954 8.00626L5.46194 8.37115H5.07765L5.38679 8.59906L5.26921 8.96395L5.58015 8.73786L5.89109 8.96395L5.7735 8.59906L6.08444 8.37115H5.69892H5.69896ZM7.8629 8.37115L7.74347 8.00626L7.6259 8.37115H7.24161L7.55255 8.59906L7.43313 8.96395L7.74407 8.73786L8.05686 8.96395L7.93743 8.59906L8.24838 8.37115H7.86286H7.8629Z" fill="white"/>
</g>
<defs>
<clipPath id="clip0_275_27110">
<rect width="17.4545" height="17.4545" fill="white"/>
</clipPath>
</defs>
</svg>
